;TYPE=PLATED
;Layer: PTH_Through
;EasyEDA Pro Client v3.2.149.88089769, 2026-09-14 11:30:23
;Gerber Generator version 0.3
M48
METRIC,LZ,0000.00000
;Hole size 1 = 0.80000 METRIC
T01C0.80000
;Hole size 2 = 0.90002 METRIC
T02C0.90002
;Hole size 3 = 1.00000 METRIC
T03C1.00000
;Hole size 4 = 1.10002 METRIC
T04C1.10002
;Hole size 5 = 1.20000 METRIC
T05C1.20000
%
G05
G90
T01
X-182.13779Y26.67
X-171.93821Y26.67
X-182.13779Y29.718
X-171.93821Y29.718
T02
X-209.25587Y21.336
X-206.7557Y21.336
X-204.25583Y21.336
X-198.3762Y21.336
X-195.87603Y21.336
X-193.37616Y21.336
X-187.49653Y21.336
X-184.99636Y21.336
X-182.49649Y21.336
X-176.74387Y21.336
X-174.2437Y21.336
X-171.74383Y21.336
X-164.846Y28.53487
X-164.846Y26.0347
X-164.846Y23.53483
X-164.846Y17.86687
X-164.846Y15.3667
X-164.846Y12.86683
X-164.846Y-12.61313
X-164.846Y-15.1133
X-164.846Y-17.61317
X-169.418Y-23.28113
X-169.418Y-25.7813
X-169.418Y-28.28117
X-175.8442Y-23.28113
X-175.8442Y-25.7813
X-175.8442Y-28.28117
X-182.2704Y-23.28113
X-182.2704Y-25.7813
X-182.2704Y-28.28117
X-188.6966Y-23.28113
X-188.6966Y-25.7813
X-188.6966Y-28.28117
X-195.1228Y-23.28113
X-195.1228Y-25.7813
X-195.1228Y-28.28117
X-201.549Y-23.28113
X-201.549Y-25.7813
X-201.549Y-28.28117
X-207.772Y-16.42313
X-207.772Y-18.9233
X-207.772Y-21.42317
X-207.772Y-5.37413
X-207.772Y-7.8743
X-207.772Y-10.37417
X-207.772Y5.67487
X-207.772Y3.1747
X-207.772Y0.67483
T03
X-158.242Y-24.5364
X-160.782Y-24.5364
X-158.242Y-21.9964
X-160.782Y-21.9964
X-158.242Y-19.4564
X-160.782Y-19.4564
X-158.242Y-16.9164
X-160.782Y-16.9164
X-158.242Y-14.3764
X-160.782Y-14.3764
X-158.242Y-11.8364
X-160.782Y-11.8364
X-158.242Y-9.2964
X-160.782Y-9.2964
X-158.242Y-6.7564
X-160.782Y-6.7564
X-158.242Y-4.2164
X-160.782Y-4.2164
X-158.242Y-1.6764
X-160.782Y-1.6764
X-158.242Y0.8636
X-160.782Y0.8636
X-158.242Y3.4036
X-160.782Y3.4036
X-158.242Y5.9436
X-160.782Y5.9436
X-158.242Y8.4836
X-160.782Y8.4836
X-158.242Y11.0236
X-160.782Y11.0236
X-158.242Y13.5636
X-160.782Y13.5636
X-158.242Y16.1036
X-160.782Y16.1036
X-158.242Y18.6436
X-160.782Y18.6436
X-158.242Y21.1836
X-160.782Y21.1836
X-158.242Y23.7236
X-160.782Y23.7236
T04
X-208.788Y14.33195
X-208.788Y11.83005
X-201.93Y27.07099
X-201.93Y29.57101
T05
X-165.1Y6.858
X-165.1Y4.318
X-165.1Y1.778
X-165.1Y-0.762
X-165.1Y-3.302
X-165.1Y-5.842
X-192.74599Y28.448
X-187.746Y28.448
M30