G04 Layer: TopSilkscreenLayer*
G04 EasyEDA Pro v3.2.149.88089769, 2026-09-14 11:30:23*
G04 Gerber Generator version 0.3*
G04 Scale: 100 percent, Rotated: No, Reflected: No*
G04 Dimensions in millimeters*
G04 Leading zeros omitted, absolute positions, 4 integers and 5 decimals*
G04 Generated by one-click*
G04 Object Configs: Pad,Via,Track,Text,Image,Dimension,BoardOutline,BoardCutout,CopperFilled,SolidRegion,FPCStiffener,Line,PlaneZone,ComponentProperty,ComponentSilkscreen,TearDrop*
G04 Layer Configs: 1,2,3,4,5,6,7,8,9,10,11,13,14,56*
G04 Copper Areas: 0*
%FSLAX45Y45*%
%MOMM*%
%ADD10C,0.1524*%
%ADD11C,0.2032*%
%ADD12C,0.254*%
%ADD13C,0.0624*%
G75*


G04 Image Start*
G36*
G01X-19789822Y1254885D02*
G01X-19791941Y1254356D01*
G01X-19794059Y1253827D01*
G01X-19798567Y1253827D01*
G01X-19799802Y1254287D01*
G01X-19801037Y1254746D01*
G01X-19802717Y1256124D01*
G01X-19804396Y1257502D01*
G01X-19806188Y1260226D01*
G01X-19806362Y1262918D01*
G01X-19806537Y1265610D01*
G01X-19807241Y1286595D01*
G01X-19807800Y1292714D01*
G01X-19808359Y1298833D01*
G01X-19808620Y1299065D01*
G01X-19811286Y1296917D01*
G01X-19813952Y1294768D01*
G01X-19816672Y1292810D01*
G01X-19819391Y1290851D01*
G01X-19821204Y1290098D01*
G01X-19823016Y1289345D01*
G01X-19825218Y1289342D01*
G01X-19827419Y1289339D01*
G01X-19829095Y1289848D01*
G01X-19830771Y1290356D01*
G01X-19832396Y1291629D01*
G01X-19834020Y1292902D01*
G01X-19834247Y1293824D01*
G01X-19834475Y1294746D01*
G01X-19836250Y1296231D01*
G01X-19836250Y1300198D01*
G01X-19835081Y1303705D01*
G01X-19834253Y1305158D01*
G01X-19833425Y1306611D01*
G01X-19832547Y1307418D01*
G01X-19831669Y1308225D01*
G01X-19828306Y1310958D01*
G01X-19824944Y1313692D01*
G01X-19823980Y1314223D01*
G01X-19823016Y1314754D01*
G01X-19819572Y1317578D01*
G01X-19816128Y1320402D01*
G01X-19814522Y1322107D01*
G01X-19814501Y1325335D01*
G01X-19815902Y1328887D01*
G01X-19817304Y1332438D01*
G01X-19818816Y1335989D01*
G01X-19820327Y1339540D01*
G01X-19822951Y1344706D01*
G01X-19825101Y1348580D01*
G01X-19827251Y1352454D01*
G01X-19828737Y1354216D01*
G01X-19830224Y1355978D01*
G01X-19830683Y1357121D01*
G01X-19831142Y1358265D01*
G01X-19831158Y1361677D01*
G01X-19831174Y1365089D01*
G01X-19830046Y1368470D01*
G01X-19827273Y1370939D01*
G01X-19825326Y1371519D01*
G01X-19823379Y1372098D01*
G01X-19820660Y1372089D01*
G01X-19817941Y1372080D01*
G01X-19816412Y1371700D01*
G01X-19814884Y1371321D01*
G01X-19813250Y1370120D01*
G01X-19811616Y1368918D01*
G01X-19810462Y1366820D01*
G01X-19809307Y1364722D01*
G01X-19807603Y1362462D01*
G01X-19805899Y1360202D01*
G01X-19805166Y1358910D01*
G01X-19804433Y1357619D01*
G01X-19804182Y1356583D01*
G01X-19803931Y1355547D01*
G01X-19802397Y1353468D01*
G01X-19800863Y1351389D01*
G01X-19798978Y1346965D01*
G01X-19797994Y1344603D01*
G01X-19797009Y1342240D01*
G01X-19795748Y1344118D01*
G01X-19794486Y1345997D01*
G01X-19793840Y1346643D01*
G01X-19793194Y1347288D01*
G01X-19790430Y1351595D01*
G01X-19787666Y1355902D01*
G01X-19784585Y1360847D01*
G01X-19784144Y1361655D01*
G01X-19783702Y1362462D01*
G01X-19781555Y1366981D01*
G01X-19779407Y1371501D01*
G01X-19779139Y1372631D01*
G01X-19778871Y1373761D01*
G01X-19778011Y1374674D01*
G01X-19777152Y1375586D01*
G01X-19776940Y1376449D01*
G01X-19776727Y1377312D01*
G01X-19774409Y1384899D01*
G01X-19772091Y1392486D01*
G01X-19771370Y1395230D01*
G01X-19770649Y1397974D01*
G01X-19770110Y1401041D01*
G01X-19769572Y1404108D01*
G01X-19769192Y1408450D01*
G01X-19768813Y1412792D01*
G01X-19768820Y1446722D01*
G01X-19769186Y1451403D01*
G01X-19769552Y1456084D01*
G01X-19770300Y1460089D01*
G01X-19771048Y1464095D01*
G01X-19773836Y1474163D01*
G01X-19775148Y1478360D01*
G01X-19776461Y1482557D01*
G01X-19777188Y1484547D01*
G01X-19777915Y1486537D01*
G01X-19778410Y1486705D01*
G01X-19778904Y1486874D01*
G01X-19779341Y1488751D01*
G01X-19779777Y1490628D01*
G01X-19781840Y1495616D01*
G01X-19782910Y1497480D01*
G01X-19783980Y1499345D01*
G01X-19784228Y1501053D01*
G01X-19784476Y1502761D01*
G01X-19785277Y1503636D01*
G01X-19786079Y1504510D01*
G01X-19786504Y1505821D01*
G01X-19786929Y1507131D01*
G01X-19787842Y1507895D01*
G01X-19788754Y1508658D01*
G01X-19788754Y1511190D01*
G01X-19789461Y1512074D01*
G01X-19790167Y1512957D01*
G01X-19792654Y1517816D01*
G01X-19794081Y1518715D01*
G01X-19794552Y1519990D01*
G01X-19795022Y1521265D01*
G01X-19796115Y1523057D01*
G01X-19797209Y1524849D01*
G01X-19798561Y1526547D01*
G01X-19799914Y1528245D01*
G01X-19800358Y1530351D01*
G01X-19801807Y1531913D01*
G01X-19803257Y1533474D01*
G01X-19803257Y1533998D01*
G01X-19806889Y1537536D01*
G01X-19807963Y1540248D01*
G01X-19811691Y1543880D01*
G01X-19812386Y1545322D01*
G01X-19813080Y1546765D01*
G01X-19815934Y1549411D01*
G01X-19818788Y1552058D01*
G01X-19819414Y1553143D01*
G01X-19820040Y1554227D01*
G01X-19823133Y1557778D01*
G01X-19825378Y1559715D01*
G01X-19827622Y1561652D01*
G01X-19828267Y1562961D01*
G01X-19828912Y1564269D01*
G01X-19830993Y1566292D01*
G01X-19832030Y1567447D01*
G01X-19833067Y1568602D01*
G01X-19835196Y1569932D01*
G01X-19837325Y1571262D01*
G01X-19838204Y1572596D01*
G01X-19839082Y1573931D01*
G01X-19844912Y1579011D01*
G01X-19850743Y1584092D01*
G01X-19852716Y1585216D01*
G01X-19854688Y1586339D01*
G01X-19855109Y1587520D01*
G01X-19856653Y1588489D01*
G01X-19858197Y1589458D01*
G01X-19879933Y1608141D01*
G01X-19900001Y1625897D01*
G01X-19920069Y1643653D01*
G01X-19922096Y1645913D01*
G01X-19924123Y1648173D01*
G01X-19928861Y1652580D01*
G01X-19933599Y1656987D01*
G01X-19936630Y1659924D01*
G01X-19939661Y1662862D01*
G01X-19940616Y1662862D01*
G01X-19941639Y1663948D01*
G01X-19942663Y1665034D01*
G01X-19944201Y1665887D01*
G01X-19945738Y1666740D01*
G01X-19951276Y1671500D01*
G01X-19956814Y1676259D01*
G01X-19958440Y1677430D01*
G01X-19960066Y1678600D01*
G01X-19961222Y1679123D01*
G01X-19962377Y1679645D01*
G01X-19970833Y1686076D01*
G01X-19975961Y1688396D01*
G01X-19977213Y1689374D01*
G01X-19978465Y1690353D01*
G01X-19980369Y1691089D01*
G01X-19981696Y1692074D01*
G01X-19983023Y1693059D01*
G01X-19986189Y1693813D01*
G01X-19991609Y1697392D01*
G01X-19992566Y1697405D01*
G01X-19995851Y1699418D01*
G01X-19997634Y1699837D01*
G01X-19999418Y1700256D01*
G01X-20000459Y1701248D01*
G01X-20001500Y1702241D01*
G01X-20003262Y1702911D01*
G01X-20005024Y1703581D01*
G01X-20012275Y1706776D01*
G01X-20019526Y1709972D01*
G01X-20032372Y1714841D01*
G01X-20034469Y1715288D01*
G01X-20036567Y1715734D01*
G01X-20039830Y1717368D01*
G01X-20043274Y1718325D01*
G01X-20046719Y1719282D01*
G01X-20048169Y1719619D01*
G01X-20049619Y1719955D01*
G01X-20053789Y1721259D01*
G01X-20057958Y1722562D01*
G01X-20070733Y1725814D01*
G01X-20085607Y1729035D01*
G01X-20095349Y1730511D01*
G01X-20105092Y1731987D01*
G01X-20107086Y1732292D01*
G01X-20109080Y1732597D01*
G01X-20113612Y1733062D01*
G01X-20118144Y1733527D01*
G01X-20124307Y1733854D01*
G01X-20130471Y1734182D01*
G01X-20137541Y1734379D01*
G01X-20144611Y1734577D01*
G01X-20155307Y1734229D01*
G01X-20166002Y1733881D01*
G01X-20173435Y1733370D01*
G01X-20180867Y1732859D01*
G01X-20184067Y1732434D01*
G01X-20187266Y1732009D01*
G01X-20187546Y1731759D01*
G01X-20186085Y1728222D01*
G01X-20184624Y1724685D01*
G01X-20180399Y1712700D01*
G01X-20178479Y1705779D01*
G01X-20176559Y1698858D01*
G01X-20176539Y1695953D01*
G01X-20176518Y1693047D01*
G01X-20178586Y1689496D01*
G01X-20181217Y1687055D01*
G01X-20184806Y1686106D01*
G01X-20189569Y1686106D01*
G01X-20192633Y1687031D01*
G01X-20195696Y1687957D01*
G01X-20196734Y1690179D01*
G01X-20197771Y1692401D01*
G01X-20198314Y1693693D01*
G01X-20198858Y1694984D01*
G01X-20199969Y1699827D01*
G01X-20201205Y1703649D01*
G01X-20202440Y1707472D01*
G01X-20202440Y1708918D01*
G01X-20203359Y1710506D01*
G01X-20204278Y1712094D01*
G01X-20204805Y1714065D01*
G01X-20205332Y1716036D01*
G01X-20208306Y1723717D01*
G01X-20211199Y1729366D01*
G01X-20214092Y1735016D01*
G01X-20215665Y1737276D01*
G01X-20217239Y1739536D01*
G01X-20218159Y1741393D01*
G01X-20219080Y1743251D01*
G01X-20219995Y1743561D01*
G01X-20220910Y1743871D01*
G01X-20221451Y1745023D01*
G01X-20221991Y1746174D01*
G01X-20225871Y1749716D01*
G01X-20229750Y1753259D01*
G01X-20231664Y1754065D01*
G01X-20233579Y1754872D01*
G01X-20233806Y1755198D01*
G01X-20234032Y1755525D01*
G01X-20236947Y1756849D01*
G01X-20242386Y1757776D01*
G01X-20247942Y1757766D01*
G01X-20252615Y1756786D01*
G01X-20254267Y1755882D01*
G01X-20255918Y1754979D01*
G01X-20256829Y1754776D01*
G01X-20257740Y1754574D01*
G01X-20259669Y1753108D01*
G01X-20261597Y1751642D01*
G01X-20263264Y1751642D01*
G01X-20264715Y1749930D01*
G01X-20266166Y1748219D01*
G01X-20268179Y1746164D01*
G01X-20270191Y1744109D01*
G01X-20270643Y1742507D01*
G01X-20272048Y1740432D01*
G01X-20273454Y1738357D01*
G01X-20274592Y1735557D01*
G01X-20275730Y1732756D01*
G01X-20276239Y1730805D01*
G01X-20276747Y1728853D01*
G01X-20277166Y1724832D01*
G01X-20277584Y1720811D01*
G01X-20277365Y1715646D01*
G01X-20277146Y1710480D01*
G01X-20276772Y1707878D01*
G01X-20276398Y1705276D01*
G01X-20275375Y1702086D01*
G01X-20273178Y1696808D01*
G01X-20272031Y1694766D01*
G01X-20270884Y1692724D01*
G01X-20268427Y1689089D01*
G01X-20268427Y1687834D01*
G01X-20266614Y1686106D01*
G01X-20264801Y1684378D01*
G01X-20264801Y1683490D01*
G01X-20262263Y1681102D01*
G01X-20259725Y1678714D01*
G01X-20259725Y1677672D01*
G01X-20256150Y1674513D01*
G01X-20252576Y1671354D01*
G01X-20250259Y1669637D01*
G01X-20247942Y1667920D01*
G01X-20246449Y1667332D01*
G01X-20244956Y1666743D01*
G01X-20244455Y1666200D01*
G01X-20243954Y1665658D01*
G01X-20237089Y1660784D01*
G01X-20234363Y1659483D01*
G01X-20231636Y1658181D01*
G01X-20229922Y1656159D01*
G01X-20228208Y1654138D01*
G01X-20227651Y1652469D01*
G01X-20227094Y1650800D01*
G01X-20227094Y1646864D01*
G01X-20228089Y1645590D01*
G01X-20228341Y1644559D01*
G01X-20228593Y1643527D01*
G01X-20231350Y1641310D01*
G01X-20233483Y1640594D01*
G01X-20235615Y1639879D01*
G01X-20238888Y1640002D01*
G01X-20242162Y1640125D01*
G01X-20244689Y1641360D01*
G01X-20247217Y1642594D01*
G01X-20250299Y1644366D01*
G01X-20253380Y1646138D01*
G01X-20255918Y1648303D01*
G01X-20257369Y1648829D01*
G01X-20258819Y1649356D01*
G01X-20261175Y1651400D01*
G01X-20263532Y1653444D01*
G01X-20265270Y1654160D01*
G01X-20267008Y1654875D01*
G01X-20268352Y1656336D01*
G01X-20269696Y1657796D01*
G01X-20278428Y1665929D01*
G01X-20280605Y1668511D01*
G01X-20281454Y1670269D01*
G01X-20283098Y1672066D01*
G01X-20284742Y1673863D01*
G01X-20284742Y1674431D01*
G01X-20287923Y1677749D01*
G01X-20288126Y1678654D01*
G01X-20288329Y1679559D01*
G01X-20289208Y1680492D01*
G01X-20290087Y1681425D01*
G01X-20290346Y1682482D01*
G01X-20290605Y1683539D01*
G01X-20291445Y1684428D01*
G01X-20292285Y1685317D01*
G01X-20293158Y1688204D01*
G01X-20294875Y1691620D01*
G01X-20296593Y1695036D01*
G01X-20297074Y1698685D01*
G01X-20298480Y1701118D01*
G01X-20299022Y1704669D01*
G01X-20299564Y1708220D01*
G01X-20299994Y1712902D01*
G01X-20300425Y1717583D01*
G01X-20299952Y1726121D01*
G01X-20299403Y1730084D01*
G01X-20298853Y1734047D01*
G01X-20298314Y1736123D01*
G01X-20297775Y1738199D01*
G01X-20297151Y1738890D01*
G01X-20296618Y1741795D01*
G01X-20295982Y1742603D01*
G01X-20295346Y1743410D01*
G01X-20294213Y1745831D01*
G01X-20293080Y1748252D01*
G01X-20291474Y1750468D01*
G01X-20289868Y1752683D01*
G01X-20289386Y1755226D01*
G01X-20286520Y1757788D01*
G01X-20283654Y1760349D01*
G01X-20283654Y1761375D01*
G01X-20279531Y1765224D01*
G01X-20276064Y1767589D01*
G01X-20272596Y1769954D01*
G01X-20269696Y1771642D01*
G01X-20266795Y1773330D01*
G01X-20260269Y1776148D01*
G01X-20257369Y1776889D01*
G01X-20254468Y1777630D01*
G01X-20244679Y1777620D01*
G01X-20234890Y1777609D01*
G01X-20232172Y1777056D01*
G01X-20229455Y1776502D01*
G01X-20226553Y1775224D01*
G01X-20223650Y1773946D01*
G01X-20222645Y1773734D01*
G01X-20221639Y1773521D01*
G01X-20221194Y1772959D01*
G01X-20220750Y1772397D01*
G01X-20219118Y1771665D01*
G01X-20217486Y1770934D01*
G01X-20205856Y1760520D01*
G01X-20202970Y1757288D01*
G01X-20200083Y1754056D01*
G01X-20199358Y1752835D01*
G01X-20198633Y1751614D01*
G01X-20196908Y1751228D01*
G01X-20190157Y1752399D01*
G01X-20183405Y1753570D01*
G01X-20179181Y1754025D01*
G01X-20174957Y1754479D01*
G01X-20174342Y1754786D01*
G01X-20174173Y1754870D01*
G01X-20149474Y1754870D01*
G01X-20124307Y1754836D01*
G01X-20124307Y1754836D01*
G01X-20118869Y1754304D01*
G01X-20102780Y1752462D01*
G01X-20102540Y1752676D01*
G01X-20102300Y1752890D01*
G01X-20104237Y1756058D01*
G01X-20106205Y1758067D01*
G01X-20108173Y1760077D01*
G01X-20108173Y1761239D01*
G01X-20111618Y1764103D01*
G01X-20113925Y1765496D01*
G01X-20116232Y1766889D01*
G01X-20118457Y1767787D01*
G01X-20120682Y1768685D01*
G01X-20123220Y1769340D01*
G01X-20125758Y1769995D01*
G01X-20127208Y1770132D01*
G01X-20128658Y1770268D01*
G01X-20130471Y1770011D01*
G01X-20132796Y1769360D01*
G01X-20135122Y1768710D01*
G01X-20136824Y1767942D01*
G01X-20138525Y1767174D01*
G01X-20139574Y1766394D01*
G01X-20140623Y1765615D01*
G01X-20141892Y1765055D01*
G01X-20143161Y1764496D01*
G01X-20144376Y1763315D01*
G01X-20145592Y1762134D01*
G01X-20146329Y1760681D01*
G01X-20147067Y1759229D01*
G01X-20147750Y1758362D01*
G01X-20148433Y1757496D01*
G01X-20148953Y1756183D01*
G01X-20149474Y1754870D01*
G01X-20174173Y1754870D01*
G01X-20173727Y1755093D01*
G01X-20169839Y1765261D01*
G01X-20168518Y1767410D01*
G01X-20167198Y1769559D01*
G01X-20163102Y1774658D01*
G01X-20157709Y1780213D01*
G01X-20156417Y1781282D01*
G01X-20155125Y1782350D01*
G01X-20154072Y1782849D01*
G01X-20153018Y1783349D01*
G01X-20152259Y1784004D01*
G01X-20151500Y1784659D01*
G01X-20147874Y1786193D01*
G01X-20144248Y1787727D01*
G01X-20137360Y1789677D01*
G01X-20135184Y1790028D01*
G01X-20133009Y1790379D01*
G01X-20130834Y1790609D01*
G01X-20129021Y1790654D01*
G01X-20127208Y1790700D01*
G01X-20120976Y1790064D01*
G01X-20114156Y1788517D01*
G01X-20110783Y1787219D01*
G01X-20107410Y1785921D01*
G01X-20105402Y1784843D01*
G01X-20103393Y1783764D01*
G01X-20096753Y1779305D01*
G01X-20093368Y1776702D01*
G01X-20089983Y1774099D01*
G01X-20089036Y1772637D01*
G01X-20088088Y1771174D01*
G01X-20086114Y1768591D01*
G01X-20084140Y1766008D01*
G01X-20083068Y1763910D01*
G01X-20081995Y1761811D01*
G01X-20080388Y1758176D01*
G01X-20078781Y1754541D01*
G01X-20078081Y1751562D01*
G01X-20077380Y1748583D01*
G01X-20076755Y1748175D01*
G01X-20076129Y1747768D01*
G01X-20074500Y1747768D01*
G01X-20072030Y1747258D01*
G01X-20069560Y1746749D01*
G01X-20066478Y1745953D01*
G01X-20063397Y1745157D01*
G01X-20060315Y1744549D01*
G01X-20057233Y1743940D01*
G01X-20050163Y1741942D01*
G01X-20043093Y1739944D01*
G01X-20041099Y1739378D01*
G01X-20039105Y1738812D01*
G01X-20033666Y1736865D01*
G01X-20026962Y1734863D01*
G01X-20020258Y1732861D01*
G01X-20018260Y1731772D01*
G01X-20016263Y1730683D01*
G01X-20014466Y1730331D01*
G01X-20012669Y1729979D01*
G01X-20007326Y1727091D01*
G01X-20003936Y1726332D01*
G01X-20003392Y1725947D01*
G01X-20002848Y1725562D01*
G01X-20001340Y1725342D01*
G01X-19999831Y1725122D01*
G01X-19999199Y1724500D01*
G01X-19998566Y1723878D01*
G01X-19997862Y1723878D01*
G01X-19995642Y1722881D01*
G01X-19993422Y1721884D01*
G01X-19991609Y1720400D01*
G01X-19990449Y1719879D01*
G01X-19989288Y1719358D01*
G01X-19987875Y1719358D01*
G01X-19986033Y1718255D01*
G01X-19984191Y1717151D01*
G01X-19981555Y1715870D01*
G01X-19978919Y1714588D01*
G01X-19976019Y1713214D01*
G01X-19973118Y1711839D01*
G01X-19968767Y1709220D01*
G01X-19965504Y1706996D01*
G01X-19964280Y1706538D01*
G01X-19963056Y1706079D01*
G01X-19959841Y1703867D01*
G01X-19956626Y1701654D01*
G01X-19954541Y1701247D01*
G01X-19952590Y1699767D01*
G01X-19950639Y1698287D01*
G01X-19948497Y1696406D01*
G01X-19946354Y1694525D01*
G01X-19944341Y1693624D01*
G01X-19942328Y1692724D01*
G01X-19936449Y1687652D01*
G01X-19930569Y1682580D01*
G01X-19928944Y1681900D01*
G01X-19927319Y1681220D01*
G01X-19920860Y1675027D01*
G01X-19914401Y1668834D01*
G01X-19909649Y1664476D01*
G01X-19904898Y1660118D01*
G01X-19903419Y1658342D01*
G01X-19901941Y1656566D01*
G01X-19864349Y1623310D01*
G01X-19863442Y1622692D01*
G01X-19862536Y1622074D01*
G01X-19854802Y1615347D01*
G01X-19847067Y1608620D01*
G01X-19844759Y1607153D01*
G01X-19842450Y1605686D01*
G01X-19840650Y1603647D01*
G01X-19838850Y1601607D01*
G01X-19835596Y1600204D01*
G01X-19825927Y1590774D01*
G01X-19818862Y1585058D01*
G01X-19818122Y1585058D01*
G01X-19818122Y1584083D01*
G01X-19816218Y1582107D01*
G01X-19814315Y1580131D01*
G01X-19810847Y1577026D01*
G01X-19807380Y1573920D01*
G01X-19806565Y1572406D01*
G01X-19805751Y1570892D01*
G01X-19798868Y1563912D01*
G01X-19796295Y1560054D01*
G01X-19794285Y1558121D01*
G01X-19792275Y1556188D01*
G01X-19790932Y1554227D01*
G01X-19790931Y1553527D01*
G01X-19790929Y1552827D01*
G01X-19789298Y1551125D01*
G01X-19787666Y1549423D01*
G01X-19787666Y1548441D01*
G01X-19783596Y1545067D01*
G01X-19783495Y1543998D01*
G01X-19783395Y1542928D01*
G01X-19783316Y1542577D01*
G01X-19779758Y1538830D01*
G01X-19779542Y1537806D01*
G01X-19779326Y1536781D01*
G01X-19777707Y1535134D01*
G01X-19776089Y1533486D01*
G01X-19774574Y1529880D01*
G01X-19771096Y1525137D01*
G01X-19770597Y1522769D01*
G01X-19768959Y1520975D01*
G01X-19767937Y1518610D01*
G01X-19766915Y1516246D01*
G01X-19765725Y1514671D01*
G01X-19764535Y1513097D01*
G01X-19764281Y1511453D01*
G01X-19764028Y1509810D01*
G01X-19763157Y1508889D01*
G01X-19762287Y1507968D01*
G01X-19762287Y1507076D01*
G01X-19760134Y1503219D01*
G01X-19760123Y1502665D01*
G01X-19760112Y1502111D01*
G01X-19758941Y1499022D01*
G01X-19756188Y1493211D01*
G01X-19755760Y1491274D01*
G01X-19755332Y1489337D01*
G01X-19754867Y1488684D01*
G01X-19754402Y1488031D01*
G01X-19754129Y1486586D01*
G01X-19753856Y1485140D01*
G01X-19753024Y1483462D01*
G01X-19752192Y1481784D01*
G01X-19751932Y1479911D01*
G01X-19751671Y1478037D01*
G01X-19750704Y1475582D01*
G01X-19749811Y1471483D01*
G01X-19748918Y1467384D01*
G01X-19746709Y1454147D01*
G01X-19746255Y1450273D01*
G01X-19745800Y1446399D01*
G01X-19745825Y1410564D01*
G01X-19746791Y1404269D01*
G01X-19747756Y1397974D01*
G01X-19749025Y1392389D01*
G01X-19750294Y1386804D01*
G01X-19751598Y1382381D01*
G01X-19752902Y1377958D01*
G01X-19754916Y1372470D01*
G01X-19756928Y1366981D01*
G01X-19758855Y1362785D01*
G01X-19760781Y1358588D01*
G01X-19762110Y1356005D01*
G01X-19763439Y1353422D01*
G01X-19765260Y1350194D01*
G01X-19767082Y1346965D01*
G01X-19767721Y1346158D01*
G01X-19768360Y1345351D01*
G01X-19768633Y1344221D01*
G01X-19768905Y1343091D01*
G01X-19770988Y1340970D01*
G01X-19770988Y1340077D01*
G01X-19774138Y1336791D01*
G01X-19774549Y1335570D01*
G01X-19774960Y1334348D01*
G01X-19776056Y1333413D01*
G01X-19777152Y1332478D01*
G01X-19777152Y1331671D01*
G01X-19778753Y1329589D01*
G01X-19780354Y1327507D01*
G01X-19780980Y1326421D01*
G01X-19781606Y1325335D01*
G01X-19783598Y1323413D01*
G01X-19785590Y1321491D01*
G01X-19786054Y1320501D01*
G01X-19786519Y1319511D01*
G01X-19788096Y1318240D01*
G01X-19788754Y1317146D01*
G01X-19787687Y1311233D01*
G01X-19786621Y1305319D01*
G01X-19784970Y1295634D01*
G01X-19784947Y1261736D01*
G01X-19785612Y1260038D01*
G01X-19786277Y1258339D01*
G01X-19788050Y1256612D01*
G01X-19789822Y1254885D01*
G37*
G36*
G01X-19953734Y1217735D02*
G01X-19956551Y1217590D01*
G01X-19958445Y1217994D01*
G01X-19960340Y1218399D01*
G01X-19961676Y1219626D01*
G01X-19963013Y1220852D01*
G01X-19964222Y1222973D01*
G01X-19965431Y1225093D01*
G01X-19964992Y1236878D01*
G01X-19964294Y1240752D01*
G01X-19963597Y1244626D01*
G01X-19961923Y1252583D01*
G01X-19962444Y1252877D01*
G01X-19962966Y1253171D01*
G01X-19964308Y1253176D01*
G01X-19965650Y1253181D01*
G01X-19969130Y1253807D01*
G01X-19976925Y1255269D01*
G01X-19984720Y1256731D01*
G01X-19989252Y1257871D01*
G01X-19993784Y1259011D01*
G01X-19999041Y1260260D01*
G01X-20004299Y1261508D01*
G01X-20007380Y1262637D01*
G01X-20010462Y1263767D01*
G01X-20014450Y1265114D01*
G01X-20018439Y1266462D01*
G01X-20021158Y1267368D01*
G01X-20023877Y1268275D01*
G01X-20027976Y1269895D01*
G01X-20032075Y1271515D01*
G01X-20032796Y1272096D01*
G01X-20033516Y1272677D01*
G01X-20034919Y1272740D01*
G01X-20036322Y1272804D01*
G01X-20039467Y1274700D01*
G01X-20053623Y1281182D01*
G01X-20057785Y1283282D01*
G01X-20061946Y1285383D01*
G01X-20064847Y1286688D01*
G01X-20067747Y1287993D01*
G01X-20069037Y1289091D01*
G01X-20070327Y1290189D01*
G01X-20072376Y1291233D01*
G01X-20074425Y1292277D01*
G01X-20077331Y1295217D01*
G01X-20078108Y1297040D01*
G01X-20078885Y1298863D01*
G01X-20079261Y1302823D01*
G01X-20078821Y1304455D01*
G01X-20078381Y1306087D01*
G01X-20077385Y1307486D01*
G01X-20076389Y1308885D01*
G01X-20071775Y1311074D01*
G01X-20069218Y1311207D01*
G01X-20066660Y1311339D01*
G01X-20064978Y1310874D01*
G01X-20063297Y1310408D01*
G01X-20059177Y1307983D01*
G01X-20055058Y1305558D01*
G01X-20053676Y1304190D01*
G01X-20052117Y1304190D01*
G01X-20050888Y1303382D01*
G01X-20049660Y1302575D01*
G01X-20047341Y1302575D01*
G01X-20045480Y1301085D01*
G01X-20043618Y1299595D01*
G01X-20040182Y1298018D01*
G01X-20036746Y1296441D01*
G01X-20035931Y1296436D01*
G01X-20035117Y1296430D01*
G01X-20033122Y1295413D01*
G01X-20031128Y1294397D01*
G01X-20027219Y1292567D01*
G01X-20026013Y1292567D01*
G01X-20024284Y1291591D01*
G01X-20022556Y1290615D01*
G01X-20019953Y1289448D01*
G01X-20017351Y1288281D01*
G01X-20015077Y1287519D01*
G01X-20012802Y1286756D01*
G01X-20011186Y1286756D01*
G01X-20005025Y1283528D01*
G01X-20003389Y1283528D01*
G01X-19988724Y1279298D01*
G01X-19979108Y1277191D01*
G01X-19969492Y1275083D01*
G01X-19963510Y1274317D01*
G01X-19957528Y1273551D01*
G01X-19956698Y1274327D01*
G01X-19955912Y1277597D01*
G01X-19955127Y1280866D01*
G01X-19953565Y1285668D01*
G01X-19952003Y1290469D01*
G01X-19949949Y1296234D01*
G01X-19947895Y1301999D01*
G01X-19947505Y1303659D01*
G01X-19947115Y1305319D01*
G01X-19946392Y1306022D01*
G01X-19945669Y1306724D01*
G01X-19943133Y1313068D01*
G01X-19942597Y1314520D01*
G01X-19942060Y1315973D01*
G01X-19940478Y1319040D01*
G01X-19938896Y1322107D01*
G01X-19938483Y1323531D01*
G01X-19938071Y1324955D01*
G01X-19934868Y1330231D01*
G01X-19934868Y1331722D01*
G01X-19933451Y1333720D01*
G01X-19932033Y1335718D01*
G01X-19929416Y1340373D01*
G01X-19926798Y1345028D01*
G01X-19924067Y1349064D01*
G01X-19921337Y1353099D01*
G01X-19920492Y1354714D01*
G01X-19919647Y1356328D01*
G01X-19919640Y1357347D01*
G01X-19917477Y1359743D01*
G01X-19915314Y1362139D01*
G01X-19914214Y1363960D01*
G01X-19913114Y1365780D01*
G01X-19913114Y1367884D01*
G01X-19911169Y1369531D01*
G01X-19909224Y1371178D01*
G01X-19907453Y1373550D01*
G01X-19905681Y1375923D01*
G01X-19905431Y1376295D01*
G01X-19905180Y1376666D01*
G01X-19904723Y1378604D01*
G01X-19902618Y1380433D01*
G01X-19900512Y1382263D01*
G01X-19897342Y1382893D01*
G01X-19893970Y1382927D01*
G01X-19890599Y1382962D01*
G01X-19889438Y1382436D01*
G01X-19888278Y1381910D01*
G01X-19886594Y1380819D01*
G01X-19884910Y1379728D01*
G01X-19884294Y1378359D01*
G01X-19883678Y1376989D01*
G01X-19883487Y1374084D01*
G01X-19883297Y1371178D01*
G01X-19883714Y1369814D01*
G01X-19884132Y1368449D01*
G01X-19885570Y1366969D01*
G01X-19887009Y1365489D01*
G01X-19887009Y1364691D01*
G01X-19890337Y1360202D01*
G01X-19890888Y1358991D01*
G01X-19891439Y1357781D01*
G01X-19892076Y1357781D01*
G01X-19893077Y1356446D01*
G01X-19894079Y1355111D01*
G01X-19894684Y1354304D01*
G01X-19895288Y1353497D01*
G01X-19895137Y1353137D01*
G01X-19894985Y1352777D01*
G01X-19895620Y1351932D01*
G01X-19896254Y1351088D01*
G01X-19897433Y1349705D01*
G01X-19898611Y1348321D01*
G01X-19898611Y1347232D01*
G01X-19901567Y1343557D01*
G01X-19902667Y1341387D01*
G01X-19903768Y1339217D01*
G01X-19904236Y1338977D01*
G01X-19904705Y1338736D01*
G01X-19911067Y1327272D01*
G01X-19911877Y1326282D01*
G01X-19912688Y1325291D01*
G01X-19913120Y1323862D01*
G01X-19913552Y1322433D01*
G01X-19915670Y1318548D01*
G01X-19917788Y1314663D01*
G01X-19918515Y1311775D01*
G01X-19919959Y1309031D01*
G01X-19921402Y1306288D01*
G01X-19923444Y1301790D01*
G01X-19925485Y1297292D01*
G01X-19926458Y1294020D01*
G01X-19927869Y1291115D01*
G01X-19928128Y1289823D01*
G01X-19928387Y1288532D01*
G01X-19929238Y1287060D01*
G01X-19930089Y1285588D01*
G01X-19930351Y1283993D01*
G01X-19930612Y1282398D01*
G01X-19932196Y1277998D01*
G01X-19933780Y1273598D01*
G01X-19933780Y1272590D01*
G01X-19933360Y1272359D01*
G01X-19932941Y1272128D01*
G01X-19931348Y1272149D01*
G01X-19929754Y1272171D01*
G01X-19928538Y1272685D01*
G01X-19927321Y1273199D01*
G01X-19924501Y1273718D01*
G01X-19921682Y1274237D01*
G01X-19918395Y1274101D01*
G01X-19915108Y1273965D01*
G01X-19913295Y1273242D01*
G01X-19911482Y1272520D01*
G01X-19908822Y1270212D01*
G01X-19907795Y1268234D01*
G01X-19906769Y1266256D01*
G01X-19906769Y1261399D01*
G01X-19907962Y1259241D01*
G01X-19909156Y1257082D01*
G01X-19910665Y1255932D01*
G01X-19912174Y1254782D01*
G01X-19916447Y1253395D01*
G01X-19916615Y1253005D01*
G01X-19916783Y1252615D01*
G01X-19918945Y1252397D01*
G01X-19921106Y1252179D01*
G01X-19922639Y1251663D01*
G01X-19924172Y1251148D01*
G01X-19939463Y1250851D01*
G01X-19940072Y1247900D01*
G01X-19940680Y1244949D01*
G01X-19941570Y1240380D01*
G01X-19942460Y1235811D01*
G01X-19943020Y1231018D01*
G01X-19943580Y1226224D01*
G01X-19943797Y1225172D01*
G01X-19944014Y1224119D01*
G01X-19944341Y1223939D01*
G01X-19944668Y1223759D01*
G01X-19945635Y1221705D01*
G01X-19947634Y1219593D01*
G01X-19949275Y1218737D01*
G01X-19950917Y1217880D01*
G01X-19953734Y1217735D01*
G37*
G36*
G01X-20190090Y1041400D02*
G01X-20213039Y1041400D01*
G01X-20212816Y1042126D01*
G01X-20212592Y1042853D01*
G01X-20211482Y1050112D01*
G01X-20210372Y1057371D01*
G01X-20208221Y1067388D01*
G01X-20206758Y1073845D01*
G01X-20205295Y1080302D01*
G01X-20204383Y1083530D01*
G01X-20203471Y1086759D01*
G01X-20201123Y1094184D01*
G01X-20198776Y1101609D01*
G01X-20197171Y1106833D01*
G01X-20195567Y1112057D01*
G01X-20191519Y1122975D01*
G01X-20187470Y1133893D01*
G01X-20185496Y1138251D01*
G01X-20183522Y1142609D01*
G01X-20181966Y1146645D01*
G01X-20180410Y1150680D01*
G01X-20174836Y1161961D01*
G01X-20174416Y1163580D01*
G01X-20173996Y1165199D01*
G01X-20172841Y1166728D01*
G01X-20171685Y1168256D01*
G01X-20171244Y1169476D01*
G01X-20170802Y1170696D01*
G01X-20168910Y1174409D01*
G01X-20167018Y1178122D01*
G01X-20166089Y1180704D01*
G01X-20164897Y1182480D01*
G01X-20163705Y1184255D01*
G01X-20163454Y1185385D01*
G01X-20163202Y1186515D01*
G01X-20162216Y1187514D01*
G01X-20160939Y1189975D01*
G01X-20159662Y1192436D01*
G01X-20158846Y1195826D01*
G01X-20157313Y1197305D01*
G01X-20155780Y1198783D01*
G01X-20155350Y1199912D01*
G01X-20154920Y1201040D01*
G01X-20153504Y1203140D01*
G01X-20152089Y1205240D01*
G01X-20151825Y1206208D01*
G01X-20151562Y1207177D01*
G01X-20150551Y1208307D01*
G01X-20149539Y1209437D01*
G01X-20143249Y1220090D01*
G01X-20140951Y1223964D01*
G01X-20137596Y1228327D01*
G01X-20137163Y1229535D01*
G01X-20136731Y1230744D01*
G01X-20133743Y1234780D01*
G01X-20130756Y1238815D01*
G01X-20130498Y1239543D01*
G01X-20130240Y1240271D01*
G01X-20129354Y1241209D01*
G01X-20128468Y1242146D01*
G01X-20127933Y1243495D01*
G01X-20127399Y1244845D01*
G01X-20124092Y1248119D01*
G01X-20123248Y1250931D01*
G01X-20121692Y1252620D01*
G01X-20120135Y1254310D01*
G01X-20119247Y1255925D01*
G01X-20118359Y1257541D01*
G01X-20117083Y1258782D01*
G01X-20115807Y1260023D01*
G01X-20115348Y1262202D01*
G01X-20113325Y1265042D01*
G01X-20109169Y1270007D01*
G01X-20105012Y1274973D01*
G01X-20104499Y1276426D01*
G01X-20103837Y1276426D01*
G01X-20103108Y1277698D01*
G01X-20102379Y1278971D01*
G01X-20100730Y1280200D01*
G01X-20099081Y1281429D01*
G01X-20097554Y1282177D01*
G01X-20096027Y1282924D01*
G01X-20089500Y1282698D01*
G01X-20087144Y1281434D01*
G01X-20084788Y1280171D01*
G01X-20084186Y1279727D01*
G01X-20083584Y1279283D01*
G01X-20083189Y1277263D01*
G01X-20082794Y1275243D01*
G01X-20082794Y1270275D01*
G01X-20083474Y1268552D01*
G01X-20084155Y1266828D01*
G01X-20085740Y1264605D01*
G01X-20087326Y1262382D01*
G01X-20088737Y1259915D01*
G01X-20089743Y1259277D01*
G01X-20090749Y1258639D01*
G01X-20091610Y1257121D01*
G01X-20092470Y1255603D01*
G01X-20093977Y1253693D01*
G01X-20095484Y1251783D01*
G01X-20095484Y1250907D01*
G01X-20096878Y1249542D01*
G01X-20098272Y1248177D01*
G01X-20100178Y1244423D01*
G01X-20102363Y1241841D01*
G01X-20104548Y1239259D01*
G01X-20104555Y1238876D01*
G01X-20104562Y1238492D01*
G01X-20106343Y1236464D01*
G01X-20108125Y1234437D01*
G01X-20108982Y1232122D01*
G01X-20109666Y1231514D01*
G01X-20110349Y1230905D01*
G01X-20110349Y1229715D01*
G01X-20112156Y1227423D01*
G01X-20113964Y1225131D01*
G01X-20114898Y1223375D01*
G01X-20115832Y1221618D01*
G01X-20116716Y1220879D01*
G01X-20117600Y1220139D01*
G01X-20117600Y1218510D01*
G01X-20119184Y1216394D01*
G01X-20120767Y1214279D01*
G01X-20124322Y1208630D01*
G01X-20127876Y1202980D01*
G01X-20128679Y1201524D01*
G01X-20129483Y1200068D01*
G01X-20130219Y1197694D01*
G01X-20132401Y1195232D01*
G01X-20136509Y1188573D01*
G01X-20137059Y1187383D01*
G01X-20137608Y1186192D01*
G01X-20140434Y1181027D01*
G01X-20143260Y1175862D01*
G01X-20144978Y1172310D01*
G01X-20146695Y1168759D01*
G01X-20149052Y1164562D01*
G01X-20150018Y1162167D01*
G01X-20150984Y1159772D01*
G01X-20151551Y1159404D01*
G01X-20152117Y1159035D01*
G01X-20152307Y1157534D01*
G01X-20152497Y1156034D01*
G01X-20153177Y1155486D01*
G01X-20153856Y1154939D01*
G01X-20153856Y1154027D01*
G01X-20155607Y1150417D01*
G01X-20157357Y1146806D01*
G01X-20158178Y1145031D01*
G01X-20158998Y1143255D01*
G01X-20159756Y1141318D01*
G01X-20160515Y1139381D01*
G01X-20161228Y1137928D01*
G01X-20161942Y1136476D01*
G01X-20165373Y1127759D01*
G01X-20168805Y1119042D01*
G01X-20171281Y1112586D01*
G01X-20173758Y1106129D01*
G01X-20175752Y1099995D01*
G01X-20177746Y1093861D01*
G01X-20181870Y1079333D01*
G01X-20182904Y1075298D01*
G01X-20183938Y1071262D01*
G01X-20185941Y1062070D01*
G01X-20187943Y1052878D01*
G01X-20189825Y1042207D01*
G01X-20189957Y1041804D01*
G01X-20190090Y1041400D01*
G37*
G36*
G01X-20421081Y1611132D02*
G01X-20423366Y1610969D01*
G01X-20425651Y1610806D01*
G01X-20429754Y1611868D01*
G01X-20431039Y1612543D01*
G01X-20432323Y1613218D01*
G01X-20433312Y1614715D01*
G01X-20434300Y1616212D01*
G01X-20434300Y1624283D01*
G01X-20433302Y1625969D01*
G01X-20432304Y1627655D01*
G01X-20425598Y1634387D01*
G01X-20424623Y1635792D01*
G01X-20423647Y1637196D01*
G01X-20418640Y1641894D01*
G01X-20413634Y1646591D01*
G01X-20406157Y1653677D01*
G01X-20398681Y1660763D01*
G01X-20392017Y1666760D01*
G01X-20385354Y1672757D01*
G01X-20383722Y1673691D01*
G01X-20382091Y1674625D01*
G01X-20376931Y1679068D01*
G01X-20371770Y1683510D01*
G01X-20370586Y1683954D01*
G01X-20369401Y1684399D01*
G01X-20367588Y1685851D01*
G01X-20365775Y1687303D01*
G01X-20364688Y1687807D01*
G01X-20363600Y1688310D01*
G01X-20357587Y1693166D01*
G01X-20354109Y1694194D01*
G01X-20353054Y1695185D01*
G01X-20351998Y1696175D01*
G01X-20349967Y1697093D01*
G01X-20347936Y1698012D01*
G01X-20346885Y1698780D01*
G01X-20345834Y1699549D01*
G01X-20342934Y1701106D01*
G01X-20340033Y1702664D01*
G01X-20333731Y1705572D01*
G01X-20327428Y1708481D01*
G01X-20326298Y1708721D01*
G01X-20325168Y1708961D01*
G01X-20322429Y1708994D01*
G01X-20319689Y1709027D01*
G01X-20318461Y1708220D01*
G01X-20317232Y1707413D01*
G01X-20314915Y1707413D01*
G01X-20314200Y1706041D01*
G01X-20313485Y1704669D01*
G01X-20312568Y1701208D01*
G01X-20312551Y1699226D01*
G01X-20312534Y1697244D01*
G01X-20313488Y1694661D01*
G01X-20314542Y1693343D01*
G01X-20315595Y1692026D01*
G01X-20318455Y1690346D01*
G01X-20321314Y1688666D01*
G01X-20327517Y1686115D01*
G01X-20330864Y1684271D01*
G01X-20334212Y1682427D01*
G01X-20337304Y1680348D01*
G01X-20340396Y1678269D01*
G01X-20341883Y1677700D01*
G01X-20343371Y1677130D01*
G01X-20344603Y1676175D01*
G01X-20345834Y1675219D01*
G01X-20346922Y1674716D01*
G01X-20348010Y1674213D01*
G01X-20349641Y1672716D01*
G01X-20351273Y1671219D01*
G01X-20352723Y1670625D01*
G01X-20354173Y1670031D01*
G01X-20357426Y1667385D01*
G01X-20360678Y1664739D01*
G01X-20363325Y1663537D01*
G01X-20366771Y1660513D01*
G01X-20370217Y1657489D01*
G01X-20370661Y1656243D01*
G01X-20371844Y1655777D01*
G01X-20373027Y1655311D01*
G01X-20378176Y1650820D01*
G01X-20383325Y1646328D01*
G01X-20386622Y1641993D01*
G01X-20389020Y1640107D01*
G01X-20391418Y1638220D01*
G01X-20392487Y1636901D01*
G01X-20393556Y1635582D01*
G01X-20401989Y1627834D01*
G01X-20410422Y1620086D01*
G01X-20412430Y1618149D01*
G01X-20414438Y1616212D01*
G01X-20416030Y1614472D01*
G01X-20417622Y1612733D01*
G01X-20421081Y1611132D01*
G37*
G36*
G01X-19871781Y1211174D02*
G01X-19875509Y1207664D01*
G01X-19879417Y1205962D01*
G01X-19882941Y1206115D01*
G01X-19886465Y1206268D01*
G01X-19888006Y1206971D01*
G01X-19889546Y1207674D01*
G01X-19890439Y1208878D01*
G01X-19891332Y1210082D01*
G01X-19891945Y1211535D01*
G01X-19892558Y1212988D01*
G01X-19892570Y1216216D01*
G01X-19892582Y1219445D01*
G01X-19890342Y1224538D01*
G01X-19888102Y1229632D01*
G01X-19887861Y1230995D01*
G01X-19887620Y1232358D01*
G01X-19886368Y1234941D01*
G01X-19885117Y1237524D01*
G01X-19883681Y1241559D01*
G01X-19882245Y1245595D01*
G01X-19879559Y1254363D01*
G01X-19876872Y1263131D01*
G01X-19876344Y1265823D01*
G01X-19875816Y1268516D01*
G01X-19874523Y1273574D01*
G01X-19873230Y1278633D01*
G01X-19872151Y1287303D01*
G01X-19871639Y1288595D01*
G01X-19871127Y1289887D01*
G01X-19870550Y1292922D01*
G01X-19869974Y1295957D01*
G01X-19869435Y1300154D01*
G01X-19868897Y1304351D01*
G01X-19868354Y1310323D01*
G01X-19867811Y1316296D01*
G01X-19867414Y1323075D01*
G01X-19867017Y1329855D01*
G01X-19867129Y1340993D01*
G01X-19867242Y1352131D01*
G01X-19866599Y1353780D01*
G01X-19865956Y1355430D01*
G01X-19864663Y1356775D01*
G01X-19863370Y1358120D01*
G01X-19862230Y1358645D01*
G01X-19861090Y1359170D01*
G01X-19860182Y1359416D01*
G01X-19859273Y1359662D01*
G01X-19852747Y1359711D01*
G01X-19850934Y1358950D01*
G01X-19849121Y1358189D01*
G01X-19848339Y1357420D01*
G01X-19847557Y1356651D01*
G01X-19846779Y1355309D01*
G01X-19846002Y1353968D01*
G01X-19845241Y1349616D01*
G01X-19845420Y1328759D01*
G01X-19845599Y1307902D01*
G01X-19846020Y1304351D01*
G01X-19846442Y1300800D01*
G01X-19848427Y1288370D01*
G01X-19850412Y1275941D01*
G01X-19851475Y1271260D01*
G01X-19852538Y1266579D01*
G01X-19852927Y1264367D01*
G01X-19853316Y1262155D01*
G01X-19857951Y1247209D01*
G01X-19863393Y1231390D01*
G01X-19865557Y1225901D01*
G01X-19867720Y1220413D01*
G01X-19869116Y1216880D01*
G01X-19870512Y1213348D01*
G01X-19871147Y1212764D01*
G01X-19871781Y1212181D01*
G01X-19871781Y1211174D01*
G37*
G36*
G01X-20042222Y1566333D02*
G01X-20046628Y1566333D01*
G01X-20048667Y1567123D01*
G01X-20050707Y1567912D01*
G01X-20057051Y1570385D01*
G01X-20063395Y1572857D01*
G01X-20064846Y1573595D01*
G01X-20066297Y1574332D01*
G01X-20068887Y1574735D01*
G01X-20070096Y1575529D01*
G01X-20071306Y1576324D01*
G01X-20076449Y1578062D01*
G01X-20090589Y1584010D01*
G01X-20092324Y1584534D01*
G01X-20094059Y1585058D01*
G01X-20095023Y1585058D01*
G01X-20095943Y1585702D01*
G01X-20096862Y1586346D01*
G01X-20099889Y1587370D01*
G01X-20102916Y1588394D01*
G01X-20105541Y1589855D01*
G01X-20106854Y1590075D01*
G01X-20108167Y1590294D01*
G01X-20110255Y1591397D01*
G01X-20112343Y1592499D01*
G01X-20114699Y1594734D01*
G01X-20114699Y1596145D01*
G01X-20115841Y1597268D01*
G01X-20116129Y1599153D01*
G01X-20116417Y1601038D01*
G01X-20116236Y1602330D01*
G01X-20116054Y1603621D01*
G01X-20115563Y1604127D01*
G01X-20115071Y1604632D01*
G01X-20114842Y1605651D01*
G01X-20114613Y1606670D01*
G01X-20112343Y1608968D01*
G01X-20110530Y1609589D01*
G01X-20108717Y1610209D01*
G01X-20105273Y1610221D01*
G01X-20101828Y1610234D01*
G01X-20097659Y1608599D01*
G01X-20093489Y1606963D01*
G01X-20090750Y1606045D01*
G01X-20088011Y1605127D01*
G01X-20084768Y1603781D01*
G01X-20081525Y1602435D01*
G01X-20076993Y1600645D01*
G01X-20072461Y1598856D01*
G01X-20069219Y1597605D01*
G01X-20065978Y1596354D01*
G01X-20065193Y1595698D01*
G01X-20064409Y1595042D01*
G01X-20060792Y1594533D01*
G01X-20058287Y1593267D01*
G01X-20055783Y1592001D01*
G01X-20053245Y1591152D01*
G01X-20050707Y1590302D01*
G01X-20038380Y1585180D01*
G01X-20035479Y1583835D01*
G01X-20034864Y1583230D01*
G01X-20034249Y1582624D01*
G01X-20033142Y1580307D01*
G01X-20032035Y1577991D01*
G01X-20032035Y1573902D01*
G01X-20032532Y1573266D01*
G01X-20033030Y1572629D01*
G01X-20033281Y1571602D01*
G01X-20033532Y1570575D01*
G01X-20034648Y1569750D01*
G01X-20034968Y1569000D01*
G01X-20035288Y1568251D01*
G01X-20036844Y1567657D01*
G01X-20038401Y1567063D01*
G01X-20040312Y1566698D01*
G01X-20042222Y1566333D01*
G37*
G36*
G01X-20310303Y1547773D02*
G01X-20319730Y1547770D01*
G01X-20321777Y1548665D01*
G01X-20323824Y1549561D01*
G01X-20325329Y1550944D01*
G01X-20326835Y1552327D01*
G01X-20327908Y1553761D01*
G01X-20328981Y1555196D01*
G01X-20330035Y1557617D01*
G01X-20331089Y1560038D01*
G01X-20331663Y1562737D01*
G01X-20332238Y1565436D01*
G01X-20332236Y1573274D01*
G01X-20331671Y1576180D01*
G01X-20331106Y1579085D01*
G01X-20330193Y1582314D01*
G01X-20329281Y1585542D01*
G01X-20327996Y1589093D01*
G01X-20326711Y1592645D01*
G01X-20325172Y1596196D01*
G01X-20323633Y1599747D01*
G01X-20322299Y1602249D01*
G01X-20320966Y1604751D01*
G01X-20319565Y1604751D01*
G01X-20318312Y1603048D01*
G01X-20318943Y1598029D01*
G01X-20319573Y1593010D01*
G01X-20320859Y1584918D01*
G01X-20322145Y1576826D01*
G01X-20322344Y1572290D01*
G01X-20322544Y1567754D01*
G01X-20321939Y1565026D01*
G01X-20321334Y1562298D01*
G01X-20320238Y1560282D01*
G01X-20319142Y1558266D01*
G01X-20317893Y1557417D01*
G01X-20316643Y1556569D01*
G01X-20315074Y1556411D01*
G01X-20313505Y1556254D01*
G01X-20312376Y1556773D01*
G01X-20311247Y1557293D01*
G01X-20310316Y1558379D01*
G01X-20309386Y1559466D01*
G01X-20308523Y1561366D01*
G01X-20307660Y1563266D01*
G01X-20307092Y1565849D01*
G01X-20306523Y1568432D01*
G01X-20306310Y1572790D01*
G01X-20306097Y1577148D01*
G01X-20305563Y1577875D01*
G01X-20305029Y1578601D01*
G01X-20302523Y1578601D01*
G01X-20301833Y1577391D01*
G01X-20301144Y1576180D01*
G01X-20300330Y1573029D01*
G01X-20299516Y1569878D01*
G01X-20299695Y1565281D01*
G01X-20299873Y1560684D01*
G01X-20300864Y1557940D01*
G01X-20301854Y1555196D01*
G01X-20302910Y1553536D01*
G01X-20303966Y1551876D01*
G01X-20305446Y1550518D01*
G01X-20306927Y1549160D01*
G01X-20310303Y1547773D01*
G37*
G36*
G01X-20245755Y1441234D02*
G01X-20253380Y1441234D01*
G01X-20255193Y1442037D01*
G01X-20257006Y1442841D01*
G01X-20259577Y1445104D01*
G01X-20262149Y1447368D01*
G01X-20263264Y1449466D01*
G01X-20264380Y1451565D01*
G01X-20265703Y1455762D01*
G01X-20265705Y1462218D01*
G01X-20265708Y1468675D01*
G01X-20265218Y1471419D01*
G01X-20264728Y1474163D01*
G01X-20263813Y1477230D01*
G01X-20262898Y1480297D01*
G01X-20260099Y1487526D01*
G01X-20258437Y1490905D01*
G01X-20256774Y1494285D01*
G01X-20255720Y1495766D01*
G01X-20254665Y1497246D01*
G01X-20253587Y1497246D01*
G01X-20253161Y1496538D01*
G01X-20252735Y1495829D01*
G01X-20252955Y1492583D01*
G01X-20253175Y1489337D01*
G01X-20254683Y1479652D01*
G01X-20256191Y1469966D01*
G01X-20256236Y1463994D01*
G01X-20256281Y1458021D01*
G01X-20255462Y1455912D01*
G01X-20254642Y1453803D01*
G01X-20253557Y1452630D01*
G01X-20252471Y1451457D01*
G01X-20249120Y1449789D01*
G01X-20247500Y1449789D01*
G01X-20245838Y1451092D01*
G01X-20244176Y1452395D01*
G01X-20242275Y1455853D01*
G01X-20241768Y1458390D01*
G01X-20241260Y1460927D01*
G01X-20241234Y1465239D01*
G01X-20240842Y1467751D01*
G01X-20240450Y1470263D01*
G01X-20239926Y1471164D01*
G01X-20239403Y1472065D01*
G01X-20236634Y1472065D01*
G01X-20236032Y1471474D01*
G01X-20235431Y1470882D01*
G01X-20235047Y1469031D01*
G01X-20234663Y1467180D01*
G01X-20234776Y1459211D01*
G01X-20234890Y1451242D01*
G01X-20237265Y1446917D01*
G01X-20239097Y1445132D01*
G01X-20240929Y1443348D01*
G01X-20243342Y1442291D01*
G01X-20245755Y1441234D01*
G37*
G36*
G01X-20053567Y1640604D02*
G01X-20057483Y1639824D01*
G01X-20059685Y1640229D01*
G01X-20061887Y1640634D01*
G01X-20063548Y1641326D01*
G01X-20065209Y1642019D01*
G01X-20067573Y1644148D01*
G01X-20069936Y1646277D01*
G01X-20071286Y1648678D01*
G01X-20072636Y1651078D01*
G01X-20073164Y1652940D01*
G01X-20073693Y1654801D01*
G01X-20074101Y1658746D01*
G01X-20074508Y1662691D01*
G01X-20074038Y1670448D01*
G01X-20073507Y1674807D01*
G01X-20072975Y1679165D01*
G01X-20072062Y1684443D01*
G01X-20071150Y1689721D01*
G01X-20070474Y1691653D01*
G01X-20069798Y1693586D01*
G01X-20069170Y1694204D01*
G01X-20068541Y1694823D01*
G01X-20067705Y1694823D01*
G01X-20067120Y1694419D01*
G01X-20066536Y1694016D01*
G01X-20066075Y1692724D01*
G01X-20065614Y1691433D01*
G01X-20065502Y1674397D01*
G01X-20065391Y1657361D01*
G01X-20063796Y1654532D01*
G01X-20062200Y1651704D01*
G01X-20060584Y1650378D01*
G01X-20058968Y1649051D01*
G01X-20057866Y1648836D01*
G01X-20056764Y1648620D01*
G01X-20055480Y1649098D01*
G01X-20054196Y1649576D01*
G01X-20051968Y1652315D01*
G01X-20051247Y1654394D01*
G01X-20050526Y1656473D01*
G01X-20050519Y1658134D01*
G01X-20050513Y1659795D01*
G01X-20051121Y1664328D01*
G01X-20051730Y1668862D01*
G01X-20051239Y1670602D01*
G01X-20050356Y1671117D01*
G01X-20049473Y1671632D01*
G01X-20048749Y1671427D01*
G01X-20048024Y1671222D01*
G01X-20046493Y1669016D01*
G01X-20045592Y1666988D01*
G01X-20044691Y1664960D01*
G01X-20043801Y1661939D01*
G01X-20042912Y1658917D01*
G01X-20042924Y1653338D01*
G01X-20043437Y1651184D01*
G01X-20043950Y1649029D01*
G01X-20044936Y1647235D01*
G01X-20045923Y1645441D01*
G01X-20049107Y1642482D01*
G01X-20051337Y1641543D01*
G01X-20053567Y1640604D01*
G37*
G36*
G01X-19935445Y1581936D02*
G01X-19937486Y1581104D01*
G01X-19940075Y1581253D01*
G01X-19942663Y1581402D01*
G01X-19946165Y1582784D01*
G01X-19947570Y1583776D01*
G01X-19948975Y1584767D01*
G01X-19950573Y1586930D01*
G01X-19952170Y1589093D01*
G01X-19953540Y1592322D01*
G01X-19953488Y1606204D01*
G01X-19952709Y1609432D01*
G01X-19951930Y1612661D01*
G01X-19950326Y1616535D01*
G01X-19948722Y1620409D01*
G01X-19947758Y1622346D01*
G01X-19946793Y1624283D01*
G01X-19945891Y1625655D01*
G01X-19944989Y1627027D01*
G01X-19943658Y1627027D01*
G01X-19943209Y1626546D01*
G01X-19942761Y1626064D01*
G01X-19943364Y1621299D01*
G01X-19943967Y1616535D01*
G01X-19944868Y1611046D01*
G01X-19945770Y1605558D01*
G01X-19945975Y1602007D01*
G01X-19946181Y1598456D01*
G01X-19945605Y1596034D01*
G01X-19945030Y1593613D01*
G01X-19944016Y1591838D01*
G01X-19943003Y1590063D01*
G01X-19941438Y1589295D01*
G01X-19939872Y1588526D01*
G01X-19938491Y1588894D01*
G01X-19937110Y1589263D01*
G01X-19936004Y1590384D01*
G01X-19934899Y1591506D01*
G01X-19934348Y1593158D01*
G01X-19933797Y1594810D01*
G01X-19933414Y1597602D01*
G01X-19933032Y1600393D01*
G01X-19932662Y1602459D01*
G01X-19932291Y1604526D01*
G01X-19931746Y1605466D01*
G01X-19931200Y1606405D01*
G01X-19930405Y1606305D01*
G01X-19929610Y1606204D01*
G01X-19928020Y1603298D01*
G01X-19927455Y1600810D01*
G01X-19926891Y1598322D01*
G01X-19926897Y1596129D01*
G01X-19926904Y1593936D01*
G01X-19927417Y1591781D01*
G01X-19927929Y1589627D01*
G01X-19929973Y1585906D01*
G01X-19931688Y1584337D01*
G01X-19933403Y1582768D01*
G01X-19935445Y1581936D01*
G37*
G36*
G01X-19949551Y1368273D02*
G01X-19957165Y1368273D01*
G01X-19958838Y1369148D01*
G01X-19960510Y1370024D01*
G01X-19962790Y1372336D01*
G01X-19963834Y1374178D01*
G01X-19964877Y1376021D01*
G01X-19965672Y1378281D01*
G01X-19966466Y1380541D01*
G01X-19966670Y1384269D01*
G01X-19966873Y1387997D01*
G01X-19966446Y1390241D01*
G01X-19966019Y1392486D01*
G01X-19964589Y1397167D01*
G01X-19963159Y1401848D01*
G01X-19959237Y1410411D01*
G01X-19958026Y1412056D01*
G01X-19957052Y1411956D01*
G01X-19956078Y1411856D01*
G01X-19955862Y1408902D01*
G01X-19958557Y1390871D01*
G01X-19958584Y1386029D01*
G01X-19958611Y1381186D01*
G01X-19957848Y1379529D01*
G01X-19957086Y1377873D01*
G01X-19956115Y1376739D01*
G01X-19955143Y1375605D01*
G01X-19954051Y1375202D01*
G01X-19952958Y1374799D01*
G01X-19951504Y1375226D01*
G01X-19950049Y1375653D01*
G01X-19949175Y1376579D01*
G01X-19948300Y1377504D01*
G01X-19947732Y1379184D01*
G01X-19947163Y1380863D01*
G01X-19946837Y1385091D01*
G01X-19946511Y1389319D01*
G01X-19946259Y1390257D01*
G01X-19946007Y1391194D01*
G01X-19945650Y1391598D01*
G01X-19945293Y1392001D01*
G01X-19943622Y1392001D01*
G01X-19942870Y1391150D01*
G01X-19942117Y1390298D01*
G01X-19941546Y1388648D01*
G01X-19940974Y1386997D01*
G01X-19940783Y1383607D01*
G01X-19940592Y1380218D01*
G01X-19941704Y1376021D01*
G01X-19942444Y1374484D01*
G01X-19943184Y1372948D01*
G01X-19944908Y1371306D01*
G01X-19946633Y1369664D01*
G01X-19948092Y1368969D01*
G01X-19949551Y1368273D01*
G37*
G36*
G01X-19802168Y1402727D02*
G01X-19806874Y1401593D01*
G01X-19809507Y1401774D01*
G01X-19812140Y1401954D01*
G01X-19813771Y1402609D01*
G01X-19815403Y1403264D01*
G01X-19816943Y1404431D01*
G01X-19817520Y1405244D01*
G01X-19818096Y1406057D01*
G01X-19818807Y1408795D01*
G01X-19819518Y1411533D01*
G01X-19819750Y1416698D01*
G01X-19819983Y1421864D01*
G01X-19819603Y1429450D01*
G01X-19819223Y1437037D01*
G01X-19818835Y1439750D01*
G01X-19818448Y1442462D01*
G01X-19817953Y1443517D01*
G01X-19817458Y1444571D01*
G01X-19815958Y1445868D01*
G01X-19814458Y1447164D01*
G01X-19812936Y1447644D01*
G01X-19811414Y1448124D01*
G01X-19808489Y1448149D01*
G01X-19805564Y1448175D01*
G01X-19803776Y1447701D01*
G01X-19801988Y1447228D01*
G01X-19800651Y1446070D01*
G01X-19799315Y1444913D01*
G01X-19798567Y1443537D01*
G01X-19797818Y1442160D01*
G01X-19797435Y1440316D01*
G01X-19797053Y1438472D01*
G01X-19797177Y1423872D01*
G01X-19797301Y1409273D01*
G01X-19797961Y1407728D01*
G01X-19798620Y1406183D01*
G01X-19800394Y1404455D01*
G01X-19802168Y1402727D01*
G37*
G04 Image End*

G04 Text Start*
G54D10*
G01X-18818098Y2555240D02*
G01X-18821146Y2561590D01*
G01X-18827496Y2567686D01*
G01X-18833592Y2570734D01*
G01X-18846038Y2570734D01*
G01X-18852134Y2567686D01*
G01X-18858484Y2561590D01*
G01X-18861532Y2555240D01*
G01X-18864580Y2546096D01*
G01X-18864580Y2530602D01*
G01X-18861532Y2521204D01*
G01X-18858484Y2515108D01*
G01X-18852134Y2508758D01*
G01X-18846038Y2505710D01*
G01X-18833592Y2505710D01*
G01X-18827496Y2508758D01*
G01X-18821146Y2515108D01*
G01X-18818098Y2521204D01*
G01X-18818098Y2530602D01*
G01X-18833592Y2530602D02*
G01X-18818098Y2530602D01*
G01X-18787872Y2570734D02*
G01X-18787872Y2505710D01*
G01X-18787872Y2570734D02*
G01X-18744692Y2505710D01*
G01X-18744692Y2570734D02*
G01X-18744692Y2505710D01*
G01X-18714466Y2570734D02*
G01X-18714466Y2505710D01*
G01X-18714466Y2570734D02*
G01X-18692876Y2570734D01*
G01X-18683732Y2567686D01*
G01X-18677382Y2561590D01*
G01X-18674334Y2555240D01*
G01X-18671286Y2546096D01*
G01X-18671286Y2530602D01*
G01X-18674334Y2521204D01*
G01X-18677382Y2515108D01*
G01X-18683732Y2508758D01*
G01X-18692876Y2505710D01*
G01X-18714466Y2505710D01*
G01X-16654780Y-2140712D02*
G01X-16648684Y-2137410D01*
G01X-16639286Y-2128266D01*
G01X-16639286Y-2193290D01*
G01X-16609060Y-2165350D02*
G01X-16553434Y-2165350D01*
G01X-16476980Y-2143760D02*
G01X-16480028Y-2137410D01*
G01X-16486124Y-2131314D01*
G01X-16492474Y-2128266D01*
G01X-16504666Y-2128266D01*
G01X-16511016Y-2131314D01*
G01X-16517112Y-2137410D01*
G01X-16520160Y-2143760D01*
G01X-16523208Y-2152904D01*
G01X-16523208Y-2168398D01*
G01X-16520160Y-2177796D01*
G01X-16517112Y-2183892D01*
G01X-16511016Y-2190242D01*
G01X-16504666Y-2193290D01*
G01X-16492474Y-2193290D01*
G01X-16486124Y-2190242D01*
G01X-16480028Y-2183892D01*
G01X-16476980Y-2177796D01*
G01X-16476980Y-2168398D01*
G01X-16492474Y-2168398D02*
G01X-16476980Y-2168398D01*
G01X-16446754Y-2128266D02*
G01X-16446754Y-2193290D01*
G01X-16446754Y-2128266D02*
G01X-16403574Y-2193290D01*
G01X-16403574Y-2128266D02*
G01X-16403574Y-2193290D01*
G01X-16373348Y-2128266D02*
G01X-16373348Y-2193290D01*
G01X-16373348Y-2128266D02*
G01X-16351758Y-2128266D01*
G01X-16342614Y-2131314D01*
G01X-16336264Y-2137410D01*
G01X-16333216Y-2143760D01*
G01X-16330168Y-2152904D01*
G01X-16330168Y-2168398D01*
G01X-16333216Y-2177796D01*
G01X-16336264Y-2183892D01*
G01X-16342614Y-2190242D01*
G01X-16351758Y-2193290D01*
G01X-16373348Y-2193290D01*
G01X-16651732Y-2258060D02*
G01X-16651732Y-2255012D01*
G01X-16648684Y-2248662D01*
G01X-16645382Y-2245614D01*
G01X-16639286Y-2242566D01*
G01X-16626840Y-2242566D01*
G01X-16620744Y-2245614D01*
G01X-16617696Y-2248662D01*
G01X-16614648Y-2255012D01*
G01X-16614648Y-2261108D01*
G01X-16617696Y-2267204D01*
G01X-16623792Y-2276602D01*
G01X-16654780Y-2307590D01*
G01X-16611346Y-2307590D01*
G01X-16581120Y-2279650D02*
G01X-16525494Y-2279650D01*
G01X-16489172Y-2242566D02*
G01X-16455136Y-2242566D01*
G01X-16473678Y-2267204D01*
G01X-16464534Y-2267204D01*
G01X-16458184Y-2270252D01*
G01X-16455136Y-2273554D01*
G01X-16452088Y-2282698D01*
G01X-16452088Y-2289048D01*
G01X-16455136Y-2298192D01*
G01X-16461232Y-2304542D01*
G01X-16470630Y-2307590D01*
G01X-16480028Y-2307590D01*
G01X-16489172Y-2304542D01*
G01X-16492220Y-2301240D01*
G01X-16495268Y-2295144D01*
G01X-16421862Y-2264156D02*
G01X-16403320Y-2307590D01*
G01X-16384778Y-2264156D02*
G01X-16403320Y-2307590D01*
G01X-16348456Y-2242566D02*
G01X-16314420Y-2242566D01*
G01X-16332962Y-2267204D01*
G01X-16323818Y-2267204D01*
G01X-16317468Y-2270252D01*
G01X-16314420Y-2273554D01*
G01X-16311372Y-2282698D01*
G01X-16311372Y-2289048D01*
G01X-16314420Y-2298192D01*
G01X-16320516Y-2304542D01*
G01X-16329914Y-2307590D01*
G01X-16339312Y-2307590D01*
G01X-16348456Y-2304542D01*
G01X-16351504Y-2301240D01*
G01X-16354552Y-2295144D01*
G01X-16648684Y-2356866D02*
G01X-16614648Y-2356866D01*
G01X-16633190Y-2381504D01*
G01X-16623792Y-2381504D01*
G01X-16617696Y-2384552D01*
G01X-16614648Y-2387854D01*
G01X-16611346Y-2396998D01*
G01X-16611346Y-2403348D01*
G01X-16614648Y-2412492D01*
G01X-16620744Y-2418842D01*
G01X-16629888Y-2421890D01*
G01X-16639286Y-2421890D01*
G01X-16648684Y-2418842D01*
G01X-16651732Y-2415540D01*
G01X-16654780Y-2409444D01*
G01X-16581120Y-2393950D02*
G01X-16525494Y-2393950D01*
G01X-16495268Y-2356866D02*
G01X-16495268Y-2421890D01*
G01X-16495268Y-2356866D02*
G01X-16470630Y-2421890D01*
G01X-16445738Y-2356866D02*
G01X-16470630Y-2421890D01*
G01X-16445738Y-2356866D02*
G01X-16445738Y-2421890D01*
G01X-16396970Y-2356866D02*
G01X-16403320Y-2359914D01*
G01X-16409416Y-2366010D01*
G01X-16412464Y-2372360D01*
G01X-16415512Y-2381504D01*
G01X-16415512Y-2396998D01*
G01X-16412464Y-2406396D01*
G01X-16409416Y-2412492D01*
G01X-16403320Y-2418842D01*
G01X-16396970Y-2421890D01*
G01X-16384778Y-2421890D01*
G01X-16378428Y-2418842D01*
G01X-16372332Y-2412492D01*
G01X-16369284Y-2406396D01*
G01X-16365982Y-2396998D01*
G01X-16365982Y-2381504D01*
G01X-16369284Y-2372360D01*
G01X-16372332Y-2366010D01*
G01X-16378428Y-2359914D01*
G01X-16384778Y-2356866D01*
G01X-16396970Y-2356866D01*
G01X-16292576Y-2366010D02*
G01X-16298672Y-2359914D01*
G01X-16308070Y-2356866D01*
G01X-16320516Y-2356866D01*
G01X-16329660Y-2359914D01*
G01X-16335756Y-2366010D01*
G01X-16335756Y-2372360D01*
G01X-16332708Y-2378456D01*
G01X-16329660Y-2381504D01*
G01X-16323564Y-2384552D01*
G01X-16305022Y-2390902D01*
G01X-16298672Y-2393950D01*
G01X-16295624Y-2396998D01*
G01X-16292576Y-2403348D01*
G01X-16292576Y-2412492D01*
G01X-16298672Y-2418842D01*
G01X-16308070Y-2421890D01*
G01X-16320516Y-2421890D01*
G01X-16329660Y-2418842D01*
G01X-16335756Y-2412492D01*
G01X-16262350Y-2356866D02*
G01X-16262350Y-2421890D01*
G01X-16623792Y-2471166D02*
G01X-16654780Y-2514346D01*
G01X-16608298Y-2514346D01*
G01X-16623792Y-2471166D02*
G01X-16623792Y-2536190D01*
G01X-16578072Y-2508250D02*
G01X-16522446Y-2508250D01*
G01X-16492220Y-2471166D02*
G01X-16492220Y-2536190D01*
G01X-16492220Y-2471166D02*
G01X-16467582Y-2536190D01*
G01X-16442690Y-2471166D02*
G01X-16467582Y-2536190D01*
G01X-16442690Y-2471166D02*
G01X-16442690Y-2536190D01*
G01X-16412464Y-2471166D02*
G01X-16412464Y-2536190D01*
G01X-16339058Y-2480310D02*
G01X-16345154Y-2474214D01*
G01X-16354552Y-2471166D01*
G01X-16366998Y-2471166D01*
G01X-16376142Y-2474214D01*
G01X-16382238Y-2480310D01*
G01X-16382238Y-2486660D01*
G01X-16379190Y-2492756D01*
G01X-16376142Y-2495804D01*
G01X-16370046Y-2498852D01*
G01X-16351504Y-2505202D01*
G01X-16345154Y-2508250D01*
G01X-16342106Y-2511298D01*
G01X-16339058Y-2517648D01*
G01X-16339058Y-2526792D01*
G01X-16345154Y-2533142D01*
G01X-16354552Y-2536190D01*
G01X-16366998Y-2536190D01*
G01X-16376142Y-2533142D01*
G01X-16382238Y-2526792D01*
G01X-16290290Y-2471166D02*
G01X-16296640Y-2474214D01*
G01X-16302736Y-2480310D01*
G01X-16305784Y-2486660D01*
G01X-16308832Y-2495804D01*
G01X-16308832Y-2511298D01*
G01X-16305784Y-2520696D01*
G01X-16302736Y-2526792D01*
G01X-16296640Y-2533142D01*
G01X-16290290Y-2536190D01*
G01X-16278098Y-2536190D01*
G01X-16271748Y-2533142D01*
G01X-16265652Y-2526792D01*
G01X-16262604Y-2520696D01*
G01X-16259302Y-2511298D01*
G01X-16259302Y-2495804D01*
G01X-16262604Y-2486660D01*
G01X-16265652Y-2480310D01*
G01X-16271748Y-2474214D01*
G01X-16278098Y-2471166D01*
G01X-16290290Y-2471166D01*
G01X-16617696Y-2585466D02*
G01X-16648684Y-2585466D01*
G01X-16651732Y-2613152D01*
G01X-16648684Y-2610104D01*
G01X-16639286Y-2607056D01*
G01X-16629888Y-2607056D01*
G01X-16620744Y-2610104D01*
G01X-16614648Y-2616454D01*
G01X-16611346Y-2625598D01*
G01X-16611346Y-2631948D01*
G01X-16614648Y-2641092D01*
G01X-16620744Y-2647442D01*
G01X-16629888Y-2650490D01*
G01X-16639286Y-2650490D01*
G01X-16648684Y-2647442D01*
G01X-16651732Y-2644140D01*
G01X-16654780Y-2638044D01*
G01X-16581120Y-2622550D02*
G01X-16525494Y-2622550D01*
G01X-16452088Y-2594610D02*
G01X-16458184Y-2588514D01*
G01X-16467582Y-2585466D01*
G01X-16480028Y-2585466D01*
G01X-16489172Y-2588514D01*
G01X-16495268Y-2594610D01*
G01X-16495268Y-2600960D01*
G01X-16492220Y-2607056D01*
G01X-16489172Y-2610104D01*
G01X-16483076Y-2613152D01*
G01X-16464534Y-2619502D01*
G01X-16458184Y-2622550D01*
G01X-16455136Y-2625598D01*
G01X-16452088Y-2631948D01*
G01X-16452088Y-2641092D01*
G01X-16458184Y-2647442D01*
G01X-16467582Y-2650490D01*
G01X-16480028Y-2650490D01*
G01X-16489172Y-2647442D01*
G01X-16495268Y-2641092D01*
G01X-16375634Y-2600960D02*
G01X-16378682Y-2594610D01*
G01X-16384778Y-2588514D01*
G01X-16391128Y-2585466D01*
G01X-16403320Y-2585466D01*
G01X-16409670Y-2588514D01*
G01X-16415766Y-2594610D01*
G01X-16418814Y-2600960D01*
G01X-16421862Y-2610104D01*
G01X-16421862Y-2625598D01*
G01X-16418814Y-2634996D01*
G01X-16415766Y-2641092D01*
G01X-16409670Y-2647442D01*
G01X-16403320Y-2650490D01*
G01X-16391128Y-2650490D01*
G01X-16384778Y-2647442D01*
G01X-16378682Y-2641092D01*
G01X-16375634Y-2634996D01*
G01X-16345408Y-2585466D02*
G01X-16345408Y-2650490D01*
G01X-16345408Y-2650490D02*
G01X-16308324Y-2650490D01*
G01X-16278098Y-2585466D02*
G01X-16278098Y-2650490D01*
G01X-16234918Y-2585466D02*
G01X-16278098Y-2628646D01*
G01X-16262858Y-2613152D02*
G01X-16234918Y-2650490D01*
G01X-16617696Y-2708910D02*
G01X-16620744Y-2702814D01*
G01X-16629888Y-2699766D01*
G01X-16636238Y-2699766D01*
G01X-16645382Y-2702814D01*
G01X-16651732Y-2712212D01*
G01X-16654780Y-2727452D01*
G01X-16654780Y-2742946D01*
G01X-16651732Y-2755392D01*
G01X-16645382Y-2761742D01*
G01X-16636238Y-2764790D01*
G01X-16633190Y-2764790D01*
G01X-16623792Y-2761742D01*
G01X-16617696Y-2755392D01*
G01X-16614648Y-2746248D01*
G01X-16614648Y-2742946D01*
G01X-16617696Y-2733802D01*
G01X-16623792Y-2727452D01*
G01X-16633190Y-2724404D01*
G01X-16636238Y-2724404D01*
G01X-16645382Y-2727452D01*
G01X-16651732Y-2733802D01*
G01X-16654780Y-2742946D01*
G01X-16584422Y-2736850D02*
G01X-16528796Y-2736850D01*
G01X-16452342Y-2715260D02*
G01X-16455390Y-2708910D01*
G01X-16461486Y-2702814D01*
G01X-16467836Y-2699766D01*
G01X-16480028Y-2699766D01*
G01X-16486378Y-2702814D01*
G01X-16492474Y-2708910D01*
G01X-16495522Y-2715260D01*
G01X-16498570Y-2724404D01*
G01X-16498570Y-2739898D01*
G01X-16495522Y-2749296D01*
G01X-16492474Y-2755392D01*
G01X-16486378Y-2761742D01*
G01X-16480028Y-2764790D01*
G01X-16467836Y-2764790D01*
G01X-16461486Y-2761742D01*
G01X-16455390Y-2755392D01*
G01X-16452342Y-2749296D01*
G01X-16378936Y-2708910D02*
G01X-16385032Y-2702814D01*
G01X-16394430Y-2699766D01*
G01X-16406876Y-2699766D01*
G01X-16416020Y-2702814D01*
G01X-16422116Y-2708910D01*
G01X-16422116Y-2715260D01*
G01X-16419068Y-2721356D01*
G01X-16416020Y-2724404D01*
G01X-16409924Y-2727452D01*
G01X-16391382Y-2733802D01*
G01X-16385032Y-2736850D01*
G01X-16381984Y-2739898D01*
G01X-16378936Y-2746248D01*
G01X-16378936Y-2755392D01*
G01X-16385032Y-2761742D01*
G01X-16394430Y-2764790D01*
G01X-16406876Y-2764790D01*
G01X-16416020Y-2761742D01*
G01X-16422116Y-2755392D01*
G36*
G01X-19658446Y1529311D02*
G01X-19671607Y1529657D01*
G01X-19676110Y1530350D01*
G01X-19681652Y1531043D01*
G01X-19689964Y1532428D01*
G01X-19693428Y1533121D01*
G01X-19696546Y1533814D01*
G01X-19698624Y1534160D01*
G01X-19698624Y1543166D01*
G01X-19697931Y1552517D01*
G01X-19695853Y1552171D01*
G01X-19692736Y1551132D01*
G01X-19681652Y1548361D01*
G01X-19676803Y1547668D01*
G01X-19669876Y1546976D01*
G01X-19659138Y1546629D01*
G01X-19647016Y1546976D01*
G01X-19642166Y1547668D01*
G01X-19638703Y1548361D01*
G01X-19635932Y1549054D01*
G01X-19633161Y1550093D01*
G01X-19630390Y1551478D01*
G01X-19627966Y1552864D01*
G01X-19626234Y1554249D01*
G01X-19623809Y1556674D01*
G01X-19621731Y1560137D01*
G01X-19620692Y1562908D01*
G01X-19620346Y1568450D01*
G01X-19621038Y1574338D01*
G01X-19622424Y1577456D01*
G01X-19623809Y1579880D01*
G01X-19625194Y1581612D01*
G01X-19626926Y1583344D01*
G01X-19629697Y1585422D01*
G01X-19632814Y1587500D01*
G01X-19635239Y1588886D01*
G01X-19640781Y1591656D01*
G01X-19643898Y1593042D01*
G01X-19657753Y1598584D01*
G01X-19660870Y1599969D01*
G01X-19663641Y1601354D01*
G01X-19667104Y1602740D01*
G01X-19675417Y1606896D01*
G01X-19677842Y1608282D01*
G01X-19679920Y1609667D01*
G01X-19681652Y1610706D01*
G01X-19683384Y1612092D01*
G01X-19688579Y1617287D01*
G01X-19690657Y1619712D01*
G01X-19692389Y1622483D01*
G01X-19694467Y1626639D01*
G01X-19695506Y1629756D01*
G01X-19696199Y1632874D01*
G01X-19696546Y1636337D01*
G01X-19696199Y1641879D01*
G01X-19695160Y1647421D01*
G01X-19693774Y1651577D01*
G01X-19692389Y1655041D01*
G01X-19690657Y1658158D01*
G01X-19688233Y1661276D01*
G01X-19686154Y1664046D01*
G01X-19684423Y1665778D01*
G01X-19682691Y1667164D01*
G01X-19680266Y1668896D01*
G01X-19676803Y1670974D01*
G01X-19673686Y1672706D01*
G01X-19670568Y1674091D01*
G01X-19666758Y1675476D01*
G01X-19663641Y1676516D01*
G01X-19656714Y1677901D01*
G01X-19650479Y1678594D01*
G01X-19643552Y1678940D01*
G01X-19636624Y1678594D01*
G01X-19629697Y1677901D01*
G01X-19619999Y1676516D01*
G01X-19616189Y1675823D01*
G01X-19610994Y1674784D01*
G01X-19608569Y1674091D01*
G01X-19608569Y1665432D01*
G01X-19608829Y1659024D01*
G01X-19609608Y1657119D01*
G01X-19611686Y1657812D01*
G01X-19617921Y1659197D01*
G01X-19625541Y1660583D01*
G01X-19631776Y1661276D01*
G01X-19641474Y1661622D01*
G01X-19651172Y1661276D01*
G01X-19656021Y1660583D01*
G01X-19659138Y1659890D01*
G01X-19662602Y1658851D01*
G01X-19665373Y1657466D01*
G01X-19667797Y1656080D01*
G01X-19669876Y1654694D01*
G01X-19671607Y1652963D01*
G01X-19672993Y1651231D01*
G01X-19674032Y1649153D01*
G01X-19675071Y1646382D01*
G01X-19675764Y1642918D01*
G01X-19675417Y1637723D01*
G01X-19674378Y1633566D01*
G01X-19672646Y1630796D01*
G01X-19670568Y1628371D01*
G01X-19668836Y1626639D01*
G01X-19665373Y1623868D01*
G01X-19662948Y1622136D01*
G01X-19658099Y1619366D01*
G01X-19654636Y1617980D01*
G01X-19651518Y1616594D01*
G01X-19644591Y1613824D01*
G01X-19641820Y1612784D01*
G01X-19634546Y1609667D01*
G01X-19631776Y1608282D01*
G01X-19625541Y1605511D01*
G01X-19622770Y1604126D01*
G01X-19620346Y1602740D01*
G01X-19617574Y1601008D01*
G01X-19615150Y1599276D01*
G01X-19611686Y1596506D01*
G01X-19608223Y1593042D01*
G01X-19606144Y1590617D01*
G01X-19604413Y1588193D01*
G01X-19603027Y1585768D01*
G01X-19601642Y1582997D01*
G01X-19600603Y1579880D01*
G01X-19599910Y1576763D01*
G01X-19599564Y1571567D01*
G01X-19599910Y1566372D01*
G01X-19600603Y1562216D01*
G01X-19601642Y1557713D01*
G01X-19603027Y1554596D01*
G01X-19604759Y1551132D01*
G01X-19607184Y1547668D01*
G01X-19609262Y1544897D01*
G01X-19611686Y1542473D01*
G01X-19614457Y1540394D01*
G01X-19616882Y1538663D01*
G01X-19619999Y1536931D01*
G01X-19622770Y1535546D01*
G01X-19625887Y1534160D01*
G01X-19633161Y1531736D01*
G01X-19640088Y1530350D01*
G01X-19645630Y1529657D01*
G01X-19658446Y1529311D01*
G37*
G36*
G01X-19564927Y1531389D02*
G01X-19565274Y1534506D01*
G01X-19568737Y1558752D01*
G01X-19569430Y1562908D01*
G01X-19577743Y1621097D01*
G01X-19578436Y1625254D01*
G01X-19580514Y1639801D01*
G01X-19580860Y1642918D01*
G01X-19572201Y1642918D01*
G01X-19562503Y1642226D01*
G01X-19561464Y1639801D01*
G01X-19559039Y1620404D01*
G01X-19558346Y1614170D01*
G01X-19553497Y1575377D01*
G01X-19552804Y1569143D01*
G01X-19550726Y1552517D01*
G01X-19550293Y1551998D01*
G01X-19549687Y1552517D01*
G01X-19548648Y1555288D01*
G01X-19545531Y1564640D01*
G01X-19543453Y1571567D01*
G01X-19537218Y1590271D01*
G01X-19535140Y1597198D01*
G01X-19530984Y1609667D01*
G01X-19529944Y1613131D01*
G01X-19529598Y1615209D01*
G01X-19523017Y1615209D01*
G01X-19517822Y1614863D01*
G01X-19515397Y1613824D01*
G01X-19514012Y1611053D01*
G01X-19512973Y1608282D01*
G01X-19510894Y1602047D01*
G01X-19508816Y1596506D01*
G01X-19506738Y1590271D01*
G01X-19504660Y1584729D01*
G01X-19502582Y1578494D01*
G01X-19501196Y1575031D01*
G01X-19497040Y1562562D01*
G01X-19495654Y1559098D01*
G01X-19494616Y1555634D01*
G01X-19494096Y1554163D01*
G01X-19493230Y1553903D01*
G01X-19492451Y1554682D01*
G01X-19492191Y1556327D01*
G01X-19491844Y1559444D01*
G01X-19491152Y1566372D01*
G01X-19490459Y1571914D01*
G01X-19487688Y1596852D01*
G01X-19486996Y1602394D01*
G01X-19484224Y1627332D01*
G01X-19483532Y1632874D01*
G01X-19482839Y1639108D01*
G01X-19482493Y1641533D01*
G01X-19480241Y1642572D01*
G01X-19473487Y1642918D01*
G01X-19464136Y1642226D01*
G01X-19464136Y1639801D01*
G01X-19464828Y1634952D01*
G01X-19465521Y1630796D01*
G01X-19470370Y1596852D01*
G01X-19471063Y1592696D01*
G01X-19476604Y1553903D01*
G01X-19477297Y1549746D01*
G01X-19479722Y1532774D01*
G01X-19482493Y1531736D01*
G01X-19490806Y1531389D01*
G01X-19502928Y1532082D01*
G01X-19504314Y1534506D01*
G01X-19505353Y1537624D01*
G01X-19507431Y1543166D01*
G01X-19511587Y1555634D01*
G01X-19512973Y1559098D01*
G01X-19520939Y1582997D01*
G01X-19521632Y1586114D01*
G01X-19522671Y1588539D01*
G01X-19523277Y1588366D01*
G01X-19523710Y1587154D01*
G01X-19524749Y1583344D01*
G01X-19542067Y1531389D01*
G01X-19564927Y1531389D01*
G37*
G36*
G01X-19390360Y1529311D02*
G01X-19402829Y1529657D01*
G01X-19405254Y1530350D01*
G01X-19408717Y1531043D01*
G01X-19413220Y1532082D01*
G01X-19417030Y1533467D01*
G01X-19420147Y1534853D01*
G01X-19422918Y1536238D01*
G01X-19425689Y1537970D01*
G01X-19428114Y1539702D01*
G01X-19431577Y1542473D01*
G01X-19433309Y1544204D01*
G01X-19436080Y1547668D01*
G01X-19437466Y1549746D01*
G01X-19440236Y1554596D01*
G01X-19441622Y1557713D01*
G01X-19444046Y1564986D01*
G01X-19445432Y1572606D01*
G01X-19446471Y1585076D01*
G01X-19446124Y1589232D01*
G01X-19445778Y1592349D01*
G01X-19445432Y1596852D01*
G01X-19445016Y1598930D01*
G01X-19425689Y1598930D01*
G01X-19425343Y1596159D01*
G01X-19395902Y1595813D01*
G01X-19374081Y1596159D01*
G01X-19366807Y1597198D01*
G01X-19367154Y1599623D01*
G01X-19367846Y1605164D01*
G01X-19368193Y1607589D01*
G01X-19368886Y1610360D01*
G01X-19369924Y1613131D01*
G01X-19371310Y1615902D01*
G01X-19372696Y1618326D01*
G01X-19374081Y1620058D01*
G01X-19378237Y1624214D01*
G01X-19381701Y1626293D01*
G01X-19384472Y1627678D01*
G01X-19387936Y1628717D01*
G01X-19391399Y1629410D01*
G01X-19394170Y1629756D01*
G01X-19398326Y1629410D01*
G01X-19402483Y1628717D01*
G01X-19406293Y1627678D01*
G01X-19409410Y1626293D01*
G01X-19411488Y1625254D01*
G01X-19416684Y1621097D01*
G01X-19418416Y1618673D01*
G01X-19420147Y1615902D01*
G01X-19421533Y1613477D01*
G01X-19422918Y1610706D01*
G01X-19423957Y1607936D01*
G01X-19425343Y1602394D01*
G01X-19425689Y1598930D01*
G01X-19425689Y1598930D01*
G01X-19445016Y1598930D01*
G01X-19444046Y1603779D01*
G01X-19443007Y1607589D01*
G01X-19441968Y1610706D01*
G01X-19440929Y1613477D01*
G01X-19439890Y1615902D01*
G01X-19438504Y1619019D01*
G01X-19436426Y1622483D01*
G01X-19434002Y1625946D01*
G01X-19431924Y1628717D01*
G01X-19426036Y1634606D01*
G01X-19422572Y1637030D01*
G01X-19419108Y1639108D01*
G01X-19415991Y1640840D01*
G01X-19410449Y1642918D01*
G01X-19406639Y1643957D01*
G01X-19403176Y1644650D01*
G01X-19396594Y1644996D01*
G01X-19390014Y1644650D01*
G01X-19382740Y1643611D01*
G01X-19379969Y1642918D01*
G01X-19376852Y1641879D01*
G01X-19374081Y1640840D01*
G01X-19371310Y1639454D01*
G01X-19368193Y1637723D01*
G01X-19365768Y1636337D01*
G01X-19362304Y1633566D01*
G01X-19359880Y1631488D01*
G01X-19357109Y1628024D01*
G01X-19355031Y1624907D01*
G01X-19353646Y1622483D01*
G01X-19351567Y1618326D01*
G01X-19350528Y1615556D01*
G01X-19349489Y1612438D01*
G01X-19348450Y1608628D01*
G01X-19347757Y1605164D01*
G01X-19347064Y1598237D01*
G01X-19346718Y1593042D01*
G01X-19347064Y1586461D01*
G01X-19347757Y1582304D01*
G01X-19348104Y1580573D01*
G01X-19425689Y1580573D01*
G01X-19425689Y1576763D01*
G01X-19424996Y1570528D01*
G01X-19423957Y1567064D01*
G01X-19423264Y1564640D01*
G01X-19422226Y1562216D01*
G01X-19420494Y1559444D01*
G01X-19418762Y1557020D01*
G01X-19417376Y1555288D01*
G01X-19414952Y1552864D01*
G01X-19411488Y1550439D01*
G01X-19408371Y1548707D01*
G01X-19404907Y1547322D01*
G01X-19401790Y1546283D01*
G01X-19396941Y1545590D01*
G01X-19388282Y1545244D01*
G01X-19379623Y1545590D01*
G01X-19377198Y1545936D01*
G01X-19373388Y1546283D01*
G01X-19368539Y1546976D01*
G01X-19360226Y1548361D01*
G01X-19355377Y1549400D01*
G01X-19352953Y1550093D01*
G01X-19352953Y1542126D01*
G01X-19353299Y1536065D01*
G01X-19354338Y1533814D01*
G01X-19356763Y1533121D01*
G01X-19362997Y1531736D01*
G01X-19371310Y1530350D01*
G01X-19378237Y1529657D01*
G01X-19390360Y1529311D01*
G37*
G36*
G01X-19127470Y1529311D02*
G01X-19132319Y1529657D01*
G01X-19134744Y1530004D01*
G01X-19137861Y1530350D01*
G01X-19140286Y1530696D01*
G01X-19143749Y1531389D01*
G01X-19149984Y1533467D01*
G01X-19153794Y1535199D01*
G01X-19158643Y1538663D01*
G01X-19161067Y1540741D01*
G01X-19162453Y1542473D01*
G01X-19163838Y1544551D01*
G01X-19165224Y1546976D01*
G01X-19166263Y1549400D01*
G01X-19167302Y1552171D01*
G01X-19168341Y1555981D01*
G01X-19169034Y1559444D01*
G01X-19169380Y1593734D01*
G01X-19169380Y1626986D01*
G01X-19201246Y1626986D01*
G01X-19201246Y1633220D01*
G01X-19200899Y1641186D01*
G01X-19200553Y1642918D01*
G01X-19169380Y1642918D01*
G01X-19169380Y1657466D01*
G01X-19169034Y1673052D01*
G01X-19168168Y1674004D01*
G01X-19166263Y1674784D01*
G01X-19162799Y1675823D01*
G01X-19159336Y1676516D01*
G01X-19155526Y1677554D01*
G01X-19152062Y1678594D01*
G01X-19149984Y1678940D01*
G01X-19149984Y1642918D01*
G01X-19100107Y1642918D01*
G01X-19100107Y1626986D01*
G01X-19149984Y1626986D01*
G01X-19149984Y1595813D01*
G01X-19149291Y1562216D01*
G01X-19147906Y1558059D01*
G01X-19146520Y1555288D01*
G01X-19145134Y1553210D01*
G01X-19142710Y1550786D01*
G01X-19139939Y1549054D01*
G01X-19137861Y1548014D01*
G01X-19135090Y1546976D01*
G01X-19132319Y1546283D01*
G01X-19125046Y1545936D01*
G01X-19117772Y1546283D01*
G01X-19112230Y1546976D01*
G01X-19108074Y1547668D01*
G01X-19102532Y1548707D01*
G01X-19100107Y1549400D01*
G01X-19100107Y1541780D01*
G01X-19100800Y1533121D01*
G01X-19103917Y1531736D01*
G01X-19107381Y1531043D01*
G01X-19112230Y1530350D01*
G01X-19121928Y1529657D01*
G01X-19127470Y1529311D01*
G37*
G36*
G01X-19283680Y1529311D02*
G01X-19292339Y1529657D01*
G01X-19295803Y1530696D01*
G01X-19299959Y1532082D01*
G01X-19303076Y1533467D01*
G01X-19305501Y1534853D01*
G01X-19307579Y1535892D01*
G01X-19309311Y1537277D01*
G01X-19311043Y1539009D01*
G01X-19313121Y1541434D01*
G01X-19314853Y1544204D01*
G01X-19316238Y1546976D01*
G01X-19317277Y1549746D01*
G01X-19317970Y1552864D01*
G01X-19318663Y1558059D01*
G01X-19318663Y1562216D01*
G01X-19318619Y1562562D01*
G01X-19298227Y1562562D01*
G01X-19297534Y1556327D01*
G01X-19295803Y1552517D01*
G01X-19293724Y1549746D01*
G01X-19291300Y1548014D01*
G01X-19288876Y1546629D01*
G01X-19286451Y1545936D01*
G01X-19286451Y1545936D01*
G01X-19284719Y1545590D01*
G01X-19281256Y1545244D01*
G01X-19276406Y1545590D01*
G01X-19272943Y1546283D01*
G01X-19269133Y1547322D01*
G01X-19265669Y1548707D01*
G01X-19262552Y1550093D01*
G01X-19259434Y1551824D01*
G01X-19256317Y1553903D01*
G01X-19253893Y1555634D01*
G01X-19251814Y1557020D01*
G01X-19249736Y1558752D01*
G01X-19247312Y1560830D01*
G01X-19245580Y1561869D01*
G01X-19245580Y1581958D01*
G01X-19260820Y1581958D01*
G01X-19277792Y1581612D01*
G01X-19281256Y1580919D01*
G01X-19285066Y1579880D01*
G01X-19288529Y1578494D01*
G01X-19291646Y1576763D01*
G01X-19294071Y1574684D01*
G01X-19295456Y1572953D01*
G01X-19296496Y1570874D01*
G01X-19297534Y1568104D01*
G01X-19298227Y1562562D01*
G01X-19318619Y1562562D01*
G01X-19317970Y1567757D01*
G01X-19317277Y1570528D01*
G01X-19316238Y1573646D01*
G01X-19314853Y1576763D01*
G01X-19313467Y1579187D01*
G01X-19311736Y1581612D01*
G01X-19309657Y1584036D01*
G01X-19307926Y1585768D01*
G01X-19305501Y1587846D01*
G01X-19302037Y1589924D01*
G01X-19298920Y1591656D01*
G01X-19293378Y1593734D01*
G01X-19289914Y1594774D01*
G01X-19286797Y1595466D01*
G01X-19281948Y1596159D01*
G01X-19270172Y1596852D01*
G01X-19257356Y1597198D01*
G01X-19245580Y1597198D01*
G01X-19245580Y1599969D01*
G01X-19245926Y1605857D01*
G01X-19246619Y1611399D01*
G01X-19247658Y1615556D01*
G01X-19249044Y1618326D01*
G01X-19251122Y1621097D01*
G01X-19253200Y1623522D01*
G01X-19255278Y1624907D01*
G01X-19258049Y1626293D01*
G01X-19260820Y1627332D01*
G01X-19263244Y1628024D01*
G01X-19271904Y1628371D01*
G01X-19281256Y1628024D01*
G01X-19289568Y1626639D01*
G01X-19292339Y1625946D01*
G01X-19295456Y1625254D01*
G01X-19298920Y1624214D01*
G01X-19305154Y1622136D01*
G01X-19307926Y1621097D01*
G01X-19309311Y1620751D01*
G01X-19309311Y1629410D01*
G01X-19308964Y1635991D01*
G01X-19307926Y1638416D01*
G01X-19305154Y1639454D01*
G01X-19301691Y1640494D01*
G01X-19297188Y1641533D01*
G01X-19293724Y1642572D01*
G01X-19285412Y1643957D01*
G01X-19278484Y1644650D01*
G01X-19270864Y1644996D01*
G01X-19263244Y1644650D01*
G01X-19258396Y1643957D01*
G01X-19254932Y1643264D01*
G01X-19250429Y1642226D01*
G01X-19246966Y1640840D01*
G01X-19243848Y1639454D01*
G01X-19241424Y1638069D01*
G01X-19239692Y1637030D01*
G01X-19237960Y1635644D01*
G01X-19233804Y1631488D01*
G01X-19231379Y1628024D01*
G01X-19229647Y1624907D01*
G01X-19228262Y1621097D01*
G01X-19227223Y1617634D01*
G01X-19226530Y1610706D01*
G01X-19226184Y1570528D01*
G01X-19226184Y1531389D01*
G01X-19234150Y1531389D01*
G01X-19243156Y1532082D01*
G01X-19243935Y1533900D01*
G01X-19244194Y1537970D01*
G01X-19244541Y1544204D01*
G01X-19245147Y1544811D01*
G01X-19246273Y1544551D01*
G01X-19248351Y1542819D01*
G01X-19250083Y1541087D01*
G01X-19251814Y1539702D01*
G01X-19254239Y1537970D01*
G01X-19257010Y1536238D01*
G01X-19261859Y1533467D01*
G01X-19264630Y1532428D01*
G01X-19267747Y1531389D01*
G01X-19271557Y1530350D01*
G01X-19275021Y1529657D01*
G01X-19283680Y1529311D01*
G37*
G36*
G01X-19075862Y1484976D02*
G01X-19075862Y1502294D01*
G01X-19073437Y1502294D01*
G01X-19069974Y1501948D01*
G01X-19067203Y1501602D01*
G01X-19062354Y1501948D01*
G01X-19057504Y1502641D01*
G01X-19054734Y1503334D01*
G01X-19051963Y1504373D01*
G01X-19049192Y1505758D01*
G01X-19047114Y1507144D01*
G01X-19043650Y1509914D01*
G01X-19041226Y1512339D01*
G01X-19038454Y1515803D01*
G01X-19034991Y1520998D01*
G01X-19033606Y1523423D01*
G01X-19030834Y1528964D01*
G01X-19030834Y1532428D01*
G01X-19068242Y1625946D01*
G01X-19069627Y1629756D01*
G01X-19071013Y1633220D01*
G01X-19072052Y1635991D01*
G01X-19073091Y1638416D01*
G01X-19074130Y1641186D01*
G01X-19074476Y1642918D01*
G01X-19064086Y1642918D01*
G01X-19053002Y1642226D01*
G01X-19051616Y1639801D01*
G01X-19050231Y1635991D01*
G01X-19047460Y1629064D01*
G01X-19044689Y1621444D01*
G01X-19041918Y1614516D01*
G01X-19040533Y1610706D01*
G01X-19039147Y1607243D01*
G01X-19037762Y1603433D01*
G01X-19036376Y1599969D01*
G01X-19034298Y1594427D01*
G01X-19032913Y1590964D01*
G01X-19031527Y1587154D01*
G01X-19030142Y1583690D01*
G01X-19028756Y1579880D01*
G01X-19027371Y1576416D01*
G01X-19025293Y1570874D01*
G01X-19021136Y1558406D01*
G01X-19020097Y1554942D01*
G01X-19019578Y1553470D01*
G01X-19018712Y1553210D01*
G01X-19016980Y1555634D01*
G01X-19011438Y1570874D01*
G01X-19010053Y1575031D01*
G01X-19008667Y1578494D01*
G01X-19006589Y1584729D01*
G01X-19004511Y1590271D01*
G01X-19002433Y1596506D01*
G01X-19001047Y1599969D01*
G01X-18999662Y1604126D01*
G01X-18996891Y1611746D01*
G01X-18995506Y1615902D01*
G01X-18994120Y1619366D01*
G01X-18992042Y1625600D01*
G01X-18989964Y1631142D01*
G01X-18987886Y1637376D01*
G01X-18986500Y1640840D01*
G01X-18985807Y1642918D01*
G01X-18975763Y1642918D01*
G01X-18965718Y1642226D01*
G01X-18966411Y1639454D01*
G01X-18969182Y1632527D01*
G01X-18971953Y1624907D01*
G01X-18974724Y1617980D01*
G01X-18977494Y1610360D01*
G01X-18978880Y1606896D01*
G01X-18980958Y1601354D01*
G01X-18982344Y1597891D01*
G01X-18985114Y1590271D01*
G01X-18987886Y1583344D01*
G01X-18990656Y1575724D01*
G01X-18993427Y1568796D01*
G01X-18996198Y1561176D01*
G01X-18998969Y1554249D01*
G01X-19001740Y1546629D01*
G01X-19003126Y1543166D01*
G01X-19004164Y1540394D01*
G01X-19007282Y1533121D01*
G01X-19010053Y1526886D01*
G01X-19012824Y1521344D01*
G01X-19016980Y1514071D01*
G01X-19018712Y1511300D01*
G01X-19020444Y1508876D01*
G01X-19021829Y1507144D01*
G01X-19022868Y1505412D01*
G01X-19024254Y1503680D01*
G01X-19031874Y1496060D01*
G01X-19034644Y1493982D01*
G01X-19037069Y1492250D01*
G01X-19040186Y1490518D01*
G01X-19042957Y1489133D01*
G01X-19046074Y1487747D01*
G01X-19049192Y1486708D01*
G01X-19056119Y1485323D01*
G01X-19066510Y1484976D01*
G01X-19075862Y1484976D01*
G37*
G36*
G01X-18447558Y1484976D02*
G01X-18447558Y1502294D01*
G01X-18445134Y1502294D01*
G01X-18441670Y1501948D01*
G01X-18438899Y1501602D01*
G01X-18434050Y1501948D01*
G01X-18429201Y1502641D01*
G01X-18426430Y1503334D01*
G01X-18423659Y1504373D01*
G01X-18420888Y1505758D01*
G01X-18418117Y1507490D01*
G01X-18415693Y1509568D01*
G01X-18412229Y1513032D01*
G01X-18410151Y1515803D01*
G01X-18407726Y1519266D01*
G01X-18405994Y1522037D01*
G01X-18402531Y1528964D01*
G01X-18402531Y1532774D01*
G01X-18442709Y1633220D01*
G01X-18443748Y1635991D01*
G01X-18444787Y1638416D01*
G01X-18445826Y1641186D01*
G01X-18446173Y1642918D01*
G01X-18436821Y1642918D01*
G01X-18425737Y1642572D01*
G01X-18424265Y1641793D01*
G01X-18423313Y1640147D01*
G01X-18421927Y1636337D01*
G01X-18420542Y1632874D01*
G01X-18419156Y1629064D01*
G01X-18416386Y1622136D01*
G01X-18413614Y1614516D01*
G01X-18410844Y1607589D01*
G01X-18409458Y1603779D01*
G01X-18408073Y1600316D01*
G01X-18406687Y1596506D01*
G01X-18405302Y1593042D01*
G01X-18400106Y1579187D01*
G01X-18399067Y1576763D01*
G01X-18395950Y1568450D01*
G01X-18391794Y1555981D01*
G01X-18390754Y1553556D01*
G01X-18390062Y1553297D01*
G01X-18389369Y1553903D01*
G01X-18387984Y1557020D01*
G01X-18386598Y1561176D01*
G01X-18385213Y1564640D01*
G01X-18383134Y1570874D01*
G01X-18381749Y1574338D01*
G01X-18380364Y1578494D01*
G01X-18377593Y1586114D01*
G01X-18376207Y1590271D01*
G01X-18374822Y1593734D01*
G01X-18372744Y1599969D01*
G01X-18371358Y1603433D01*
G01X-18368587Y1611746D01*
G01X-18367202Y1615209D01*
G01X-18365124Y1621444D01*
G01X-18363738Y1624907D01*
G01X-18362353Y1629064D01*
G01X-18359582Y1636684D01*
G01X-18357504Y1642918D01*
G01X-18347113Y1642918D01*
G01X-18339406Y1642745D01*
G01X-18337068Y1642226D01*
G01X-18338107Y1639454D01*
G01X-18340878Y1631834D01*
G01X-18343649Y1624907D01*
G01X-18346420Y1617287D01*
G01X-18349191Y1610360D01*
G01X-18351962Y1602740D01*
G01X-18354733Y1595813D01*
G01X-18357504Y1588193D01*
G01X-18360274Y1581266D01*
G01X-18363046Y1573646D01*
G01X-18365816Y1566718D01*
G01X-18368587Y1559098D01*
G01X-18371358Y1552171D01*
G01X-18374129Y1544551D01*
G01X-18376900Y1537624D01*
G01X-18378286Y1534506D01*
G01X-18380364Y1529657D01*
G01X-18385906Y1518574D01*
G01X-18387291Y1516149D01*
G01X-18389023Y1513378D01*
G01X-18391101Y1510261D01*
G01X-18394564Y1505412D01*
G01X-18396643Y1502987D01*
G01X-18404263Y1495367D01*
G01X-18407726Y1492943D01*
G01X-18410497Y1491211D01*
G01X-18414654Y1489133D01*
G01X-18417078Y1488094D01*
G01X-18419849Y1487054D01*
G01X-18423659Y1486016D01*
G01X-18427123Y1485323D01*
G01X-18437860Y1484976D01*
G01X-18447558Y1484976D01*
G37*
G36*
G01X-18561858Y1485669D02*
G01X-18561858Y1578494D01*
G01X-18542462Y1578494D01*
G01X-18541769Y1550439D01*
G01X-18539691Y1549054D01*
G01X-18536920Y1548014D01*
G01X-18533456Y1546976D01*
G01X-18530339Y1546283D01*
G01X-18526183Y1545936D01*
G01X-18526183Y1545936D01*
G01X-18521334Y1545590D01*
G01X-18516484Y1545590D01*
G01X-18511636Y1546283D01*
G01X-18508864Y1546976D01*
G01X-18505747Y1548014D01*
G01X-18502630Y1549400D01*
G01X-18500206Y1550786D01*
G01X-18498127Y1552517D01*
G01X-18493971Y1556674D01*
G01X-18491893Y1559791D01*
G01X-18490507Y1562216D01*
G01X-18489468Y1564640D01*
G01X-18488429Y1567411D01*
G01X-18487390Y1570874D01*
G01X-18486697Y1573992D01*
G01X-18486004Y1580226D01*
G01X-18485658Y1586807D01*
G01X-18486004Y1593388D01*
G01X-18486351Y1595813D01*
G01X-18486697Y1600316D01*
G01X-18487390Y1604472D01*
G01X-18488083Y1608282D01*
G01X-18489122Y1612092D01*
G01X-18491200Y1616941D01*
G01X-18492932Y1619712D01*
G01X-18495010Y1622136D01*
G01X-18496742Y1623868D01*
G01X-18498820Y1625600D01*
G01X-18501591Y1626986D01*
G01X-18505054Y1628024D01*
G01X-18510250Y1628024D01*
G01X-18514406Y1627332D01*
G01X-18517177Y1626639D01*
G01X-18519948Y1625600D01*
G01X-18522373Y1624214D01*
G01X-18526529Y1621444D01*
G01X-18530686Y1617980D01*
G01X-18533456Y1615556D01*
G01X-18535534Y1612784D01*
G01X-18537266Y1611053D01*
G01X-18541423Y1606204D01*
G01X-18542202Y1598930D01*
G01X-18542462Y1578494D01*
G01X-18561858Y1578494D01*
G01X-18561858Y1642918D01*
G01X-18553546Y1642918D01*
G01X-18547224Y1642658D01*
G01X-18544886Y1641879D01*
G01X-18544194Y1639801D01*
G01X-18543501Y1629410D01*
G01X-18543154Y1626986D01*
G01X-18542808Y1626119D01*
G01X-18541769Y1626293D01*
G01X-18539344Y1628717D01*
G01X-18537266Y1631142D01*
G01X-18533803Y1634606D01*
G01X-18530339Y1637376D01*
G01X-18527568Y1639108D01*
G01X-18524451Y1640840D01*
G01X-18518909Y1642918D01*
G01X-18515099Y1643957D01*
G01X-18511636Y1644650D01*
G01X-18507133Y1644996D01*
G01X-18500552Y1644650D01*
G01X-18495010Y1643611D01*
G01X-18490854Y1642226D01*
G01X-18487390Y1640494D01*
G01X-18483926Y1638069D01*
G01X-18481156Y1635991D01*
G01X-18478731Y1633566D01*
G01X-18476653Y1630796D01*
G01X-18475267Y1628717D01*
G01X-18472496Y1623868D01*
G01X-18471111Y1620751D01*
G01X-18468686Y1613477D01*
G01X-18467301Y1607243D01*
G01X-18466608Y1601701D01*
G01X-18466262Y1592003D01*
G01X-18466608Y1580226D01*
G01X-18467301Y1575377D01*
G01X-18467994Y1571914D01*
G01X-18469379Y1566372D01*
G01X-18470418Y1563254D01*
G01X-18471457Y1560484D01*
G01X-18472496Y1558059D01*
G01X-18475267Y1553210D01*
G01X-18476306Y1551132D01*
G01X-18480463Y1545936D01*
G01X-18482194Y1544204D01*
G01X-18485658Y1541434D01*
G01X-18488083Y1539356D01*
G01X-18491200Y1537277D01*
G01X-18494317Y1535546D01*
G01X-18497434Y1534160D01*
G01X-18503669Y1532082D01*
G01X-18507826Y1531043D01*
G01X-18511636Y1530350D01*
G01X-18521334Y1530004D01*
G01X-18531032Y1530350D01*
G01X-18535881Y1531043D01*
G01X-18539691Y1531736D01*
G01X-18542462Y1532082D01*
G01X-18542462Y1485669D01*
G01X-18561858Y1485669D01*
G37*
G36*
G01X-18757207Y1529311D02*
G01X-18766213Y1529657D01*
G01X-18769330Y1530350D01*
G01X-18776257Y1531736D01*
G01X-18780067Y1532774D01*
G01X-18783877Y1534160D01*
G01X-18787341Y1535546D01*
G01X-18790112Y1536931D01*
G01X-18792536Y1538316D01*
G01X-18796693Y1541087D01*
G01X-18798771Y1542819D01*
G01X-18805698Y1549746D01*
G01X-18807084Y1551478D01*
G01X-18808816Y1553903D01*
G01X-18810547Y1556674D01*
G01X-18813318Y1562216D01*
G01X-18814357Y1564640D01*
G01X-18815396Y1567411D01*
G01X-18816782Y1571221D01*
G01X-18817821Y1574684D01*
G01X-18819206Y1582304D01*
G01X-18819899Y1587846D01*
G01X-18820592Y1599623D01*
G01X-18820592Y1601701D01*
G01X-18820246Y1606550D01*
G01X-18819899Y1613477D01*
G01X-18819206Y1619019D01*
G01X-18817821Y1625946D01*
G01X-18816782Y1630449D01*
G01X-18815743Y1633566D01*
G01X-18815050Y1635991D01*
G01X-18814011Y1638762D01*
G01X-18812626Y1641879D01*
G01X-18809854Y1647421D01*
G01X-18808469Y1649846D01*
G01X-18807430Y1651924D01*
G01X-18806044Y1654002D01*
G01X-18801888Y1658851D01*
G01X-18799464Y1661276D01*
G01X-18797386Y1663700D01*
G01X-18794961Y1665778D01*
G01X-18791497Y1668203D01*
G01X-18789073Y1669934D01*
G01X-18786648Y1671320D01*
G01X-18783877Y1672706D01*
G01X-18780760Y1674091D01*
G01X-18773486Y1676516D01*
G01X-18766559Y1677901D01*
G01X-18762749Y1678247D01*
G01X-18758246Y1678594D01*
G01X-18755476Y1678594D01*
G01X-18745084Y1677901D01*
G01X-18740236Y1677208D01*
G01X-18736772Y1676516D01*
G01X-18731923Y1675476D01*
G01X-18728459Y1674437D01*
G01X-18725342Y1673398D01*
G01X-18721532Y1672013D01*
G01X-18719800Y1671320D01*
G01X-18719800Y1661968D01*
G01X-18719973Y1655041D01*
G01X-18720493Y1652963D01*
G01X-18722571Y1653656D01*
G01X-18724996Y1654694D01*
G01X-18727766Y1656080D01*
G01X-18731576Y1657466D01*
G01X-18736079Y1658851D01*
G01X-18739543Y1659890D01*
G01X-18744392Y1660583D01*
G01X-18753051Y1660929D01*
G01X-18761710Y1660583D01*
G01X-18765174Y1659890D01*
G01X-18769676Y1658851D01*
G01X-18772794Y1657466D01*
G01X-18775564Y1656080D01*
G01X-18778682Y1654348D01*
G01X-18781106Y1652616D01*
G01X-18784570Y1649846D01*
G01X-18787341Y1646382D01*
G01X-18789419Y1643957D01*
G01X-18791497Y1640494D01*
G01X-18793229Y1637376D01*
G01X-18794614Y1634259D01*
G01X-18796000Y1630449D01*
G01X-18797039Y1627332D01*
G01X-18798424Y1621097D01*
G01X-18799117Y1615556D01*
G01X-18799464Y1605511D01*
G01X-18799117Y1594081D01*
G01X-18798424Y1588539D01*
G01X-18797732Y1584383D01*
G01X-18797039Y1580919D01*
G01X-18796000Y1577109D01*
G01X-18794961Y1573992D01*
G01X-18793922Y1571221D01*
G01X-18791151Y1565679D01*
G01X-18789766Y1563601D01*
G01X-18788380Y1561869D01*
G01X-18784224Y1557020D01*
G01X-18781799Y1554942D01*
G01X-18778682Y1552864D01*
G01X-18776257Y1551478D01*
G01X-18771408Y1549400D01*
G01X-18768291Y1548361D01*
G01X-18765174Y1547668D01*
G01X-18756168Y1546976D01*
G01X-18754436Y1546976D01*
G01X-18750626Y1547322D01*
G01X-18745084Y1547668D01*
G01X-18741621Y1548361D01*
G01X-18739196Y1548707D01*
G01X-18735733Y1549400D01*
G01X-18731230Y1550786D01*
G01X-18727074Y1552171D01*
G01X-18723956Y1553556D01*
G01X-18721186Y1554596D01*
G01X-18719800Y1554942D01*
G01X-18719800Y1547322D01*
G01X-18720146Y1537970D01*
G01X-18720926Y1536498D01*
G01X-18722571Y1535546D01*
G01X-18726727Y1534160D01*
G01X-18731230Y1532774D01*
G01X-18734694Y1531736D01*
G01X-18742314Y1530350D01*
G01X-18748548Y1529657D01*
G01X-18757207Y1529311D01*
G37*
G36*
G01X-18655376Y1529311D02*
G01X-18665421Y1530004D01*
G01X-18669924Y1531389D01*
G01X-18673041Y1532774D01*
G01X-18675812Y1534160D01*
G01X-18678236Y1535546D01*
G01X-18680661Y1537277D01*
G01X-18683086Y1539356D01*
G01X-18684471Y1541087D01*
G01X-18685856Y1543166D01*
G01X-18687242Y1545590D01*
G01X-18688627Y1549054D01*
G01X-18689666Y1552517D01*
G01X-18690013Y1558752D01*
G01X-18689825Y1563254D01*
G01X-18669924Y1563254D01*
G01X-18669577Y1558752D01*
G01X-18668884Y1555981D01*
G01X-18668192Y1553556D01*
G01X-18666806Y1551478D01*
G01X-18665074Y1549746D01*
G01X-18662996Y1548014D01*
G01X-18660572Y1546629D01*
G01X-18658147Y1545936D01*
G01X-18658147Y1545936D01*
G01X-18656416Y1545590D01*
G01X-18652606Y1545244D01*
G01X-18647410Y1545590D01*
G01X-18641868Y1546976D01*
G01X-18638751Y1548014D01*
G01X-18635634Y1549400D01*
G01X-18632863Y1550786D01*
G01X-18630438Y1552171D01*
G01X-18627667Y1553903D01*
G01X-18625243Y1555634D01*
G01X-18623511Y1557020D01*
G01X-18621086Y1559098D01*
G01X-18618316Y1561176D01*
G01X-18617536Y1564207D01*
G01X-18617276Y1571914D01*
G01X-18617276Y1581958D01*
G01X-18632516Y1581958D01*
G01X-18649488Y1581612D01*
G01X-18652952Y1580919D01*
G01X-18656762Y1579880D01*
G01X-18660226Y1578494D01*
G01X-18663343Y1576416D01*
G01X-18666460Y1573299D01*
G01X-18668538Y1569836D01*
G01X-18669577Y1567064D01*
G01X-18669924Y1563254D01*
G01X-18689825Y1563254D01*
G01X-18689666Y1567064D01*
G01X-18688627Y1571567D01*
G01X-18687242Y1575031D01*
G01X-18685510Y1578494D01*
G01X-18684124Y1580919D01*
G01X-18682739Y1582651D01*
G01X-18679276Y1586114D01*
G01X-18676504Y1588193D01*
G01X-18673041Y1590271D01*
G01X-18670270Y1591656D01*
G01X-18667846Y1592696D01*
G01X-18665074Y1593734D01*
G01X-18661611Y1594774D01*
G01X-18658494Y1595466D01*
G01X-18653644Y1596159D01*
G01X-18641868Y1596852D01*
G01X-18629053Y1597198D01*
G01X-18617276Y1597198D01*
G01X-18617276Y1600662D01*
G01X-18617623Y1607243D01*
G01X-18618316Y1612092D01*
G01X-18619354Y1615556D01*
G01X-18620740Y1618326D01*
G01X-18622126Y1620404D01*
G01X-18624204Y1622829D01*
G01X-18626974Y1624907D01*
G01X-18629399Y1626293D01*
G01X-18632170Y1627332D01*
G01X-18634941Y1628024D01*
G01X-18642907Y1628371D01*
G01X-18652952Y1628024D01*
G01X-18657108Y1627332D01*
G01X-18659879Y1626986D01*
G01X-18662996Y1626293D01*
G01X-18670616Y1624214D01*
G01X-18673734Y1623176D01*
G01X-18679276Y1621097D01*
G01X-18681007Y1620751D01*
G01X-18681007Y1629410D01*
G01X-18680661Y1635991D01*
G01X-18679622Y1638416D01*
G01X-18676851Y1639454D01*
G01X-18673387Y1640494D01*
G01X-18668884Y1641533D01*
G01X-18665421Y1642572D01*
G01X-18657108Y1643957D01*
G01X-18650181Y1644650D01*
G01X-18643254Y1644996D01*
G01X-18634941Y1644650D01*
G01X-18630092Y1643957D01*
G01X-18626628Y1643264D01*
G01X-18623511Y1642572D01*
G01X-18620047Y1641533D01*
G01X-18616930Y1640147D01*
G01X-18613466Y1638416D01*
G01X-18611042Y1636684D01*
G01X-18606193Y1632527D01*
G01X-18604807Y1630796D01*
G01X-18603076Y1628371D01*
G01X-18601344Y1625254D01*
G01X-18599958Y1621444D01*
G01X-18598919Y1618326D01*
G01X-18598226Y1613477D01*
G01X-18597880Y1571914D01*
G01X-18597880Y1531389D01*
G01X-18615198Y1531389D01*
G01X-18615198Y1533121D01*
G01X-18615544Y1535892D01*
G01X-18615891Y1541087D01*
G01X-18616064Y1544118D01*
G01X-18616584Y1544897D01*
G01X-18618316Y1544204D01*
G01X-18620047Y1542819D01*
G01X-18621779Y1541087D01*
G01X-18623511Y1539702D01*
G01X-18628360Y1536238D01*
G01X-18630784Y1534853D01*
G01X-18633556Y1533467D01*
G01X-18636326Y1532428D01*
G01X-18639444Y1531389D01*
G01X-18643254Y1530350D01*
G01X-18646717Y1529657D01*
G01X-18655376Y1529311D01*
G37*
G36*
G01X-17760604Y1491211D02*
G01X-17769263Y1491557D01*
G01X-17771341Y1492250D01*
G01X-17774458Y1492943D01*
G01X-17777922Y1493982D01*
G01X-17780693Y1495021D01*
G01X-17783117Y1496060D01*
G01X-17785542Y1497446D01*
G01X-17787620Y1498831D01*
G01X-17789352Y1499870D01*
G01X-17791084Y1501256D01*
G01X-17796279Y1506451D01*
G01X-17798357Y1508876D01*
G01X-17800436Y1511993D01*
G01X-17802167Y1514764D01*
G01X-17803553Y1517188D01*
G01X-17804938Y1520306D01*
G01X-17806324Y1523769D01*
G01X-17807363Y1526886D01*
G01X-17808402Y1530696D01*
G01X-17809441Y1533814D01*
G01X-17809504Y1534160D01*
G01X-17788659Y1534160D01*
G01X-17787966Y1531736D01*
G01X-17786927Y1528618D01*
G01X-17785542Y1525501D01*
G01X-17784156Y1522730D01*
G01X-17782424Y1519959D01*
G01X-17780693Y1517534D01*
G01X-17779307Y1515803D01*
G01X-17776883Y1513378D01*
G01X-17773766Y1511300D01*
G01X-17771341Y1509914D01*
G01X-17768224Y1508876D01*
G01X-17768224Y1508876D01*
G01X-17765799Y1508183D01*
G01X-17760257Y1507836D01*
G01X-17752637Y1508529D01*
G01X-17748481Y1509914D01*
G01X-17745710Y1511300D01*
G01X-17743286Y1512686D01*
G01X-17741207Y1514417D01*
G01X-17739476Y1516149D01*
G01X-17736704Y1519613D01*
G01X-17734973Y1522037D01*
G01X-17731509Y1528964D01*
G01X-17730124Y1532774D01*
G01X-17729084Y1535892D01*
G01X-17727699Y1542819D01*
G01X-17727006Y1547668D01*
G01X-17726314Y1555981D01*
G01X-17725967Y1562562D01*
G01X-17726314Y1569143D01*
G01X-17726660Y1575031D01*
G01X-17726660Y1579880D01*
G01X-17728046Y1579187D01*
G01X-17731163Y1577109D01*
G01X-17733934Y1575031D01*
G01X-17738783Y1571567D01*
G01X-17755408Y1559098D01*
G01X-17757140Y1557713D01*
G01X-17759564Y1555981D01*
G01X-17763028Y1553556D01*
G01X-17785196Y1536931D01*
G01X-17787966Y1535199D01*
G01X-17788659Y1534160D01*
G01X-17809504Y1534160D01*
G01X-17810826Y1541434D01*
G01X-17811519Y1546283D01*
G01X-17812212Y1554596D01*
G01X-17812558Y1563947D01*
G01X-17812456Y1566718D01*
G01X-17793162Y1566718D01*
G01X-17792816Y1558752D01*
G01X-17792469Y1555981D01*
G01X-17792469Y1555981D01*
G01X-17792123Y1553903D01*
G01X-17790737Y1554249D01*
G01X-17788659Y1555634D01*
G01X-17786927Y1557020D01*
G01X-17784503Y1558752D01*
G01X-17781039Y1561176D01*
G01X-17772726Y1567411D01*
G01X-17770994Y1568796D01*
G01X-17768570Y1570528D01*
G01X-17765106Y1572953D01*
G01X-17756794Y1579187D01*
G01X-17755062Y1580573D01*
G01X-17752637Y1582304D01*
G01X-17749174Y1584729D01*
G01X-17740861Y1590964D01*
G01X-17739129Y1592349D01*
G01X-17734280Y1595813D01*
G01X-17732202Y1597198D01*
G01X-17731249Y1597978D01*
G01X-17731163Y1598930D01*
G01X-17731856Y1601701D01*
G01X-17732894Y1604472D01*
G01X-17734280Y1607243D01*
G01X-17736012Y1610360D01*
G01X-17738090Y1613477D01*
G01X-17740168Y1615902D01*
G01X-17741900Y1617634D01*
G01X-17744324Y1619712D01*
G01X-17747096Y1621444D01*
G01X-17750559Y1622829D01*
G01X-17754023Y1623868D01*
G01X-17758179Y1624214D01*
G01X-17763721Y1623868D01*
G01X-17768224Y1622829D01*
G01X-17771341Y1621444D01*
G01X-17773766Y1620404D01*
G01X-17775844Y1619019D01*
G01X-17779307Y1616248D01*
G01X-17780693Y1614516D01*
G01X-17782424Y1612092D01*
G01X-17784503Y1608974D01*
G01X-17786234Y1605857D01*
G01X-17787620Y1602394D01*
G01X-17789006Y1598237D01*
G01X-17790044Y1594774D01*
G01X-17791430Y1588539D01*
G01X-17792123Y1582997D01*
G01X-17792816Y1574684D01*
G01X-17793162Y1566718D01*
G01X-17812456Y1566718D01*
G01X-17812212Y1573299D01*
G01X-17811866Y1576763D01*
G01X-17811519Y1580919D01*
G01X-17810826Y1585768D01*
G01X-17810134Y1589924D01*
G01X-17809441Y1593734D01*
G01X-17808402Y1597891D01*
G01X-17807363Y1601354D01*
G01X-17806324Y1604472D01*
G01X-17804246Y1610014D01*
G01X-17801128Y1616248D01*
G01X-17799050Y1619366D01*
G01X-17797318Y1621790D01*
G01X-17794547Y1625254D01*
G01X-17789352Y1630449D01*
G01X-17787620Y1631834D01*
G01X-17783464Y1634606D01*
G01X-17781039Y1635991D01*
G01X-17777576Y1637376D01*
G01X-17773419Y1638762D01*
G01X-17769956Y1639801D01*
G01X-17765106Y1640494D01*
G01X-17759564Y1640840D01*
G01X-17754023Y1640494D01*
G01X-17749174Y1639801D01*
G01X-17745710Y1639108D01*
G01X-17742246Y1638069D01*
G01X-17739476Y1637030D01*
G01X-17737051Y1635991D01*
G01X-17734626Y1634606D01*
G01X-17731509Y1632874D01*
G01X-17728392Y1630449D01*
G01X-17725621Y1628371D01*
G01X-17722850Y1624907D01*
G01X-17721118Y1623176D01*
G01X-17719386Y1620751D01*
G01X-17717654Y1617980D01*
G01X-17716269Y1615556D01*
G01X-17714884Y1612784D01*
G01X-17713498Y1609321D01*
G01X-17712113Y1605511D01*
G01X-17710727Y1601008D01*
G01X-17709688Y1597544D01*
G01X-17708303Y1590617D01*
G01X-17707610Y1585768D01*
G01X-17706917Y1577456D01*
G01X-17706571Y1567411D01*
G01X-17706917Y1557366D01*
G01X-17707610Y1549746D01*
G01X-17708303Y1544897D01*
G01X-17708996Y1541087D01*
G01X-17710034Y1535892D01*
G01X-17711074Y1532428D01*
G01X-17711766Y1529657D01*
G01X-17712806Y1526540D01*
G01X-17713844Y1523769D01*
G01X-17714884Y1521344D01*
G01X-17716269Y1518574D01*
G01X-17718001Y1515456D01*
G01X-17720079Y1512339D01*
G01X-17721811Y1509914D01*
G01X-17723196Y1507836D01*
G01X-17724928Y1505758D01*
G01X-17726660Y1504026D01*
G01X-17730124Y1501256D01*
G01X-17732548Y1499177D01*
G01X-17735319Y1497446D01*
G01X-17739476Y1495367D01*
G01X-17741900Y1494328D01*
G01X-17744671Y1493289D01*
G01X-17748481Y1492250D01*
G01X-17751944Y1491557D01*
G01X-17760604Y1491211D01*
G37*
G36*
G01X-18148531Y1493289D02*
G01X-18149224Y1495367D01*
G01X-18150609Y1498831D01*
G01X-18152687Y1504373D01*
G01X-18159614Y1521691D01*
G01X-18161000Y1525501D01*
G01X-18165156Y1535892D01*
G01X-18166542Y1539702D01*
G01X-18172084Y1553556D01*
G01X-18173469Y1557366D01*
G01X-18177626Y1567757D01*
G01X-18179011Y1571567D01*
G01X-18183167Y1581958D01*
G01X-18185246Y1587500D01*
G01X-18188016Y1594427D01*
G01X-18189056Y1597198D01*
G01X-18190094Y1599623D01*
G01X-18191134Y1602740D01*
G01X-18191480Y1604818D01*
G01X-18181782Y1604818D01*
G01X-18171044Y1604472D01*
G01X-18169313Y1603086D01*
G01X-18166196Y1594774D01*
G01X-18165156Y1591656D01*
G01X-18163771Y1588193D01*
G01X-18161000Y1580573D01*
G01X-18159614Y1577109D01*
G01X-18158576Y1573992D01*
G01X-18152341Y1557366D01*
G01X-18151302Y1554249D01*
G01X-18147146Y1543166D01*
G01X-18145760Y1539702D01*
G01X-18144374Y1535546D01*
G01X-18142989Y1532082D01*
G01X-18137794Y1516496D01*
G01X-18136754Y1514417D01*
G01X-18136062Y1514591D01*
G01X-18135369Y1515803D01*
G01X-18133984Y1519613D01*
G01X-18129827Y1532082D01*
G01X-18127056Y1539702D01*
G01X-18125671Y1543166D01*
G01X-18124632Y1546283D01*
G01X-18118397Y1562908D01*
G01X-18117358Y1566026D01*
G01X-18115280Y1571567D01*
G01X-18113894Y1575031D01*
G01X-18108353Y1590271D01*
G01X-18106967Y1593734D01*
G01X-18105928Y1596852D01*
G01X-18104889Y1599623D01*
G01X-18103850Y1602740D01*
G01X-18103504Y1604818D01*
G01X-18082029Y1604818D01*
G01X-18082722Y1603433D01*
G01X-18084107Y1600316D01*
G01X-18085493Y1596506D01*
G01X-18089649Y1586114D01*
G01X-18091727Y1580573D01*
G01X-18098654Y1563254D01*
G01X-18100040Y1559444D01*
G01X-18105582Y1545590D01*
G01X-18106967Y1541780D01*
G01X-18112509Y1527926D01*
G01X-18113894Y1524116D01*
G01X-18119436Y1510261D01*
G01X-18120822Y1506451D01*
G01X-18122207Y1502987D01*
G01X-18123246Y1500216D01*
G01X-18124286Y1497792D01*
G01X-18125324Y1495021D01*
G01X-18125671Y1493289D01*
G01X-18148531Y1493289D01*
G37*
G36*
G01X-18054320Y1493289D02*
G01X-18054320Y1500563D01*
G01X-18053974Y1509568D01*
G01X-18053627Y1511300D01*
G01X-18016913Y1511300D01*
G01X-18016913Y1564294D01*
G01X-18017172Y1603952D01*
G01X-18017952Y1616941D01*
G01X-18020376Y1615556D01*
G01X-18023494Y1613824D01*
G01X-18026264Y1612438D01*
G01X-18031114Y1609667D01*
G01X-18033884Y1608282D01*
G01X-18040119Y1604818D01*
G01X-18042890Y1603433D01*
G01X-18047739Y1600662D01*
G01X-18050164Y1599623D01*
G01X-18051896Y1599969D01*
G01X-18052934Y1601701D01*
G01X-18055013Y1606550D01*
G01X-18056398Y1609321D01*
G01X-18057784Y1612784D01*
G01X-18057784Y1615209D01*
G01X-18056052Y1616594D01*
G01X-18047739Y1620751D01*
G01X-18041504Y1624214D01*
G01X-18032499Y1628717D01*
G01X-18029728Y1630449D01*
G01X-18021416Y1634606D01*
G01X-18016566Y1637376D01*
G01X-18013796Y1638762D01*
G01X-18004097Y1639454D01*
G01X-17995438Y1639454D01*
G01X-17995438Y1511300D01*
G01X-17980544Y1511300D01*
G01X-17963919Y1510954D01*
G01X-17962187Y1510607D01*
G01X-17962187Y1493289D01*
G01X-18054320Y1493289D01*
G37*
G36*
G01X-17885987Y1491211D02*
G01X-17891876Y1491904D01*
G01X-17894993Y1493636D01*
G01X-17897417Y1495021D01*
G01X-17899842Y1497099D01*
G01X-17901920Y1500216D01*
G01X-17903306Y1502987D01*
G01X-17904344Y1506451D01*
G01X-17904344Y1510954D01*
G01X-17903306Y1515456D01*
G01X-17901920Y1518574D01*
G01X-17900534Y1520652D01*
G01X-17899149Y1522384D01*
G01X-17896724Y1524462D01*
G01X-17893261Y1526540D01*
G01X-17890490Y1527579D01*
G01X-17887026Y1527926D01*
G01X-17882870Y1527579D01*
G01X-17879406Y1526540D01*
G01X-17875943Y1524808D01*
G01X-17873518Y1522730D01*
G01X-17871786Y1520998D01*
G01X-17870054Y1518574D01*
G01X-17868669Y1515456D01*
G01X-17867976Y1510954D01*
G01X-17868323Y1506104D01*
G01X-17869362Y1502641D01*
G01X-17871094Y1499177D01*
G01X-17873172Y1496753D01*
G01X-17874904Y1495021D01*
G01X-17877328Y1493289D01*
G01X-17880446Y1491904D01*
G01X-17885987Y1491211D01*
G37*
G01X-16515588Y-883666D02*
G01X-16540480Y-948690D01*
G01X-16515588Y-883666D02*
G01X-16490950Y-948690D01*
G01X-16531082Y-926846D02*
G01X-16500348Y-926846D01*
G01X-16460724Y-883666D02*
G01X-16460724Y-948690D01*
G01X-16460724Y-883666D02*
G01X-16439134Y-883666D01*
G01X-16429990Y-886714D01*
G01X-16423640Y-892810D01*
G01X-16420592Y-899160D01*
G01X-16417544Y-908304D01*
G01X-16417544Y-923798D01*
G01X-16420592Y-933196D01*
G01X-16423640Y-939292D01*
G01X-16429990Y-945642D01*
G01X-16439134Y-948690D01*
G01X-16460724Y-948690D01*
G01X-16387318Y-883666D02*
G01X-16344138Y-948690D01*
G01X-16344138Y-883666D02*
G01X-16387318Y-948690D01*
G01X-16313912Y-883666D02*
G01X-16313912Y-948690D01*
G01X-16313912Y-948690D02*
G01X-16276828Y-948690D01*
G01X-20416266Y1402080D02*
G01X-20481290Y1402080D01*
G01X-20416266Y1402080D02*
G01X-20416266Y1361948D01*
G01X-20447254Y1402080D02*
G01X-20447254Y1377188D01*
G01X-20437856Y1294638D02*
G01X-20481290Y1294638D01*
G01X-20447254Y1294638D02*
G01X-20440904Y1300988D01*
G01X-20437856Y1307084D01*
G01X-20437856Y1316482D01*
G01X-20440904Y1322578D01*
G01X-20447254Y1328674D01*
G01X-20456398Y1331722D01*
G01X-20462748Y1331722D01*
G01X-20471892Y1328674D01*
G01X-20478242Y1322578D01*
G01X-20481290Y1316482D01*
G01X-20481290Y1307084D01*
G01X-20478242Y1300988D01*
G01X-20471892Y1294638D01*
G01X-20437856Y1264412D02*
G01X-20481290Y1264412D01*
G01X-20450302Y1264412D02*
G01X-20440904Y1255268D01*
G01X-20437856Y1249172D01*
G01X-20437856Y1239774D01*
G01X-20440904Y1233678D01*
G01X-20450302Y1230376D01*
G01X-20481290Y1230376D01*
G01X-21128990Y2608834D02*
G01X-21128990Y2543810D01*
G01X-21150580Y2608834D02*
G01X-21107146Y2608834D01*
G01X-21076920Y2608834D02*
G01X-21076920Y2543810D01*
G01X-21076920Y2574798D02*
G01X-21067776Y2584196D01*
G01X-21061680Y2587244D01*
G01X-21052282Y2587244D01*
G01X-21046186Y2584196D01*
G01X-21042884Y2574798D01*
G01X-21042884Y2543810D01*
G01X-21012658Y2568702D02*
G01X-20975574Y2568702D01*
G01X-20975574Y2574798D01*
G01X-20978622Y2581148D01*
G01X-20981924Y2584196D01*
G01X-20988020Y2587244D01*
G01X-20997418Y2587244D01*
G01X-21003514Y2584196D01*
G01X-21009610Y2577846D01*
G01X-21012658Y2568702D01*
G01X-21012658Y2562352D01*
G01X-21009610Y2553208D01*
G01X-21003514Y2546858D01*
G01X-20997418Y2543810D01*
G01X-20988020Y2543810D01*
G01X-20981924Y2546858D01*
G01X-20975574Y2553208D01*
G01X-20945348Y2587244D02*
G01X-20945348Y2543810D01*
G01X-20945348Y2568702D02*
G01X-20942300Y2577846D01*
G01X-20936204Y2584196D01*
G01X-20930108Y2587244D01*
G01X-20920710Y2587244D01*
G01X-20890484Y2587244D02*
G01X-20890484Y2543810D01*
G01X-20890484Y2574798D02*
G01X-20881340Y2584196D01*
G01X-20875244Y2587244D01*
G01X-20865846Y2587244D01*
G01X-20859750Y2584196D01*
G01X-20856448Y2574798D01*
G01X-20856448Y2543810D01*
G01X-20856448Y2574798D02*
G01X-20847304Y2584196D01*
G01X-20840954Y2587244D01*
G01X-20831810Y2587244D01*
G01X-20825714Y2584196D01*
G01X-20822412Y2574798D01*
G01X-20822412Y2543810D01*
G01X-20792186Y2596388D02*
G01X-20786090Y2599690D01*
G01X-20776946Y2608834D01*
G01X-20776946Y2543810D01*
G01X-20067734Y2497077D02*
G01X-20067734Y2432053D01*
G01X-20089324Y2497077D02*
G01X-20045890Y2497077D01*
G01X-20015664Y2497077D02*
G01X-20015664Y2432053D01*
G01X-20015664Y2463041D02*
G01X-20006520Y2472439D01*
G01X-20000424Y2475487D01*
G01X-19991026Y2475487D01*
G01X-19984930Y2472439D01*
G01X-19981628Y2463041D01*
G01X-19981628Y2432053D01*
G01X-19951402Y2456945D02*
G01X-19914318Y2456945D01*
G01X-19914318Y2463041D01*
G01X-19917366Y2469391D01*
G01X-19920668Y2472439D01*
G01X-19926764Y2475487D01*
G01X-19936162Y2475487D01*
G01X-19942258Y2472439D01*
G01X-19948354Y2466089D01*
G01X-19951402Y2456945D01*
G01X-19951402Y2450595D01*
G01X-19948354Y2441451D01*
G01X-19942258Y2435101D01*
G01X-19936162Y2432053D01*
G01X-19926764Y2432053D01*
G01X-19920668Y2435101D01*
G01X-19914318Y2441451D01*
G01X-19884092Y2475487D02*
G01X-19884092Y2432053D01*
G01X-19884092Y2456945D02*
G01X-19881044Y2466089D01*
G01X-19874948Y2472439D01*
G01X-19868852Y2475487D01*
G01X-19859454Y2475487D01*
G01X-19829228Y2475487D02*
G01X-19829228Y2432053D01*
G01X-19829228Y2463041D02*
G01X-19820084Y2472439D01*
G01X-19813988Y2475487D01*
G01X-19804590Y2475487D01*
G01X-19798494Y2472439D01*
G01X-19795192Y2463041D01*
G01X-19795192Y2432053D01*
G01X-19795192Y2463041D02*
G01X-19786048Y2472439D01*
G01X-19779698Y2475487D01*
G01X-19770554Y2475487D01*
G01X-19764458Y2472439D01*
G01X-19761156Y2463041D01*
G01X-19761156Y2432053D01*
G01X-19727882Y2481583D02*
G01X-19727882Y2484631D01*
G01X-19724834Y2490981D01*
G01X-19721786Y2494029D01*
G01X-19715690Y2497077D01*
G01X-19703244Y2497077D01*
G01X-19696894Y2494029D01*
G01X-19693846Y2490981D01*
G01X-19690798Y2484631D01*
G01X-19690798Y2478535D01*
G01X-19693846Y2472439D01*
G01X-19700196Y2463041D01*
G01X-19730930Y2432053D01*
G01X-19687750Y2432053D01*
G01X-18449290Y2507234D02*
G01X-18449290Y2442210D01*
G01X-18470880Y2507234D02*
G01X-18427446Y2507234D01*
G01X-18397220Y2507234D02*
G01X-18397220Y2442210D01*
G01X-18397220Y2473198D02*
G01X-18388076Y2482596D01*
G01X-18381980Y2485644D01*
G01X-18372582Y2485644D01*
G01X-18366486Y2482596D01*
G01X-18363184Y2473198D01*
G01X-18363184Y2442210D01*
G01X-18332958Y2467102D02*
G01X-18295874Y2467102D01*
G01X-18295874Y2473198D01*
G01X-18298922Y2479548D01*
G01X-18302224Y2482596D01*
G01X-18308320Y2485644D01*
G01X-18317718Y2485644D01*
G01X-18323814Y2482596D01*
G01X-18329910Y2476246D01*
G01X-18332958Y2467102D01*
G01X-18332958Y2460752D01*
G01X-18329910Y2451608D01*
G01X-18323814Y2445258D01*
G01X-18317718Y2442210D01*
G01X-18308320Y2442210D01*
G01X-18302224Y2445258D01*
G01X-18295874Y2451608D01*
G01X-18265648Y2485644D02*
G01X-18265648Y2442210D01*
G01X-18265648Y2467102D02*
G01X-18262600Y2476246D01*
G01X-18256504Y2482596D01*
G01X-18250408Y2485644D01*
G01X-18241010Y2485644D01*
G01X-18210784Y2485644D02*
G01X-18210784Y2442210D01*
G01X-18210784Y2473198D02*
G01X-18201640Y2482596D01*
G01X-18195544Y2485644D01*
G01X-18186146Y2485644D01*
G01X-18180050Y2482596D01*
G01X-18176748Y2473198D01*
G01X-18176748Y2442210D01*
G01X-18176748Y2473198D02*
G01X-18167604Y2482596D01*
G01X-18161254Y2485644D01*
G01X-18152110Y2485644D01*
G01X-18146014Y2482596D01*
G01X-18142712Y2473198D01*
G01X-18142712Y2442210D01*
G01X-18106390Y2507234D02*
G01X-18072354Y2507234D01*
G01X-18090896Y2482596D01*
G01X-18081752Y2482596D01*
G01X-18075402Y2479548D01*
G01X-18072354Y2476246D01*
G01X-18069306Y2467102D01*
G01X-18069306Y2460752D01*
G01X-18072354Y2451608D01*
G01X-18078450Y2445258D01*
G01X-18087848Y2442210D01*
G01X-18097246Y2442210D01*
G01X-18106390Y2445258D01*
G01X-18109438Y2448560D01*
G01X-18112486Y2454656D01*
G01X-17904501Y2497077D02*
G01X-17904501Y2432053D01*
G01X-17926091Y2497077D02*
G01X-17882657Y2497077D01*
G01X-17852431Y2497077D02*
G01X-17852431Y2432053D01*
G01X-17852431Y2463041D02*
G01X-17843287Y2472439D01*
G01X-17837191Y2475487D01*
G01X-17827793Y2475487D01*
G01X-17821697Y2472439D01*
G01X-17818395Y2463041D01*
G01X-17818395Y2432053D01*
G01X-17788169Y2456945D02*
G01X-17751085Y2456945D01*
G01X-17751085Y2463041D01*
G01X-17754133Y2469391D01*
G01X-17757435Y2472439D01*
G01X-17763531Y2475487D01*
G01X-17772929Y2475487D01*
G01X-17779025Y2472439D01*
G01X-17785121Y2466089D01*
G01X-17788169Y2456945D01*
G01X-17788169Y2450595D01*
G01X-17785121Y2441451D01*
G01X-17779025Y2435101D01*
G01X-17772929Y2432053D01*
G01X-17763531Y2432053D01*
G01X-17757435Y2435101D01*
G01X-17751085Y2441451D01*
G01X-17720859Y2475487D02*
G01X-17720859Y2432053D01*
G01X-17720859Y2456945D02*
G01X-17717811Y2466089D01*
G01X-17711715Y2472439D01*
G01X-17705619Y2475487D01*
G01X-17696221Y2475487D01*
G01X-17665995Y2475487D02*
G01X-17665995Y2432053D01*
G01X-17665995Y2463041D02*
G01X-17656851Y2472439D01*
G01X-17650755Y2475487D01*
G01X-17641357Y2475487D01*
G01X-17635261Y2472439D01*
G01X-17631959Y2463041D01*
G01X-17631959Y2432053D01*
G01X-17631959Y2463041D02*
G01X-17622815Y2472439D01*
G01X-17616465Y2475487D01*
G01X-17607321Y2475487D01*
G01X-17601225Y2472439D01*
G01X-17597923Y2463041D01*
G01X-17597923Y2432053D01*
G01X-17536963Y2497077D02*
G01X-17567697Y2453897D01*
G01X-17521469Y2453897D01*
G01X-17536963Y2497077D02*
G01X-17536963Y2432053D01*
G01X-16860266Y3082290D02*
G01X-16925290Y3082290D01*
G01X-16860266Y3103880D02*
G01X-16860266Y3060446D01*
G01X-16860266Y3030220D02*
G01X-16925290Y3030220D01*
G01X-16894302Y3030220D02*
G01X-16884904Y3021076D01*
G01X-16881856Y3014980D01*
G01X-16881856Y3005582D01*
G01X-16884904Y2999486D01*
G01X-16894302Y2996184D01*
G01X-16925290Y2996184D01*
G01X-16900398Y2965958D02*
G01X-16900398Y2928874D01*
G01X-16894302Y2928874D01*
G01X-16887952Y2931922D01*
G01X-16884904Y2935224D01*
G01X-16881856Y2941320D01*
G01X-16881856Y2950718D01*
G01X-16884904Y2956814D01*
G01X-16891254Y2962910D01*
G01X-16900398Y2965958D01*
G01X-16906748Y2965958D01*
G01X-16915892Y2962910D01*
G01X-16922242Y2956814D01*
G01X-16925290Y2950718D01*
G01X-16925290Y2941320D01*
G01X-16922242Y2935224D01*
G01X-16915892Y2928874D01*
G01X-16881856Y2898648D02*
G01X-16925290Y2898648D01*
G01X-16900398Y2898648D02*
G01X-16891254Y2895600D01*
G01X-16884904Y2889504D01*
G01X-16881856Y2883408D01*
G01X-16881856Y2874010D01*
G01X-16881856Y2843784D02*
G01X-16925290Y2843784D01*
G01X-16894302Y2843784D02*
G01X-16884904Y2834640D01*
G01X-16881856Y2828544D01*
G01X-16881856Y2819146D01*
G01X-16884904Y2813050D01*
G01X-16894302Y2809748D01*
G01X-16925290Y2809748D01*
G01X-16894302Y2809748D02*
G01X-16884904Y2800604D01*
G01X-16881856Y2794254D01*
G01X-16881856Y2785110D01*
G01X-16884904Y2779014D01*
G01X-16894302Y2775712D01*
G01X-16925290Y2775712D01*
G01X-16860266Y2708402D02*
G01X-16860266Y2739390D01*
G01X-16887952Y2742438D01*
G01X-16884904Y2739390D01*
G01X-16881856Y2730246D01*
G01X-16881856Y2720848D01*
G01X-16884904Y2711450D01*
G01X-16891254Y2705354D01*
G01X-16900398Y2702306D01*
G01X-16906748Y2702306D01*
G01X-16915892Y2705354D01*
G01X-16922242Y2711450D01*
G01X-16925290Y2720848D01*
G01X-16925290Y2730246D01*
G01X-16922242Y2739390D01*
G01X-16918940Y2742438D01*
G01X-16912844Y2745486D01*
G01X-16860266Y1723390D02*
G01X-16925290Y1723390D01*
G01X-16860266Y1744980D02*
G01X-16860266Y1701546D01*
G01X-16860266Y1671320D02*
G01X-16925290Y1671320D01*
G01X-16894302Y1671320D02*
G01X-16884904Y1662176D01*
G01X-16881856Y1656080D01*
G01X-16881856Y1646682D01*
G01X-16884904Y1640586D01*
G01X-16894302Y1637284D01*
G01X-16925290Y1637284D01*
G01X-16900398Y1607058D02*
G01X-16900398Y1569974D01*
G01X-16894302Y1569974D01*
G01X-16887952Y1573022D01*
G01X-16884904Y1576324D01*
G01X-16881856Y1582420D01*
G01X-16881856Y1591818D01*
G01X-16884904Y1597914D01*
G01X-16891254Y1604010D01*
G01X-16900398Y1607058D01*
G01X-16906748Y1607058D01*
G01X-16915892Y1604010D01*
G01X-16922242Y1597914D01*
G01X-16925290Y1591818D01*
G01X-16925290Y1582420D01*
G01X-16922242Y1576324D01*
G01X-16915892Y1569974D01*
G01X-16881856Y1539748D02*
G01X-16925290Y1539748D01*
G01X-16900398Y1539748D02*
G01X-16891254Y1536700D01*
G01X-16884904Y1530604D01*
G01X-16881856Y1524508D01*
G01X-16881856Y1515110D01*
G01X-16881856Y1484884D02*
G01X-16925290Y1484884D01*
G01X-16894302Y1484884D02*
G01X-16884904Y1475740D01*
G01X-16881856Y1469644D01*
G01X-16881856Y1460246D01*
G01X-16884904Y1454150D01*
G01X-16894302Y1450848D01*
G01X-16925290Y1450848D01*
G01X-16894302Y1450848D02*
G01X-16884904Y1441704D01*
G01X-16881856Y1435354D01*
G01X-16881856Y1426210D01*
G01X-16884904Y1420114D01*
G01X-16894302Y1416812D01*
G01X-16925290Y1416812D01*
G01X-16869410Y1349502D02*
G01X-16863314Y1352550D01*
G01X-16860266Y1361948D01*
G01X-16860266Y1368044D01*
G01X-16863314Y1377442D01*
G01X-16872712Y1383538D01*
G01X-16887952Y1386586D01*
G01X-16903446Y1386586D01*
G01X-16915892Y1383538D01*
G01X-16922242Y1377442D01*
G01X-16925290Y1368044D01*
G01X-16925290Y1364996D01*
G01X-16922242Y1355852D01*
G01X-16915892Y1349502D01*
G01X-16906748Y1346454D01*
G01X-16903446Y1346454D01*
G01X-16894302Y1349502D01*
G01X-16887952Y1355852D01*
G01X-16884904Y1364996D01*
G01X-16884904Y1368044D01*
G01X-16887952Y1377442D01*
G01X-16894302Y1383538D01*
G01X-16903446Y1386586D01*
G01X-16860266Y-1032510D02*
G01X-16925290Y-1032510D01*
G01X-16860266Y-1010920D02*
G01X-16860266Y-1054354D01*
G01X-16860266Y-1084580D02*
G01X-16925290Y-1084580D01*
G01X-16894302Y-1084580D02*
G01X-16884904Y-1093724D01*
G01X-16881856Y-1099820D01*
G01X-16881856Y-1109218D01*
G01X-16884904Y-1115314D01*
G01X-16894302Y-1118616D01*
G01X-16925290Y-1118616D01*
G01X-16900398Y-1148842D02*
G01X-16900398Y-1185926D01*
G01X-16894302Y-1185926D01*
G01X-16887952Y-1182878D01*
G01X-16884904Y-1179576D01*
G01X-16881856Y-1173480D01*
G01X-16881856Y-1164082D01*
G01X-16884904Y-1157986D01*
G01X-16891254Y-1151890D01*
G01X-16900398Y-1148842D01*
G01X-16906748Y-1148842D01*
G01X-16915892Y-1151890D01*
G01X-16922242Y-1157986D01*
G01X-16925290Y-1164082D01*
G01X-16925290Y-1173480D01*
G01X-16922242Y-1179576D01*
G01X-16915892Y-1185926D01*
G01X-16881856Y-1216152D02*
G01X-16925290Y-1216152D01*
G01X-16900398Y-1216152D02*
G01X-16891254Y-1219200D01*
G01X-16884904Y-1225296D01*
G01X-16881856Y-1231392D01*
G01X-16881856Y-1240790D01*
G01X-16881856Y-1271016D02*
G01X-16925290Y-1271016D01*
G01X-16894302Y-1271016D02*
G01X-16884904Y-1280160D01*
G01X-16881856Y-1286256D01*
G01X-16881856Y-1295654D01*
G01X-16884904Y-1301750D01*
G01X-16894302Y-1305052D01*
G01X-16925290Y-1305052D01*
G01X-16894302Y-1305052D02*
G01X-16884904Y-1314196D01*
G01X-16881856Y-1320546D01*
G01X-16881856Y-1329690D01*
G01X-16884904Y-1335786D01*
G01X-16894302Y-1339088D01*
G01X-16925290Y-1339088D01*
G01X-16860266Y-1412494D02*
G01X-16925290Y-1381506D01*
G01X-16860266Y-1369314D02*
G01X-16860266Y-1412494D01*
G01X-17255490Y-1937766D02*
G01X-17255490Y-2002790D01*
G01X-17277080Y-1937766D02*
G01X-17233646Y-1937766D01*
G01X-17203420Y-1937766D02*
G01X-17203420Y-2002790D01*
G01X-17203420Y-1971802D02*
G01X-17194276Y-1962404D01*
G01X-17188180Y-1959356D01*
G01X-17178782Y-1959356D01*
G01X-17172686Y-1962404D01*
G01X-17169384Y-1971802D01*
G01X-17169384Y-2002790D01*
G01X-17139158Y-1977898D02*
G01X-17102074Y-1977898D01*
G01X-17102074Y-1971802D01*
G01X-17105122Y-1965452D01*
G01X-17108424Y-1962404D01*
G01X-17114520Y-1959356D01*
G01X-17123918Y-1959356D01*
G01X-17130014Y-1962404D01*
G01X-17136110Y-1968754D01*
G01X-17139158Y-1977898D01*
G01X-17139158Y-1984248D01*
G01X-17136110Y-1993392D01*
G01X-17130014Y-1999742D01*
G01X-17123918Y-2002790D01*
G01X-17114520Y-2002790D01*
G01X-17108424Y-1999742D01*
G01X-17102074Y-1993392D01*
G01X-17071848Y-1959356D02*
G01X-17071848Y-2002790D01*
G01X-17071848Y-1977898D02*
G01X-17068800Y-1968754D01*
G01X-17062704Y-1962404D01*
G01X-17056608Y-1959356D01*
G01X-17047210Y-1959356D01*
G01X-17016984Y-1959356D02*
G01X-17016984Y-2002790D01*
G01X-17016984Y-1971802D02*
G01X-17007840Y-1962404D01*
G01X-17001744Y-1959356D01*
G01X-16992346Y-1959356D01*
G01X-16986250Y-1962404D01*
G01X-16982948Y-1971802D01*
G01X-16982948Y-2002790D01*
G01X-16982948Y-1971802D02*
G01X-16973804Y-1962404D01*
G01X-16967454Y-1959356D01*
G01X-16958310Y-1959356D01*
G01X-16952214Y-1962404D01*
G01X-16948912Y-1971802D01*
G01X-16948912Y-2002790D01*
G01X-16903446Y-1937766D02*
G01X-16912590Y-1940814D01*
G01X-16915638Y-1946910D01*
G01X-16915638Y-1953260D01*
G01X-16912590Y-1959356D01*
G01X-16906494Y-1962404D01*
G01X-16894048Y-1965452D01*
G01X-16884650Y-1968754D01*
G01X-16878554Y-1974850D01*
G01X-16875506Y-1980946D01*
G01X-16875506Y-1990344D01*
G01X-16878554Y-1996440D01*
G01X-16881602Y-1999742D01*
G01X-16891000Y-2002790D01*
G01X-16903446Y-2002790D01*
G01X-16912590Y-1999742D01*
G01X-16915638Y-1996440D01*
G01X-16918686Y-1990344D01*
G01X-16918686Y-1980946D01*
G01X-16915638Y-1974850D01*
G01X-16909542Y-1968754D01*
G01X-16900144Y-1965452D01*
G01X-16887952Y-1962404D01*
G01X-16881602Y-1959356D01*
G01X-16878554Y-1953260D01*
G01X-16878554Y-1946910D01*
G01X-16881602Y-1940814D01*
G01X-16891000Y-1937766D01*
G01X-16903446Y-1937766D01*
G01X-17864887Y-1937766D02*
G01X-17864887Y-2002790D01*
G01X-17886477Y-1937766D02*
G01X-17843043Y-1937766D01*
G01X-17812817Y-1937766D02*
G01X-17812817Y-2002790D01*
G01X-17812817Y-1971802D02*
G01X-17803673Y-1962404D01*
G01X-17797577Y-1959356D01*
G01X-17788179Y-1959356D01*
G01X-17782083Y-1962404D01*
G01X-17778781Y-1971802D01*
G01X-17778781Y-2002790D01*
G01X-17748555Y-1977898D02*
G01X-17711471Y-1977898D01*
G01X-17711471Y-1971802D01*
G01X-17714519Y-1965452D01*
G01X-17717821Y-1962404D01*
G01X-17723917Y-1959356D01*
G01X-17733315Y-1959356D01*
G01X-17739411Y-1962404D01*
G01X-17745507Y-1968754D01*
G01X-17748555Y-1977898D01*
G01X-17748555Y-1984248D01*
G01X-17745507Y-1993392D01*
G01X-17739411Y-1999742D01*
G01X-17733315Y-2002790D01*
G01X-17723917Y-2002790D01*
G01X-17717821Y-1999742D01*
G01X-17711471Y-1993392D01*
G01X-17681245Y-1959356D02*
G01X-17681245Y-2002790D01*
G01X-17681245Y-1977898D02*
G01X-17678197Y-1968754D01*
G01X-17672101Y-1962404D01*
G01X-17666005Y-1959356D01*
G01X-17656607Y-1959356D01*
G01X-17626381Y-1959356D02*
G01X-17626381Y-2002790D01*
G01X-17626381Y-1971802D02*
G01X-17617237Y-1962404D01*
G01X-17611141Y-1959356D01*
G01X-17601743Y-1959356D01*
G01X-17595647Y-1962404D01*
G01X-17592345Y-1971802D01*
G01X-17592345Y-2002790D01*
G01X-17592345Y-1971802D02*
G01X-17583201Y-1962404D01*
G01X-17576851Y-1959356D01*
G01X-17567707Y-1959356D01*
G01X-17561611Y-1962404D01*
G01X-17558309Y-1971802D01*
G01X-17558309Y-2002790D01*
G01X-17487951Y-1959356D02*
G01X-17490999Y-1968754D01*
G01X-17497349Y-1974850D01*
G01X-17506493Y-1977898D01*
G01X-17509541Y-1977898D01*
G01X-17518939Y-1974850D01*
G01X-17525035Y-1968754D01*
G01X-17528083Y-1959356D01*
G01X-17528083Y-1956308D01*
G01X-17525035Y-1946910D01*
G01X-17518939Y-1940814D01*
G01X-17509541Y-1937766D01*
G01X-17506493Y-1937766D01*
G01X-17497349Y-1940814D01*
G01X-17490999Y-1946910D01*
G01X-17487951Y-1959356D01*
G01X-17487951Y-1974850D01*
G01X-17490999Y-1990344D01*
G01X-17497349Y-1999742D01*
G01X-17506493Y-2002790D01*
G01X-17512843Y-2002790D01*
G01X-17521987Y-1999742D01*
G01X-17525035Y-1993392D01*
G01X-18522798Y-1937766D02*
G01X-18522798Y-2002790D01*
G01X-18544388Y-1937766D02*
G01X-18500954Y-1937766D01*
G01X-18470728Y-1937766D02*
G01X-18470728Y-2002790D01*
G01X-18470728Y-1971802D02*
G01X-18461584Y-1962404D01*
G01X-18455488Y-1959356D01*
G01X-18446090Y-1959356D01*
G01X-18439994Y-1962404D01*
G01X-18436692Y-1971802D01*
G01X-18436692Y-2002790D01*
G01X-18406466Y-1977898D02*
G01X-18369382Y-1977898D01*
G01X-18369382Y-1971802D01*
G01X-18372430Y-1965452D01*
G01X-18375732Y-1962404D01*
G01X-18381828Y-1959356D01*
G01X-18391226Y-1959356D01*
G01X-18397322Y-1962404D01*
G01X-18403418Y-1968754D01*
G01X-18406466Y-1977898D01*
G01X-18406466Y-1984248D01*
G01X-18403418Y-1993392D01*
G01X-18397322Y-1999742D01*
G01X-18391226Y-2002790D01*
G01X-18381828Y-2002790D01*
G01X-18375732Y-1999742D01*
G01X-18369382Y-1993392D01*
G01X-18339156Y-1959356D02*
G01X-18339156Y-2002790D01*
G01X-18339156Y-1977898D02*
G01X-18336108Y-1968754D01*
G01X-18330012Y-1962404D01*
G01X-18323916Y-1959356D01*
G01X-18314518Y-1959356D01*
G01X-18284292Y-1959356D02*
G01X-18284292Y-2002790D01*
G01X-18284292Y-1971802D02*
G01X-18275148Y-1962404D01*
G01X-18269052Y-1959356D01*
G01X-18259654Y-1959356D01*
G01X-18253558Y-1962404D01*
G01X-18250256Y-1971802D01*
G01X-18250256Y-2002790D01*
G01X-18250256Y-1971802D02*
G01X-18241112Y-1962404D01*
G01X-18234762Y-1959356D01*
G01X-18225618Y-1959356D01*
G01X-18219522Y-1962404D01*
G01X-18216220Y-1971802D01*
G01X-18216220Y-2002790D01*
G01X-18185994Y-1950212D02*
G01X-18179898Y-1946910D01*
G01X-18170754Y-1937766D01*
G01X-18170754Y-2002790D01*
G01X-18121986Y-1937766D02*
G01X-18131384Y-1940814D01*
G01X-18137480Y-1950212D01*
G01X-18140528Y-1965452D01*
G01X-18140528Y-1974850D01*
G01X-18137480Y-1990344D01*
G01X-18131384Y-1999742D01*
G01X-18121986Y-2002790D01*
G01X-18115890Y-2002790D01*
G01X-18106492Y-1999742D01*
G01X-18100396Y-1990344D01*
G01X-18097348Y-1974850D01*
G01X-18097348Y-1965452D01*
G01X-18100396Y-1950212D01*
G01X-18106492Y-1940814D01*
G01X-18115890Y-1937766D01*
G01X-18121986Y-1937766D01*
G01X-19152768Y-1937766D02*
G01X-19152768Y-2002790D01*
G01X-19174358Y-1937766D02*
G01X-19130924Y-1937766D01*
G01X-19100698Y-1937766D02*
G01X-19100698Y-2002790D01*
G01X-19100698Y-1971802D02*
G01X-19091554Y-1962404D01*
G01X-19085458Y-1959356D01*
G01X-19076060Y-1959356D01*
G01X-19069964Y-1962404D01*
G01X-19066662Y-1971802D01*
G01X-19066662Y-2002790D01*
G01X-19036436Y-1977898D02*
G01X-18999352Y-1977898D01*
G01X-18999352Y-1971802D01*
G01X-19002400Y-1965452D01*
G01X-19005702Y-1962404D01*
G01X-19011798Y-1959356D01*
G01X-19021196Y-1959356D01*
G01X-19027292Y-1962404D01*
G01X-19033388Y-1968754D01*
G01X-19036436Y-1977898D01*
G01X-19036436Y-1984248D01*
G01X-19033388Y-1993392D01*
G01X-19027292Y-1999742D01*
G01X-19021196Y-2002790D01*
G01X-19011798Y-2002790D01*
G01X-19005702Y-1999742D01*
G01X-18999352Y-1993392D01*
G01X-18969126Y-1959356D02*
G01X-18969126Y-2002790D01*
G01X-18969126Y-1977898D02*
G01X-18966078Y-1968754D01*
G01X-18959982Y-1962404D01*
G01X-18953886Y-1959356D01*
G01X-18944488Y-1959356D01*
G01X-18914262Y-1959356D02*
G01X-18914262Y-2002790D01*
G01X-18914262Y-1971802D02*
G01X-18905118Y-1962404D01*
G01X-18899022Y-1959356D01*
G01X-18889624Y-1959356D01*
G01X-18883528Y-1962404D01*
G01X-18880226Y-1971802D01*
G01X-18880226Y-2002790D01*
G01X-18880226Y-1971802D02*
G01X-18871082Y-1962404D01*
G01X-18864732Y-1959356D01*
G01X-18855588Y-1959356D01*
G01X-18849492Y-1962404D01*
G01X-18846190Y-1971802D01*
G01X-18846190Y-2002790D01*
G01X-18815964Y-1950212D02*
G01X-18809868Y-1946910D01*
G01X-18800724Y-1937766D01*
G01X-18800724Y-2002790D01*
G01X-18770498Y-1950212D02*
G01X-18764402Y-1946910D01*
G01X-18755258Y-1937766D01*
G01X-18755258Y-2002790D01*
G01X-19810679Y-1937766D02*
G01X-19810679Y-2002790D01*
G01X-19832269Y-1937766D02*
G01X-19788835Y-1937766D01*
G01X-19758609Y-1937766D02*
G01X-19758609Y-2002790D01*
G01X-19758609Y-1971802D02*
G01X-19749465Y-1962404D01*
G01X-19743369Y-1959356D01*
G01X-19733971Y-1959356D01*
G01X-19727875Y-1962404D01*
G01X-19724573Y-1971802D01*
G01X-19724573Y-2002790D01*
G01X-19694347Y-1977898D02*
G01X-19657263Y-1977898D01*
G01X-19657263Y-1971802D01*
G01X-19660311Y-1965452D01*
G01X-19663613Y-1962404D01*
G01X-19669709Y-1959356D01*
G01X-19679107Y-1959356D01*
G01X-19685203Y-1962404D01*
G01X-19691299Y-1968754D01*
G01X-19694347Y-1977898D01*
G01X-19694347Y-1984248D01*
G01X-19691299Y-1993392D01*
G01X-19685203Y-1999742D01*
G01X-19679107Y-2002790D01*
G01X-19669709Y-2002790D01*
G01X-19663613Y-1999742D01*
G01X-19657263Y-1993392D01*
G01X-19627037Y-1959356D02*
G01X-19627037Y-2002790D01*
G01X-19627037Y-1977898D02*
G01X-19623989Y-1968754D01*
G01X-19617893Y-1962404D01*
G01X-19611797Y-1959356D01*
G01X-19602399Y-1959356D01*
G01X-19572173Y-1959356D02*
G01X-19572173Y-2002790D01*
G01X-19572173Y-1971802D02*
G01X-19563029Y-1962404D01*
G01X-19556933Y-1959356D01*
G01X-19547535Y-1959356D01*
G01X-19541439Y-1962404D01*
G01X-19538137Y-1971802D01*
G01X-19538137Y-2002790D01*
G01X-19538137Y-1971802D02*
G01X-19528993Y-1962404D01*
G01X-19522643Y-1959356D01*
G01X-19513499Y-1959356D01*
G01X-19507403Y-1962404D01*
G01X-19504101Y-1971802D01*
G01X-19504101Y-2002790D01*
G01X-19473875Y-1950212D02*
G01X-19467779Y-1946910D01*
G01X-19458635Y-1937766D01*
G01X-19458635Y-2002790D01*
G01X-19425361Y-1953260D02*
G01X-19425361Y-1950212D01*
G01X-19422313Y-1943862D01*
G01X-19419265Y-1940814D01*
G01X-19413169Y-1937766D01*
G01X-19400723Y-1937766D01*
G01X-19394373Y-1940814D01*
G01X-19391325Y-1943862D01*
G01X-19388277Y-1950212D01*
G01X-19388277Y-1956308D01*
G01X-19391325Y-1962404D01*
G01X-19397675Y-1971802D01*
G01X-19428409Y-2002790D01*
G01X-19385229Y-2002790D01*
G01X-20468590Y-1937766D02*
G01X-20468590Y-2002790D01*
G01X-20490180Y-1937766D02*
G01X-20446746Y-1937766D01*
G01X-20416520Y-1937766D02*
G01X-20416520Y-2002790D01*
G01X-20416520Y-1971802D02*
G01X-20407376Y-1962404D01*
G01X-20401280Y-1959356D01*
G01X-20391882Y-1959356D01*
G01X-20385786Y-1962404D01*
G01X-20382484Y-1971802D01*
G01X-20382484Y-2002790D01*
G01X-20352258Y-1977898D02*
G01X-20315174Y-1977898D01*
G01X-20315174Y-1971802D01*
G01X-20318222Y-1965452D01*
G01X-20321524Y-1962404D01*
G01X-20327620Y-1959356D01*
G01X-20337018Y-1959356D01*
G01X-20343114Y-1962404D01*
G01X-20349210Y-1968754D01*
G01X-20352258Y-1977898D01*
G01X-20352258Y-1984248D01*
G01X-20349210Y-1993392D01*
G01X-20343114Y-1999742D01*
G01X-20337018Y-2002790D01*
G01X-20327620Y-2002790D01*
G01X-20321524Y-1999742D01*
G01X-20315174Y-1993392D01*
G01X-20284948Y-1959356D02*
G01X-20284948Y-2002790D01*
G01X-20284948Y-1977898D02*
G01X-20281900Y-1968754D01*
G01X-20275804Y-1962404D01*
G01X-20269708Y-1959356D01*
G01X-20260310Y-1959356D01*
G01X-20230084Y-1959356D02*
G01X-20230084Y-2002790D01*
G01X-20230084Y-1971802D02*
G01X-20220940Y-1962404D01*
G01X-20214844Y-1959356D01*
G01X-20205446Y-1959356D01*
G01X-20199350Y-1962404D01*
G01X-20196048Y-1971802D01*
G01X-20196048Y-2002790D01*
G01X-20196048Y-1971802D02*
G01X-20186904Y-1962404D01*
G01X-20180554Y-1959356D01*
G01X-20171410Y-1959356D01*
G01X-20165314Y-1962404D01*
G01X-20162012Y-1971802D01*
G01X-20162012Y-2002790D01*
G01X-20131786Y-1950212D02*
G01X-20125690Y-1946910D01*
G01X-20116546Y-1937766D01*
G01X-20116546Y-2002790D01*
G01X-20080224Y-1937766D02*
G01X-20046188Y-1937766D01*
G01X-20064730Y-1962404D01*
G01X-20055586Y-1962404D01*
G01X-20049236Y-1965452D01*
G01X-20046188Y-1968754D01*
G01X-20043140Y-1977898D01*
G01X-20043140Y-1984248D01*
G01X-20046188Y-1993392D01*
G01X-20052284Y-1999742D01*
G01X-20061682Y-2002790D01*
G01X-20071080Y-2002790D01*
G01X-20080224Y-1999742D01*
G01X-20083272Y-1996440D01*
G01X-20086320Y-1990344D01*
G01X-20413723Y-1412199D02*
G01X-20478747Y-1412199D01*
G01X-20413723Y-1390609D02*
G01X-20413723Y-1434043D01*
G01X-20413723Y-1464269D02*
G01X-20478747Y-1464269D01*
G01X-20447759Y-1464269D02*
G01X-20438361Y-1473413D01*
G01X-20435313Y-1479509D01*
G01X-20435313Y-1488907D01*
G01X-20438361Y-1495003D01*
G01X-20447759Y-1498305D01*
G01X-20478747Y-1498305D01*
G01X-20453855Y-1528531D02*
G01X-20453855Y-1565615D01*
G01X-20447759Y-1565615D01*
G01X-20441409Y-1562567D01*
G01X-20438361Y-1559265D01*
G01X-20435313Y-1553169D01*
G01X-20435313Y-1543771D01*
G01X-20438361Y-1537675D01*
G01X-20444711Y-1531579D01*
G01X-20453855Y-1528531D01*
G01X-20460205Y-1528531D01*
G01X-20469349Y-1531579D01*
G01X-20475699Y-1537675D01*
G01X-20478747Y-1543771D01*
G01X-20478747Y-1553169D01*
G01X-20475699Y-1559265D01*
G01X-20469349Y-1565615D01*
G01X-20435313Y-1595841D02*
G01X-20478747Y-1595841D01*
G01X-20453855Y-1595841D02*
G01X-20444711Y-1598889D01*
G01X-20438361Y-1604985D01*
G01X-20435313Y-1611081D01*
G01X-20435313Y-1620479D01*
G01X-20435313Y-1650705D02*
G01X-20478747Y-1650705D01*
G01X-20447759Y-1650705D02*
G01X-20438361Y-1659849D01*
G01X-20435313Y-1665945D01*
G01X-20435313Y-1675343D01*
G01X-20438361Y-1681439D01*
G01X-20447759Y-1684741D01*
G01X-20478747Y-1684741D01*
G01X-20447759Y-1684741D02*
G01X-20438361Y-1693885D01*
G01X-20435313Y-1700235D01*
G01X-20435313Y-1709379D01*
G01X-20438361Y-1715475D01*
G01X-20447759Y-1718777D01*
G01X-20478747Y-1718777D01*
G01X-20426169Y-1749003D02*
G01X-20422867Y-1755099D01*
G01X-20413723Y-1764243D01*
G01X-20478747Y-1764243D01*
G01X-20413723Y-1825203D02*
G01X-20456903Y-1794469D01*
G01X-20456903Y-1840697D01*
G01X-20413723Y-1825203D02*
G01X-20478747Y-1825203D01*
G01X-20413723Y-307299D02*
G01X-20478747Y-307299D01*
G01X-20413723Y-285709D02*
G01X-20413723Y-329143D01*
G01X-20413723Y-359369D02*
G01X-20478747Y-359369D01*
G01X-20447759Y-359369D02*
G01X-20438361Y-368513D01*
G01X-20435313Y-374609D01*
G01X-20435313Y-384007D01*
G01X-20438361Y-390103D01*
G01X-20447759Y-393405D01*
G01X-20478747Y-393405D01*
G01X-20453855Y-423631D02*
G01X-20453855Y-460715D01*
G01X-20447759Y-460715D01*
G01X-20441409Y-457667D01*
G01X-20438361Y-454365D01*
G01X-20435313Y-448269D01*
G01X-20435313Y-438871D01*
G01X-20438361Y-432775D01*
G01X-20444711Y-426679D01*
G01X-20453855Y-423631D01*
G01X-20460205Y-423631D01*
G01X-20469349Y-426679D01*
G01X-20475699Y-432775D01*
G01X-20478747Y-438871D01*
G01X-20478747Y-448269D01*
G01X-20475699Y-454365D01*
G01X-20469349Y-460715D01*
G01X-20435313Y-490941D02*
G01X-20478747Y-490941D01*
G01X-20453855Y-490941D02*
G01X-20444711Y-493989D01*
G01X-20438361Y-500085D01*
G01X-20435313Y-506181D01*
G01X-20435313Y-515579D01*
G01X-20435313Y-545805D02*
G01X-20478747Y-545805D01*
G01X-20447759Y-545805D02*
G01X-20438361Y-554949D01*
G01X-20435313Y-561045D01*
G01X-20435313Y-570443D01*
G01X-20438361Y-576539D01*
G01X-20447759Y-579841D01*
G01X-20478747Y-579841D01*
G01X-20447759Y-579841D02*
G01X-20438361Y-588985D01*
G01X-20435313Y-595335D01*
G01X-20435313Y-604479D01*
G01X-20438361Y-610575D01*
G01X-20447759Y-613877D01*
G01X-20478747Y-613877D01*
G01X-20426169Y-644103D02*
G01X-20422867Y-650199D01*
G01X-20413723Y-659343D01*
G01X-20478747Y-659343D01*
G01X-20413723Y-726653D02*
G01X-20413723Y-695665D01*
G01X-20441409Y-692617D01*
G01X-20438361Y-695665D01*
G01X-20435313Y-704809D01*
G01X-20435313Y-714207D01*
G01X-20438361Y-723605D01*
G01X-20444711Y-729701D01*
G01X-20453855Y-732749D01*
G01X-20460205Y-732749D01*
G01X-20469349Y-729701D01*
G01X-20475699Y-723605D01*
G01X-20478747Y-714207D01*
G01X-20478747Y-704809D01*
G01X-20475699Y-695665D01*
G01X-20472397Y-692617D01*
G01X-20466301Y-689569D01*
G01X-20413723Y797601D02*
G01X-20478747Y797601D01*
G01X-20413723Y819191D02*
G01X-20413723Y775757D01*
G01X-20413723Y745531D02*
G01X-20478747Y745531D01*
G01X-20447759Y745531D02*
G01X-20438361Y736387D01*
G01X-20435313Y730291D01*
G01X-20435313Y720893D01*
G01X-20438361Y714797D01*
G01X-20447759Y711495D01*
G01X-20478747Y711495D01*
G01X-20453855Y681269D02*
G01X-20453855Y644185D01*
G01X-20447759Y644185D01*
G01X-20441409Y647233D01*
G01X-20438361Y650535D01*
G01X-20435313Y656631D01*
G01X-20435313Y666029D01*
G01X-20438361Y672125D01*
G01X-20444711Y678221D01*
G01X-20453855Y681269D01*
G01X-20460205Y681269D01*
G01X-20469349Y678221D01*
G01X-20475699Y672125D01*
G01X-20478747Y666029D01*
G01X-20478747Y656631D01*
G01X-20475699Y650535D01*
G01X-20469349Y644185D01*
G01X-20435313Y613959D02*
G01X-20478747Y613959D01*
G01X-20453855Y613959D02*
G01X-20444711Y610911D01*
G01X-20438361Y604815D01*
G01X-20435313Y598719D01*
G01X-20435313Y589321D01*
G01X-20435313Y559095D02*
G01X-20478747Y559095D01*
G01X-20447759Y559095D02*
G01X-20438361Y549951D01*
G01X-20435313Y543855D01*
G01X-20435313Y534457D01*
G01X-20438361Y528361D01*
G01X-20447759Y525059D01*
G01X-20478747Y525059D01*
G01X-20447759Y525059D02*
G01X-20438361Y515915D01*
G01X-20435313Y509565D01*
G01X-20435313Y500421D01*
G01X-20438361Y494325D01*
G01X-20447759Y491023D01*
G01X-20478747Y491023D01*
G01X-20426169Y460797D02*
G01X-20422867Y454701D01*
G01X-20413723Y445557D01*
G01X-20478747Y445557D01*
G01X-20422867Y378247D02*
G01X-20416771Y381295D01*
G01X-20413723Y390693D01*
G01X-20413723Y396789D01*
G01X-20416771Y406187D01*
G01X-20426169Y412283D01*
G01X-20441409Y415331D01*
G01X-20456903Y415331D01*
G01X-20469349Y412283D01*
G01X-20475699Y406187D01*
G01X-20478747Y396789D01*
G01X-20478747Y393741D01*
G01X-20475699Y384597D01*
G01X-20469349Y378247D01*
G01X-20460205Y375199D01*
G01X-20456903Y375199D01*
G01X-20447759Y378247D01*
G01X-20441409Y384597D01*
G01X-20438361Y393741D01*
G01X-20438361Y396789D01*
G01X-20441409Y406187D01*
G01X-20447759Y412283D01*
G01X-20456903Y415331D01*
G01X-17962880Y2685034D02*
G01X-17962880Y2620010D01*
G01X-17962880Y2685034D02*
G01X-17934940Y2685034D01*
G01X-17925796Y2681986D01*
G01X-17922748Y2678938D01*
G01X-17919446Y2672588D01*
G01X-17919446Y2666492D01*
G01X-17922748Y2660396D01*
G01X-17925796Y2657348D01*
G01X-17934940Y2654046D01*
G01X-17962880Y2654046D01*
G01X-17941290Y2654046D02*
G01X-17919446Y2620010D01*
G01X-17889220Y2672588D02*
G01X-17883124Y2675890D01*
G01X-17873980Y2685034D01*
G01X-17873980Y2620010D01*
G01X-17988280Y3015234D02*
G01X-17988280Y2950210D01*
G01X-17988280Y3015234D02*
G01X-17960340Y3015234D01*
G01X-17951196Y3012186D01*
G01X-17948148Y3009138D01*
G01X-17944846Y3002788D01*
G01X-17944846Y2996692D01*
G01X-17948148Y2990596D01*
G01X-17951196Y2987548D01*
G01X-17960340Y2984246D01*
G01X-17988280Y2984246D01*
G01X-17966690Y2984246D02*
G01X-17944846Y2950210D01*
G01X-17911572Y2999740D02*
G01X-17911572Y3002788D01*
G01X-17908524Y3009138D01*
G01X-17905476Y3012186D01*
G01X-17899380Y3015234D01*
G01X-17886934Y3015234D01*
G01X-17880584Y3012186D01*
G01X-17877536Y3009138D01*
G01X-17874488Y3002788D01*
G01X-17874488Y2996692D01*
G01X-17877536Y2990596D01*
G01X-17883886Y2981198D01*
G01X-17914620Y2950210D01*
G01X-17871440Y2950210D01*
G54D11*
G01X-20366990Y2661412D02*
G01X-20322286Y2661412D01*
G01X-20344638Y2639060D02*
G01X-20344638Y2683764D01*
G01X-20331938Y2943860D02*
G01X-20331938Y2988564D01*
G54D10*
G01X-20452334Y2700020D02*
G01X-20405852Y2700020D01*
G01X-20396708Y2703068D01*
G01X-20390358Y2709418D01*
G01X-20387310Y2718562D01*
G01X-20387310Y2724912D01*
G01X-20390358Y2734056D01*
G01X-20396708Y2740152D01*
G01X-20405852Y2743454D01*
G01X-20452334Y2743454D01*
G01X-20436840Y2776728D02*
G01X-20439888Y2776728D01*
G01X-20446238Y2779776D01*
G01X-20449286Y2782824D01*
G01X-20452334Y2788920D01*
G01X-20452334Y2801366D01*
G01X-20449286Y2807716D01*
G01X-20446238Y2810764D01*
G01X-20439888Y2813812D01*
G01X-20433792Y2813812D01*
G01X-20427696Y2810764D01*
G01X-20418298Y2804414D01*
G01X-20387310Y2773680D01*
G01X-20387310Y2816860D01*
G01X-19410680Y2570734D02*
G01X-19410680Y2505710D01*
G01X-19410680Y2570734D02*
G01X-19382740Y2570734D01*
G01X-19373596Y2567686D01*
G01X-19370548Y2564638D01*
G01X-19367246Y2558288D01*
G01X-19367246Y2549144D01*
G01X-19370548Y2543048D01*
G01X-19373596Y2539746D01*
G01X-19382740Y2536698D01*
G01X-19410680Y2536698D01*
G01X-19321780Y2549144D02*
G01X-19327876Y2546096D01*
G01X-19333972Y2539746D01*
G01X-19337020Y2530602D01*
G01X-19337020Y2524252D01*
G01X-19333972Y2515108D01*
G01X-19327876Y2508758D01*
G01X-19321780Y2505710D01*
G01X-19312382Y2505710D01*
G01X-19306286Y2508758D01*
G01X-19299936Y2515108D01*
G01X-19296888Y2524252D01*
G01X-19296888Y2530602D01*
G01X-19299936Y2539746D01*
G01X-19306286Y2546096D01*
G01X-19312382Y2549144D01*
G01X-19321780Y2549144D01*
G01X-19266662Y2549144D02*
G01X-19254470Y2505710D01*
G01X-19242024Y2549144D02*
G01X-19254470Y2505710D01*
G01X-19242024Y2549144D02*
G01X-19229578Y2505710D01*
G01X-19217132Y2549144D02*
G01X-19229578Y2505710D01*
G01X-19186906Y2530602D02*
G01X-19149822Y2530602D01*
G01X-19149822Y2536698D01*
G01X-19152870Y2543048D01*
G01X-19156172Y2546096D01*
G01X-19162268Y2549144D01*
G01X-19171666Y2549144D01*
G01X-19177762Y2546096D01*
G01X-19183858Y2539746D01*
G01X-19186906Y2530602D01*
G01X-19186906Y2524252D01*
G01X-19183858Y2515108D01*
G01X-19177762Y2508758D01*
G01X-19171666Y2505710D01*
G01X-19162268Y2505710D01*
G01X-19156172Y2508758D01*
G01X-19149822Y2515108D01*
G01X-19119596Y2549144D02*
G01X-19119596Y2505710D01*
G01X-19119596Y2530602D02*
G01X-19116548Y2539746D01*
G01X-19110452Y2546096D01*
G01X-19104356Y2549144D01*
G01X-19094958Y2549144D01*
G01X-20945856Y2472690D02*
G01X-20945856Y2416810D01*
G01X-20973796Y2444750D02*
G01X-20918170Y2444750D01*
G01X-20679918Y2481834D02*
G01X-20679918Y2416810D01*
G01X-20679918Y2481834D02*
G01X-20658328Y2481834D01*
G01X-20649184Y2478786D01*
G01X-20642834Y2472690D01*
G01X-20639786Y2466340D01*
G01X-20636738Y2457196D01*
G01X-20636738Y2441702D01*
G01X-20639786Y2432304D01*
G01X-20642834Y2426208D01*
G01X-20649184Y2419858D01*
G01X-20658328Y2416810D01*
G01X-20679918Y2416810D01*
G01X-20398486Y2444750D02*
G01X-20342860Y2444750D01*
G04 Text End*

G04 PolygonModel Start*
G54D12*
G01X-16274999Y-819201D02*
G01X-16274999Y920801D01*
G01X-16274999Y920801D02*
G01X-16849999Y920801D01*
G01X-16849997Y920801D02*
G01X-16849999Y-819201D01*
G01X-16849999Y-819201D02*
G01X-16274999Y-819201D01*
G01X-16560800Y-812800D02*
G01X-16560800Y-787400D01*
G01X-16560800Y-787400D02*
G01X-16459200Y-787400D01*
G01X-16459200Y-787400D02*
G01X-16459200Y-812800D01*
G01X-16459200Y914400D02*
G01X-16459200Y889000D01*
G01X-16459200Y889000D02*
G01X-16560800Y889000D01*
G01X-16560800Y889000D02*
G01X-16560800Y914400D01*
G01X-16560800Y-787400D02*
G01X-16814800Y-787400D01*
G01X-16814800Y-787400D02*
G01X-16814800Y889000D01*
G01X-16814800Y889000D02*
G01X-16560800Y889000D01*
G01X-16459200Y889000D02*
G01X-16306800Y889000D01*
G01X-16306800Y889000D02*
G01X-16306800Y635000D01*
G01X-16306800Y482600D02*
G01X-16306800Y-381000D01*
G01X-16306800Y-508000D02*
G01X-16306800Y-787400D01*
G01X-16306800Y-787400D02*
G01X-16484600Y-787400D01*
G01X-16306800Y-508000D02*
G01X-16281400Y-508000D01*
G01X-16306800Y-381000D02*
G01X-16281400Y-381000D01*
G01X-16306800Y482600D02*
G01X-16281400Y482600D01*
G01X-16306800Y635000D02*
G01X-16281400Y635000D01*
G01X-21122640Y1675206D02*
G01X-21122640Y925195D01*
G01X-20543520Y1677035D02*
G01X-21123529Y1677035D01*
G01X-20543520Y1677035D02*
G01X-20543520Y927024D01*
G01X-20543520Y925195D02*
G01X-21122640Y925195D01*
G01X-20607020Y1616075D02*
G01X-20607020Y988695D01*
G01X-20607020Y988695D02*
G01X-21061680Y988695D01*
G01X-20546060Y930275D02*
G01X-20553680Y930275D01*
G01X-20553680Y930275D02*
G01X-20614640Y991235D01*
G01X-20546060Y1674495D02*
G01X-20553680Y1674495D01*
G01X-20553680Y1674495D02*
G01X-20614640Y1613535D01*
G01X-20975320Y1677035D02*
G01X-20975320Y1618615D01*
G01X-20993100Y986155D02*
G01X-20993100Y927735D01*
G01X-21120100Y1552575D02*
G01X-21061680Y1552575D01*
G01X-21061680Y988695D02*
G01X-21061680Y1616075D01*
G01X-21061680Y1616075D02*
G01X-20609560Y1616075D01*
G01X-20609560Y1616075D02*
G01X-20609560Y1613535D01*
G01X-21121370Y1475105D02*
G01X-21062950Y1475105D01*
G01X-21120100Y1128395D02*
G01X-21061680Y1128395D01*
G01X-21121370Y1050925D02*
G01X-21062950Y1050925D01*
G01X-18896901Y3204718D02*
G01X-18896901Y3013710D01*
G01X-18896901Y3013710D02*
G01X-18867437Y2984500D01*
G01X-18867437Y2984500D02*
G01X-18698527Y2984500D01*
G01X-18698527Y2984500D02*
G01X-18664237Y3018536D01*
G01X-18664237Y3018536D02*
G01X-18664237Y3204718D01*
G01X-19396900Y3204718D02*
G01X-19396900Y3013710D01*
G01X-19396900Y3013710D02*
G01X-19367436Y2984500D01*
G01X-19367436Y2984500D02*
G01X-19198526Y2984500D01*
G01X-19198526Y2984500D02*
G01X-19164236Y3018536D01*
G01X-19164236Y3018536D02*
G01X-19164236Y3204718D01*
G01X-18524601Y3204799D02*
G01X-18524601Y2444796D01*
G01X-19524602Y3204799D02*
G01X-18524601Y3204799D01*
G01X-19524602Y2650122D02*
G01X-18524601Y2650122D01*
G01X-19524602Y2444796D02*
G01X-18524601Y2444796D01*
G01X-19524602Y3204799D02*
G01X-19524602Y2444796D01*
G36*
G01X-18524601Y2609799D02*
G01X-18464601Y2624800D01*
G01X-18464601Y2544801D01*
G01X-18524601Y2559802D01*
G01X-18524601Y2609799D01*
G37*
G01X-20215611Y2113600D02*
G01X-20167671Y2113600D01*
G01X-20167671Y2113600D02*
G01X-20167671Y2118563D01*
G01X-20215611Y2173597D02*
G01X-20167671Y2173597D01*
G01X-20167671Y2173597D02*
G01X-20167671Y2173171D01*
G01X-21172211Y2109671D02*
G01X-21125609Y2109671D01*
G01X-21125609Y2109671D02*
G01X-21125609Y2113600D01*
G01X-21172211Y2166821D02*
G01X-21125609Y2166821D01*
G01X-21125609Y2166821D02*
G01X-21125609Y2163602D01*
G01X-21172211Y1793243D02*
G01X-20179012Y1793243D01*
G01X-21005815Y2326643D02*
G01X-21005815Y2377443D01*
G01X-20853415Y2326643D02*
G01X-20853415Y2377443D01*
G01X-20345347Y2326643D02*
G01X-20345347Y2354585D01*
G01X-20345347Y2354585D02*
G01X-20345347Y2377443D01*
G01X-20497815Y2326643D02*
G01X-20497815Y2377443D01*
G01X-20179012Y2377443D02*
G01X-21172211Y2377443D01*
G01X-20167671Y1793243D02*
G01X-20167671Y2377443D01*
G01X-21172211Y2377443D02*
G01X-21172211Y1793243D01*
G01X-19127644Y2113600D02*
G01X-19079705Y2113600D01*
G01X-19079705Y2113600D02*
G01X-19079705Y2118563D01*
G01X-19127644Y2173597D02*
G01X-19079705Y2173597D01*
G01X-19079705Y2173597D02*
G01X-19079705Y2173171D01*
G01X-20084244Y2109671D02*
G01X-20037643Y2109671D01*
G01X-20037643Y2109671D02*
G01X-20037643Y2113600D01*
G01X-20084244Y2166821D02*
G01X-20037643Y2166821D01*
G01X-20037643Y2166821D02*
G01X-20037643Y2163602D01*
G01X-20084244Y1793243D02*
G01X-19091046Y1793243D01*
G01X-19917849Y2326643D02*
G01X-19917849Y2377443D01*
G01X-19765449Y2326643D02*
G01X-19765449Y2377443D01*
G01X-19257380Y2326643D02*
G01X-19257380Y2354585D01*
G01X-19257380Y2354585D02*
G01X-19257380Y2377443D01*
G01X-19409849Y2326643D02*
G01X-19409849Y2377443D01*
G01X-19091046Y2377443D02*
G01X-20084244Y2377443D01*
G01X-19079705Y1793243D02*
G01X-19079705Y2377443D01*
G01X-20084244Y2377443D02*
G01X-20084244Y1793243D01*
G01X-18039678Y2113600D02*
G01X-17991738Y2113600D01*
G01X-17991738Y2113600D02*
G01X-17991738Y2118563D01*
G01X-18039678Y2173597D02*
G01X-17991738Y2173597D01*
G01X-17991738Y2173597D02*
G01X-17991738Y2173171D01*
G01X-18996277Y2109671D02*
G01X-18949676Y2109671D01*
G01X-18949676Y2109671D02*
G01X-18949676Y2113600D01*
G01X-18996277Y2166821D02*
G01X-18949676Y2166821D01*
G01X-18949676Y2166821D02*
G01X-18949676Y2163602D01*
G01X-18996277Y1793243D02*
G01X-18003079Y1793243D01*
G01X-18829882Y2326643D02*
G01X-18829882Y2377443D01*
G01X-18677482Y2326643D02*
G01X-18677482Y2377443D01*
G01X-18169413Y2326643D02*
G01X-18169413Y2354585D01*
G01X-18169413Y2354585D02*
G01X-18169413Y2377443D01*
G01X-18321882Y2326643D02*
G01X-18321882Y2377443D01*
G01X-18003079Y2377443D02*
G01X-18996277Y2377443D01*
G01X-17991738Y1793243D02*
G01X-17991738Y2377443D01*
G01X-18996277Y2377443D02*
G01X-18996277Y1793243D01*
G01X-16964411Y2113600D02*
G01X-16916471Y2113600D01*
G01X-16916471Y2113600D02*
G01X-16916471Y2118563D01*
G01X-16964411Y2173597D02*
G01X-16916471Y2173597D01*
G01X-16916471Y2173597D02*
G01X-16916471Y2173171D01*
G01X-17921011Y2109671D02*
G01X-17874409Y2109671D01*
G01X-17874409Y2109671D02*
G01X-17874409Y2113600D01*
G01X-17921011Y2166821D02*
G01X-17874409Y2166821D01*
G01X-17874409Y2166821D02*
G01X-17874409Y2163602D01*
G01X-17921011Y1793243D02*
G01X-16927812Y1793243D01*
G01X-17754615Y2326643D02*
G01X-17754615Y2377443D01*
G01X-17602215Y2326643D02*
G01X-17602215Y2377443D01*
G01X-17094147Y2326643D02*
G01X-17094147Y2354585D01*
G01X-17094147Y2354585D02*
G01X-17094147Y2377443D01*
G01X-17246615Y2326643D02*
G01X-17246615Y2377443D01*
G01X-16927812Y2377443D02*
G01X-17921011Y2377443D01*
G01X-16916471Y1793243D02*
G01X-16916471Y2377443D01*
G01X-17921011Y2377443D02*
G01X-17921011Y1793243D01*
G01X-16504600Y2143511D02*
G01X-16504600Y2095571D01*
G01X-16504600Y2095571D02*
G01X-16499637Y2095571D01*
G01X-16444603Y2143511D02*
G01X-16444603Y2095571D01*
G01X-16444603Y2095571D02*
G01X-16445029Y2095571D01*
G01X-16508529Y3100111D02*
G01X-16508529Y3053509D01*
G01X-16508529Y3053509D02*
G01X-16504600Y3053509D01*
G01X-16451379Y3100111D02*
G01X-16451379Y3053509D01*
G01X-16451379Y3053509D02*
G01X-16454598Y3053509D01*
G01X-16824957Y3100111D02*
G01X-16824957Y2106912D01*
G01X-16291557Y2933715D02*
G01X-16240757Y2933715D01*
G01X-16291557Y2781315D02*
G01X-16240757Y2781315D01*
G01X-16291557Y2273247D02*
G01X-16263615Y2273247D01*
G01X-16263615Y2273247D02*
G01X-16240757Y2273247D01*
G01X-16291557Y2425715D02*
G01X-16240757Y2425715D01*
G01X-16240757Y2106912D02*
G01X-16240757Y3100111D01*
G01X-16824957Y2095571D02*
G01X-16240757Y2095571D01*
G01X-16240757Y3100111D02*
G01X-16824957Y3100111D01*
G01X-16504600Y1076711D02*
G01X-16504600Y1028771D01*
G01X-16504600Y1028771D02*
G01X-16499637Y1028771D01*
G01X-16444603Y1076711D02*
G01X-16444603Y1028771D01*
G01X-16444603Y1028771D02*
G01X-16445029Y1028771D01*
G01X-16508529Y2033311D02*
G01X-16508529Y1986709D01*
G01X-16508529Y1986709D02*
G01X-16504600Y1986709D01*
G01X-16451379Y2033311D02*
G01X-16451379Y1986709D01*
G01X-16451379Y1986709D02*
G01X-16454598Y1986709D01*
G01X-16824957Y2033311D02*
G01X-16824957Y1040112D01*
G01X-16291557Y1866915D02*
G01X-16240757Y1866915D01*
G01X-16291557Y1714515D02*
G01X-16240757Y1714515D01*
G01X-16291557Y1206447D02*
G01X-16263615Y1206447D01*
G01X-16263615Y1206447D02*
G01X-16240757Y1206447D01*
G01X-16291557Y1358915D02*
G01X-16240757Y1358915D01*
G01X-16240757Y1040112D02*
G01X-16240757Y2033311D01*
G01X-16824957Y1028771D02*
G01X-16240757Y1028771D01*
G01X-16240757Y2033311D02*
G01X-16824957Y2033311D01*
G01X-16504600Y-1971289D02*
G01X-16504600Y-2019229D01*
G01X-16504600Y-2019229D02*
G01X-16499637Y-2019229D01*
G01X-16444603Y-1971289D02*
G01X-16444603Y-2019229D01*
G01X-16444603Y-2019229D02*
G01X-16445029Y-2019229D01*
G01X-16508529Y-1014689D02*
G01X-16508529Y-1061291D01*
G01X-16508529Y-1061291D02*
G01X-16504600Y-1061291D01*
G01X-16451379Y-1014689D02*
G01X-16451379Y-1061291D01*
G01X-16451379Y-1061291D02*
G01X-16454598Y-1061291D01*
G01X-16824957Y-1014689D02*
G01X-16824957Y-2007888D01*
G01X-16291557Y-1181085D02*
G01X-16240757Y-1181085D01*
G01X-16291557Y-1333485D02*
G01X-16240757Y-1333485D01*
G01X-16291557Y-1841553D02*
G01X-16263615Y-1841553D01*
G01X-16263615Y-1841553D02*
G01X-16240757Y-1841553D01*
G01X-16291557Y-1689085D02*
G01X-16240757Y-1689085D01*
G01X-16240757Y-2007888D02*
G01X-16240757Y-1014689D01*
G01X-16824957Y-2019229D02*
G01X-16240757Y-2019229D01*
G01X-16240757Y-1014689D02*
G01X-16824957Y-1014689D01*
G01X-16961800Y-3038089D02*
G01X-16961800Y-3086029D01*
G01X-16961800Y-3086029D02*
G01X-16956837Y-3086029D01*
G01X-16901803Y-3038089D02*
G01X-16901803Y-3086029D01*
G01X-16901803Y-3086029D02*
G01X-16902229Y-3086029D01*
G01X-16965729Y-2081489D02*
G01X-16965729Y-2128091D01*
G01X-16965729Y-2128091D02*
G01X-16961800Y-2128091D01*
G01X-16908579Y-2081489D02*
G01X-16908579Y-2128091D01*
G01X-16908579Y-2128091D02*
G01X-16911798Y-2128091D01*
G01X-17282157Y-2081489D02*
G01X-17282157Y-3074688D01*
G01X-16748757Y-2247885D02*
G01X-16697957Y-2247885D01*
G01X-16748757Y-2400285D02*
G01X-16697957Y-2400285D01*
G01X-16748757Y-2908353D02*
G01X-16720815Y-2908353D01*
G01X-16720815Y-2908353D02*
G01X-16697957Y-2908353D01*
G01X-16748757Y-2755885D02*
G01X-16697957Y-2755885D01*
G01X-16697957Y-3074688D02*
G01X-16697957Y-2081489D01*
G01X-17282157Y-3086029D02*
G01X-16697957Y-3086029D01*
G01X-16697957Y-2081489D02*
G01X-17282157Y-2081489D01*
G01X-17604420Y-3038089D02*
G01X-17604420Y-3086029D01*
G01X-17604420Y-3086029D02*
G01X-17599457Y-3086029D01*
G01X-17544423Y-3038089D02*
G01X-17544423Y-3086029D01*
G01X-17544423Y-3086029D02*
G01X-17544849Y-3086029D01*
G01X-17608349Y-2081489D02*
G01X-17608349Y-2128091D01*
G01X-17608349Y-2128091D02*
G01X-17604420Y-2128091D01*
G01X-17551199Y-2081489D02*
G01X-17551199Y-2128091D01*
G01X-17551199Y-2128091D02*
G01X-17554418Y-2128091D01*
G01X-17924777Y-2081489D02*
G01X-17924777Y-3074688D01*
G01X-17391377Y-2247885D02*
G01X-17340577Y-2247885D01*
G01X-17391377Y-2400285D02*
G01X-17340577Y-2400285D01*
G01X-17391377Y-2908353D02*
G01X-17363435Y-2908353D01*
G01X-17363435Y-2908353D02*
G01X-17340577Y-2908353D01*
G01X-17391377Y-2755885D02*
G01X-17340577Y-2755885D01*
G01X-17340577Y-3074688D02*
G01X-17340577Y-2081489D01*
G01X-17924777Y-3086029D02*
G01X-17340577Y-3086029D01*
G01X-17340577Y-2081489D02*
G01X-17924777Y-2081489D01*
G01X-18247040Y-3038089D02*
G01X-18247040Y-3086029D01*
G01X-18247040Y-3086029D02*
G01X-18242077Y-3086029D01*
G01X-18187043Y-3038089D02*
G01X-18187043Y-3086029D01*
G01X-18187043Y-3086029D02*
G01X-18187469Y-3086029D01*
G01X-18250969Y-2081489D02*
G01X-18250969Y-2128091D01*
G01X-18250969Y-2128091D02*
G01X-18247040Y-2128091D01*
G01X-18193819Y-2081489D02*
G01X-18193819Y-2128091D01*
G01X-18193819Y-2128091D02*
G01X-18197038Y-2128091D01*
G01X-18567397Y-2081489D02*
G01X-18567397Y-3074688D01*
G01X-18033997Y-2247885D02*
G01X-17983197Y-2247885D01*
G01X-18033997Y-2400285D02*
G01X-17983197Y-2400285D01*
G01X-18033997Y-2908353D02*
G01X-18006055Y-2908353D01*
G01X-18006055Y-2908353D02*
G01X-17983197Y-2908353D01*
G01X-18033997Y-2755885D02*
G01X-17983197Y-2755885D01*
G01X-17983197Y-3074688D02*
G01X-17983197Y-2081489D01*
G01X-18567397Y-3086029D02*
G01X-17983197Y-3086029D01*
G01X-17983197Y-2081489D02*
G01X-18567397Y-2081489D01*
G01X-18889660Y-3038089D02*
G01X-18889660Y-3086029D01*
G01X-18889660Y-3086029D02*
G01X-18884697Y-3086029D01*
G01X-18829663Y-3038089D02*
G01X-18829663Y-3086029D01*
G01X-18829663Y-3086029D02*
G01X-18830089Y-3086029D01*
G01X-18893589Y-2081489D02*
G01X-18893589Y-2128091D01*
G01X-18893589Y-2128091D02*
G01X-18889660Y-2128091D01*
G01X-18836439Y-2081489D02*
G01X-18836439Y-2128091D01*
G01X-18836439Y-2128091D02*
G01X-18839658Y-2128091D01*
G01X-19210017Y-2081489D02*
G01X-19210017Y-3074688D01*
G01X-18676617Y-2247885D02*
G01X-18625817Y-2247885D01*
G01X-18676617Y-2400285D02*
G01X-18625817Y-2400285D01*
G01X-18676617Y-2908353D02*
G01X-18648675Y-2908353D01*
G01X-18648675Y-2908353D02*
G01X-18625817Y-2908353D01*
G01X-18676617Y-2755885D02*
G01X-18625817Y-2755885D01*
G01X-18625817Y-3074688D02*
G01X-18625817Y-2081489D01*
G01X-19210017Y-3086029D02*
G01X-18625817Y-3086029D01*
G01X-18625817Y-2081489D02*
G01X-19210017Y-2081489D01*
G01X-19532280Y-3038089D02*
G01X-19532280Y-3086029D01*
G01X-19532280Y-3086029D02*
G01X-19527317Y-3086029D01*
G01X-19472283Y-3038089D02*
G01X-19472283Y-3086029D01*
G01X-19472283Y-3086029D02*
G01X-19472709Y-3086029D01*
G01X-19536209Y-2081489D02*
G01X-19536209Y-2128091D01*
G01X-19536209Y-2128091D02*
G01X-19532280Y-2128091D01*
G01X-19479059Y-2081489D02*
G01X-19479059Y-2128091D01*
G01X-19479059Y-2128091D02*
G01X-19482278Y-2128091D01*
G01X-19852637Y-2081489D02*
G01X-19852637Y-3074688D01*
G01X-19319237Y-2247885D02*
G01X-19268437Y-2247885D01*
G01X-19319237Y-2400285D02*
G01X-19268437Y-2400285D01*
G01X-19319237Y-2908353D02*
G01X-19291295Y-2908353D01*
G01X-19291295Y-2908353D02*
G01X-19268437Y-2908353D01*
G01X-19319237Y-2755885D02*
G01X-19268437Y-2755885D01*
G01X-19268437Y-3074688D02*
G01X-19268437Y-2081489D01*
G01X-19852637Y-3086029D02*
G01X-19268437Y-3086029D01*
G01X-19268437Y-2081489D02*
G01X-19852637Y-2081489D01*
G01X-20174900Y-3038089D02*
G01X-20174900Y-3086029D01*
G01X-20174900Y-3086029D02*
G01X-20169937Y-3086029D01*
G01X-20114903Y-3038089D02*
G01X-20114903Y-3086029D01*
G01X-20114903Y-3086029D02*
G01X-20115329Y-3086029D01*
G01X-20178829Y-2081489D02*
G01X-20178829Y-2128091D01*
G01X-20178829Y-2128091D02*
G01X-20174900Y-2128091D01*
G01X-20121679Y-2081489D02*
G01X-20121679Y-2128091D01*
G01X-20121679Y-2128091D02*
G01X-20124898Y-2128091D01*
G01X-20495257Y-2081489D02*
G01X-20495257Y-3074688D01*
G01X-19961857Y-2247885D02*
G01X-19911057Y-2247885D01*
G01X-19961857Y-2400285D02*
G01X-19911057Y-2400285D01*
G01X-19961857Y-2908353D02*
G01X-19933915Y-2908353D01*
G01X-19933915Y-2908353D02*
G01X-19911057Y-2908353D01*
G01X-19961857Y-2755885D02*
G01X-19911057Y-2755885D01*
G01X-19911057Y-3074688D02*
G01X-19911057Y-2081489D01*
G01X-20495257Y-3086029D02*
G01X-19911057Y-3086029D01*
G01X-19911057Y-2081489D02*
G01X-20495257Y-2081489D01*
G01X-20797200Y-2352289D02*
G01X-20797200Y-2400229D01*
G01X-20797200Y-2400229D02*
G01X-20792237Y-2400229D01*
G01X-20737203Y-2352289D02*
G01X-20737203Y-2400229D01*
G01X-20737203Y-2400229D02*
G01X-20737629Y-2400229D01*
G01X-20801129Y-1395689D02*
G01X-20801129Y-1442291D01*
G01X-20801129Y-1442291D02*
G01X-20797200Y-1442291D01*
G01X-20743979Y-1395689D02*
G01X-20743979Y-1442291D01*
G01X-20743979Y-1442291D02*
G01X-20747198Y-1442291D01*
G01X-21117557Y-1395689D02*
G01X-21117557Y-2388888D01*
G01X-20584157Y-1562085D02*
G01X-20533357Y-1562085D01*
G01X-20584157Y-1714485D02*
G01X-20533357Y-1714485D01*
G01X-20584157Y-2222553D02*
G01X-20556215Y-2222553D01*
G01X-20556215Y-2222553D02*
G01X-20533357Y-2222553D01*
G01X-20584157Y-2070085D02*
G01X-20533357Y-2070085D01*
G01X-20533357Y-2388888D02*
G01X-20533357Y-1395689D01*
G01X-21117557Y-2400229D02*
G01X-20533357Y-2400229D01*
G01X-20533357Y-1395689D02*
G01X-21117557Y-1395689D01*
G01X-20797200Y-1247389D02*
G01X-20797200Y-1295329D01*
G01X-20797200Y-1295329D02*
G01X-20792237Y-1295329D01*
G01X-20737203Y-1247389D02*
G01X-20737203Y-1295329D01*
G01X-20737203Y-1295329D02*
G01X-20737629Y-1295329D01*
G01X-20801129Y-290789D02*
G01X-20801129Y-337391D01*
G01X-20801129Y-337391D02*
G01X-20797200Y-337391D01*
G01X-20743979Y-290789D02*
G01X-20743979Y-337391D01*
G01X-20743979Y-337391D02*
G01X-20747198Y-337391D01*
G01X-21117557Y-290789D02*
G01X-21117557Y-1283988D01*
G01X-20584157Y-457185D02*
G01X-20533357Y-457185D01*
G01X-20584157Y-609585D02*
G01X-20533357Y-609585D01*
G01X-20584157Y-1117653D02*
G01X-20556215Y-1117653D01*
G01X-20556215Y-1117653D02*
G01X-20533357Y-1117653D01*
G01X-20584157Y-965185D02*
G01X-20533357Y-965185D01*
G01X-20533357Y-1283988D02*
G01X-20533357Y-290789D01*
G01X-21117557Y-1295329D02*
G01X-20533357Y-1295329D01*
G01X-20533357Y-290789D02*
G01X-21117557Y-290789D01*
G01X-20797200Y-142489D02*
G01X-20797200Y-190429D01*
G01X-20797200Y-190429D02*
G01X-20792237Y-190429D01*
G01X-20737203Y-142489D02*
G01X-20737203Y-190429D01*
G01X-20737203Y-190429D02*
G01X-20737629Y-190429D01*
G01X-20801129Y814111D02*
G01X-20801129Y767509D01*
G01X-20801129Y767509D02*
G01X-20797200Y767509D01*
G01X-20743979Y814111D02*
G01X-20743979Y767509D01*
G01X-20743979Y767509D02*
G01X-20747198Y767509D01*
G01X-21117557Y814111D02*
G01X-21117557Y-179088D01*
G01X-20584157Y647715D02*
G01X-20533357Y647715D01*
G01X-20584157Y495315D02*
G01X-20533357Y495315D01*
G01X-20584157Y-12753D02*
G01X-20556215Y-12753D01*
G01X-20556215Y-12753D02*
G01X-20533357Y-12753D01*
G01X-20584157Y139715D02*
G01X-20533357Y139715D01*
G01X-20533357Y-179088D02*
G01X-20533357Y814111D01*
G01X-21117557Y-190429D02*
G01X-20533357Y-190429D01*
G01X-20533357Y814111D02*
G01X-21117557Y814111D01*
G01X-18013799Y2801998D02*
G01X-17393801Y2802001D01*
G01X-18013799Y2532002D02*
G01X-17393801Y2531999D01*
G01X-17393801Y2532002D02*
G01X-17393801Y2802001D01*
G01X-18013799Y2531999D02*
G01X-18013799Y2801998D01*
G01X-18013799Y3106798D02*
G01X-17393801Y3106801D01*
G01X-18013799Y2836802D02*
G01X-17393801Y2836799D01*
G01X-17393801Y2836802D02*
G01X-17393801Y3106801D01*
G01X-18013799Y2836799D02*
G01X-18013799Y3106798D01*
G01X-20193000Y2517089D02*
G02X-20193000Y3147111I0J315011D01*
G01X-20193000Y3147111D02*
G02X-20193000Y2517089I0J-315011D01*
G36*
G01X-19964400Y3060700D02*
G01X-20409985Y3060611D01*
G01X-20409893Y3060700D01*
G02X-20187146Y3152966I222747J-222745D01*
G01X-20187145Y3152966D01*
G02X-19964400Y3060700I-2J-315011D01*
G37*

G04 Rect Start*
G01X-21120087Y1844040D02*
G01X-21120087Y2326640D01*
G01X-20218387Y2326640D01*
G01X-20218387Y1844040D01*
G01X-21120087Y1844040D01*
G01X-20032121Y1844040D02*
G01X-20032121Y2326640D01*
G01X-19130421Y2326640D01*
G01X-19130421Y1844040D01*
G01X-20032121Y1844040D01*
G01X-18944154Y1844040D02*
G01X-18944154Y2326640D01*
G01X-18042454Y2326640D01*
G01X-18042454Y1844040D01*
G01X-18944154Y1844040D01*
G01X-17868887Y1844040D02*
G01X-17868887Y2326640D01*
G01X-16967187Y2326640D01*
G01X-16967187Y1844040D01*
G01X-17868887Y1844040D01*
G01X-16774160Y3047987D02*
G01X-16291560Y3047987D01*
G01X-16291560Y2146287D01*
G01X-16774160Y2146287D01*
G01X-16774160Y3047987D01*
G01X-16774160Y1981187D02*
G01X-16291560Y1981187D01*
G01X-16291560Y1079487D01*
G01X-16774160Y1079487D01*
G01X-16774160Y1981187D01*
G01X-16774160Y-1066813D02*
G01X-16291560Y-1066813D01*
G01X-16291560Y-1968513D01*
G01X-16774160Y-1968513D01*
G01X-16774160Y-1066813D01*
G01X-17231360Y-2133613D02*
G01X-16748760Y-2133613D01*
G01X-16748760Y-3035313D01*
G01X-17231360Y-3035313D01*
G01X-17231360Y-2133613D01*
G01X-17873980Y-2133613D02*
G01X-17391380Y-2133613D01*
G01X-17391380Y-3035313D01*
G01X-17873980Y-3035313D01*
G01X-17873980Y-2133613D01*
G01X-18516600Y-2133613D02*
G01X-18034000Y-2133613D01*
G01X-18034000Y-3035313D01*
G01X-18516600Y-3035313D01*
G01X-18516600Y-2133613D01*
G01X-19159220Y-2133613D02*
G01X-18676620Y-2133613D01*
G01X-18676620Y-3035313D01*
G01X-19159220Y-3035313D01*
G01X-19159220Y-2133613D01*
G01X-19801840Y-2133613D02*
G01X-19319240Y-2133613D01*
G01X-19319240Y-3035313D01*
G01X-19801840Y-3035313D01*
G01X-19801840Y-2133613D01*
G01X-20444460Y-2133613D02*
G01X-19961860Y-2133613D01*
G01X-19961860Y-3035313D01*
G01X-20444460Y-3035313D01*
G01X-20444460Y-2133613D01*
G01X-21066760Y-1447813D02*
G01X-20584160Y-1447813D01*
G01X-20584160Y-2349513D01*
G01X-21066760Y-2349513D01*
G01X-21066760Y-1447813D01*
G01X-21066760Y-342913D02*
G01X-20584160Y-342913D01*
G01X-20584160Y-1244613D01*
G01X-21066760Y-1244613D01*
G01X-21066760Y-342913D01*
G01X-21066760Y761987D02*
G01X-20584160Y761987D01*
G01X-20584160Y-139713D01*
G01X-21066760Y-139713D01*
G01X-21066760Y761987D01*
G04 Rect End*

G04 Circle Start*
G01X-20508011Y2832100D02*
G03X-19877989Y2832100I315011J0D01*
G03X-20508011Y2832100I-315011J0D01*
G04 Circle End*

M02*

