G04 Layer: DrillDrawingLayer*
G04 EasyEDA Pro v3.2.149.88089769, 2026-09-14 11:30:23*
G04 Gerber Generator version 0.3*
G04 Scale: 100 percent, Rotated: No, Reflected: No*
G04 Dimensions in millimeters*
G04 Leading zeros omitted, absolute positions, 4 integers and 5 decimals*
G04 Generated by one-click*
G04 Object Configs: Pad,Via,Track,Text,Image,Dimension,BoardOutline,BoardCutout,CopperFilled,SolidRegion,FPCStiffener,Line,PlaneZone,ComponentProperty,ComponentSilkscreen,TearDrop*
G04 Layer Configs: 1,2,3,4,5,6,7,8,9,10,11,13,14,56*
G04 Copper Areas: 0*
%FSLAX45Y45*%
%MOMM*%
%AMIconRect*4,1,4,0.28,-0.28,-0.28,-0.28,-0.28,0.28,0.28,0.28,0.28,-0.28,0*4,0,4,0.233333,-0.233333,0.233333,0.233333,-0.233333,0.233333,-0.233333,-0.233333,0.233333,-0.233333,0*%
%AMIconTriangle*4,1,3,-0.339593,0.240473,0.339593,0.240473,0,-0.37884,-0.339593,0.240473,0*4,0,3,-0.265673,0.19404,0,-0.27342,0.266233,0.19404,-0.265673,0.19404,0*%
%AMIconStar6*4,1,12,0.12068,0.20888,0.298527,0.172713,0.241313,0,0.298527,-0.17206,0.12068,-0.208227,0,-0.344073,-0.120073,-0.208227,-0.298573,-0.17206,-0.240707,0,-0.298573,0.17206,-0.120073,0.20888,0,0.344073,0.12068,0.20888,0*4,0,12,-0.000467,0.273467,-0.090067,0.171733,-0.237533,0.136733,-0.193667,-0.007467,-0.237533,-0.1372,-0.090067,-0.171733,-0.000467,-0.273933,0.090067,-0.171733,0.237533,-0.1372,0.194133,0.007,0.237533,0.1372,0.090067,0.171267,-0.000467,0.273467,0*%
%AMIconStar4*4,1,8,-0.311733,0.311733,0,0.202533,0.311733,0.311733,0.202533,0,0.311733,-0.311733,0,-0.202533,-0.304407,-0.311733,-0.202533,0,-0.311733,0.311733,0*4,0,8,0.233333,-0.233333,0.1512,0,0.233333,0.233333,0,0.1512,-0.233333,0.233333,-0.1512,0,-0.233333,-0.233333,0,-0.1512,0.233333,-0.233333,0*%
%ADD10IconRect*%
%ADD11C,0.616X0.522667*%
%ADD12IconTriangle*%
%ADD13IconStar6*%
%ADD14IconStar4*%
%ADD15C,0.2032*%
%ADD16C,0.254*%
G75*


G04 Drill Drawing Start*
G54D10*
G01X-20878800Y1183005D03*
G01X-20878800Y1433195D03*
G01X-20193000Y2707099D03*
G01X-20193000Y2957101D03*
G54D11*
G01X-18213779Y2667000D03*
G01X-18213779Y2971800D03*
G01X-17193821Y2667000D03*
G01X-17193821Y2971800D03*
G54D12*
G01X-19274599Y2844800D03*
G01X-18774600Y2844800D03*
G01X-16510000Y-584200D03*
G01X-16510000Y-330200D03*
G01X-16510000Y-76200D03*
G01X-16510000Y177800D03*
G01X-16510000Y431800D03*
G01X-16510000Y685800D03*
G54D13*
G01X-16078200Y-2453640D03*
G01X-16078200Y-2199640D03*
G01X-16078200Y-1945640D03*
G01X-16078200Y-1691640D03*
G01X-16078200Y-1437640D03*
G01X-16078200Y-1183640D03*
G01X-16078200Y-929640D03*
G01X-16078200Y-675640D03*
G01X-16078200Y-421640D03*
G01X-16078200Y-167640D03*
G01X-16078200Y86360D03*
G01X-16078200Y340360D03*
G01X-16078200Y594360D03*
G01X-16078200Y848360D03*
G01X-16078200Y1102360D03*
G01X-16078200Y1356360D03*
G01X-16078200Y1610360D03*
G01X-16078200Y1864360D03*
G01X-16078200Y2118360D03*
G01X-16078200Y2372360D03*
G01X-15824200Y-2453640D03*
G01X-15824200Y-2199640D03*
G01X-15824200Y-1945640D03*
G01X-15824200Y-1691640D03*
G01X-15824200Y-1437640D03*
G01X-15824200Y-1183640D03*
G01X-15824200Y-929640D03*
G01X-15824200Y-675640D03*
G01X-15824200Y-421640D03*
G01X-15824200Y-167640D03*
G01X-15824200Y86360D03*
G01X-15824200Y340360D03*
G01X-15824200Y594360D03*
G01X-15824200Y848360D03*
G01X-15824200Y1102360D03*
G01X-15824200Y1356360D03*
G01X-15824200Y1610360D03*
G01X-15824200Y1864360D03*
G01X-15824200Y2118360D03*
G01X-15824200Y2372360D03*
G54D14*
G01X-20925587Y2133600D03*
G01X-20777200Y-2142317D03*
G01X-20777200Y-1892330D03*
G01X-20777200Y-1642313D03*
G01X-20777200Y-1037417D03*
G01X-20777200Y-787430D03*
G01X-20777200Y-537413D03*
G01X-20777200Y67483D03*
G01X-20777200Y317470D03*
G01X-20777200Y567487D03*
G01X-20675570Y2133600D03*
G01X-20425583Y2133600D03*
G01X-20154900Y-2828117D03*
G01X-20154900Y-2578130D03*
G01X-20154900Y-2328113D03*
G01X-19837620Y2133600D03*
G01X-19587603Y2133600D03*
G01X-19512280Y-2828117D03*
G01X-19512280Y-2578130D03*
G01X-19512280Y-2328113D03*
G01X-19337616Y2133600D03*
G01X-18869660Y-2828117D03*
G01X-18869660Y-2578130D03*
G01X-18869660Y-2328113D03*
G01X-18749653Y2133600D03*
G01X-18499636Y2133600D03*
G01X-18249649Y2133600D03*
G01X-18227040Y-2828117D03*
G01X-18227040Y-2578130D03*
G01X-18227040Y-2328113D03*
G01X-17674387Y2133600D03*
G01X-17584420Y-2828117D03*
G01X-17584420Y-2578130D03*
G01X-17584420Y-2328113D03*
G01X-17424370Y2133600D03*
G01X-17174383Y2133600D03*
G01X-16941800Y-2828117D03*
G01X-16941800Y-2578130D03*
G01X-16941800Y-2328113D03*
G01X-16484600Y-1761317D03*
G01X-16484600Y-1511330D03*
G01X-16484600Y-1261313D03*
G01X-16484600Y1286683D03*
G01X-16484600Y1536670D03*
G01X-16484600Y1786687D03*
G01X-16484600Y2353483D03*
G01X-16484600Y2603470D03*
G01X-16484600Y2853487D03*
G04 Drill Drawing End*

G04 Text Start*
G54D15*
G01X-13295154Y2991394D02*
G01X-13295154Y2871252D01*
G01X-13295154Y2991394D02*
G01X-13249434Y2871252D01*
G01X-13203714Y2991394D02*
G01X-13249434Y2871252D01*
G01X-13203714Y2991394D02*
G01X-13203714Y2871252D01*
G01X-13087382Y2951262D02*
G01X-13087382Y2871252D01*
G01X-13087382Y2934244D02*
G01X-13098812Y2945674D01*
G01X-13110242Y2951262D01*
G01X-13127260Y2951262D01*
G01X-13138690Y2945674D01*
G01X-13150120Y2934244D01*
G01X-13155962Y2916972D01*
G01X-13155962Y2905542D01*
G01X-13150120Y2888524D01*
G01X-13138690Y2877094D01*
G01X-13127260Y2871252D01*
G01X-13110242Y2871252D01*
G01X-13098812Y2877094D01*
G01X-13087382Y2888524D01*
G01X-13039630Y2951262D02*
G01X-13039630Y2871252D01*
G01X-13039630Y2916972D02*
G01X-13033788Y2934244D01*
G01X-13022358Y2945674D01*
G01X-13010928Y2951262D01*
G01X-12993910Y2951262D01*
G01X-12946158Y2991394D02*
G01X-12946158Y2871252D01*
G01X-12889008Y2951262D02*
G01X-12946158Y2894112D01*
G01X-12923298Y2916972D02*
G01X-12883166Y2871252D01*
G01X-11757874Y2962692D02*
G01X-11763716Y2974122D01*
G01X-11775146Y2985552D01*
G01X-11786576Y2991394D01*
G01X-11809436Y2991394D01*
G01X-11820866Y2985552D01*
G01X-11832296Y2974122D01*
G01X-11837884Y2962692D01*
G01X-11843726Y2945674D01*
G01X-11843726Y2916972D01*
G01X-11837884Y2899954D01*
G01X-11832296Y2888524D01*
G01X-11820866Y2877094D01*
G01X-11809436Y2871252D01*
G01X-11786576Y2871252D01*
G01X-11775146Y2877094D01*
G01X-11763716Y2888524D01*
G01X-11757874Y2899954D01*
G01X-11681420Y2951262D02*
G01X-11692850Y2945674D01*
G01X-11704280Y2934244D01*
G01X-11710122Y2916972D01*
G01X-11710122Y2905542D01*
G01X-11704280Y2888524D01*
G01X-11692850Y2877094D01*
G01X-11681420Y2871252D01*
G01X-11664402Y2871252D01*
G01X-11652972Y2877094D01*
G01X-11641542Y2888524D01*
G01X-11635700Y2905542D01*
G01X-11635700Y2916972D01*
G01X-11641542Y2934244D01*
G01X-11652972Y2945674D01*
G01X-11664402Y2951262D01*
G01X-11681420Y2951262D01*
G01X-11587948Y2951262D02*
G01X-11587948Y2894112D01*
G01X-11582106Y2877094D01*
G01X-11570676Y2871252D01*
G01X-11553658Y2871252D01*
G01X-11542228Y2877094D01*
G01X-11524956Y2894112D01*
G01X-11524956Y2951262D02*
G01X-11524956Y2871252D01*
G01X-11477204Y2951262D02*
G01X-11477204Y2871252D01*
G01X-11477204Y2928402D02*
G01X-11459932Y2945674D01*
G01X-11448502Y2951262D01*
G01X-11431484Y2951262D01*
G01X-11420054Y2945674D01*
G01X-11414212Y2928402D01*
G01X-11414212Y2871252D01*
G01X-11349188Y2991394D02*
G01X-11349188Y2894112D01*
G01X-11343600Y2877094D01*
G01X-11332170Y2871252D01*
G01X-11320740Y2871252D01*
G01X-11366460Y2951262D02*
G01X-11326328Y2951262D01*
G01X-10349553Y2974122D02*
G01X-10360983Y2985552D01*
G01X-10378001Y2991394D01*
G01X-10400861Y2991394D01*
G01X-10418133Y2985552D01*
G01X-10429563Y2974122D01*
G01X-10429563Y2962692D01*
G01X-10423721Y2951262D01*
G01X-10418133Y2945674D01*
G01X-10406703Y2939832D01*
G01X-10372413Y2928402D01*
G01X-10360983Y2922814D01*
G01X-10355141Y2916972D01*
G01X-10349553Y2905542D01*
G01X-10349553Y2888524D01*
G01X-10360983Y2877094D01*
G01X-10378001Y2871252D01*
G01X-10400861Y2871252D01*
G01X-10418133Y2877094D01*
G01X-10429563Y2888524D01*
G01X-10301801Y2991394D02*
G01X-10295959Y2985552D01*
G01X-10290371Y2991394D01*
G01X-10295959Y2996982D01*
G01X-10301801Y2991394D01*
G01X-10295959Y2951262D02*
G01X-10295959Y2871252D01*
G01X-10179627Y2951262D02*
G01X-10242619Y2871252D01*
G01X-10242619Y2951262D02*
G01X-10179627Y2951262D01*
G01X-10242619Y2871252D02*
G01X-10179627Y2871252D01*
G01X-10131875Y2916972D02*
G01X-10063295Y2916972D01*
G01X-10063295Y2928402D01*
G01X-10068883Y2939832D01*
G01X-10074725Y2945674D01*
G01X-10086155Y2951262D01*
G01X-10103173Y2951262D01*
G01X-10114603Y2945674D01*
G01X-10126033Y2934244D01*
G01X-10131875Y2916972D01*
G01X-10131875Y2905542D01*
G01X-10126033Y2888524D01*
G01X-10114603Y2877094D01*
G01X-10103173Y2871252D01*
G01X-10086155Y2871252D01*
G01X-10074725Y2877094D01*
G01X-10063295Y2888524D01*
G01X-6535597Y2991394D02*
G01X-6535597Y2871252D01*
G01X-6535597Y2991394D02*
G01X-6484035Y2991394D01*
G01X-6467017Y2985552D01*
G01X-6461175Y2979964D01*
G01X-6455587Y2968534D01*
G01X-6455587Y2951262D01*
G01X-6461175Y2939832D01*
G01X-6467017Y2934244D01*
G01X-6484035Y2928402D01*
G01X-6535597Y2928402D01*
G01X-6407835Y2991394D02*
G01X-6407835Y2871252D01*
G01X-6291503Y2951262D02*
G01X-6291503Y2871252D01*
G01X-6291503Y2934244D02*
G01X-6302933Y2945674D01*
G01X-6314363Y2951262D01*
G01X-6331381Y2951262D01*
G01X-6342811Y2945674D01*
G01X-6354241Y2934244D01*
G01X-6360083Y2916972D01*
G01X-6360083Y2905542D01*
G01X-6354241Y2888524D01*
G01X-6342811Y2877094D01*
G01X-6331381Y2871252D01*
G01X-6314363Y2871252D01*
G01X-6302933Y2877094D01*
G01X-6291503Y2888524D01*
G01X-6226479Y2991394D02*
G01X-6226479Y2894112D01*
G01X-6220891Y2877094D01*
G01X-6209461Y2871252D01*
G01X-6198031Y2871252D01*
G01X-6243751Y2951262D02*
G01X-6203619Y2951262D01*
G01X-6150279Y2916972D02*
G01X-6081699Y2916972D01*
G01X-6081699Y2928402D01*
G01X-6087287Y2939832D01*
G01X-6093129Y2945674D01*
G01X-6104559Y2951262D01*
G01X-6121577Y2951262D01*
G01X-6133007Y2945674D01*
G01X-6144437Y2934244D01*
G01X-6150279Y2916972D01*
G01X-6150279Y2905542D01*
G01X-6144437Y2888524D01*
G01X-6133007Y2877094D01*
G01X-6121577Y2871252D01*
G01X-6104559Y2871252D01*
G01X-6093129Y2877094D01*
G01X-6081699Y2888524D01*
G01X-5965367Y2991394D02*
G01X-5965367Y2871252D01*
G01X-5965367Y2934244D02*
G01X-5976797Y2945674D01*
G01X-5988227Y2951262D01*
G01X-6005245Y2951262D01*
G01X-6016675Y2945674D01*
G01X-6028105Y2934244D01*
G01X-6033947Y2916972D01*
G01X-6033947Y2905542D01*
G01X-6028105Y2888524D01*
G01X-6016675Y2877094D01*
G01X-6005245Y2871252D01*
G01X-5988227Y2871252D01*
G01X-5976797Y2877094D01*
G01X-5965367Y2888524D01*
G01X-4994180Y2974122D02*
G01X-5005610Y2985552D01*
G01X-5022628Y2991394D01*
G01X-5045488Y2991394D01*
G01X-5062760Y2985552D01*
G01X-5074190Y2974122D01*
G01X-5074190Y2962692D01*
G01X-5068348Y2951262D01*
G01X-5062760Y2945674D01*
G01X-5051330Y2939832D01*
G01X-5017040Y2928402D01*
G01X-5005610Y2922814D01*
G01X-4999768Y2916972D01*
G01X-4994180Y2905542D01*
G01X-4994180Y2888524D01*
G01X-5005610Y2877094D01*
G01X-5022628Y2871252D01*
G01X-5045488Y2871252D01*
G01X-5062760Y2877094D01*
G01X-5074190Y2888524D01*
G01X-4946428Y2991394D02*
G01X-4946428Y2871252D01*
G01X-4946428Y2928402D02*
G01X-4929156Y2945674D01*
G01X-4917726Y2951262D01*
G01X-4900708Y2951262D01*
G01X-4889278Y2945674D01*
G01X-4883436Y2928402D01*
G01X-4883436Y2871252D01*
G01X-4767104Y2951262D02*
G01X-4767104Y2871252D01*
G01X-4767104Y2934244D02*
G01X-4778534Y2945674D01*
G01X-4789964Y2951262D01*
G01X-4806982Y2951262D01*
G01X-4818412Y2945674D01*
G01X-4829842Y2934244D01*
G01X-4835684Y2916972D01*
G01X-4835684Y2905542D01*
G01X-4829842Y2888524D01*
G01X-4818412Y2877094D01*
G01X-4806982Y2871252D01*
G01X-4789964Y2871252D01*
G01X-4778534Y2877094D01*
G01X-4767104Y2888524D01*
G01X-4719352Y2951262D02*
G01X-4719352Y2831374D01*
G01X-4719352Y2934244D02*
G01X-4707922Y2945674D01*
G01X-4696492Y2951262D01*
G01X-4679220Y2951262D01*
G01X-4667790Y2945674D01*
G01X-4656360Y2934244D01*
G01X-4650772Y2916972D01*
G01X-4650772Y2905542D01*
G01X-4656360Y2888524D01*
G01X-4667790Y2877094D01*
G01X-4679220Y2871252D01*
G01X-4696492Y2871252D01*
G01X-4707922Y2877094D01*
G01X-4719352Y2888524D01*
G01X-4603020Y2916972D02*
G01X-4534440Y2916972D01*
G01X-4534440Y2928402D01*
G01X-4540028Y2939832D01*
G01X-4545870Y2945674D01*
G01X-4557300Y2951262D01*
G01X-4574318Y2951262D01*
G01X-4585748Y2945674D01*
G01X-4597178Y2934244D01*
G01X-4603020Y2916972D01*
G01X-4603020Y2905542D01*
G01X-4597178Y2888524D01*
G01X-4585748Y2877094D01*
G01X-4574318Y2871252D01*
G01X-4557300Y2871252D01*
G01X-4545870Y2877094D01*
G01X-4534440Y2888524D01*
G01X-3643009Y2991394D02*
G01X-3597289Y2871252D01*
G01X-3551569Y2991394D02*
G01X-3597289Y2871252D01*
G01X-3503817Y2991394D02*
G01X-3497975Y2985552D01*
G01X-3492387Y2991394D01*
G01X-3497975Y2996982D01*
G01X-3503817Y2991394D01*
G01X-3497975Y2951262D02*
G01X-3497975Y2871252D01*
G01X-3376055Y2951262D02*
G01X-3376055Y2871252D01*
G01X-3376055Y2934244D02*
G01X-3387485Y2945674D01*
G01X-3398915Y2951262D01*
G01X-3415933Y2951262D01*
G01X-3427363Y2945674D01*
G01X-3438793Y2934244D01*
G01X-3444635Y2916972D01*
G01X-3444635Y2905542D01*
G01X-3438793Y2888524D01*
G01X-3427363Y2877094D01*
G01X-3415933Y2871252D01*
G01X-3398915Y2871252D01*
G01X-3387485Y2877094D01*
G01X-3376055Y2888524D01*
G01X-3225433Y3014254D02*
G01X-3328303Y2831374D01*
G01X-3177681Y2991394D02*
G01X-3177681Y2871252D01*
G01X-3177681Y2991394D02*
G01X-3126119Y2991394D01*
G01X-3109101Y2985552D01*
G01X-3103259Y2979964D01*
G01X-3097671Y2968534D01*
G01X-3097671Y2951262D01*
G01X-3103259Y2939832D01*
G01X-3109101Y2934244D01*
G01X-3126119Y2928402D01*
G01X-3177681Y2928402D01*
G01X-2981339Y2951262D02*
G01X-2981339Y2871252D01*
G01X-2981339Y2934244D02*
G01X-2992769Y2945674D01*
G01X-3004199Y2951262D01*
G01X-3021217Y2951262D01*
G01X-3032647Y2945674D01*
G01X-3044077Y2934244D01*
G01X-3049919Y2916972D01*
G01X-3049919Y2905542D01*
G01X-3044077Y2888524D01*
G01X-3032647Y2877094D01*
G01X-3021217Y2871252D01*
G01X-3004199Y2871252D01*
G01X-2992769Y2877094D01*
G01X-2981339Y2888524D01*
G01X-2865007Y2991394D02*
G01X-2865007Y2871252D01*
G01X-2865007Y2934244D02*
G01X-2876437Y2945674D01*
G01X-2887867Y2951262D01*
G01X-2904885Y2951262D01*
G01X-2916315Y2945674D01*
G01X-2927745Y2934244D01*
G01X-2933587Y2916972D01*
G01X-2933587Y2905542D01*
G01X-2927745Y2888524D01*
G01X-2916315Y2877094D01*
G01X-2904885Y2871252D01*
G01X-2887867Y2871252D01*
G01X-2876437Y2877094D01*
G01X-2865007Y2888524D01*
G01X-1973830Y2991394D02*
G01X-1973830Y2871252D01*
G01X-1973830Y2991394D02*
G01X-1922268Y2991394D01*
G01X-1905250Y2985552D01*
G01X-1899408Y2979964D01*
G01X-1893820Y2968534D01*
G01X-1893820Y2951262D01*
G01X-1899408Y2939832D01*
G01X-1905250Y2934244D01*
G01X-1922268Y2928402D01*
G01X-1973830Y2928402D01*
G01X-1777488Y2951262D02*
G01X-1777488Y2871252D01*
G01X-1777488Y2934244D02*
G01X-1788918Y2945674D01*
G01X-1800348Y2951262D01*
G01X-1817366Y2951262D01*
G01X-1828796Y2945674D01*
G01X-1840226Y2934244D01*
G01X-1846068Y2916972D01*
G01X-1846068Y2905542D01*
G01X-1840226Y2888524D01*
G01X-1828796Y2877094D01*
G01X-1817366Y2871252D01*
G01X-1800348Y2871252D01*
G01X-1788918Y2877094D01*
G01X-1777488Y2888524D01*
G01X-1661156Y2991394D02*
G01X-1661156Y2871252D01*
G01X-1661156Y2934244D02*
G01X-1672586Y2945674D01*
G01X-1684016Y2951262D01*
G01X-1701034Y2951262D01*
G01X-1712464Y2945674D01*
G01X-1723894Y2934244D01*
G01X-1729736Y2916972D01*
G01X-1729736Y2905542D01*
G01X-1723894Y2888524D01*
G01X-1712464Y2877094D01*
G01X-1701034Y2871252D01*
G01X-1684016Y2871252D01*
G01X-1672586Y2877094D01*
G01X-1661156Y2888524D01*
G01X-1405378Y2974122D02*
G01X-1416808Y2985552D01*
G01X-1433826Y2991394D01*
G01X-1456686Y2991394D01*
G01X-1473958Y2985552D01*
G01X-1485388Y2974122D01*
G01X-1485388Y2962692D01*
G01X-1479546Y2951262D01*
G01X-1473958Y2945674D01*
G01X-1462528Y2939832D01*
G01X-1428238Y2928402D01*
G01X-1416808Y2922814D01*
G01X-1410966Y2916972D01*
G01X-1405378Y2905542D01*
G01X-1405378Y2888524D01*
G01X-1416808Y2877094D01*
G01X-1433826Y2871252D01*
G01X-1456686Y2871252D01*
G01X-1473958Y2877094D01*
G01X-1485388Y2888524D01*
G01X-1357626Y2991394D02*
G01X-1357626Y2871252D01*
G01X-1357626Y2928402D02*
G01X-1340354Y2945674D01*
G01X-1328924Y2951262D01*
G01X-1311906Y2951262D01*
G01X-1300476Y2945674D01*
G01X-1294634Y2928402D01*
G01X-1294634Y2871252D01*
G01X-1178302Y2951262D02*
G01X-1178302Y2871252D01*
G01X-1178302Y2934244D02*
G01X-1189732Y2945674D01*
G01X-1201162Y2951262D01*
G01X-1218180Y2951262D01*
G01X-1229610Y2945674D01*
G01X-1241040Y2934244D01*
G01X-1246882Y2916972D01*
G01X-1246882Y2905542D01*
G01X-1241040Y2888524D01*
G01X-1229610Y2877094D01*
G01X-1218180Y2871252D01*
G01X-1201162Y2871252D01*
G01X-1189732Y2877094D01*
G01X-1178302Y2888524D01*
G01X-1130550Y2951262D02*
G01X-1130550Y2831374D01*
G01X-1130550Y2934244D02*
G01X-1119120Y2945674D01*
G01X-1107690Y2951262D01*
G01X-1090418Y2951262D01*
G01X-1078988Y2945674D01*
G01X-1067558Y2934244D01*
G01X-1061970Y2916972D01*
G01X-1061970Y2905542D01*
G01X-1067558Y2888524D01*
G01X-1078988Y2877094D01*
G01X-1090418Y2871252D01*
G01X-1107690Y2871252D01*
G01X-1119120Y2877094D01*
G01X-1130550Y2888524D01*
G01X-1014218Y2916972D02*
G01X-945638Y2916972D01*
G01X-945638Y2928402D01*
G01X-951226Y2939832D01*
G01X-957068Y2945674D01*
G01X-968498Y2951262D01*
G01X-985516Y2951262D01*
G01X-996946Y2945674D01*
G01X-1008376Y2934244D01*
G01X-1014218Y2916972D01*
G01X-1014218Y2905542D01*
G01X-1008376Y2888524D01*
G01X-996946Y2877094D01*
G01X-985516Y2871252D01*
G01X-968498Y2871252D01*
G01X-957068Y2877094D01*
G01X-945638Y2888524D01*
G01X-54461Y2991394D02*
G01X-54461Y2871252D01*
G01X-54461Y2871252D02*
G01X14119Y2871252D01*
G01X130451Y2951262D02*
G01X130451Y2871252D01*
G01X130451Y2934244D02*
G01X119021Y2945674D01*
G01X107591Y2951262D01*
G01X90573Y2951262D01*
G01X79143Y2945674D01*
G01X67713Y2934244D01*
G01X61871Y2916972D01*
G01X61871Y2905542D01*
G01X67713Y2888524D01*
G01X79143Y2877094D01*
G01X90573Y2871252D01*
G01X107591Y2871252D01*
G01X119021Y2877094D01*
G01X130451Y2888524D01*
G01X184045Y2951262D02*
G01X218335Y2871252D01*
G01X252625Y2951262D02*
G01X218335Y2871252D01*
G01X206905Y2848392D01*
G01X195475Y2836962D01*
G01X184045Y2831374D01*
G01X178203Y2831374D01*
G01X300377Y2916972D02*
G01X368957Y2916972D01*
G01X368957Y2928402D01*
G01X363369Y2939832D01*
G01X357527Y2945674D01*
G01X346097Y2951262D01*
G01X329079Y2951262D01*
G01X317649Y2945674D01*
G01X306219Y2934244D01*
G01X300377Y2916972D01*
G01X300377Y2905542D01*
G01X306219Y2888524D01*
G01X317649Y2877094D01*
G01X329079Y2871252D01*
G01X346097Y2871252D01*
G01X357527Y2877094D01*
G01X368957Y2888524D01*
G01X416709Y2951262D02*
G01X416709Y2871252D01*
G01X416709Y2916972D02*
G01X422551Y2934244D01*
G01X433981Y2945674D01*
G01X445411Y2951262D01*
G01X462429Y2951262D01*
G01X638197Y2991394D02*
G01X638197Y2871252D01*
G01X638197Y2991394D02*
G01X689759Y2991394D01*
G01X706777Y2985552D01*
G01X712619Y2979964D01*
G01X718207Y2968534D01*
G01X718207Y2951262D01*
G01X712619Y2939832D01*
G01X706777Y2934244D01*
G01X689759Y2928402D01*
G01X638197Y2928402D01*
G01X834539Y2951262D02*
G01X834539Y2871252D01*
G01X834539Y2934244D02*
G01X823109Y2945674D01*
G01X811679Y2951262D01*
G01X794661Y2951262D01*
G01X783231Y2945674D01*
G01X771801Y2934244D01*
G01X765959Y2916972D01*
G01X765959Y2905542D01*
G01X771801Y2888524D01*
G01X783231Y2877094D01*
G01X794661Y2871252D01*
G01X811679Y2871252D01*
G01X823109Y2877094D01*
G01X834539Y2888524D01*
G01X882291Y2991394D02*
G01X888133Y2985552D01*
G01X893721Y2991394D01*
G01X888133Y2996982D01*
G01X882291Y2991394D01*
G01X888133Y2951262D02*
G01X888133Y2871252D01*
G01X941473Y2951262D02*
G01X941473Y2871252D01*
G01X941473Y2916972D02*
G01X947315Y2934244D01*
G01X958745Y2945674D01*
G01X970175Y2951262D01*
G01X987193Y2951262D01*
G01X-11786576Y2410823D02*
G01X-11843726Y2330813D01*
G01X-11757874Y2330813D01*
G01X-11786576Y2410823D02*
G01X-11786576Y2290681D01*
G01X-10372413Y2410823D02*
G01X-10429563Y2330813D01*
G01X-10343711Y2330813D01*
G01X-10372413Y2410823D02*
G01X-10372413Y2290681D01*
G01X-10284529Y2410823D02*
G01X-10221537Y2410823D01*
G01X-10255827Y2365103D01*
G01X-10238809Y2365103D01*
G01X-10227379Y2359261D01*
G01X-10221537Y2353673D01*
G01X-10215949Y2336401D01*
G01X-10215949Y2324971D01*
G01X-10221537Y2307953D01*
G01X-10232967Y2296523D01*
G01X-10250239Y2290681D01*
G01X-10267257Y2290681D01*
G01X-10284529Y2296523D01*
G01X-10290117Y2302111D01*
G01X-10295959Y2313541D01*
G01X-10162355Y2319383D02*
G01X-10168197Y2313541D01*
G01X-10162355Y2307953D01*
G01X-10156767Y2313541D01*
G01X-10162355Y2319383D01*
G01X-10097585Y2410823D02*
G01X-10034593Y2410823D01*
G01X-10068883Y2365103D01*
G01X-10051865Y2365103D01*
G01X-10040435Y2359261D01*
G01X-10034593Y2353673D01*
G01X-10029005Y2336401D01*
G01X-10029005Y2324971D01*
G01X-10034593Y2307953D01*
G01X-10046023Y2296523D01*
G01X-10063295Y2290681D01*
G01X-10080313Y2290681D01*
G01X-10097585Y2296523D01*
G01X-10103173Y2302111D01*
G01X-10109015Y2313541D01*
G01X-9981253Y2370691D02*
G01X-9918261Y2290681D01*
G01X-9918261Y2370691D02*
G01X-9981253Y2290681D01*
G01X-9813359Y2410823D02*
G01X-9870509Y2330813D01*
G01X-9784657Y2330813D01*
G01X-9813359Y2410823D02*
G01X-9813359Y2290681D01*
G01X-9725475Y2410823D02*
G01X-9662483Y2410823D01*
G01X-9696773Y2365103D01*
G01X-9679755Y2365103D01*
G01X-9668325Y2359261D01*
G01X-9662483Y2353673D01*
G01X-9656895Y2336401D01*
G01X-9656895Y2324971D01*
G01X-9662483Y2307953D01*
G01X-9673913Y2296523D01*
G01X-9691185Y2290681D01*
G01X-9708203Y2290681D01*
G01X-9725475Y2296523D01*
G01X-9731063Y2302111D01*
G01X-9736905Y2313541D01*
G01X-9603301Y2319383D02*
G01X-9609143Y2313541D01*
G01X-9603301Y2307953D01*
G01X-9597713Y2313541D01*
G01X-9603301Y2319383D01*
G01X-9538531Y2410823D02*
G01X-9475539Y2410823D01*
G01X-9509829Y2365103D01*
G01X-9492811Y2365103D01*
G01X-9481381Y2359261D01*
G01X-9475539Y2353673D01*
G01X-9469951Y2336401D01*
G01X-9469951Y2324971D01*
G01X-9475539Y2307953D01*
G01X-9486969Y2296523D01*
G01X-9504241Y2290681D01*
G01X-9521259Y2290681D01*
G01X-9538531Y2296523D01*
G01X-9544119Y2302111D01*
G01X-9549961Y2313541D01*
G01X-9422199Y2370691D02*
G01X-9422199Y2290681D01*
G01X-9422199Y2347831D02*
G01X-9404927Y2365103D01*
G01X-9393497Y2370691D01*
G01X-9376479Y2370691D01*
G01X-9365049Y2365103D01*
G01X-9359207Y2347831D01*
G01X-9359207Y2290681D01*
G01X-9359207Y2347831D02*
G01X-9342189Y2365103D01*
G01X-9330759Y2370691D01*
G01X-9313487Y2370691D01*
G01X-9302057Y2365103D01*
G01X-9296469Y2347831D01*
G01X-9296469Y2290681D01*
G01X-9248717Y2410823D02*
G01X-9242875Y2404981D01*
G01X-9237287Y2410823D01*
G01X-9242875Y2416411D01*
G01X-9248717Y2410823D01*
G01X-9242875Y2370691D02*
G01X-9242875Y2290681D01*
G01X-9189535Y2410823D02*
G01X-9189535Y2290681D01*
G01X-9101651Y2433683D02*
G01X-9113081Y2422253D01*
G01X-9124511Y2404981D01*
G01X-9135941Y2382121D01*
G01X-9141783Y2353673D01*
G01X-9141783Y2330813D01*
G01X-9135941Y2302111D01*
G01X-9124511Y2279251D01*
G01X-9113081Y2262233D01*
G01X-9101651Y2250803D01*
G01X-9053899Y2387963D02*
G01X-9042469Y2393551D01*
G01X-9025197Y2410823D01*
G01X-9025197Y2290681D01*
G01X-8971603Y2319383D02*
G01X-8977445Y2313541D01*
G01X-8971603Y2307953D01*
G01X-8966015Y2313541D01*
G01X-8971603Y2319383D01*
G01X-8918263Y2387963D02*
G01X-8906833Y2393551D01*
G01X-8889561Y2410823D01*
G01X-8889561Y2290681D01*
G01X-8807519Y2410823D02*
G01X-8824537Y2404981D01*
G01X-8835967Y2387963D01*
G01X-8841809Y2359261D01*
G01X-8841809Y2342243D01*
G01X-8835967Y2313541D01*
G01X-8824537Y2296523D01*
G01X-8807519Y2290681D01*
G01X-8796089Y2290681D01*
G01X-8778817Y2296523D01*
G01X-8767387Y2313541D01*
G01X-8761799Y2342243D01*
G01X-8761799Y2359261D01*
G01X-8767387Y2387963D01*
G01X-8778817Y2404981D01*
G01X-8796089Y2410823D01*
G01X-8807519Y2410823D01*
G01X-8679757Y2410823D02*
G01X-8696775Y2404981D01*
G01X-8708205Y2387963D01*
G01X-8714047Y2359261D01*
G01X-8714047Y2342243D01*
G01X-8708205Y2313541D01*
G01X-8696775Y2296523D01*
G01X-8679757Y2290681D01*
G01X-8668327Y2290681D01*
G01X-8651055Y2296523D01*
G01X-8639625Y2313541D01*
G01X-8634037Y2342243D01*
G01X-8634037Y2359261D01*
G01X-8639625Y2387963D01*
G01X-8651055Y2404981D01*
G01X-8668327Y2410823D01*
G01X-8679757Y2410823D01*
G01X-8586285Y2370691D02*
G01X-8523293Y2290681D01*
G01X-8523293Y2370691D02*
G01X-8586285Y2290681D01*
G01X-8475541Y2387963D02*
G01X-8464111Y2393551D01*
G01X-8446839Y2410823D01*
G01X-8446839Y2290681D01*
G01X-8393245Y2319383D02*
G01X-8399087Y2313541D01*
G01X-8393245Y2307953D01*
G01X-8387657Y2313541D01*
G01X-8393245Y2319383D01*
G01X-8339905Y2387963D02*
G01X-8328475Y2393551D01*
G01X-8311203Y2410823D01*
G01X-8311203Y2290681D01*
G01X-8229161Y2410823D02*
G01X-8246179Y2404981D01*
G01X-8257609Y2387963D01*
G01X-8263451Y2359261D01*
G01X-8263451Y2342243D01*
G01X-8257609Y2313541D01*
G01X-8246179Y2296523D01*
G01X-8229161Y2290681D01*
G01X-8217731Y2290681D01*
G01X-8200459Y2296523D01*
G01X-8189029Y2313541D01*
G01X-8183441Y2342243D01*
G01X-8183441Y2359261D01*
G01X-8189029Y2387963D01*
G01X-8200459Y2404981D01*
G01X-8217731Y2410823D01*
G01X-8229161Y2410823D01*
G01X-8101399Y2410823D02*
G01X-8118417Y2404981D01*
G01X-8129847Y2387963D01*
G01X-8135689Y2359261D01*
G01X-8135689Y2342243D01*
G01X-8129847Y2313541D01*
G01X-8118417Y2296523D01*
G01X-8101399Y2290681D01*
G01X-8089969Y2290681D01*
G01X-8072697Y2296523D01*
G01X-8061267Y2313541D01*
G01X-8055679Y2342243D01*
G01X-8055679Y2359261D01*
G01X-8061267Y2387963D01*
G01X-8072697Y2404981D01*
G01X-8089969Y2410823D01*
G01X-8101399Y2410823D01*
G01X-8007927Y2370691D02*
G01X-8007927Y2290681D01*
G01X-8007927Y2347831D02*
G01X-7990655Y2365103D01*
G01X-7979225Y2370691D01*
G01X-7962207Y2370691D01*
G01X-7950777Y2365103D01*
G01X-7944935Y2347831D01*
G01X-7944935Y2290681D01*
G01X-7944935Y2347831D02*
G01X-7927917Y2365103D01*
G01X-7916487Y2370691D01*
G01X-7899215Y2370691D01*
G01X-7887785Y2365103D01*
G01X-7882197Y2347831D01*
G01X-7882197Y2290681D01*
G01X-7834445Y2370691D02*
G01X-7834445Y2290681D01*
G01X-7834445Y2347831D02*
G01X-7817173Y2365103D01*
G01X-7805743Y2370691D01*
G01X-7788725Y2370691D01*
G01X-7777295Y2365103D01*
G01X-7771453Y2347831D01*
G01X-7771453Y2290681D01*
G01X-7771453Y2347831D02*
G01X-7754435Y2365103D01*
G01X-7743005Y2370691D01*
G01X-7725733Y2370691D01*
G01X-7714303Y2365103D01*
G01X-7708715Y2347831D01*
G01X-7708715Y2290681D01*
G01X-7660963Y2433683D02*
G01X-7649533Y2422253D01*
G01X-7638103Y2404981D01*
G01X-7626673Y2382121D01*
G01X-7620831Y2353673D01*
G01X-7620831Y2330813D01*
G01X-7626673Y2302111D01*
G01X-7638103Y2279251D01*
G01X-7649533Y2262233D01*
G01X-7660963Y2250803D01*
G01X-6535597Y2410823D02*
G01X-6535597Y2290681D01*
G01X-6535597Y2410823D02*
G01X-6484035Y2410823D01*
G01X-6467017Y2404981D01*
G01X-6461175Y2399393D01*
G01X-6455587Y2387963D01*
G01X-6455587Y2370691D01*
G01X-6461175Y2359261D01*
G01X-6467017Y2353673D01*
G01X-6484035Y2347831D01*
G01X-6535597Y2347831D01*
G01X-6367703Y2410823D02*
G01X-6367703Y2290681D01*
G01X-6407835Y2410823D02*
G01X-6327825Y2410823D01*
G01X-6280073Y2410823D02*
G01X-6280073Y2290681D01*
G01X-6200063Y2410823D02*
G01X-6200063Y2290681D01*
G01X-6280073Y2353673D02*
G01X-6200063Y2353673D01*
G01X-5074190Y2410823D02*
G01X-5074190Y2290681D01*
G01X-5074190Y2410823D02*
G01X-5022628Y2410823D01*
G01X-5005610Y2404981D01*
G01X-4999768Y2399393D01*
G01X-4994180Y2387963D01*
G01X-4994180Y2376533D01*
G01X-4999768Y2365103D01*
G01X-5005610Y2359261D01*
G01X-5022628Y2353673D01*
G01X-5074190Y2353673D01*
G01X-5034058Y2353673D02*
G01X-4994180Y2290681D01*
G01X-4917726Y2370691D02*
G01X-4929156Y2365103D01*
G01X-4940586Y2353673D01*
G01X-4946428Y2336401D01*
G01X-4946428Y2324971D01*
G01X-4940586Y2307953D01*
G01X-4929156Y2296523D01*
G01X-4917726Y2290681D01*
G01X-4900708Y2290681D01*
G01X-4889278Y2296523D01*
G01X-4877848Y2307953D01*
G01X-4872006Y2324971D01*
G01X-4872006Y2336401D01*
G01X-4877848Y2353673D01*
G01X-4889278Y2365103D01*
G01X-4900708Y2370691D01*
G01X-4917726Y2370691D01*
G01X-4824254Y2370691D02*
G01X-4824254Y2313541D01*
G01X-4818412Y2296523D01*
G01X-4806982Y2290681D01*
G01X-4789964Y2290681D01*
G01X-4778534Y2296523D01*
G01X-4761262Y2313541D01*
G01X-4761262Y2370691D02*
G01X-4761262Y2290681D01*
G01X-4713510Y2370691D02*
G01X-4713510Y2290681D01*
G01X-4713510Y2347831D02*
G01X-4696238Y2365103D01*
G01X-4684808Y2370691D01*
G01X-4667790Y2370691D01*
G01X-4656360Y2365103D01*
G01X-4650518Y2347831D01*
G01X-4650518Y2290681D01*
G01X-4534186Y2410823D02*
G01X-4534186Y2290681D01*
G01X-4534186Y2353673D02*
G01X-4545616Y2365103D01*
G01X-4557046Y2370691D01*
G01X-4574064Y2370691D01*
G01X-4585494Y2365103D01*
G01X-4596924Y2353673D01*
G01X-4602766Y2336401D01*
G01X-4602766Y2324971D01*
G01X-4596924Y2307953D01*
G01X-4585494Y2296523D01*
G01X-4574064Y2290681D01*
G01X-4557046Y2290681D01*
G01X-4545616Y2296523D01*
G01X-4534186Y2307953D01*
G01X-3643009Y2410823D02*
G01X-3643009Y2290681D01*
G01X-3643009Y2410823D02*
G01X-3591447Y2410823D01*
G01X-3574429Y2404981D01*
G01X-3568587Y2399393D01*
G01X-3562999Y2387963D01*
G01X-3562999Y2370691D01*
G01X-3568587Y2359261D01*
G01X-3574429Y2353673D01*
G01X-3591447Y2347831D01*
G01X-3643009Y2347831D01*
G01X-3446667Y2370691D02*
G01X-3446667Y2290681D01*
G01X-3446667Y2353673D02*
G01X-3458097Y2365103D01*
G01X-3469527Y2370691D01*
G01X-3486545Y2370691D01*
G01X-3497975Y2365103D01*
G01X-3509405Y2353673D01*
G01X-3515247Y2336401D01*
G01X-3515247Y2324971D01*
G01X-3509405Y2307953D01*
G01X-3497975Y2296523D01*
G01X-3486545Y2290681D01*
G01X-3469527Y2290681D01*
G01X-3458097Y2296523D01*
G01X-3446667Y2307953D01*
G01X-3330335Y2410823D02*
G01X-3330335Y2290681D01*
G01X-3330335Y2353673D02*
G01X-3341765Y2365103D01*
G01X-3353195Y2370691D01*
G01X-3370213Y2370691D01*
G01X-3381643Y2365103D01*
G01X-3393073Y2353673D01*
G01X-3398915Y2336401D01*
G01X-3398915Y2324971D01*
G01X-3393073Y2307953D01*
G01X-3381643Y2296523D01*
G01X-3370213Y2290681D01*
G01X-3353195Y2290681D01*
G01X-3341765Y2296523D01*
G01X-3330335Y2307953D01*
G01X-1973830Y2410823D02*
G01X-1973830Y2290681D01*
G01X-1973830Y2410823D02*
G01X-1922268Y2410823D01*
G01X-1905250Y2404981D01*
G01X-1899408Y2399393D01*
G01X-1893820Y2387963D01*
G01X-1893820Y2376533D01*
G01X-1899408Y2365103D01*
G01X-1905250Y2359261D01*
G01X-1922268Y2353673D01*
G01X-1973830Y2353673D01*
G01X-1933698Y2353673D02*
G01X-1893820Y2290681D01*
G01X-1817366Y2370691D02*
G01X-1828796Y2365103D01*
G01X-1840226Y2353673D01*
G01X-1846068Y2336401D01*
G01X-1846068Y2324971D01*
G01X-1840226Y2307953D01*
G01X-1828796Y2296523D01*
G01X-1817366Y2290681D01*
G01X-1800348Y2290681D01*
G01X-1788918Y2296523D01*
G01X-1777488Y2307953D01*
G01X-1771646Y2324971D01*
G01X-1771646Y2336401D01*
G01X-1777488Y2353673D01*
G01X-1788918Y2365103D01*
G01X-1800348Y2370691D01*
G01X-1817366Y2370691D01*
G01X-1723894Y2370691D02*
G01X-1723894Y2313541D01*
G01X-1718052Y2296523D01*
G01X-1706622Y2290681D01*
G01X-1689604Y2290681D01*
G01X-1678174Y2296523D01*
G01X-1660902Y2313541D01*
G01X-1660902Y2370691D02*
G01X-1660902Y2290681D01*
G01X-1613150Y2370691D02*
G01X-1613150Y2290681D01*
G01X-1613150Y2347831D02*
G01X-1595878Y2365103D01*
G01X-1584448Y2370691D01*
G01X-1567430Y2370691D01*
G01X-1556000Y2365103D01*
G01X-1550158Y2347831D01*
G01X-1550158Y2290681D01*
G01X-1433826Y2410823D02*
G01X-1433826Y2290681D01*
G01X-1433826Y2353673D02*
G01X-1445256Y2365103D01*
G01X-1456686Y2370691D01*
G01X-1473704Y2370691D01*
G01X-1485134Y2365103D01*
G01X-1496564Y2353673D01*
G01X-1502406Y2336401D01*
G01X-1502406Y2324971D01*
G01X-1496564Y2307953D01*
G01X-1485134Y2296523D01*
G01X-1473704Y2290681D01*
G01X-1456686Y2290681D01*
G01X-1445256Y2296523D01*
G01X-1433826Y2307953D01*
G01X-14329Y2410823D02*
G01X-14329Y2290681D01*
G01X-54461Y2410823D02*
G01X25549Y2410823D01*
G01X102003Y2370691D02*
G01X90573Y2365103D01*
G01X79143Y2353673D01*
G01X73301Y2336401D01*
G01X73301Y2324971D01*
G01X79143Y2307953D01*
G01X90573Y2296523D01*
G01X102003Y2290681D01*
G01X119021Y2290681D01*
G01X130451Y2296523D01*
G01X141881Y2307953D01*
G01X147723Y2324971D01*
G01X147723Y2336401D01*
G01X141881Y2353673D01*
G01X130451Y2365103D01*
G01X119021Y2370691D01*
G01X102003Y2370691D01*
G01X195475Y2370691D02*
G01X195475Y2250803D01*
G01X195475Y2353673D02*
G01X206905Y2365103D01*
G01X218335Y2370691D01*
G01X235607Y2370691D01*
G01X247037Y2365103D01*
G01X258467Y2353673D01*
G01X264055Y2336401D01*
G01X264055Y2324971D01*
G01X258467Y2307953D01*
G01X247037Y2296523D01*
G01X235607Y2290681D01*
G01X218335Y2290681D01*
G01X206905Y2296523D01*
G01X195475Y2307953D01*
G01X439823Y2410823D02*
G01X439823Y2290681D01*
G01X439823Y2290681D02*
G01X508403Y2290681D01*
G01X624735Y2370691D02*
G01X624735Y2290681D01*
G01X624735Y2353673D02*
G01X613305Y2365103D01*
G01X601875Y2370691D01*
G01X584857Y2370691D01*
G01X573427Y2365103D01*
G01X561997Y2353673D01*
G01X556155Y2336401D01*
G01X556155Y2324971D01*
G01X561997Y2307953D01*
G01X573427Y2296523D01*
G01X584857Y2290681D01*
G01X601875Y2290681D01*
G01X613305Y2296523D01*
G01X624735Y2307953D01*
G01X678329Y2370691D02*
G01X712619Y2290681D01*
G01X746909Y2370691D02*
G01X712619Y2290681D01*
G01X701189Y2267821D01*
G01X689759Y2256391D01*
G01X678329Y2250803D01*
G01X672487Y2250803D01*
G01X794661Y2336401D02*
G01X863241Y2336401D01*
G01X863241Y2347831D01*
G01X857653Y2359261D01*
G01X851811Y2365103D01*
G01X840381Y2370691D01*
G01X823363Y2370691D01*
G01X811933Y2365103D01*
G01X800503Y2353673D01*
G01X794661Y2336401D01*
G01X794661Y2324971D01*
G01X800503Y2307953D01*
G01X811933Y2296523D01*
G01X823363Y2290681D01*
G01X840381Y2290681D01*
G01X851811Y2296523D01*
G01X863241Y2307953D01*
G01X910993Y2370691D02*
G01X910993Y2290681D01*
G01X910993Y2336401D02*
G01X916835Y2353673D01*
G01X928265Y2365103D01*
G01X939695Y2370691D01*
G01X956713Y2370691D01*
G01X1004465Y2342243D02*
G01X1107335Y2342243D01*
G01X1155087Y2410823D02*
G01X1155087Y2290681D01*
G01X1155087Y2410823D02*
G01X1206649Y2410823D01*
G01X1223667Y2404981D01*
G01X1229509Y2399393D01*
G01X1235097Y2387963D01*
G01X1235097Y2376533D01*
G01X1229509Y2365103D01*
G01X1223667Y2359261D01*
G01X1206649Y2353673D01*
G01X1155087Y2353673D02*
G01X1206649Y2353673D01*
G01X1223667Y2347831D01*
G01X1229509Y2342243D01*
G01X1235097Y2330813D01*
G01X1235097Y2313541D01*
G01X1229509Y2302111D01*
G01X1223667Y2296523D01*
G01X1206649Y2290681D01*
G01X1155087Y2290681D01*
G01X1311551Y2370691D02*
G01X1300121Y2365103D01*
G01X1288691Y2353673D01*
G01X1282849Y2336401D01*
G01X1282849Y2324971D01*
G01X1288691Y2307953D01*
G01X1300121Y2296523D01*
G01X1311551Y2290681D01*
G01X1328569Y2290681D01*
G01X1339999Y2296523D01*
G01X1351429Y2307953D01*
G01X1357271Y2324971D01*
G01X1357271Y2336401D01*
G01X1351429Y2353673D01*
G01X1339999Y2365103D01*
G01X1328569Y2370691D01*
G01X1311551Y2370691D01*
G01X1422295Y2410823D02*
G01X1422295Y2313541D01*
G01X1427883Y2296523D01*
G01X1439313Y2290681D01*
G01X1450743Y2290681D01*
G01X1405023Y2370691D02*
G01X1445155Y2370691D01*
G01X1515767Y2410823D02*
G01X1515767Y2313541D01*
G01X1521355Y2296523D01*
G01X1532785Y2290681D01*
G01X1544215Y2290681D01*
G01X1498495Y2370691D02*
G01X1538627Y2370691D01*
G01X1620669Y2370691D02*
G01X1609239Y2365103D01*
G01X1597809Y2353673D01*
G01X1591967Y2336401D01*
G01X1591967Y2324971D01*
G01X1597809Y2307953D01*
G01X1609239Y2296523D01*
G01X1620669Y2290681D01*
G01X1637687Y2290681D01*
G01X1649117Y2296523D01*
G01X1660547Y2307953D01*
G01X1666389Y2324971D01*
G01X1666389Y2336401D01*
G01X1660547Y2353673D01*
G01X1649117Y2365103D01*
G01X1637687Y2370691D01*
G01X1620669Y2370691D01*
G01X1714141Y2370691D02*
G01X1714141Y2290681D01*
G01X1714141Y2347831D02*
G01X1731413Y2365103D01*
G01X1742843Y2370691D01*
G01X1759861Y2370691D01*
G01X1771291Y2365103D01*
G01X1777133Y2347831D01*
G01X1777133Y2290681D01*
G01X1777133Y2347831D02*
G01X1794151Y2365103D01*
G01X1805581Y2370691D01*
G01X1822853Y2370691D01*
G01X1834283Y2365103D01*
G01X1839871Y2347831D01*
G01X1839871Y2290681D01*
G01X2015639Y2410823D02*
G01X2015639Y2290681D01*
G01X2015639Y2290681D02*
G01X2084219Y2290681D01*
G01X2200551Y2370691D02*
G01X2200551Y2290681D01*
G01X2200551Y2353673D02*
G01X2189121Y2365103D01*
G01X2177691Y2370691D01*
G01X2160673Y2370691D01*
G01X2149243Y2365103D01*
G01X2137813Y2353673D01*
G01X2131971Y2336401D01*
G01X2131971Y2324971D01*
G01X2137813Y2307953D01*
G01X2149243Y2296523D01*
G01X2160673Y2290681D01*
G01X2177691Y2290681D01*
G01X2189121Y2296523D01*
G01X2200551Y2307953D01*
G01X2254145Y2370691D02*
G01X2288435Y2290681D01*
G01X2322725Y2370691D02*
G01X2288435Y2290681D01*
G01X2277005Y2267821D01*
G01X2265575Y2256391D01*
G01X2254145Y2250803D01*
G01X2248303Y2250803D01*
G01X2370477Y2336401D02*
G01X2439057Y2336401D01*
G01X2439057Y2347831D01*
G01X2433469Y2359261D01*
G01X2427627Y2365103D01*
G01X2416197Y2370691D01*
G01X2399179Y2370691D01*
G01X2387749Y2365103D01*
G01X2376319Y2353673D01*
G01X2370477Y2336401D01*
G01X2370477Y2324971D01*
G01X2376319Y2307953D01*
G01X2387749Y2296523D01*
G01X2399179Y2290681D01*
G01X2416197Y2290681D01*
G01X2427627Y2296523D01*
G01X2439057Y2307953D01*
G01X2486809Y2370691D02*
G01X2486809Y2290681D01*
G01X2486809Y2336401D02*
G01X2492651Y2353673D01*
G01X2504081Y2365103D01*
G01X2515511Y2370691D01*
G01X2532529Y2370691D01*
G01X-11786576Y1830251D02*
G01X-11843726Y1750241D01*
G01X-11757874Y1750241D01*
G01X-11786576Y1830251D02*
G01X-11786576Y1710109D01*
G01X-10418133Y1830251D02*
G01X-10355141Y1830251D01*
G01X-10389431Y1784531D01*
G01X-10372413Y1784531D01*
G01X-10360983Y1778689D01*
G01X-10355141Y1773101D01*
G01X-10349553Y1755829D01*
G01X-10349553Y1744399D01*
G01X-10355141Y1727381D01*
G01X-10366571Y1715951D01*
G01X-10383843Y1710109D01*
G01X-10400861Y1710109D01*
G01X-10418133Y1715951D01*
G01X-10423721Y1721539D01*
G01X-10429563Y1732969D01*
G01X-10301801Y1807391D02*
G01X-10290371Y1812979D01*
G01X-10273099Y1830251D01*
G01X-10273099Y1710109D01*
G01X-10219505Y1738811D02*
G01X-10225347Y1732969D01*
G01X-10219505Y1727381D01*
G01X-10213917Y1732969D01*
G01X-10219505Y1738811D01*
G01X-10097585Y1830251D02*
G01X-10154735Y1830251D01*
G01X-10160323Y1778689D01*
G01X-10154735Y1784531D01*
G01X-10137463Y1790119D01*
G01X-10120445Y1790119D01*
G01X-10103173Y1784531D01*
G01X-10091743Y1773101D01*
G01X-10086155Y1755829D01*
G01X-10086155Y1744399D01*
G01X-10091743Y1727381D01*
G01X-10103173Y1715951D01*
G01X-10120445Y1710109D01*
G01X-10137463Y1710109D01*
G01X-10154735Y1715951D01*
G01X-10160323Y1721539D01*
G01X-10166165Y1732969D01*
G01X-10038403Y1790119D02*
G01X-9975411Y1710109D01*
G01X-9975411Y1790119D02*
G01X-10038403Y1710109D01*
G01X-9916229Y1830251D02*
G01X-9853237Y1830251D01*
G01X-9887527Y1784531D01*
G01X-9870509Y1784531D01*
G01X-9859079Y1778689D01*
G01X-9853237Y1773101D01*
G01X-9847649Y1755829D01*
G01X-9847649Y1744399D01*
G01X-9853237Y1727381D01*
G01X-9864667Y1715951D01*
G01X-9881939Y1710109D01*
G01X-9898957Y1710109D01*
G01X-9916229Y1715951D01*
G01X-9921817Y1721539D01*
G01X-9927659Y1732969D01*
G01X-9799897Y1807391D02*
G01X-9788467Y1812979D01*
G01X-9771195Y1830251D01*
G01X-9771195Y1710109D01*
G01X-9717601Y1738811D02*
G01X-9723443Y1732969D01*
G01X-9717601Y1727381D01*
G01X-9712013Y1732969D01*
G01X-9717601Y1738811D01*
G01X-9595681Y1830251D02*
G01X-9652831Y1830251D01*
G01X-9658419Y1778689D01*
G01X-9652831Y1784531D01*
G01X-9635559Y1790119D01*
G01X-9618541Y1790119D01*
G01X-9601269Y1784531D01*
G01X-9589839Y1773101D01*
G01X-9584251Y1755829D01*
G01X-9584251Y1744399D01*
G01X-9589839Y1727381D01*
G01X-9601269Y1715951D01*
G01X-9618541Y1710109D01*
G01X-9635559Y1710109D01*
G01X-9652831Y1715951D01*
G01X-9658419Y1721539D01*
G01X-9664261Y1732969D01*
G01X-9536499Y1790119D02*
G01X-9536499Y1710109D01*
G01X-9536499Y1767259D02*
G01X-9519227Y1784531D01*
G01X-9507797Y1790119D01*
G01X-9490779Y1790119D01*
G01X-9479349Y1784531D01*
G01X-9473507Y1767259D01*
G01X-9473507Y1710109D01*
G01X-9473507Y1767259D02*
G01X-9456489Y1784531D01*
G01X-9445059Y1790119D01*
G01X-9427787Y1790119D01*
G01X-9416357Y1784531D01*
G01X-9410769Y1767259D01*
G01X-9410769Y1710109D01*
G01X-9363017Y1830251D02*
G01X-9357175Y1824409D01*
G01X-9351587Y1830251D01*
G01X-9357175Y1835839D01*
G01X-9363017Y1830251D01*
G01X-9357175Y1790119D02*
G01X-9357175Y1710109D01*
G01X-9303835Y1830251D02*
G01X-9303835Y1710109D01*
G01X-9215951Y1853111D02*
G01X-9227381Y1841681D01*
G01X-9238811Y1824409D01*
G01X-9250241Y1801549D01*
G01X-9256083Y1773101D01*
G01X-9256083Y1750241D01*
G01X-9250241Y1721539D01*
G01X-9238811Y1698679D01*
G01X-9227381Y1681661D01*
G01X-9215951Y1670231D01*
G01X-9133909Y1830251D02*
G01X-9150927Y1824409D01*
G01X-9162357Y1807391D01*
G01X-9168199Y1778689D01*
G01X-9168199Y1761671D01*
G01X-9162357Y1732969D01*
G01X-9150927Y1715951D01*
G01X-9133909Y1710109D01*
G01X-9122479Y1710109D01*
G01X-9105207Y1715951D01*
G01X-9093777Y1732969D01*
G01X-9088189Y1761671D01*
G01X-9088189Y1778689D01*
G01X-9093777Y1807391D01*
G01X-9105207Y1824409D01*
G01X-9122479Y1830251D01*
G01X-9133909Y1830251D01*
G01X-9034595Y1738811D02*
G01X-9040437Y1732969D01*
G01X-9034595Y1727381D01*
G01X-9029007Y1732969D01*
G01X-9034595Y1738811D01*
G01X-8952553Y1830251D02*
G01X-8969825Y1824409D01*
G01X-8975413Y1812979D01*
G01X-8975413Y1801549D01*
G01X-8969825Y1790119D01*
G01X-8958395Y1784531D01*
G01X-8935535Y1778689D01*
G01X-8918263Y1773101D01*
G01X-8906833Y1761671D01*
G01X-8901245Y1750241D01*
G01X-8901245Y1732969D01*
G01X-8906833Y1721539D01*
G01X-8912675Y1715951D01*
G01X-8929693Y1710109D01*
G01X-8952553Y1710109D01*
G01X-8969825Y1715951D01*
G01X-8975413Y1721539D01*
G01X-8981255Y1732969D01*
G01X-8981255Y1750241D01*
G01X-8975413Y1761671D01*
G01X-8963983Y1773101D01*
G01X-8946965Y1778689D01*
G01X-8924105Y1784531D01*
G01X-8912675Y1790119D01*
G01X-8906833Y1801549D01*
G01X-8906833Y1812979D01*
G01X-8912675Y1824409D01*
G01X-8929693Y1830251D01*
G01X-8952553Y1830251D01*
G01X-8819203Y1830251D02*
G01X-8836221Y1824409D01*
G01X-8847651Y1807391D01*
G01X-8853493Y1778689D01*
G01X-8853493Y1761671D01*
G01X-8847651Y1732969D01*
G01X-8836221Y1715951D01*
G01X-8819203Y1710109D01*
G01X-8807773Y1710109D01*
G01X-8790501Y1715951D01*
G01X-8779071Y1732969D01*
G01X-8773483Y1761671D01*
G01X-8773483Y1778689D01*
G01X-8779071Y1807391D01*
G01X-8790501Y1824409D01*
G01X-8807773Y1830251D01*
G01X-8819203Y1830251D01*
G01X-8691441Y1830251D02*
G01X-8708459Y1824409D01*
G01X-8719889Y1807391D01*
G01X-8725731Y1778689D01*
G01X-8725731Y1761671D01*
G01X-8719889Y1732969D01*
G01X-8708459Y1715951D01*
G01X-8691441Y1710109D01*
G01X-8680011Y1710109D01*
G01X-8662739Y1715951D01*
G01X-8651309Y1732969D01*
G01X-8645721Y1761671D01*
G01X-8645721Y1778689D01*
G01X-8651309Y1807391D01*
G01X-8662739Y1824409D01*
G01X-8680011Y1830251D01*
G01X-8691441Y1830251D01*
G01X-8597969Y1790119D02*
G01X-8534977Y1710109D01*
G01X-8534977Y1790119D02*
G01X-8597969Y1710109D01*
G01X-8452935Y1830251D02*
G01X-8469953Y1824409D01*
G01X-8481383Y1807391D01*
G01X-8487225Y1778689D01*
G01X-8487225Y1761671D01*
G01X-8481383Y1732969D01*
G01X-8469953Y1715951D01*
G01X-8452935Y1710109D01*
G01X-8441505Y1710109D01*
G01X-8424233Y1715951D01*
G01X-8412803Y1732969D01*
G01X-8407215Y1761671D01*
G01X-8407215Y1778689D01*
G01X-8412803Y1807391D01*
G01X-8424233Y1824409D01*
G01X-8441505Y1830251D01*
G01X-8452935Y1830251D01*
G01X-8353621Y1738811D02*
G01X-8359463Y1732969D01*
G01X-8353621Y1727381D01*
G01X-8348033Y1732969D01*
G01X-8353621Y1738811D01*
G01X-8271579Y1830251D02*
G01X-8288851Y1824409D01*
G01X-8294439Y1812979D01*
G01X-8294439Y1801549D01*
G01X-8288851Y1790119D01*
G01X-8277421Y1784531D01*
G01X-8254561Y1778689D01*
G01X-8237289Y1773101D01*
G01X-8225859Y1761671D01*
G01X-8220271Y1750241D01*
G01X-8220271Y1732969D01*
G01X-8225859Y1721539D01*
G01X-8231701Y1715951D01*
G01X-8248719Y1710109D01*
G01X-8271579Y1710109D01*
G01X-8288851Y1715951D01*
G01X-8294439Y1721539D01*
G01X-8300281Y1732969D01*
G01X-8300281Y1750241D01*
G01X-8294439Y1761671D01*
G01X-8283009Y1773101D01*
G01X-8265991Y1778689D01*
G01X-8243131Y1784531D01*
G01X-8231701Y1790119D01*
G01X-8225859Y1801549D01*
G01X-8225859Y1812979D01*
G01X-8231701Y1824409D01*
G01X-8248719Y1830251D01*
G01X-8271579Y1830251D01*
G01X-8138229Y1830251D02*
G01X-8155247Y1824409D01*
G01X-8166677Y1807391D01*
G01X-8172519Y1778689D01*
G01X-8172519Y1761671D01*
G01X-8166677Y1732969D01*
G01X-8155247Y1715951D01*
G01X-8138229Y1710109D01*
G01X-8126799Y1710109D01*
G01X-8109527Y1715951D01*
G01X-8098097Y1732969D01*
G01X-8092509Y1761671D01*
G01X-8092509Y1778689D01*
G01X-8098097Y1807391D01*
G01X-8109527Y1824409D01*
G01X-8126799Y1830251D01*
G01X-8138229Y1830251D01*
G01X-8010467Y1830251D02*
G01X-8027485Y1824409D01*
G01X-8038915Y1807391D01*
G01X-8044757Y1778689D01*
G01X-8044757Y1761671D01*
G01X-8038915Y1732969D01*
G01X-8027485Y1715951D01*
G01X-8010467Y1710109D01*
G01X-7999037Y1710109D01*
G01X-7981765Y1715951D01*
G01X-7970335Y1732969D01*
G01X-7964747Y1761671D01*
G01X-7964747Y1778689D01*
G01X-7970335Y1807391D01*
G01X-7981765Y1824409D01*
G01X-7999037Y1830251D01*
G01X-8010467Y1830251D01*
G01X-7916995Y1790119D02*
G01X-7916995Y1710109D01*
G01X-7916995Y1767259D02*
G01X-7899723Y1784531D01*
G01X-7888293Y1790119D01*
G01X-7871275Y1790119D01*
G01X-7859845Y1784531D01*
G01X-7854003Y1767259D01*
G01X-7854003Y1710109D01*
G01X-7854003Y1767259D02*
G01X-7836985Y1784531D01*
G01X-7825555Y1790119D01*
G01X-7808283Y1790119D01*
G01X-7796853Y1784531D01*
G01X-7791265Y1767259D01*
G01X-7791265Y1710109D01*
G01X-7743513Y1790119D02*
G01X-7743513Y1710109D01*
G01X-7743513Y1767259D02*
G01X-7726241Y1784531D01*
G01X-7714811Y1790119D01*
G01X-7697793Y1790119D01*
G01X-7686363Y1784531D01*
G01X-7680521Y1767259D01*
G01X-7680521Y1710109D01*
G01X-7680521Y1767259D02*
G01X-7663503Y1784531D01*
G01X-7652073Y1790119D01*
G01X-7634801Y1790119D01*
G01X-7623371Y1784531D01*
G01X-7617783Y1767259D01*
G01X-7617783Y1710109D01*
G01X-7570031Y1853111D02*
G01X-7558601Y1841681D01*
G01X-7547171Y1824409D01*
G01X-7535741Y1801549D01*
G01X-7529899Y1773101D01*
G01X-7529899Y1750241D01*
G01X-7535741Y1721539D01*
G01X-7547171Y1698679D01*
G01X-7558601Y1681661D01*
G01X-7570031Y1670231D01*
G01X-6535597Y1830251D02*
G01X-6535597Y1710109D01*
G01X-6535597Y1830251D02*
G01X-6484035Y1830251D01*
G01X-6467017Y1824409D01*
G01X-6461175Y1818821D01*
G01X-6455587Y1807391D01*
G01X-6455587Y1790119D01*
G01X-6461175Y1778689D01*
G01X-6467017Y1773101D01*
G01X-6484035Y1767259D01*
G01X-6535597Y1767259D01*
G01X-6367703Y1830251D02*
G01X-6367703Y1710109D01*
G01X-6407835Y1830251D02*
G01X-6327825Y1830251D01*
G01X-6280073Y1830251D02*
G01X-6280073Y1710109D01*
G01X-6200063Y1830251D02*
G01X-6200063Y1710109D01*
G01X-6280073Y1773101D02*
G01X-6200063Y1773101D01*
G01X-5074190Y1830251D02*
G01X-5074190Y1710109D01*
G01X-5074190Y1830251D02*
G01X-5022628Y1830251D01*
G01X-5005610Y1824409D01*
G01X-4999768Y1818821D01*
G01X-4994180Y1807391D01*
G01X-4994180Y1795961D01*
G01X-4999768Y1784531D01*
G01X-5005610Y1778689D01*
G01X-5022628Y1773101D01*
G01X-5074190Y1773101D01*
G01X-5034058Y1773101D02*
G01X-4994180Y1710109D01*
G01X-4917726Y1790119D02*
G01X-4929156Y1784531D01*
G01X-4940586Y1773101D01*
G01X-4946428Y1755829D01*
G01X-4946428Y1744399D01*
G01X-4940586Y1727381D01*
G01X-4929156Y1715951D01*
G01X-4917726Y1710109D01*
G01X-4900708Y1710109D01*
G01X-4889278Y1715951D01*
G01X-4877848Y1727381D01*
G01X-4872006Y1744399D01*
G01X-4872006Y1755829D01*
G01X-4877848Y1773101D01*
G01X-4889278Y1784531D01*
G01X-4900708Y1790119D01*
G01X-4917726Y1790119D01*
G01X-4824254Y1790119D02*
G01X-4824254Y1732969D01*
G01X-4818412Y1715951D01*
G01X-4806982Y1710109D01*
G01X-4789964Y1710109D01*
G01X-4778534Y1715951D01*
G01X-4761262Y1732969D01*
G01X-4761262Y1790119D02*
G01X-4761262Y1710109D01*
G01X-4713510Y1790119D02*
G01X-4713510Y1710109D01*
G01X-4713510Y1767259D02*
G01X-4696238Y1784531D01*
G01X-4684808Y1790119D01*
G01X-4667790Y1790119D01*
G01X-4656360Y1784531D01*
G01X-4650518Y1767259D01*
G01X-4650518Y1710109D01*
G01X-4534186Y1830251D02*
G01X-4534186Y1710109D01*
G01X-4534186Y1773101D02*
G01X-4545616Y1784531D01*
G01X-4557046Y1790119D01*
G01X-4574064Y1790119D01*
G01X-4585494Y1784531D01*
G01X-4596924Y1773101D01*
G01X-4602766Y1755829D01*
G01X-4602766Y1744399D01*
G01X-4596924Y1727381D01*
G01X-4585494Y1715951D01*
G01X-4574064Y1710109D01*
G01X-4557046Y1710109D01*
G01X-4545616Y1715951D01*
G01X-4534186Y1727381D01*
G01X-3643009Y1830251D02*
G01X-3643009Y1710109D01*
G01X-3643009Y1830251D02*
G01X-3591447Y1830251D01*
G01X-3574429Y1824409D01*
G01X-3568587Y1818821D01*
G01X-3562999Y1807391D01*
G01X-3562999Y1790119D01*
G01X-3568587Y1778689D01*
G01X-3574429Y1773101D01*
G01X-3591447Y1767259D01*
G01X-3643009Y1767259D01*
G01X-3446667Y1790119D02*
G01X-3446667Y1710109D01*
G01X-3446667Y1773101D02*
G01X-3458097Y1784531D01*
G01X-3469527Y1790119D01*
G01X-3486545Y1790119D01*
G01X-3497975Y1784531D01*
G01X-3509405Y1773101D01*
G01X-3515247Y1755829D01*
G01X-3515247Y1744399D01*
G01X-3509405Y1727381D01*
G01X-3497975Y1715951D01*
G01X-3486545Y1710109D01*
G01X-3469527Y1710109D01*
G01X-3458097Y1715951D01*
G01X-3446667Y1727381D01*
G01X-3330335Y1830251D02*
G01X-3330335Y1710109D01*
G01X-3330335Y1773101D02*
G01X-3341765Y1784531D01*
G01X-3353195Y1790119D01*
G01X-3370213Y1790119D01*
G01X-3381643Y1784531D01*
G01X-3393073Y1773101D01*
G01X-3398915Y1755829D01*
G01X-3398915Y1744399D01*
G01X-3393073Y1727381D01*
G01X-3381643Y1715951D01*
G01X-3370213Y1710109D01*
G01X-3353195Y1710109D01*
G01X-3341765Y1715951D01*
G01X-3330335Y1727381D01*
G01X-1973830Y1830251D02*
G01X-1973830Y1710109D01*
G01X-1973830Y1830251D02*
G01X-1922268Y1830251D01*
G01X-1905250Y1824409D01*
G01X-1899408Y1818821D01*
G01X-1893820Y1807391D01*
G01X-1893820Y1795961D01*
G01X-1899408Y1784531D01*
G01X-1905250Y1778689D01*
G01X-1922268Y1773101D01*
G01X-1973830Y1773101D01*
G01X-1933698Y1773101D02*
G01X-1893820Y1710109D01*
G01X-1817366Y1790119D02*
G01X-1828796Y1784531D01*
G01X-1840226Y1773101D01*
G01X-1846068Y1755829D01*
G01X-1846068Y1744399D01*
G01X-1840226Y1727381D01*
G01X-1828796Y1715951D01*
G01X-1817366Y1710109D01*
G01X-1800348Y1710109D01*
G01X-1788918Y1715951D01*
G01X-1777488Y1727381D01*
G01X-1771646Y1744399D01*
G01X-1771646Y1755829D01*
G01X-1777488Y1773101D01*
G01X-1788918Y1784531D01*
G01X-1800348Y1790119D01*
G01X-1817366Y1790119D01*
G01X-1723894Y1790119D02*
G01X-1723894Y1732969D01*
G01X-1718052Y1715951D01*
G01X-1706622Y1710109D01*
G01X-1689604Y1710109D01*
G01X-1678174Y1715951D01*
G01X-1660902Y1732969D01*
G01X-1660902Y1790119D02*
G01X-1660902Y1710109D01*
G01X-1613150Y1790119D02*
G01X-1613150Y1710109D01*
G01X-1613150Y1767259D02*
G01X-1595878Y1784531D01*
G01X-1584448Y1790119D01*
G01X-1567430Y1790119D01*
G01X-1556000Y1784531D01*
G01X-1550158Y1767259D01*
G01X-1550158Y1710109D01*
G01X-1433826Y1830251D02*
G01X-1433826Y1710109D01*
G01X-1433826Y1773101D02*
G01X-1445256Y1784531D01*
G01X-1456686Y1790119D01*
G01X-1473704Y1790119D01*
G01X-1485134Y1784531D01*
G01X-1496564Y1773101D01*
G01X-1502406Y1755829D01*
G01X-1502406Y1744399D01*
G01X-1496564Y1727381D01*
G01X-1485134Y1715951D01*
G01X-1473704Y1710109D01*
G01X-1456686Y1710109D01*
G01X-1445256Y1715951D01*
G01X-1433826Y1727381D01*
G01X-14329Y1830251D02*
G01X-14329Y1710109D01*
G01X-54461Y1830251D02*
G01X25549Y1830251D01*
G01X102003Y1790119D02*
G01X90573Y1784531D01*
G01X79143Y1773101D01*
G01X73301Y1755829D01*
G01X73301Y1744399D01*
G01X79143Y1727381D01*
G01X90573Y1715951D01*
G01X102003Y1710109D01*
G01X119021Y1710109D01*
G01X130451Y1715951D01*
G01X141881Y1727381D01*
G01X147723Y1744399D01*
G01X147723Y1755829D01*
G01X141881Y1773101D01*
G01X130451Y1784531D01*
G01X119021Y1790119D01*
G01X102003Y1790119D01*
G01X195475Y1790119D02*
G01X195475Y1670231D01*
G01X195475Y1773101D02*
G01X206905Y1784531D01*
G01X218335Y1790119D01*
G01X235607Y1790119D01*
G01X247037Y1784531D01*
G01X258467Y1773101D01*
G01X264055Y1755829D01*
G01X264055Y1744399D01*
G01X258467Y1727381D01*
G01X247037Y1715951D01*
G01X235607Y1710109D01*
G01X218335Y1710109D01*
G01X206905Y1715951D01*
G01X195475Y1727381D01*
G01X439823Y1830251D02*
G01X439823Y1710109D01*
G01X439823Y1710109D02*
G01X508403Y1710109D01*
G01X624735Y1790119D02*
G01X624735Y1710109D01*
G01X624735Y1773101D02*
G01X613305Y1784531D01*
G01X601875Y1790119D01*
G01X584857Y1790119D01*
G01X573427Y1784531D01*
G01X561997Y1773101D01*
G01X556155Y1755829D01*
G01X556155Y1744399D01*
G01X561997Y1727381D01*
G01X573427Y1715951D01*
G01X584857Y1710109D01*
G01X601875Y1710109D01*
G01X613305Y1715951D01*
G01X624735Y1727381D01*
G01X678329Y1790119D02*
G01X712619Y1710109D01*
G01X746909Y1790119D02*
G01X712619Y1710109D01*
G01X701189Y1687249D01*
G01X689759Y1675819D01*
G01X678329Y1670231D01*
G01X672487Y1670231D01*
G01X794661Y1755829D02*
G01X863241Y1755829D01*
G01X863241Y1767259D01*
G01X857653Y1778689D01*
G01X851811Y1784531D01*
G01X840381Y1790119D01*
G01X823363Y1790119D01*
G01X811933Y1784531D01*
G01X800503Y1773101D01*
G01X794661Y1755829D01*
G01X794661Y1744399D01*
G01X800503Y1727381D01*
G01X811933Y1715951D01*
G01X823363Y1710109D01*
G01X840381Y1710109D01*
G01X851811Y1715951D01*
G01X863241Y1727381D01*
G01X910993Y1790119D02*
G01X910993Y1710109D01*
G01X910993Y1755829D02*
G01X916835Y1773101D01*
G01X928265Y1784531D01*
G01X939695Y1790119D01*
G01X956713Y1790119D01*
G01X1004465Y1761671D02*
G01X1107335Y1761671D01*
G01X1155087Y1830251D02*
G01X1155087Y1710109D01*
G01X1155087Y1830251D02*
G01X1206649Y1830251D01*
G01X1223667Y1824409D01*
G01X1229509Y1818821D01*
G01X1235097Y1807391D01*
G01X1235097Y1795961D01*
G01X1229509Y1784531D01*
G01X1223667Y1778689D01*
G01X1206649Y1773101D01*
G01X1155087Y1773101D02*
G01X1206649Y1773101D01*
G01X1223667Y1767259D01*
G01X1229509Y1761671D01*
G01X1235097Y1750241D01*
G01X1235097Y1732969D01*
G01X1229509Y1721539D01*
G01X1223667Y1715951D01*
G01X1206649Y1710109D01*
G01X1155087Y1710109D01*
G01X1311551Y1790119D02*
G01X1300121Y1784531D01*
G01X1288691Y1773101D01*
G01X1282849Y1755829D01*
G01X1282849Y1744399D01*
G01X1288691Y1727381D01*
G01X1300121Y1715951D01*
G01X1311551Y1710109D01*
G01X1328569Y1710109D01*
G01X1339999Y1715951D01*
G01X1351429Y1727381D01*
G01X1357271Y1744399D01*
G01X1357271Y1755829D01*
G01X1351429Y1773101D01*
G01X1339999Y1784531D01*
G01X1328569Y1790119D01*
G01X1311551Y1790119D01*
G01X1422295Y1830251D02*
G01X1422295Y1732969D01*
G01X1427883Y1715951D01*
G01X1439313Y1710109D01*
G01X1450743Y1710109D01*
G01X1405023Y1790119D02*
G01X1445155Y1790119D01*
G01X1515767Y1830251D02*
G01X1515767Y1732969D01*
G01X1521355Y1715951D01*
G01X1532785Y1710109D01*
G01X1544215Y1710109D01*
G01X1498495Y1790119D02*
G01X1538627Y1790119D01*
G01X1620669Y1790119D02*
G01X1609239Y1784531D01*
G01X1597809Y1773101D01*
G01X1591967Y1755829D01*
G01X1591967Y1744399D01*
G01X1597809Y1727381D01*
G01X1609239Y1715951D01*
G01X1620669Y1710109D01*
G01X1637687Y1710109D01*
G01X1649117Y1715951D01*
G01X1660547Y1727381D01*
G01X1666389Y1744399D01*
G01X1666389Y1755829D01*
G01X1660547Y1773101D01*
G01X1649117Y1784531D01*
G01X1637687Y1790119D01*
G01X1620669Y1790119D01*
G01X1714141Y1790119D02*
G01X1714141Y1710109D01*
G01X1714141Y1767259D02*
G01X1731413Y1784531D01*
G01X1742843Y1790119D01*
G01X1759861Y1790119D01*
G01X1771291Y1784531D01*
G01X1777133Y1767259D01*
G01X1777133Y1710109D01*
G01X1777133Y1767259D02*
G01X1794151Y1784531D01*
G01X1805581Y1790119D01*
G01X1822853Y1790119D01*
G01X1834283Y1784531D01*
G01X1839871Y1767259D01*
G01X1839871Y1710109D01*
G01X2015639Y1830251D02*
G01X2015639Y1710109D01*
G01X2015639Y1710109D02*
G01X2084219Y1710109D01*
G01X2200551Y1790119D02*
G01X2200551Y1710109D01*
G01X2200551Y1773101D02*
G01X2189121Y1784531D01*
G01X2177691Y1790119D01*
G01X2160673Y1790119D01*
G01X2149243Y1784531D01*
G01X2137813Y1773101D01*
G01X2131971Y1755829D01*
G01X2131971Y1744399D01*
G01X2137813Y1727381D01*
G01X2149243Y1715951D01*
G01X2160673Y1710109D01*
G01X2177691Y1710109D01*
G01X2189121Y1715951D01*
G01X2200551Y1727381D01*
G01X2254145Y1790119D02*
G01X2288435Y1710109D01*
G01X2322725Y1790119D02*
G01X2288435Y1710109D01*
G01X2277005Y1687249D01*
G01X2265575Y1675819D01*
G01X2254145Y1670231D01*
G01X2248303Y1670231D01*
G01X2370477Y1755829D02*
G01X2439057Y1755829D01*
G01X2439057Y1767259D01*
G01X2433469Y1778689D01*
G01X2427627Y1784531D01*
G01X2416197Y1790119D01*
G01X2399179Y1790119D01*
G01X2387749Y1784531D01*
G01X2376319Y1773101D01*
G01X2370477Y1755829D01*
G01X2370477Y1744399D01*
G01X2376319Y1727381D01*
G01X2387749Y1715951D01*
G01X2399179Y1710109D01*
G01X2416197Y1710109D01*
G01X2427627Y1715951D01*
G01X2439057Y1727381D01*
G01X2486809Y1790119D02*
G01X2486809Y1710109D01*
G01X2486809Y1755829D02*
G01X2492651Y1773101D01*
G01X2504081Y1784531D01*
G01X2515511Y1790119D01*
G01X2532529Y1790119D01*
G01X-11815024Y1249680D02*
G01X-11832296Y1243838D01*
G01X-11837884Y1232408D01*
G01X-11837884Y1220978D01*
G01X-11832296Y1209548D01*
G01X-11820866Y1203960D01*
G01X-11798006Y1198118D01*
G01X-11780734Y1192530D01*
G01X-11769304Y1181100D01*
G01X-11763716Y1169670D01*
G01X-11763716Y1152398D01*
G01X-11769304Y1140968D01*
G01X-11775146Y1135380D01*
G01X-11792164Y1129538D01*
G01X-11815024Y1129538D01*
G01X-11832296Y1135380D01*
G01X-11837884Y1140968D01*
G01X-11843726Y1152398D01*
G01X-11843726Y1169670D01*
G01X-11837884Y1181100D01*
G01X-11826454Y1192530D01*
G01X-11809436Y1198118D01*
G01X-11786576Y1203960D01*
G01X-11775146Y1209548D01*
G01X-11769304Y1220978D01*
G01X-11769304Y1232408D01*
G01X-11775146Y1243838D01*
G01X-11792164Y1249680D01*
G01X-11815024Y1249680D01*
G01X-10372413Y1249680D02*
G01X-10429563Y1169670D01*
G01X-10343711Y1169670D01*
G01X-10372413Y1249680D02*
G01X-10372413Y1129538D01*
G01X-10215949Y1249680D02*
G01X-10273099Y1129538D01*
G01X-10295959Y1249680D02*
G01X-10215949Y1249680D01*
G01X-10162355Y1158240D02*
G01X-10168197Y1152398D01*
G01X-10162355Y1146810D01*
G01X-10156767Y1152398D01*
G01X-10162355Y1158240D01*
G01X-10103173Y1220978D02*
G01X-10103173Y1226820D01*
G01X-10097585Y1238250D01*
G01X-10091743Y1243838D01*
G01X-10080313Y1249680D01*
G01X-10057453Y1249680D01*
G01X-10046023Y1243838D01*
G01X-10040435Y1238250D01*
G01X-10034593Y1226820D01*
G01X-10034593Y1215390D01*
G01X-10040435Y1203960D01*
G01X-10051865Y1186688D01*
G01X-10109015Y1129538D01*
G01X-10029005Y1129538D01*
G01X-9981253Y1209548D02*
G01X-9918261Y1129538D01*
G01X-9918261Y1209548D02*
G01X-9981253Y1129538D01*
G01X-9813359Y1249680D02*
G01X-9870509Y1169670D01*
G01X-9784657Y1169670D01*
G01X-9813359Y1249680D02*
G01X-9813359Y1129538D01*
G01X-9656895Y1249680D02*
G01X-9714045Y1129538D01*
G01X-9736905Y1249680D02*
G01X-9656895Y1249680D01*
G01X-9603301Y1158240D02*
G01X-9609143Y1152398D01*
G01X-9603301Y1146810D01*
G01X-9597713Y1152398D01*
G01X-9603301Y1158240D01*
G01X-9544119Y1220978D02*
G01X-9544119Y1226820D01*
G01X-9538531Y1238250D01*
G01X-9532689Y1243838D01*
G01X-9521259Y1249680D01*
G01X-9498399Y1249680D01*
G01X-9486969Y1243838D01*
G01X-9481381Y1238250D01*
G01X-9475539Y1226820D01*
G01X-9475539Y1215390D01*
G01X-9481381Y1203960D01*
G01X-9492811Y1186688D01*
G01X-9549961Y1129538D01*
G01X-9469951Y1129538D01*
G01X-9422199Y1209548D02*
G01X-9422199Y1129538D01*
G01X-9422199Y1186688D02*
G01X-9404927Y1203960D01*
G01X-9393497Y1209548D01*
G01X-9376479Y1209548D01*
G01X-9365049Y1203960D01*
G01X-9359207Y1186688D01*
G01X-9359207Y1129538D01*
G01X-9359207Y1186688D02*
G01X-9342189Y1203960D01*
G01X-9330759Y1209548D01*
G01X-9313487Y1209548D01*
G01X-9302057Y1203960D01*
G01X-9296469Y1186688D01*
G01X-9296469Y1129538D01*
G01X-9248717Y1249680D02*
G01X-9242875Y1243838D01*
G01X-9237287Y1249680D01*
G01X-9242875Y1255268D01*
G01X-9248717Y1249680D01*
G01X-9242875Y1209548D02*
G01X-9242875Y1129538D01*
G01X-9189535Y1249680D02*
G01X-9189535Y1129538D01*
G01X-9101651Y1272540D02*
G01X-9113081Y1261110D01*
G01X-9124511Y1243838D01*
G01X-9135941Y1220978D01*
G01X-9141783Y1192530D01*
G01X-9141783Y1169670D01*
G01X-9135941Y1140968D01*
G01X-9124511Y1118108D01*
G01X-9113081Y1101090D01*
G01X-9101651Y1089660D01*
G01X-9053899Y1226820D02*
G01X-9042469Y1232408D01*
G01X-9025197Y1249680D01*
G01X-9025197Y1129538D01*
G01X-8971603Y1158240D02*
G01X-8977445Y1152398D01*
G01X-8971603Y1146810D01*
G01X-8966015Y1152398D01*
G01X-8971603Y1158240D01*
G01X-8912421Y1220978D02*
G01X-8912421Y1226820D01*
G01X-8906833Y1238250D01*
G01X-8900991Y1243838D01*
G01X-8889561Y1249680D01*
G01X-8866701Y1249680D01*
G01X-8855271Y1243838D01*
G01X-8849683Y1238250D01*
G01X-8843841Y1226820D01*
G01X-8843841Y1215390D01*
G01X-8849683Y1203960D01*
G01X-8861113Y1186688D01*
G01X-8918263Y1129538D01*
G01X-8838253Y1129538D01*
G01X-8756211Y1249680D02*
G01X-8773229Y1243838D01*
G01X-8784659Y1226820D01*
G01X-8790501Y1198118D01*
G01X-8790501Y1181100D01*
G01X-8784659Y1152398D01*
G01X-8773229Y1135380D01*
G01X-8756211Y1129538D01*
G01X-8744781Y1129538D01*
G01X-8727509Y1135380D01*
G01X-8716079Y1152398D01*
G01X-8710491Y1181100D01*
G01X-8710491Y1198118D01*
G01X-8716079Y1226820D01*
G01X-8727509Y1243838D01*
G01X-8744781Y1249680D01*
G01X-8756211Y1249680D01*
G01X-8628449Y1249680D02*
G01X-8645467Y1243838D01*
G01X-8656897Y1226820D01*
G01X-8662739Y1198118D01*
G01X-8662739Y1181100D01*
G01X-8656897Y1152398D01*
G01X-8645467Y1135380D01*
G01X-8628449Y1129538D01*
G01X-8617019Y1129538D01*
G01X-8599747Y1135380D01*
G01X-8588317Y1152398D01*
G01X-8582729Y1181100D01*
G01X-8582729Y1198118D01*
G01X-8588317Y1226820D01*
G01X-8599747Y1243838D01*
G01X-8617019Y1249680D01*
G01X-8628449Y1249680D01*
G01X-8534977Y1209548D02*
G01X-8471985Y1129538D01*
G01X-8471985Y1209548D02*
G01X-8534977Y1129538D01*
G01X-8424233Y1226820D02*
G01X-8412803Y1232408D01*
G01X-8395531Y1249680D01*
G01X-8395531Y1129538D01*
G01X-8341937Y1158240D02*
G01X-8347779Y1152398D01*
G01X-8341937Y1146810D01*
G01X-8336349Y1152398D01*
G01X-8341937Y1158240D01*
G01X-8282755Y1220978D02*
G01X-8282755Y1226820D01*
G01X-8277167Y1238250D01*
G01X-8271325Y1243838D01*
G01X-8259895Y1249680D01*
G01X-8237035Y1249680D01*
G01X-8225605Y1243838D01*
G01X-8220017Y1238250D01*
G01X-8214175Y1226820D01*
G01X-8214175Y1215390D01*
G01X-8220017Y1203960D01*
G01X-8231447Y1186688D01*
G01X-8288597Y1129538D01*
G01X-8208587Y1129538D01*
G01X-8126545Y1249680D02*
G01X-8143563Y1243838D01*
G01X-8154993Y1226820D01*
G01X-8160835Y1198118D01*
G01X-8160835Y1181100D01*
G01X-8154993Y1152398D01*
G01X-8143563Y1135380D01*
G01X-8126545Y1129538D01*
G01X-8115115Y1129538D01*
G01X-8097843Y1135380D01*
G01X-8086413Y1152398D01*
G01X-8080825Y1181100D01*
G01X-8080825Y1198118D01*
G01X-8086413Y1226820D01*
G01X-8097843Y1243838D01*
G01X-8115115Y1249680D01*
G01X-8126545Y1249680D01*
G01X-7998783Y1249680D02*
G01X-8015801Y1243838D01*
G01X-8027231Y1226820D01*
G01X-8033073Y1198118D01*
G01X-8033073Y1181100D01*
G01X-8027231Y1152398D01*
G01X-8015801Y1135380D01*
G01X-7998783Y1129538D01*
G01X-7987353Y1129538D01*
G01X-7970081Y1135380D01*
G01X-7958651Y1152398D01*
G01X-7953063Y1181100D01*
G01X-7953063Y1198118D01*
G01X-7958651Y1226820D01*
G01X-7970081Y1243838D01*
G01X-7987353Y1249680D01*
G01X-7998783Y1249680D01*
G01X-7905311Y1209548D02*
G01X-7905311Y1129538D01*
G01X-7905311Y1186688D02*
G01X-7888039Y1203960D01*
G01X-7876609Y1209548D01*
G01X-7859591Y1209548D01*
G01X-7848161Y1203960D01*
G01X-7842319Y1186688D01*
G01X-7842319Y1129538D01*
G01X-7842319Y1186688D02*
G01X-7825301Y1203960D01*
G01X-7813871Y1209548D01*
G01X-7796599Y1209548D01*
G01X-7785169Y1203960D01*
G01X-7779581Y1186688D01*
G01X-7779581Y1129538D01*
G01X-7731829Y1209548D02*
G01X-7731829Y1129538D01*
G01X-7731829Y1186688D02*
G01X-7714557Y1203960D01*
G01X-7703127Y1209548D01*
G01X-7686109Y1209548D01*
G01X-7674679Y1203960D01*
G01X-7668837Y1186688D01*
G01X-7668837Y1129538D01*
G01X-7668837Y1186688D02*
G01X-7651819Y1203960D01*
G01X-7640389Y1209548D01*
G01X-7623117Y1209548D01*
G01X-7611687Y1203960D01*
G01X-7606099Y1186688D01*
G01X-7606099Y1129538D01*
G01X-7558347Y1272540D02*
G01X-7546917Y1261110D01*
G01X-7535487Y1243838D01*
G01X-7524057Y1220978D01*
G01X-7518215Y1192530D01*
G01X-7518215Y1169670D01*
G01X-7524057Y1140968D01*
G01X-7535487Y1118108D01*
G01X-7546917Y1101090D01*
G01X-7558347Y1089660D01*
G01X-6535597Y1249680D02*
G01X-6535597Y1129538D01*
G01X-6535597Y1249680D02*
G01X-6484035Y1249680D01*
G01X-6467017Y1243838D01*
G01X-6461175Y1238250D01*
G01X-6455587Y1226820D01*
G01X-6455587Y1209548D01*
G01X-6461175Y1198118D01*
G01X-6467017Y1192530D01*
G01X-6484035Y1186688D01*
G01X-6535597Y1186688D01*
G01X-6367703Y1249680D02*
G01X-6367703Y1129538D01*
G01X-6407835Y1249680D02*
G01X-6327825Y1249680D01*
G01X-6280073Y1249680D02*
G01X-6280073Y1129538D01*
G01X-6200063Y1249680D02*
G01X-6200063Y1129538D01*
G01X-6280073Y1192530D02*
G01X-6200063Y1192530D01*
G01X-5074190Y1249680D02*
G01X-5074190Y1129538D01*
G01X-5074190Y1249680D02*
G01X-5022628Y1249680D01*
G01X-5005610Y1243838D01*
G01X-4999768Y1238250D01*
G01X-4994180Y1226820D01*
G01X-4994180Y1215390D01*
G01X-4999768Y1203960D01*
G01X-5005610Y1198118D01*
G01X-5022628Y1192530D01*
G01X-5074190Y1192530D01*
G01X-5034058Y1192530D02*
G01X-4994180Y1129538D01*
G01X-4917726Y1209548D02*
G01X-4929156Y1203960D01*
G01X-4940586Y1192530D01*
G01X-4946428Y1175258D01*
G01X-4946428Y1163828D01*
G01X-4940586Y1146810D01*
G01X-4929156Y1135380D01*
G01X-4917726Y1129538D01*
G01X-4900708Y1129538D01*
G01X-4889278Y1135380D01*
G01X-4877848Y1146810D01*
G01X-4872006Y1163828D01*
G01X-4872006Y1175258D01*
G01X-4877848Y1192530D01*
G01X-4889278Y1203960D01*
G01X-4900708Y1209548D01*
G01X-4917726Y1209548D01*
G01X-4824254Y1209548D02*
G01X-4824254Y1152398D01*
G01X-4818412Y1135380D01*
G01X-4806982Y1129538D01*
G01X-4789964Y1129538D01*
G01X-4778534Y1135380D01*
G01X-4761262Y1152398D01*
G01X-4761262Y1209548D02*
G01X-4761262Y1129538D01*
G01X-4713510Y1209548D02*
G01X-4713510Y1129538D01*
G01X-4713510Y1186688D02*
G01X-4696238Y1203960D01*
G01X-4684808Y1209548D01*
G01X-4667790Y1209548D01*
G01X-4656360Y1203960D01*
G01X-4650518Y1186688D01*
G01X-4650518Y1129538D01*
G01X-4534186Y1249680D02*
G01X-4534186Y1129538D01*
G01X-4534186Y1192530D02*
G01X-4545616Y1203960D01*
G01X-4557046Y1209548D01*
G01X-4574064Y1209548D01*
G01X-4585494Y1203960D01*
G01X-4596924Y1192530D01*
G01X-4602766Y1175258D01*
G01X-4602766Y1163828D01*
G01X-4596924Y1146810D01*
G01X-4585494Y1135380D01*
G01X-4574064Y1129538D01*
G01X-4557046Y1129538D01*
G01X-4545616Y1135380D01*
G01X-4534186Y1146810D01*
G01X-3643009Y1249680D02*
G01X-3643009Y1129538D01*
G01X-3643009Y1249680D02*
G01X-3591447Y1249680D01*
G01X-3574429Y1243838D01*
G01X-3568587Y1238250D01*
G01X-3562999Y1226820D01*
G01X-3562999Y1209548D01*
G01X-3568587Y1198118D01*
G01X-3574429Y1192530D01*
G01X-3591447Y1186688D01*
G01X-3643009Y1186688D01*
G01X-3446667Y1209548D02*
G01X-3446667Y1129538D01*
G01X-3446667Y1192530D02*
G01X-3458097Y1203960D01*
G01X-3469527Y1209548D01*
G01X-3486545Y1209548D01*
G01X-3497975Y1203960D01*
G01X-3509405Y1192530D01*
G01X-3515247Y1175258D01*
G01X-3515247Y1163828D01*
G01X-3509405Y1146810D01*
G01X-3497975Y1135380D01*
G01X-3486545Y1129538D01*
G01X-3469527Y1129538D01*
G01X-3458097Y1135380D01*
G01X-3446667Y1146810D01*
G01X-3330335Y1249680D02*
G01X-3330335Y1129538D01*
G01X-3330335Y1192530D02*
G01X-3341765Y1203960D01*
G01X-3353195Y1209548D01*
G01X-3370213Y1209548D01*
G01X-3381643Y1203960D01*
G01X-3393073Y1192530D01*
G01X-3398915Y1175258D01*
G01X-3398915Y1163828D01*
G01X-3393073Y1146810D01*
G01X-3381643Y1135380D01*
G01X-3370213Y1129538D01*
G01X-3353195Y1129538D01*
G01X-3341765Y1135380D01*
G01X-3330335Y1146810D01*
G01X-1933698Y1272540D02*
G01X-1945128Y1261110D01*
G01X-1956558Y1243838D01*
G01X-1967988Y1220978D01*
G01X-1973830Y1192530D01*
G01X-1973830Y1169670D01*
G01X-1967988Y1140968D01*
G01X-1956558Y1118108D01*
G01X-1945128Y1101090D01*
G01X-1933698Y1089660D01*
G01X-1885946Y1249680D02*
G01X-1885946Y1129538D01*
G01X-1885946Y1249680D02*
G01X-1840226Y1129538D01*
G01X-1794506Y1249680D02*
G01X-1840226Y1129538D01*
G01X-1794506Y1249680D02*
G01X-1794506Y1129538D01*
G01X-1746754Y1249680D02*
G01X-1740912Y1243838D01*
G01X-1735324Y1249680D01*
G01X-1740912Y1255268D01*
G01X-1746754Y1249680D01*
G01X-1740912Y1209548D02*
G01X-1740912Y1129538D01*
G01X-1687572Y1209548D02*
G01X-1624580Y1129538D01*
G01X-1624580Y1209548D02*
G01X-1687572Y1129538D01*
G01X-1576828Y1175258D02*
G01X-1508248Y1175258D01*
G01X-1508248Y1186688D01*
G01X-1513836Y1198118D01*
G01X-1519678Y1203960D01*
G01X-1531108Y1209548D01*
G01X-1548126Y1209548D01*
G01X-1559556Y1203960D01*
G01X-1570986Y1192530D01*
G01X-1576828Y1175258D01*
G01X-1576828Y1163828D01*
G01X-1570986Y1146810D01*
G01X-1559556Y1135380D01*
G01X-1548126Y1129538D01*
G01X-1531108Y1129538D01*
G01X-1519678Y1135380D01*
G01X-1508248Y1146810D01*
G01X-1391916Y1249680D02*
G01X-1391916Y1129538D01*
G01X-1391916Y1192530D02*
G01X-1403346Y1203960D01*
G01X-1414776Y1209548D01*
G01X-1431794Y1209548D01*
G01X-1443224Y1203960D01*
G01X-1454654Y1192530D01*
G01X-1460496Y1175258D01*
G01X-1460496Y1163828D01*
G01X-1454654Y1146810D01*
G01X-1443224Y1135380D01*
G01X-1431794Y1129538D01*
G01X-1414776Y1129538D01*
G01X-1403346Y1135380D01*
G01X-1391916Y1146810D01*
G01X-1344164Y1272540D02*
G01X-1332734Y1261110D01*
G01X-1321304Y1243838D01*
G01X-1309874Y1220978D01*
G01X-1304032Y1192530D01*
G01X-1304032Y1169670D01*
G01X-1309874Y1140968D01*
G01X-1321304Y1118108D01*
G01X-1332734Y1101090D01*
G01X-1344164Y1089660D01*
G01X-14329Y1249680D02*
G01X-14329Y1129538D01*
G01X-54461Y1249680D02*
G01X25549Y1249680D01*
G01X102003Y1209548D02*
G01X90573Y1203960D01*
G01X79143Y1192530D01*
G01X73301Y1175258D01*
G01X73301Y1163828D01*
G01X79143Y1146810D01*
G01X90573Y1135380D01*
G01X102003Y1129538D01*
G01X119021Y1129538D01*
G01X130451Y1135380D01*
G01X141881Y1146810D01*
G01X147723Y1163828D01*
G01X147723Y1175258D01*
G01X141881Y1192530D01*
G01X130451Y1203960D01*
G01X119021Y1209548D01*
G01X102003Y1209548D01*
G01X195475Y1209548D02*
G01X195475Y1089660D01*
G01X195475Y1192530D02*
G01X206905Y1203960D01*
G01X218335Y1209548D01*
G01X235607Y1209548D01*
G01X247037Y1203960D01*
G01X258467Y1192530D01*
G01X264055Y1175258D01*
G01X264055Y1163828D01*
G01X258467Y1146810D01*
G01X247037Y1135380D01*
G01X235607Y1129538D01*
G01X218335Y1129538D01*
G01X206905Y1135380D01*
G01X195475Y1146810D01*
G01X439823Y1249680D02*
G01X439823Y1129538D01*
G01X439823Y1129538D02*
G01X508403Y1129538D01*
G01X624735Y1209548D02*
G01X624735Y1129538D01*
G01X624735Y1192530D02*
G01X613305Y1203960D01*
G01X601875Y1209548D01*
G01X584857Y1209548D01*
G01X573427Y1203960D01*
G01X561997Y1192530D01*
G01X556155Y1175258D01*
G01X556155Y1163828D01*
G01X561997Y1146810D01*
G01X573427Y1135380D01*
G01X584857Y1129538D01*
G01X601875Y1129538D01*
G01X613305Y1135380D01*
G01X624735Y1146810D01*
G01X678329Y1209548D02*
G01X712619Y1129538D01*
G01X746909Y1209548D02*
G01X712619Y1129538D01*
G01X701189Y1106678D01*
G01X689759Y1095248D01*
G01X678329Y1089660D01*
G01X672487Y1089660D01*
G01X794661Y1175258D02*
G01X863241Y1175258D01*
G01X863241Y1186688D01*
G01X857653Y1198118D01*
G01X851811Y1203960D01*
G01X840381Y1209548D01*
G01X823363Y1209548D01*
G01X811933Y1203960D01*
G01X800503Y1192530D01*
G01X794661Y1175258D01*
G01X794661Y1163828D01*
G01X800503Y1146810D01*
G01X811933Y1135380D01*
G01X823363Y1129538D01*
G01X840381Y1129538D01*
G01X851811Y1135380D01*
G01X863241Y1146810D01*
G01X910993Y1209548D02*
G01X910993Y1129538D01*
G01X910993Y1175258D02*
G01X916835Y1192530D01*
G01X928265Y1203960D01*
G01X939695Y1209548D01*
G01X956713Y1209548D01*
G01X1004465Y1181100D02*
G01X1107335Y1181100D01*
G01X1155087Y1249680D02*
G01X1155087Y1129538D01*
G01X1155087Y1249680D02*
G01X1206649Y1249680D01*
G01X1223667Y1243838D01*
G01X1229509Y1238250D01*
G01X1235097Y1226820D01*
G01X1235097Y1215390D01*
G01X1229509Y1203960D01*
G01X1223667Y1198118D01*
G01X1206649Y1192530D01*
G01X1155087Y1192530D02*
G01X1206649Y1192530D01*
G01X1223667Y1186688D01*
G01X1229509Y1181100D01*
G01X1235097Y1169670D01*
G01X1235097Y1152398D01*
G01X1229509Y1140968D01*
G01X1223667Y1135380D01*
G01X1206649Y1129538D01*
G01X1155087Y1129538D01*
G01X1311551Y1209548D02*
G01X1300121Y1203960D01*
G01X1288691Y1192530D01*
G01X1282849Y1175258D01*
G01X1282849Y1163828D01*
G01X1288691Y1146810D01*
G01X1300121Y1135380D01*
G01X1311551Y1129538D01*
G01X1328569Y1129538D01*
G01X1339999Y1135380D01*
G01X1351429Y1146810D01*
G01X1357271Y1163828D01*
G01X1357271Y1175258D01*
G01X1351429Y1192530D01*
G01X1339999Y1203960D01*
G01X1328569Y1209548D01*
G01X1311551Y1209548D01*
G01X1422295Y1249680D02*
G01X1422295Y1152398D01*
G01X1427883Y1135380D01*
G01X1439313Y1129538D01*
G01X1450743Y1129538D01*
G01X1405023Y1209548D02*
G01X1445155Y1209548D01*
G01X1515767Y1249680D02*
G01X1515767Y1152398D01*
G01X1521355Y1135380D01*
G01X1532785Y1129538D01*
G01X1544215Y1129538D01*
G01X1498495Y1209548D02*
G01X1538627Y1209548D01*
G01X1620669Y1209548D02*
G01X1609239Y1203960D01*
G01X1597809Y1192530D01*
G01X1591967Y1175258D01*
G01X1591967Y1163828D01*
G01X1597809Y1146810D01*
G01X1609239Y1135380D01*
G01X1620669Y1129538D01*
G01X1637687Y1129538D01*
G01X1649117Y1135380D01*
G01X1660547Y1146810D01*
G01X1666389Y1163828D01*
G01X1666389Y1175258D01*
G01X1660547Y1192530D01*
G01X1649117Y1203960D01*
G01X1637687Y1209548D01*
G01X1620669Y1209548D01*
G01X1714141Y1209548D02*
G01X1714141Y1129538D01*
G01X1714141Y1186688D02*
G01X1731413Y1203960D01*
G01X1742843Y1209548D01*
G01X1759861Y1209548D01*
G01X1771291Y1203960D01*
G01X1777133Y1186688D01*
G01X1777133Y1129538D01*
G01X1777133Y1186688D02*
G01X1794151Y1203960D01*
G01X1805581Y1209548D01*
G01X1822853Y1209548D01*
G01X1834283Y1203960D01*
G01X1839871Y1186688D01*
G01X1839871Y1129538D01*
G01X2015639Y1249680D02*
G01X2015639Y1129538D01*
G01X2015639Y1129538D02*
G01X2084219Y1129538D01*
G01X2200551Y1209548D02*
G01X2200551Y1129538D01*
G01X2200551Y1192530D02*
G01X2189121Y1203960D01*
G01X2177691Y1209548D01*
G01X2160673Y1209548D01*
G01X2149243Y1203960D01*
G01X2137813Y1192530D01*
G01X2131971Y1175258D01*
G01X2131971Y1163828D01*
G01X2137813Y1146810D01*
G01X2149243Y1135380D01*
G01X2160673Y1129538D01*
G01X2177691Y1129538D01*
G01X2189121Y1135380D01*
G01X2200551Y1146810D01*
G01X2254145Y1209548D02*
G01X2288435Y1129538D01*
G01X2322725Y1209548D02*
G01X2288435Y1129538D01*
G01X2277005Y1106678D01*
G01X2265575Y1095248D01*
G01X2254145Y1089660D01*
G01X2248303Y1089660D01*
G01X2370477Y1175258D02*
G01X2439057Y1175258D01*
G01X2439057Y1186688D01*
G01X2433469Y1198118D01*
G01X2427627Y1203960D01*
G01X2416197Y1209548D01*
G01X2399179Y1209548D01*
G01X2387749Y1203960D01*
G01X2376319Y1192530D01*
G01X2370477Y1175258D01*
G01X2370477Y1163828D01*
G01X2376319Y1146810D01*
G01X2387749Y1135380D01*
G01X2399179Y1129538D01*
G01X2416197Y1129538D01*
G01X2427627Y1135380D01*
G01X2439057Y1146810D01*
G01X2486809Y1209548D02*
G01X2486809Y1129538D01*
G01X2486809Y1175258D02*
G01X2492651Y1192530D01*
G01X2504081Y1203960D01*
G01X2515511Y1209548D01*
G01X2532529Y1209548D01*
G01X-11786576Y669109D02*
G01X-11843726Y589099D01*
G01X-11757874Y589099D01*
G01X-11786576Y669109D02*
G01X-11786576Y548967D01*
G01X-11675832Y669109D02*
G01X-11692850Y663267D01*
G01X-11704280Y646249D01*
G01X-11710122Y617547D01*
G01X-11710122Y600529D01*
G01X-11704280Y571827D01*
G01X-11692850Y554809D01*
G01X-11675832Y548967D01*
G01X-11664402Y548967D01*
G01X-11647130Y554809D01*
G01X-11635700Y571827D01*
G01X-11630112Y600529D01*
G01X-11630112Y617547D01*
G01X-11635700Y646249D01*
G01X-11647130Y663267D01*
G01X-11664402Y669109D01*
G01X-11675832Y669109D01*
G01X-10418133Y669109D02*
G01X-10355141Y669109D01*
G01X-10389431Y623389D01*
G01X-10372413Y623389D01*
G01X-10360983Y617547D01*
G01X-10355141Y611959D01*
G01X-10349553Y594687D01*
G01X-10349553Y583257D01*
G01X-10355141Y566239D01*
G01X-10366571Y554809D01*
G01X-10383843Y548967D01*
G01X-10400861Y548967D01*
G01X-10418133Y554809D01*
G01X-10423721Y560397D01*
G01X-10429563Y571827D01*
G01X-10227379Y628977D02*
G01X-10233221Y611959D01*
G01X-10244651Y600529D01*
G01X-10261669Y594687D01*
G01X-10267511Y594687D01*
G01X-10284529Y600529D01*
G01X-10295959Y611959D01*
G01X-10301801Y628977D01*
G01X-10301801Y634819D01*
G01X-10295959Y651837D01*
G01X-10284529Y663267D01*
G01X-10267511Y669109D01*
G01X-10261669Y669109D01*
G01X-10244651Y663267D01*
G01X-10233221Y651837D01*
G01X-10227379Y628977D01*
G01X-10227379Y600529D01*
G01X-10233221Y571827D01*
G01X-10244651Y554809D01*
G01X-10261669Y548967D01*
G01X-10273099Y548967D01*
G01X-10290371Y554809D01*
G01X-10295959Y566239D01*
G01X-10173785Y577669D02*
G01X-10179627Y571827D01*
G01X-10173785Y566239D01*
G01X-10168197Y571827D01*
G01X-10173785Y577669D01*
G01X-10063295Y669109D02*
G01X-10120445Y589099D01*
G01X-10034593Y589099D01*
G01X-10063295Y669109D02*
G01X-10063295Y548967D01*
G01X-9986841Y628977D02*
G01X-9923849Y548967D01*
G01X-9923849Y628977D02*
G01X-9986841Y548967D01*
G01X-9864667Y669109D02*
G01X-9801675Y669109D01*
G01X-9835965Y623389D01*
G01X-9818947Y623389D01*
G01X-9807517Y617547D01*
G01X-9801675Y611959D01*
G01X-9796087Y594687D01*
G01X-9796087Y583257D01*
G01X-9801675Y566239D01*
G01X-9813105Y554809D01*
G01X-9830377Y548967D01*
G01X-9847395Y548967D01*
G01X-9864667Y554809D01*
G01X-9870255Y560397D01*
G01X-9876097Y571827D01*
G01X-9673913Y628977D02*
G01X-9679755Y611959D01*
G01X-9691185Y600529D01*
G01X-9708203Y594687D01*
G01X-9714045Y594687D01*
G01X-9731063Y600529D01*
G01X-9742493Y611959D01*
G01X-9748335Y628977D01*
G01X-9748335Y634819D01*
G01X-9742493Y651837D01*
G01X-9731063Y663267D01*
G01X-9714045Y669109D01*
G01X-9708203Y669109D01*
G01X-9691185Y663267D01*
G01X-9679755Y651837D01*
G01X-9673913Y628977D01*
G01X-9673913Y600529D01*
G01X-9679755Y571827D01*
G01X-9691185Y554809D01*
G01X-9708203Y548967D01*
G01X-9719633Y548967D01*
G01X-9736905Y554809D01*
G01X-9742493Y566239D01*
G01X-9620319Y577669D02*
G01X-9626161Y571827D01*
G01X-9620319Y566239D01*
G01X-9614731Y571827D01*
G01X-9620319Y577669D01*
G01X-9509829Y669109D02*
G01X-9566979Y589099D01*
G01X-9481127Y589099D01*
G01X-9509829Y669109D02*
G01X-9509829Y548967D01*
G01X-9433375Y628977D02*
G01X-9433375Y548967D01*
G01X-9433375Y606117D02*
G01X-9416103Y623389D01*
G01X-9404673Y628977D01*
G01X-9387655Y628977D01*
G01X-9376225Y623389D01*
G01X-9370383Y606117D01*
G01X-9370383Y548967D01*
G01X-9370383Y606117D02*
G01X-9353365Y623389D01*
G01X-9341935Y628977D01*
G01X-9324663Y628977D01*
G01X-9313233Y623389D01*
G01X-9307645Y606117D01*
G01X-9307645Y548967D01*
G01X-9259893Y669109D02*
G01X-9254051Y663267D01*
G01X-9248463Y669109D01*
G01X-9254051Y674697D01*
G01X-9259893Y669109D01*
G01X-9254051Y628977D02*
G01X-9254051Y548967D01*
G01X-9200711Y669109D02*
G01X-9200711Y548967D01*
G01X-9112827Y691969D02*
G01X-9124257Y680539D01*
G01X-9135687Y663267D01*
G01X-9147117Y640407D01*
G01X-9152959Y611959D01*
G01X-9152959Y589099D01*
G01X-9147117Y560397D01*
G01X-9135687Y537537D01*
G01X-9124257Y520519D01*
G01X-9112827Y509089D01*
G01X-9065075Y646249D02*
G01X-9053645Y651837D01*
G01X-9036373Y669109D01*
G01X-9036373Y548967D01*
G01X-8982779Y577669D02*
G01X-8988621Y571827D01*
G01X-8982779Y566239D01*
G01X-8977191Y571827D01*
G01X-8982779Y577669D01*
G01X-8895149Y669109D02*
G01X-8912167Y663267D01*
G01X-8923597Y646249D01*
G01X-8929439Y617547D01*
G01X-8929439Y600529D01*
G01X-8923597Y571827D01*
G01X-8912167Y554809D01*
G01X-8895149Y548967D01*
G01X-8883719Y548967D01*
G01X-8866447Y554809D01*
G01X-8855017Y571827D01*
G01X-8849429Y600529D01*
G01X-8849429Y617547D01*
G01X-8855017Y646249D01*
G01X-8866447Y663267D01*
G01X-8883719Y669109D01*
G01X-8895149Y669109D01*
G01X-8767387Y669109D02*
G01X-8784405Y663267D01*
G01X-8795835Y646249D01*
G01X-8801677Y617547D01*
G01X-8801677Y600529D01*
G01X-8795835Y571827D01*
G01X-8784405Y554809D01*
G01X-8767387Y548967D01*
G01X-8755957Y548967D01*
G01X-8738685Y554809D01*
G01X-8727255Y571827D01*
G01X-8721667Y600529D01*
G01X-8721667Y617547D01*
G01X-8727255Y646249D01*
G01X-8738685Y663267D01*
G01X-8755957Y669109D01*
G01X-8767387Y669109D01*
G01X-8639625Y669109D02*
G01X-8656643Y663267D01*
G01X-8668073Y646249D01*
G01X-8673915Y617547D01*
G01X-8673915Y600529D01*
G01X-8668073Y571827D01*
G01X-8656643Y554809D01*
G01X-8639625Y548967D01*
G01X-8628195Y548967D01*
G01X-8610923Y554809D01*
G01X-8599493Y571827D01*
G01X-8593905Y600529D01*
G01X-8593905Y617547D01*
G01X-8599493Y646249D01*
G01X-8610923Y663267D01*
G01X-8628195Y669109D01*
G01X-8639625Y669109D01*
G01X-8546153Y628977D02*
G01X-8483161Y548967D01*
G01X-8483161Y628977D02*
G01X-8546153Y548967D01*
G01X-8435409Y646249D02*
G01X-8423979Y651837D01*
G01X-8406707Y669109D01*
G01X-8406707Y548967D01*
G01X-8353113Y577669D02*
G01X-8358955Y571827D01*
G01X-8353113Y566239D01*
G01X-8347525Y571827D01*
G01X-8353113Y577669D01*
G01X-8265483Y669109D02*
G01X-8282501Y663267D01*
G01X-8293931Y646249D01*
G01X-8299773Y617547D01*
G01X-8299773Y600529D01*
G01X-8293931Y571827D01*
G01X-8282501Y554809D01*
G01X-8265483Y548967D01*
G01X-8254053Y548967D01*
G01X-8236781Y554809D01*
G01X-8225351Y571827D01*
G01X-8219763Y600529D01*
G01X-8219763Y617547D01*
G01X-8225351Y646249D01*
G01X-8236781Y663267D01*
G01X-8254053Y669109D01*
G01X-8265483Y669109D01*
G01X-8137721Y669109D02*
G01X-8154739Y663267D01*
G01X-8166169Y646249D01*
G01X-8172011Y617547D01*
G01X-8172011Y600529D01*
G01X-8166169Y571827D01*
G01X-8154739Y554809D01*
G01X-8137721Y548967D01*
G01X-8126291Y548967D01*
G01X-8109019Y554809D01*
G01X-8097589Y571827D01*
G01X-8092001Y600529D01*
G01X-8092001Y617547D01*
G01X-8097589Y646249D01*
G01X-8109019Y663267D01*
G01X-8126291Y669109D01*
G01X-8137721Y669109D01*
G01X-8009959Y669109D02*
G01X-8026977Y663267D01*
G01X-8038407Y646249D01*
G01X-8044249Y617547D01*
G01X-8044249Y600529D01*
G01X-8038407Y571827D01*
G01X-8026977Y554809D01*
G01X-8009959Y548967D01*
G01X-7998529Y548967D01*
G01X-7981257Y554809D01*
G01X-7969827Y571827D01*
G01X-7964239Y600529D01*
G01X-7964239Y617547D01*
G01X-7969827Y646249D01*
G01X-7981257Y663267D01*
G01X-7998529Y669109D01*
G01X-8009959Y669109D01*
G01X-7916487Y628977D02*
G01X-7916487Y548967D01*
G01X-7916487Y606117D02*
G01X-7899215Y623389D01*
G01X-7887785Y628977D01*
G01X-7870767Y628977D01*
G01X-7859337Y623389D01*
G01X-7853495Y606117D01*
G01X-7853495Y548967D01*
G01X-7853495Y606117D02*
G01X-7836477Y623389D01*
G01X-7825047Y628977D01*
G01X-7807775Y628977D01*
G01X-7796345Y623389D01*
G01X-7790757Y606117D01*
G01X-7790757Y548967D01*
G01X-7743005Y628977D02*
G01X-7743005Y548967D01*
G01X-7743005Y606117D02*
G01X-7725733Y623389D01*
G01X-7714303Y628977D01*
G01X-7697285Y628977D01*
G01X-7685855Y623389D01*
G01X-7680013Y606117D01*
G01X-7680013Y548967D01*
G01X-7680013Y606117D02*
G01X-7662995Y623389D01*
G01X-7651565Y628977D01*
G01X-7634293Y628977D01*
G01X-7622863Y623389D01*
G01X-7617275Y606117D01*
G01X-7617275Y548967D01*
G01X-7569523Y691969D02*
G01X-7558093Y680539D01*
G01X-7546663Y663267D01*
G01X-7535233Y640407D01*
G01X-7529391Y611959D01*
G01X-7529391Y589099D01*
G01X-7535233Y560397D01*
G01X-7546663Y537537D01*
G01X-7558093Y520519D01*
G01X-7569523Y509089D01*
G01X-6535597Y669109D02*
G01X-6535597Y548967D01*
G01X-6535597Y669109D02*
G01X-6484035Y669109D01*
G01X-6467017Y663267D01*
G01X-6461175Y657679D01*
G01X-6455587Y646249D01*
G01X-6455587Y628977D01*
G01X-6461175Y617547D01*
G01X-6467017Y611959D01*
G01X-6484035Y606117D01*
G01X-6535597Y606117D01*
G01X-6367703Y669109D02*
G01X-6367703Y548967D01*
G01X-6407835Y669109D02*
G01X-6327825Y669109D01*
G01X-6280073Y669109D02*
G01X-6280073Y548967D01*
G01X-6200063Y669109D02*
G01X-6200063Y548967D01*
G01X-6280073Y611959D02*
G01X-6200063Y611959D01*
G01X-5074190Y669109D02*
G01X-5074190Y548967D01*
G01X-5074190Y669109D02*
G01X-5022628Y669109D01*
G01X-5005610Y663267D01*
G01X-4999768Y657679D01*
G01X-4994180Y646249D01*
G01X-4994180Y634819D01*
G01X-4999768Y623389D01*
G01X-5005610Y617547D01*
G01X-5022628Y611959D01*
G01X-5074190Y611959D01*
G01X-5034058Y611959D02*
G01X-4994180Y548967D01*
G01X-4917726Y628977D02*
G01X-4929156Y623389D01*
G01X-4940586Y611959D01*
G01X-4946428Y594687D01*
G01X-4946428Y583257D01*
G01X-4940586Y566239D01*
G01X-4929156Y554809D01*
G01X-4917726Y548967D01*
G01X-4900708Y548967D01*
G01X-4889278Y554809D01*
G01X-4877848Y566239D01*
G01X-4872006Y583257D01*
G01X-4872006Y594687D01*
G01X-4877848Y611959D01*
G01X-4889278Y623389D01*
G01X-4900708Y628977D01*
G01X-4917726Y628977D01*
G01X-4824254Y628977D02*
G01X-4824254Y571827D01*
G01X-4818412Y554809D01*
G01X-4806982Y548967D01*
G01X-4789964Y548967D01*
G01X-4778534Y554809D01*
G01X-4761262Y571827D01*
G01X-4761262Y628977D02*
G01X-4761262Y548967D01*
G01X-4713510Y628977D02*
G01X-4713510Y548967D01*
G01X-4713510Y606117D02*
G01X-4696238Y623389D01*
G01X-4684808Y628977D01*
G01X-4667790Y628977D01*
G01X-4656360Y623389D01*
G01X-4650518Y606117D01*
G01X-4650518Y548967D01*
G01X-4534186Y669109D02*
G01X-4534186Y548967D01*
G01X-4534186Y611959D02*
G01X-4545616Y623389D01*
G01X-4557046Y628977D01*
G01X-4574064Y628977D01*
G01X-4585494Y623389D01*
G01X-4596924Y611959D01*
G01X-4602766Y594687D01*
G01X-4602766Y583257D01*
G01X-4596924Y566239D01*
G01X-4585494Y554809D01*
G01X-4574064Y548967D01*
G01X-4557046Y548967D01*
G01X-4545616Y554809D01*
G01X-4534186Y566239D01*
G01X-3643009Y669109D02*
G01X-3643009Y548967D01*
G01X-3643009Y669109D02*
G01X-3591447Y669109D01*
G01X-3574429Y663267D01*
G01X-3568587Y657679D01*
G01X-3562999Y646249D01*
G01X-3562999Y628977D01*
G01X-3568587Y617547D01*
G01X-3574429Y611959D01*
G01X-3591447Y606117D01*
G01X-3643009Y606117D01*
G01X-3446667Y628977D02*
G01X-3446667Y548967D01*
G01X-3446667Y611959D02*
G01X-3458097Y623389D01*
G01X-3469527Y628977D01*
G01X-3486545Y628977D01*
G01X-3497975Y623389D01*
G01X-3509405Y611959D01*
G01X-3515247Y594687D01*
G01X-3515247Y583257D01*
G01X-3509405Y566239D01*
G01X-3497975Y554809D01*
G01X-3486545Y548967D01*
G01X-3469527Y548967D01*
G01X-3458097Y554809D01*
G01X-3446667Y566239D01*
G01X-3330335Y669109D02*
G01X-3330335Y548967D01*
G01X-3330335Y611959D02*
G01X-3341765Y623389D01*
G01X-3353195Y628977D01*
G01X-3370213Y628977D01*
G01X-3381643Y623389D01*
G01X-3393073Y611959D01*
G01X-3398915Y594687D01*
G01X-3398915Y583257D01*
G01X-3393073Y566239D01*
G01X-3381643Y554809D01*
G01X-3370213Y548967D01*
G01X-3353195Y548967D01*
G01X-3341765Y554809D01*
G01X-3330335Y566239D01*
G01X-1933698Y691969D02*
G01X-1945128Y680539D01*
G01X-1956558Y663267D01*
G01X-1967988Y640407D01*
G01X-1973830Y611959D01*
G01X-1973830Y589099D01*
G01X-1967988Y560397D01*
G01X-1956558Y537537D01*
G01X-1945128Y520519D01*
G01X-1933698Y509089D01*
G01X-1885946Y669109D02*
G01X-1885946Y548967D01*
G01X-1885946Y669109D02*
G01X-1840226Y548967D01*
G01X-1794506Y669109D02*
G01X-1840226Y548967D01*
G01X-1794506Y669109D02*
G01X-1794506Y548967D01*
G01X-1746754Y669109D02*
G01X-1740912Y663267D01*
G01X-1735324Y669109D01*
G01X-1740912Y674697D01*
G01X-1746754Y669109D01*
G01X-1740912Y628977D02*
G01X-1740912Y548967D01*
G01X-1687572Y628977D02*
G01X-1624580Y548967D01*
G01X-1624580Y628977D02*
G01X-1687572Y548967D01*
G01X-1576828Y594687D02*
G01X-1508248Y594687D01*
G01X-1508248Y606117D01*
G01X-1513836Y617547D01*
G01X-1519678Y623389D01*
G01X-1531108Y628977D01*
G01X-1548126Y628977D01*
G01X-1559556Y623389D01*
G01X-1570986Y611959D01*
G01X-1576828Y594687D01*
G01X-1576828Y583257D01*
G01X-1570986Y566239D01*
G01X-1559556Y554809D01*
G01X-1548126Y548967D01*
G01X-1531108Y548967D01*
G01X-1519678Y554809D01*
G01X-1508248Y566239D01*
G01X-1391916Y669109D02*
G01X-1391916Y548967D01*
G01X-1391916Y611959D02*
G01X-1403346Y623389D01*
G01X-1414776Y628977D01*
G01X-1431794Y628977D01*
G01X-1443224Y623389D01*
G01X-1454654Y611959D01*
G01X-1460496Y594687D01*
G01X-1460496Y583257D01*
G01X-1454654Y566239D01*
G01X-1443224Y554809D01*
G01X-1431794Y548967D01*
G01X-1414776Y548967D01*
G01X-1403346Y554809D01*
G01X-1391916Y566239D01*
G01X-1344164Y691969D02*
G01X-1332734Y680539D01*
G01X-1321304Y663267D01*
G01X-1309874Y640407D01*
G01X-1304032Y611959D01*
G01X-1304032Y589099D01*
G01X-1309874Y560397D01*
G01X-1321304Y537537D01*
G01X-1332734Y520519D01*
G01X-1344164Y509089D01*
G01X-14329Y669109D02*
G01X-14329Y548967D01*
G01X-54461Y669109D02*
G01X25549Y669109D01*
G01X102003Y628977D02*
G01X90573Y623389D01*
G01X79143Y611959D01*
G01X73301Y594687D01*
G01X73301Y583257D01*
G01X79143Y566239D01*
G01X90573Y554809D01*
G01X102003Y548967D01*
G01X119021Y548967D01*
G01X130451Y554809D01*
G01X141881Y566239D01*
G01X147723Y583257D01*
G01X147723Y594687D01*
G01X141881Y611959D01*
G01X130451Y623389D01*
G01X119021Y628977D01*
G01X102003Y628977D01*
G01X195475Y628977D02*
G01X195475Y509089D01*
G01X195475Y611959D02*
G01X206905Y623389D01*
G01X218335Y628977D01*
G01X235607Y628977D01*
G01X247037Y623389D01*
G01X258467Y611959D01*
G01X264055Y594687D01*
G01X264055Y583257D01*
G01X258467Y566239D01*
G01X247037Y554809D01*
G01X235607Y548967D01*
G01X218335Y548967D01*
G01X206905Y554809D01*
G01X195475Y566239D01*
G01X439823Y669109D02*
G01X439823Y548967D01*
G01X439823Y548967D02*
G01X508403Y548967D01*
G01X624735Y628977D02*
G01X624735Y548967D01*
G01X624735Y611959D02*
G01X613305Y623389D01*
G01X601875Y628977D01*
G01X584857Y628977D01*
G01X573427Y623389D01*
G01X561997Y611959D01*
G01X556155Y594687D01*
G01X556155Y583257D01*
G01X561997Y566239D01*
G01X573427Y554809D01*
G01X584857Y548967D01*
G01X601875Y548967D01*
G01X613305Y554809D01*
G01X624735Y566239D01*
G01X678329Y628977D02*
G01X712619Y548967D01*
G01X746909Y628977D02*
G01X712619Y548967D01*
G01X701189Y526107D01*
G01X689759Y514677D01*
G01X678329Y509089D01*
G01X672487Y509089D01*
G01X794661Y594687D02*
G01X863241Y594687D01*
G01X863241Y606117D01*
G01X857653Y617547D01*
G01X851811Y623389D01*
G01X840381Y628977D01*
G01X823363Y628977D01*
G01X811933Y623389D01*
G01X800503Y611959D01*
G01X794661Y594687D01*
G01X794661Y583257D01*
G01X800503Y566239D01*
G01X811933Y554809D01*
G01X823363Y548967D01*
G01X840381Y548967D01*
G01X851811Y554809D01*
G01X863241Y566239D01*
G01X910993Y628977D02*
G01X910993Y548967D01*
G01X910993Y594687D02*
G01X916835Y611959D01*
G01X928265Y623389D01*
G01X939695Y628977D01*
G01X956713Y628977D01*
G01X1004465Y600529D02*
G01X1107335Y600529D01*
G01X1155087Y669109D02*
G01X1155087Y548967D01*
G01X1155087Y669109D02*
G01X1206649Y669109D01*
G01X1223667Y663267D01*
G01X1229509Y657679D01*
G01X1235097Y646249D01*
G01X1235097Y634819D01*
G01X1229509Y623389D01*
G01X1223667Y617547D01*
G01X1206649Y611959D01*
G01X1155087Y611959D02*
G01X1206649Y611959D01*
G01X1223667Y606117D01*
G01X1229509Y600529D01*
G01X1235097Y589099D01*
G01X1235097Y571827D01*
G01X1229509Y560397D01*
G01X1223667Y554809D01*
G01X1206649Y548967D01*
G01X1155087Y548967D01*
G01X1311551Y628977D02*
G01X1300121Y623389D01*
G01X1288691Y611959D01*
G01X1282849Y594687D01*
G01X1282849Y583257D01*
G01X1288691Y566239D01*
G01X1300121Y554809D01*
G01X1311551Y548967D01*
G01X1328569Y548967D01*
G01X1339999Y554809D01*
G01X1351429Y566239D01*
G01X1357271Y583257D01*
G01X1357271Y594687D01*
G01X1351429Y611959D01*
G01X1339999Y623389D01*
G01X1328569Y628977D01*
G01X1311551Y628977D01*
G01X1422295Y669109D02*
G01X1422295Y571827D01*
G01X1427883Y554809D01*
G01X1439313Y548967D01*
G01X1450743Y548967D01*
G01X1405023Y628977D02*
G01X1445155Y628977D01*
G01X1515767Y669109D02*
G01X1515767Y571827D01*
G01X1521355Y554809D01*
G01X1532785Y548967D01*
G01X1544215Y548967D01*
G01X1498495Y628977D02*
G01X1538627Y628977D01*
G01X1620669Y628977D02*
G01X1609239Y623389D01*
G01X1597809Y611959D01*
G01X1591967Y594687D01*
G01X1591967Y583257D01*
G01X1597809Y566239D01*
G01X1609239Y554809D01*
G01X1620669Y548967D01*
G01X1637687Y548967D01*
G01X1649117Y554809D01*
G01X1660547Y566239D01*
G01X1666389Y583257D01*
G01X1666389Y594687D01*
G01X1660547Y611959D01*
G01X1649117Y623389D01*
G01X1637687Y628977D01*
G01X1620669Y628977D01*
G01X1714141Y628977D02*
G01X1714141Y548967D01*
G01X1714141Y606117D02*
G01X1731413Y623389D01*
G01X1742843Y628977D01*
G01X1759861Y628977D01*
G01X1771291Y623389D01*
G01X1777133Y606117D01*
G01X1777133Y548967D01*
G01X1777133Y606117D02*
G01X1794151Y623389D01*
G01X1805581Y628977D01*
G01X1822853Y628977D01*
G01X1834283Y623389D01*
G01X1839871Y606117D01*
G01X1839871Y548967D01*
G01X2015639Y669109D02*
G01X2015639Y548967D01*
G01X2015639Y548967D02*
G01X2084219Y548967D01*
G01X2200551Y628977D02*
G01X2200551Y548967D01*
G01X2200551Y611959D02*
G01X2189121Y623389D01*
G01X2177691Y628977D01*
G01X2160673Y628977D01*
G01X2149243Y623389D01*
G01X2137813Y611959D01*
G01X2131971Y594687D01*
G01X2131971Y583257D01*
G01X2137813Y566239D01*
G01X2149243Y554809D01*
G01X2160673Y548967D01*
G01X2177691Y548967D01*
G01X2189121Y554809D01*
G01X2200551Y566239D01*
G01X2254145Y628977D02*
G01X2288435Y548967D01*
G01X2322725Y628977D02*
G01X2288435Y548967D01*
G01X2277005Y526107D01*
G01X2265575Y514677D01*
G01X2254145Y509089D01*
G01X2248303Y509089D01*
G01X2370477Y594687D02*
G01X2439057Y594687D01*
G01X2439057Y606117D01*
G01X2433469Y617547D01*
G01X2427627Y623389D01*
G01X2416197Y628977D01*
G01X2399179Y628977D01*
G01X2387749Y623389D01*
G01X2376319Y611959D01*
G01X2370477Y594687D01*
G01X2370477Y583257D01*
G01X2376319Y566239D01*
G01X2387749Y554809D01*
G01X2399179Y548967D01*
G01X2416197Y548967D01*
G01X2427627Y554809D01*
G01X2439057Y566239D01*
G01X2486809Y628977D02*
G01X2486809Y548967D01*
G01X2486809Y594687D02*
G01X2492651Y611959D01*
G01X2504081Y623389D01*
G01X2515511Y628977D01*
G01X2532529Y628977D01*
G01X-11786576Y88537D02*
G01X-11843726Y8527D01*
G01X-11757874Y8527D01*
G01X-11786576Y88537D02*
G01X-11786576Y-31605D01*
G01X-11681420Y88537D02*
G01X-11698692Y82695D01*
G01X-11704280Y71265D01*
G01X-11704280Y59835D01*
G01X-11698692Y48405D01*
G01X-11687262Y42817D01*
G01X-11664402Y36975D01*
G01X-11647130Y31387D01*
G01X-11635700Y19957D01*
G01X-11630112Y8527D01*
G01X-11630112Y-8745D01*
G01X-11635700Y-20175D01*
G01X-11641542Y-25763D01*
G01X-11658560Y-31605D01*
G01X-11681420Y-31605D01*
G01X-11698692Y-25763D01*
G01X-11704280Y-20175D01*
G01X-11710122Y-8745D01*
G01X-11710122Y8527D01*
G01X-11704280Y19957D01*
G01X-11692850Y31387D01*
G01X-11675832Y36975D01*
G01X-11652972Y42817D01*
G01X-11641542Y48405D01*
G01X-11635700Y59835D01*
G01X-11635700Y71265D01*
G01X-11641542Y82695D01*
G01X-11658560Y88537D01*
G01X-11681420Y88537D01*
G01X-10418133Y88537D02*
G01X-10355141Y88537D01*
G01X-10389431Y42817D01*
G01X-10372413Y42817D01*
G01X-10360983Y36975D01*
G01X-10355141Y31387D01*
G01X-10349553Y14115D01*
G01X-10349553Y2685D01*
G01X-10355141Y-14333D01*
G01X-10366571Y-25763D01*
G01X-10383843Y-31605D01*
G01X-10400861Y-31605D01*
G01X-10418133Y-25763D01*
G01X-10423721Y-20175D01*
G01X-10429563Y-8745D01*
G01X-10233221Y88537D02*
G01X-10290371Y88537D01*
G01X-10295959Y36975D01*
G01X-10290371Y42817D01*
G01X-10273099Y48405D01*
G01X-10256081Y48405D01*
G01X-10238809Y42817D01*
G01X-10227379Y31387D01*
G01X-10221791Y14115D01*
G01X-10221791Y2685D01*
G01X-10227379Y-14333D01*
G01X-10238809Y-25763D01*
G01X-10256081Y-31605D01*
G01X-10273099Y-31605D01*
G01X-10290371Y-25763D01*
G01X-10295959Y-20175D01*
G01X-10301801Y-8745D01*
G01X-10168197Y-2903D02*
G01X-10174039Y-8745D01*
G01X-10168197Y-14333D01*
G01X-10162609Y-8745D01*
G01X-10168197Y-2903D01*
G01X-10057707Y88537D02*
G01X-10114857Y8527D01*
G01X-10029005Y8527D01*
G01X-10057707Y88537D02*
G01X-10057707Y-31605D01*
G01X-9981253Y48405D02*
G01X-9918261Y-31605D01*
G01X-9918261Y48405D02*
G01X-9981253Y-31605D01*
G01X-9859079Y88537D02*
G01X-9796087Y88537D01*
G01X-9830377Y42817D01*
G01X-9813359Y42817D01*
G01X-9801929Y36975D01*
G01X-9796087Y31387D01*
G01X-9790499Y14115D01*
G01X-9790499Y2685D01*
G01X-9796087Y-14333D01*
G01X-9807517Y-25763D01*
G01X-9824789Y-31605D01*
G01X-9841807Y-31605D01*
G01X-9859079Y-25763D01*
G01X-9864667Y-20175D01*
G01X-9870509Y-8745D01*
G01X-9674167Y88537D02*
G01X-9731317Y88537D01*
G01X-9736905Y36975D01*
G01X-9731317Y42817D01*
G01X-9714045Y48405D01*
G01X-9697027Y48405D01*
G01X-9679755Y42817D01*
G01X-9668325Y31387D01*
G01X-9662737Y14115D01*
G01X-9662737Y2685D01*
G01X-9668325Y-14333D01*
G01X-9679755Y-25763D01*
G01X-9697027Y-31605D01*
G01X-9714045Y-31605D01*
G01X-9731317Y-25763D01*
G01X-9736905Y-20175D01*
G01X-9742747Y-8745D01*
G01X-9609143Y-2903D02*
G01X-9614985Y-8745D01*
G01X-9609143Y-14333D01*
G01X-9603555Y-8745D01*
G01X-9609143Y-2903D01*
G01X-9498653Y88537D02*
G01X-9555803Y8527D01*
G01X-9469951Y8527D01*
G01X-9498653Y88537D02*
G01X-9498653Y-31605D01*
G01X-9422199Y48405D02*
G01X-9422199Y-31605D01*
G01X-9422199Y25545D02*
G01X-9404927Y42817D01*
G01X-9393497Y48405D01*
G01X-9376479Y48405D01*
G01X-9365049Y42817D01*
G01X-9359207Y25545D01*
G01X-9359207Y-31605D01*
G01X-9359207Y25545D02*
G01X-9342189Y42817D01*
G01X-9330759Y48405D01*
G01X-9313487Y48405D01*
G01X-9302057Y42817D01*
G01X-9296469Y25545D01*
G01X-9296469Y-31605D01*
G01X-9248717Y88537D02*
G01X-9242875Y82695D01*
G01X-9237287Y88537D01*
G01X-9242875Y94125D01*
G01X-9248717Y88537D01*
G01X-9242875Y48405D02*
G01X-9242875Y-31605D01*
G01X-9189535Y88537D02*
G01X-9189535Y-31605D01*
G01X-9101651Y111397D02*
G01X-9113081Y99967D01*
G01X-9124511Y82695D01*
G01X-9135941Y59835D01*
G01X-9141783Y31387D01*
G01X-9141783Y8527D01*
G01X-9135941Y-20175D01*
G01X-9124511Y-43035D01*
G01X-9113081Y-60053D01*
G01X-9101651Y-71483D01*
G01X-9019609Y88537D02*
G01X-9036627Y82695D01*
G01X-9048057Y65677D01*
G01X-9053899Y36975D01*
G01X-9053899Y19957D01*
G01X-9048057Y-8745D01*
G01X-9036627Y-25763D01*
G01X-9019609Y-31605D01*
G01X-9008179Y-31605D01*
G01X-8990907Y-25763D01*
G01X-8979477Y-8745D01*
G01X-8973889Y19957D01*
G01X-8973889Y36975D01*
G01X-8979477Y65677D01*
G01X-8990907Y82695D01*
G01X-9008179Y88537D01*
G01X-9019609Y88537D01*
G01X-8920295Y-2903D02*
G01X-8926137Y-8745D01*
G01X-8920295Y-14333D01*
G01X-8914707Y-8745D01*
G01X-8920295Y-2903D01*
G01X-8792533Y48405D02*
G01X-8798375Y31387D01*
G01X-8809805Y19957D01*
G01X-8826823Y14115D01*
G01X-8832665Y14115D01*
G01X-8849683Y19957D01*
G01X-8861113Y31387D01*
G01X-8866955Y48405D01*
G01X-8866955Y54247D01*
G01X-8861113Y71265D01*
G01X-8849683Y82695D01*
G01X-8832665Y88537D01*
G01X-8826823Y88537D01*
G01X-8809805Y82695D01*
G01X-8798375Y71265D01*
G01X-8792533Y48405D01*
G01X-8792533Y19957D01*
G01X-8798375Y-8745D01*
G01X-8809805Y-25763D01*
G01X-8826823Y-31605D01*
G01X-8838253Y-31605D01*
G01X-8855525Y-25763D01*
G01X-8861113Y-14333D01*
G01X-8710491Y88537D02*
G01X-8727509Y82695D01*
G01X-8738939Y65677D01*
G01X-8744781Y36975D01*
G01X-8744781Y19957D01*
G01X-8738939Y-8745D01*
G01X-8727509Y-25763D01*
G01X-8710491Y-31605D01*
G01X-8699061Y-31605D01*
G01X-8681789Y-25763D01*
G01X-8670359Y-8745D01*
G01X-8664771Y19957D01*
G01X-8664771Y36975D01*
G01X-8670359Y65677D01*
G01X-8681789Y82695D01*
G01X-8699061Y88537D01*
G01X-8710491Y88537D01*
G01X-8582729Y88537D02*
G01X-8599747Y82695D01*
G01X-8611177Y65677D01*
G01X-8617019Y36975D01*
G01X-8617019Y19957D01*
G01X-8611177Y-8745D01*
G01X-8599747Y-25763D01*
G01X-8582729Y-31605D01*
G01X-8571299Y-31605D01*
G01X-8554027Y-25763D01*
G01X-8542597Y-8745D01*
G01X-8537009Y19957D01*
G01X-8537009Y36975D01*
G01X-8542597Y65677D01*
G01X-8554027Y82695D01*
G01X-8571299Y88537D01*
G01X-8582729Y88537D01*
G01X-8489257Y48405D02*
G01X-8426265Y-31605D01*
G01X-8426265Y48405D02*
G01X-8489257Y-31605D01*
G01X-8344223Y88537D02*
G01X-8361241Y82695D01*
G01X-8372671Y65677D01*
G01X-8378513Y36975D01*
G01X-8378513Y19957D01*
G01X-8372671Y-8745D01*
G01X-8361241Y-25763D01*
G01X-8344223Y-31605D01*
G01X-8332793Y-31605D01*
G01X-8315521Y-25763D01*
G01X-8304091Y-8745D01*
G01X-8298503Y19957D01*
G01X-8298503Y36975D01*
G01X-8304091Y65677D01*
G01X-8315521Y82695D01*
G01X-8332793Y88537D01*
G01X-8344223Y88537D01*
G01X-8244909Y-2903D02*
G01X-8250751Y-8745D01*
G01X-8244909Y-14333D01*
G01X-8239321Y-8745D01*
G01X-8244909Y-2903D01*
G01X-8117147Y48405D02*
G01X-8122989Y31387D01*
G01X-8134419Y19957D01*
G01X-8151437Y14115D01*
G01X-8157279Y14115D01*
G01X-8174297Y19957D01*
G01X-8185727Y31387D01*
G01X-8191569Y48405D01*
G01X-8191569Y54247D01*
G01X-8185727Y71265D01*
G01X-8174297Y82695D01*
G01X-8157279Y88537D01*
G01X-8151437Y88537D01*
G01X-8134419Y82695D01*
G01X-8122989Y71265D01*
G01X-8117147Y48405D01*
G01X-8117147Y19957D01*
G01X-8122989Y-8745D01*
G01X-8134419Y-25763D01*
G01X-8151437Y-31605D01*
G01X-8162867Y-31605D01*
G01X-8180139Y-25763D01*
G01X-8185727Y-14333D01*
G01X-8035105Y88537D02*
G01X-8052123Y82695D01*
G01X-8063553Y65677D01*
G01X-8069395Y36975D01*
G01X-8069395Y19957D01*
G01X-8063553Y-8745D01*
G01X-8052123Y-25763D01*
G01X-8035105Y-31605D01*
G01X-8023675Y-31605D01*
G01X-8006403Y-25763D01*
G01X-7994973Y-8745D01*
G01X-7989385Y19957D01*
G01X-7989385Y36975D01*
G01X-7994973Y65677D01*
G01X-8006403Y82695D01*
G01X-8023675Y88537D01*
G01X-8035105Y88537D01*
G01X-7907343Y88537D02*
G01X-7924361Y82695D01*
G01X-7935791Y65677D01*
G01X-7941633Y36975D01*
G01X-7941633Y19957D01*
G01X-7935791Y-8745D01*
G01X-7924361Y-25763D01*
G01X-7907343Y-31605D01*
G01X-7895913Y-31605D01*
G01X-7878641Y-25763D01*
G01X-7867211Y-8745D01*
G01X-7861623Y19957D01*
G01X-7861623Y36975D01*
G01X-7867211Y65677D01*
G01X-7878641Y82695D01*
G01X-7895913Y88537D01*
G01X-7907343Y88537D01*
G01X-7813871Y48405D02*
G01X-7813871Y-31605D01*
G01X-7813871Y25545D02*
G01X-7796599Y42817D01*
G01X-7785169Y48405D01*
G01X-7768151Y48405D01*
G01X-7756721Y42817D01*
G01X-7750879Y25545D01*
G01X-7750879Y-31605D01*
G01X-7750879Y25545D02*
G01X-7733861Y42817D01*
G01X-7722431Y48405D01*
G01X-7705159Y48405D01*
G01X-7693729Y42817D01*
G01X-7688141Y25545D01*
G01X-7688141Y-31605D01*
G01X-7640389Y48405D02*
G01X-7640389Y-31605D01*
G01X-7640389Y25545D02*
G01X-7623117Y42817D01*
G01X-7611687Y48405D01*
G01X-7594669Y48405D01*
G01X-7583239Y42817D01*
G01X-7577397Y25545D01*
G01X-7577397Y-31605D01*
G01X-7577397Y25545D02*
G01X-7560379Y42817D01*
G01X-7548949Y48405D01*
G01X-7531677Y48405D01*
G01X-7520247Y42817D01*
G01X-7514659Y25545D01*
G01X-7514659Y-31605D01*
G01X-7466907Y111397D02*
G01X-7455477Y99967D01*
G01X-7444047Y82695D01*
G01X-7432617Y59835D01*
G01X-7426775Y31387D01*
G01X-7426775Y8527D01*
G01X-7432617Y-20175D01*
G01X-7444047Y-43035D01*
G01X-7455477Y-60053D01*
G01X-7466907Y-71483D01*
G01X-6535597Y88537D02*
G01X-6535597Y-31605D01*
G01X-6535597Y88537D02*
G01X-6484035Y88537D01*
G01X-6467017Y82695D01*
G01X-6461175Y77107D01*
G01X-6455587Y65677D01*
G01X-6455587Y48405D01*
G01X-6461175Y36975D01*
G01X-6467017Y31387D01*
G01X-6484035Y25545D01*
G01X-6535597Y25545D01*
G01X-6367703Y88537D02*
G01X-6367703Y-31605D01*
G01X-6407835Y88537D02*
G01X-6327825Y88537D01*
G01X-6280073Y88537D02*
G01X-6280073Y-31605D01*
G01X-6200063Y88537D02*
G01X-6200063Y-31605D01*
G01X-6280073Y31387D02*
G01X-6200063Y31387D01*
G01X-5074190Y88537D02*
G01X-5074190Y-31605D01*
G01X-5074190Y88537D02*
G01X-5022628Y88537D01*
G01X-5005610Y82695D01*
G01X-4999768Y77107D01*
G01X-4994180Y65677D01*
G01X-4994180Y54247D01*
G01X-4999768Y42817D01*
G01X-5005610Y36975D01*
G01X-5022628Y31387D01*
G01X-5074190Y31387D01*
G01X-5034058Y31387D02*
G01X-4994180Y-31605D01*
G01X-4917726Y48405D02*
G01X-4929156Y42817D01*
G01X-4940586Y31387D01*
G01X-4946428Y14115D01*
G01X-4946428Y2685D01*
G01X-4940586Y-14333D01*
G01X-4929156Y-25763D01*
G01X-4917726Y-31605D01*
G01X-4900708Y-31605D01*
G01X-4889278Y-25763D01*
G01X-4877848Y-14333D01*
G01X-4872006Y2685D01*
G01X-4872006Y14115D01*
G01X-4877848Y31387D01*
G01X-4889278Y42817D01*
G01X-4900708Y48405D01*
G01X-4917726Y48405D01*
G01X-4824254Y48405D02*
G01X-4824254Y-8745D01*
G01X-4818412Y-25763D01*
G01X-4806982Y-31605D01*
G01X-4789964Y-31605D01*
G01X-4778534Y-25763D01*
G01X-4761262Y-8745D01*
G01X-4761262Y48405D02*
G01X-4761262Y-31605D01*
G01X-4713510Y48405D02*
G01X-4713510Y-31605D01*
G01X-4713510Y25545D02*
G01X-4696238Y42817D01*
G01X-4684808Y48405D01*
G01X-4667790Y48405D01*
G01X-4656360Y42817D01*
G01X-4650518Y25545D01*
G01X-4650518Y-31605D01*
G01X-4534186Y88537D02*
G01X-4534186Y-31605D01*
G01X-4534186Y31387D02*
G01X-4545616Y42817D01*
G01X-4557046Y48405D01*
G01X-4574064Y48405D01*
G01X-4585494Y42817D01*
G01X-4596924Y31387D01*
G01X-4602766Y14115D01*
G01X-4602766Y2685D01*
G01X-4596924Y-14333D01*
G01X-4585494Y-25763D01*
G01X-4574064Y-31605D01*
G01X-4557046Y-31605D01*
G01X-4545616Y-25763D01*
G01X-4534186Y-14333D01*
G01X-3643009Y88537D02*
G01X-3643009Y-31605D01*
G01X-3643009Y88537D02*
G01X-3591447Y88537D01*
G01X-3574429Y82695D01*
G01X-3568587Y77107D01*
G01X-3562999Y65677D01*
G01X-3562999Y48405D01*
G01X-3568587Y36975D01*
G01X-3574429Y31387D01*
G01X-3591447Y25545D01*
G01X-3643009Y25545D01*
G01X-3446667Y48405D02*
G01X-3446667Y-31605D01*
G01X-3446667Y31387D02*
G01X-3458097Y42817D01*
G01X-3469527Y48405D01*
G01X-3486545Y48405D01*
G01X-3497975Y42817D01*
G01X-3509405Y31387D01*
G01X-3515247Y14115D01*
G01X-3515247Y2685D01*
G01X-3509405Y-14333D01*
G01X-3497975Y-25763D01*
G01X-3486545Y-31605D01*
G01X-3469527Y-31605D01*
G01X-3458097Y-25763D01*
G01X-3446667Y-14333D01*
G01X-3330335Y88537D02*
G01X-3330335Y-31605D01*
G01X-3330335Y31387D02*
G01X-3341765Y42817D01*
G01X-3353195Y48405D01*
G01X-3370213Y48405D01*
G01X-3381643Y42817D01*
G01X-3393073Y31387D01*
G01X-3398915Y14115D01*
G01X-3398915Y2685D01*
G01X-3393073Y-14333D01*
G01X-3381643Y-25763D01*
G01X-3370213Y-31605D01*
G01X-3353195Y-31605D01*
G01X-3341765Y-25763D01*
G01X-3330335Y-14333D01*
G01X-1973830Y88537D02*
G01X-1973830Y-31605D01*
G01X-1973830Y88537D02*
G01X-1922268Y88537D01*
G01X-1905250Y82695D01*
G01X-1899408Y77107D01*
G01X-1893820Y65677D01*
G01X-1893820Y54247D01*
G01X-1899408Y42817D01*
G01X-1905250Y36975D01*
G01X-1922268Y31387D01*
G01X-1973830Y31387D01*
G01X-1933698Y31387D02*
G01X-1893820Y-31605D01*
G01X-1817366Y48405D02*
G01X-1828796Y42817D01*
G01X-1840226Y31387D01*
G01X-1846068Y14115D01*
G01X-1846068Y2685D01*
G01X-1840226Y-14333D01*
G01X-1828796Y-25763D01*
G01X-1817366Y-31605D01*
G01X-1800348Y-31605D01*
G01X-1788918Y-25763D01*
G01X-1777488Y-14333D01*
G01X-1771646Y2685D01*
G01X-1771646Y14115D01*
G01X-1777488Y31387D01*
G01X-1788918Y42817D01*
G01X-1800348Y48405D01*
G01X-1817366Y48405D01*
G01X-1723894Y48405D02*
G01X-1723894Y-8745D01*
G01X-1718052Y-25763D01*
G01X-1706622Y-31605D01*
G01X-1689604Y-31605D01*
G01X-1678174Y-25763D01*
G01X-1660902Y-8745D01*
G01X-1660902Y48405D02*
G01X-1660902Y-31605D01*
G01X-1613150Y48405D02*
G01X-1613150Y-31605D01*
G01X-1613150Y25545D02*
G01X-1595878Y42817D01*
G01X-1584448Y48405D01*
G01X-1567430Y48405D01*
G01X-1556000Y42817D01*
G01X-1550158Y25545D01*
G01X-1550158Y-31605D01*
G01X-1433826Y88537D02*
G01X-1433826Y-31605D01*
G01X-1433826Y31387D02*
G01X-1445256Y42817D01*
G01X-1456686Y48405D01*
G01X-1473704Y48405D01*
G01X-1485134Y42817D01*
G01X-1496564Y31387D01*
G01X-1502406Y14115D01*
G01X-1502406Y2685D01*
G01X-1496564Y-14333D01*
G01X-1485134Y-25763D01*
G01X-1473704Y-31605D01*
G01X-1456686Y-31605D01*
G01X-1445256Y-25763D01*
G01X-1433826Y-14333D01*
G01X-14329Y88537D02*
G01X-14329Y-31605D01*
G01X-54461Y88537D02*
G01X25549Y88537D01*
G01X102003Y48405D02*
G01X90573Y42817D01*
G01X79143Y31387D01*
G01X73301Y14115D01*
G01X73301Y2685D01*
G01X79143Y-14333D01*
G01X90573Y-25763D01*
G01X102003Y-31605D01*
G01X119021Y-31605D01*
G01X130451Y-25763D01*
G01X141881Y-14333D01*
G01X147723Y2685D01*
G01X147723Y14115D01*
G01X141881Y31387D01*
G01X130451Y42817D01*
G01X119021Y48405D01*
G01X102003Y48405D01*
G01X195475Y48405D02*
G01X195475Y-71483D01*
G01X195475Y31387D02*
G01X206905Y42817D01*
G01X218335Y48405D01*
G01X235607Y48405D01*
G01X247037Y42817D01*
G01X258467Y31387D01*
G01X264055Y14115D01*
G01X264055Y2685D01*
G01X258467Y-14333D01*
G01X247037Y-25763D01*
G01X235607Y-31605D01*
G01X218335Y-31605D01*
G01X206905Y-25763D01*
G01X195475Y-14333D01*
G01X439823Y88537D02*
G01X439823Y-31605D01*
G01X439823Y-31605D02*
G01X508403Y-31605D01*
G01X624735Y48405D02*
G01X624735Y-31605D01*
G01X624735Y31387D02*
G01X613305Y42817D01*
G01X601875Y48405D01*
G01X584857Y48405D01*
G01X573427Y42817D01*
G01X561997Y31387D01*
G01X556155Y14115D01*
G01X556155Y2685D01*
G01X561997Y-14333D01*
G01X573427Y-25763D01*
G01X584857Y-31605D01*
G01X601875Y-31605D01*
G01X613305Y-25763D01*
G01X624735Y-14333D01*
G01X678329Y48405D02*
G01X712619Y-31605D01*
G01X746909Y48405D02*
G01X712619Y-31605D01*
G01X701189Y-54465D01*
G01X689759Y-65895D01*
G01X678329Y-71483D01*
G01X672487Y-71483D01*
G01X794661Y14115D02*
G01X863241Y14115D01*
G01X863241Y25545D01*
G01X857653Y36975D01*
G01X851811Y42817D01*
G01X840381Y48405D01*
G01X823363Y48405D01*
G01X811933Y42817D01*
G01X800503Y31387D01*
G01X794661Y14115D01*
G01X794661Y2685D01*
G01X800503Y-14333D01*
G01X811933Y-25763D01*
G01X823363Y-31605D01*
G01X840381Y-31605D01*
G01X851811Y-25763D01*
G01X863241Y-14333D01*
G01X910993Y48405D02*
G01X910993Y-31605D01*
G01X910993Y14115D02*
G01X916835Y31387D01*
G01X928265Y42817D01*
G01X939695Y48405D01*
G01X956713Y48405D01*
G01X1004465Y19957D02*
G01X1107335Y19957D01*
G01X1155087Y88537D02*
G01X1155087Y-31605D01*
G01X1155087Y88537D02*
G01X1206649Y88537D01*
G01X1223667Y82695D01*
G01X1229509Y77107D01*
G01X1235097Y65677D01*
G01X1235097Y54247D01*
G01X1229509Y42817D01*
G01X1223667Y36975D01*
G01X1206649Y31387D01*
G01X1155087Y31387D02*
G01X1206649Y31387D01*
G01X1223667Y25545D01*
G01X1229509Y19957D01*
G01X1235097Y8527D01*
G01X1235097Y-8745D01*
G01X1229509Y-20175D01*
G01X1223667Y-25763D01*
G01X1206649Y-31605D01*
G01X1155087Y-31605D01*
G01X1311551Y48405D02*
G01X1300121Y42817D01*
G01X1288691Y31387D01*
G01X1282849Y14115D01*
G01X1282849Y2685D01*
G01X1288691Y-14333D01*
G01X1300121Y-25763D01*
G01X1311551Y-31605D01*
G01X1328569Y-31605D01*
G01X1339999Y-25763D01*
G01X1351429Y-14333D01*
G01X1357271Y2685D01*
G01X1357271Y14115D01*
G01X1351429Y31387D01*
G01X1339999Y42817D01*
G01X1328569Y48405D01*
G01X1311551Y48405D01*
G01X1422295Y88537D02*
G01X1422295Y-8745D01*
G01X1427883Y-25763D01*
G01X1439313Y-31605D01*
G01X1450743Y-31605D01*
G01X1405023Y48405D02*
G01X1445155Y48405D01*
G01X1515767Y88537D02*
G01X1515767Y-8745D01*
G01X1521355Y-25763D01*
G01X1532785Y-31605D01*
G01X1544215Y-31605D01*
G01X1498495Y48405D02*
G01X1538627Y48405D01*
G01X1620669Y48405D02*
G01X1609239Y42817D01*
G01X1597809Y31387D01*
G01X1591967Y14115D01*
G01X1591967Y2685D01*
G01X1597809Y-14333D01*
G01X1609239Y-25763D01*
G01X1620669Y-31605D01*
G01X1637687Y-31605D01*
G01X1649117Y-25763D01*
G01X1660547Y-14333D01*
G01X1666389Y2685D01*
G01X1666389Y14115D01*
G01X1660547Y31387D01*
G01X1649117Y42817D01*
G01X1637687Y48405D01*
G01X1620669Y48405D01*
G01X1714141Y48405D02*
G01X1714141Y-31605D01*
G01X1714141Y25545D02*
G01X1731413Y42817D01*
G01X1742843Y48405D01*
G01X1759861Y48405D01*
G01X1771291Y42817D01*
G01X1777133Y25545D01*
G01X1777133Y-31605D01*
G01X1777133Y25545D02*
G01X1794151Y42817D01*
G01X1805581Y48405D01*
G01X1822853Y48405D01*
G01X1834283Y42817D01*
G01X1839871Y25545D01*
G01X1839871Y-31605D01*
G01X2015639Y88537D02*
G01X2015639Y-31605D01*
G01X2015639Y-31605D02*
G01X2084219Y-31605D01*
G01X2200551Y48405D02*
G01X2200551Y-31605D01*
G01X2200551Y31387D02*
G01X2189121Y42817D01*
G01X2177691Y48405D01*
G01X2160673Y48405D01*
G01X2149243Y42817D01*
G01X2137813Y31387D01*
G01X2131971Y14115D01*
G01X2131971Y2685D01*
G01X2137813Y-14333D01*
G01X2149243Y-25763D01*
G01X2160673Y-31605D01*
G01X2177691Y-31605D01*
G01X2189121Y-25763D01*
G01X2200551Y-14333D01*
G01X2254145Y48405D02*
G01X2288435Y-31605D01*
G01X2322725Y48405D02*
G01X2288435Y-31605D01*
G01X2277005Y-54465D01*
G01X2265575Y-65895D01*
G01X2254145Y-71483D01*
G01X2248303Y-71483D01*
G01X2370477Y14115D02*
G01X2439057Y14115D01*
G01X2439057Y25545D01*
G01X2433469Y36975D01*
G01X2427627Y42817D01*
G01X2416197Y48405D01*
G01X2399179Y48405D01*
G01X2387749Y42817D01*
G01X2376319Y31387D01*
G01X2370477Y14115D01*
G01X2370477Y2685D01*
G01X2376319Y-14333D01*
G01X2387749Y-25763D01*
G01X2399179Y-31605D01*
G01X2416197Y-31605D01*
G01X2427627Y-25763D01*
G01X2439057Y-14333D01*
G01X2486809Y48405D02*
G01X2486809Y-31605D01*
G01X2486809Y14115D02*
G01X2492651Y31387D01*
G01X2504081Y42817D01*
G01X2515511Y48405D01*
G01X2532529Y48405D01*

G04 Image Start*
G36*
G01X-13008337Y488496D02*
G01X-13113951Y499977D01*
G01X-13156826Y402771D01*
G01X-13199701Y499977D01*
G01X-13305314Y488496D01*
G01X-13242551Y574221D01*
G01X-13282273Y628476D01*
G01X-13250780Y628476D01*
G01X-13211080Y574221D01*
G01X-13250780Y519967D01*
G01X-13183953Y527231D01*
G01X-13183953Y527231D01*
G01X-13156826Y465738D01*
G01X-13129699Y527231D01*
G01X-13062871Y519967D01*
G01X-13102571Y574221D01*
G01X-13062897Y628450D01*
G01X-13129724Y621186D01*
G01X-13156826Y682705D01*
G01X-13183953Y621211D01*
G01X-13250780Y628476D01*
G01X-13282273Y628476D01*
G01X-13305314Y659946D01*
G01X-13199676Y648466D01*
G01X-13156826Y745671D01*
G01X-13113951Y648466D01*
G01X-13008337Y659946D01*
G01X-13071101Y574221D01*
G01X-13008337Y488496D01*
G37*
G36*
G01X-13137331Y1602801D02*
G01X-13145071Y1602213D01*
G01X-13152914Y1602014D01*
G01X-13160757Y1602213D01*
G01X-13168498Y1602801D01*
G01X-13176125Y1603770D01*
G01X-13183630Y1605110D01*
G01X-13198236Y1608865D01*
G01X-13212238Y1613990D01*
G01X-13225560Y1620407D01*
G01X-13238126Y1628040D01*
G01X-13249858Y1636813D01*
G01X-13260680Y1646648D01*
G01X-13270516Y1657471D01*
G01X-13279289Y1669203D01*
G01X-13286922Y1681768D01*
G01X-13293339Y1695090D01*
G01X-13298463Y1709092D01*
G01X-13302218Y1723698D01*
G01X-13303558Y1731204D01*
G01X-13304528Y1738831D01*
G01X-13305116Y1746571D01*
G01X-13305314Y1754414D01*
G01X-13279914Y1754414D01*
G01X-13279257Y1741448D01*
G01X-13277330Y1728852D01*
G01X-13274195Y1716690D01*
G01X-13269918Y1705028D01*
G01X-13264563Y1693928D01*
G01X-13258195Y1683457D01*
G01X-13250877Y1673677D01*
G01X-13242675Y1664654D01*
G01X-13233651Y1656451D01*
G01X-13223872Y1649134D01*
G01X-13213400Y1642765D01*
G01X-13202301Y1637410D01*
G01X-13190638Y1633134D01*
G01X-13178477Y1629999D01*
G01X-13178477Y1629999D01*
G01X-13165881Y1628071D01*
G01X-13152914Y1627414D01*
G01X-13139948Y1628071D01*
G01X-13127352Y1629999D01*
G01X-13115190Y1633134D01*
G01X-13103528Y1637410D01*
G01X-13092428Y1642765D01*
G01X-13081957Y1649134D01*
G01X-13072177Y1656451D01*
G01X-13063154Y1664654D01*
G01X-13054951Y1673677D01*
G01X-13047634Y1683457D01*
G01X-13041265Y1693928D01*
G01X-13035910Y1705028D01*
G01X-13031634Y1716690D01*
G01X-13028499Y1728852D01*
G01X-13026571Y1741448D01*
G01X-13025914Y1754414D01*
G01X-13026571Y1767381D01*
G01X-13028499Y1779977D01*
G01X-13031634Y1792138D01*
G01X-13035910Y1803801D01*
G01X-13041265Y1814900D01*
G01X-13047634Y1825372D01*
G01X-13054951Y1835151D01*
G01X-13063154Y1844175D01*
G01X-13072177Y1852377D01*
G01X-13081957Y1859695D01*
G01X-13092428Y1866063D01*
G01X-13103528Y1871418D01*
G01X-13115190Y1875695D01*
G01X-13127352Y1878829D01*
G01X-13139948Y1880757D01*
G01X-13152914Y1881414D01*
G01X-13165881Y1880757D01*
G01X-13178477Y1878829D01*
G01X-13190638Y1875695D01*
G01X-13202301Y1871418D01*
G01X-13213400Y1866063D01*
G01X-13223872Y1859695D01*
G01X-13233651Y1852377D01*
G01X-13242675Y1844175D01*
G01X-13250877Y1835151D01*
G01X-13258195Y1825372D01*
G01X-13264563Y1814900D01*
G01X-13269918Y1803801D01*
G01X-13274195Y1792138D01*
G01X-13277330Y1779977D01*
G01X-13279257Y1767381D01*
G01X-13279914Y1754414D01*
G01X-13305314Y1754414D01*
G01X-13305116Y1762257D01*
G01X-13304528Y1769998D01*
G01X-13303558Y1777625D01*
G01X-13302218Y1785130D01*
G01X-13298463Y1799736D01*
G01X-13293339Y1813738D01*
G01X-13286922Y1827060D01*
G01X-13279289Y1839626D01*
G01X-13270516Y1851358D01*
G01X-13260680Y1862180D01*
G01X-13249858Y1872016D01*
G01X-13238126Y1880789D01*
G01X-13225560Y1888422D01*
G01X-13212238Y1894839D01*
G01X-13198236Y1899963D01*
G01X-13183630Y1903718D01*
G01X-13176125Y1905058D01*
G01X-13168498Y1906028D01*
G01X-13160757Y1906616D01*
G01X-13152914Y1906814D01*
G01X-13145071Y1906616D01*
G01X-13137331Y1906028D01*
G01X-13129704Y1905058D01*
G01X-13122198Y1903718D01*
G01X-13107592Y1899963D01*
G01X-13093590Y1894839D01*
G01X-13080268Y1888422D01*
G01X-13067703Y1880789D01*
G01X-13055971Y1872016D01*
G01X-13045148Y1862180D01*
G01X-13035313Y1851358D01*
G01X-13026540Y1839626D01*
G01X-13018907Y1827060D01*
G01X-13012490Y1813738D01*
G01X-13007365Y1799736D01*
G01X-13003610Y1785130D01*
G01X-13002270Y1777625D01*
G01X-13001301Y1769998D01*
G01X-13000713Y1762257D01*
G01X-13000514Y1754414D01*
G01X-13000713Y1746571D01*
G01X-13001301Y1738831D01*
G01X-13002270Y1731204D01*
G01X-13003610Y1723698D01*
G01X-13007365Y1709092D01*
G01X-13012490Y1695090D01*
G01X-13018907Y1681768D01*
G01X-13026540Y1669203D01*
G01X-13035313Y1657471D01*
G01X-13045148Y1646648D01*
G01X-13055971Y1636813D01*
G01X-13067703Y1628040D01*
G01X-13080268Y1620407D01*
G01X-13093590Y1613990D01*
G01X-13107592Y1608865D01*
G01X-13122198Y1605110D01*
G01X-13129704Y1603770D01*
G01X-13137331Y1602801D01*
G37*
G36*
G01X-13000514Y165100D02*
G01X-13070542Y12700D01*
G01X-13000514Y-139700D01*
G01X-13152914Y-69672D01*
G01X-13305314Y-139700D01*
G01X-13281552Y-87986D01*
G01X-13253600Y-87986D01*
G01X-13163531Y-46584D01*
G01X-13152914Y-41707D01*
G01X-13142297Y-46584D01*
G01X-13052229Y-87986D01*
G01X-13093631Y2083D01*
G01X-13098507Y12700D01*
G01X-13093631Y23317D01*
G01X-13052229Y113386D01*
G01X-13142297Y71984D01*
G01X-13152914Y67107D01*
G01X-13163531Y71984D01*
G01X-13253600Y113386D01*
G01X-13212198Y23317D01*
G01X-13207321Y12700D01*
G01X-13212198Y2083D01*
G01X-13212198Y2083D01*
G01X-13253600Y-87986D01*
G01X-13281552Y-87986D01*
G01X-13235286Y12700D01*
G01X-13305314Y165100D01*
G01X-13152914Y95072D01*
G01X-13000514Y165100D01*
G37*
G36*
G01X-13305314Y1326243D02*
G01X-13000514Y1326243D01*
G01X-13152914Y1062286D01*
G01X-13290649Y1300843D01*
G01X-13261321Y1300843D01*
G01X-13152914Y1113086D01*
G01X-13044507Y1300843D01*
G01X-13044507Y1300843D01*
G01X-13261321Y1300843D01*
G01X-13290649Y1300843D01*
G01X-13305314Y1326243D01*
G37*
G36*
G01X-13305314Y2487386D02*
G01X-13025914Y2487386D01*
G01X-13025914Y2207986D01*
G01X-13305314Y2207986D01*
G01X-13305314Y2461986D01*
G01X-13279914Y2461986D01*
G01X-13279914Y2233386D01*
G01X-13051314Y2233386D01*
G01X-13051314Y2461986D01*
G01X-13051314Y2461986D01*
G01X-13279914Y2461986D01*
G01X-13305314Y2461986D01*
G01X-13305314Y2487386D01*
G37*

G04 PolygonModel Start*
G54D16*
G01X-13595600Y-270329D02*
G01X3123261Y-270329D01*
G01X-13595600Y310243D02*
G01X3123261Y310243D01*
G01X-13595600Y890814D02*
G01X3123261Y890814D01*
G01X-13595600Y1471386D02*
G01X3123261Y1471386D01*
G01X-13595600Y2051957D02*
G01X3123261Y2051957D01*
G01X-13595600Y2632529D02*
G01X3123261Y2632529D01*
G01X-13595600Y3213100D02*
G01X3123261Y3213100D01*
G01X-13595600Y3213100D02*
G01X-13595600Y-244929D01*
G01X-12144171Y3213100D02*
G01X-12144171Y-244929D01*
G01X-10730008Y3213100D02*
G01X-10730008Y-244929D01*
G01X-6836043Y3213100D02*
G01X-6836043Y-244929D01*
G01X-5374636Y3213100D02*
G01X-5374636Y-244929D01*
G01X-3943455Y3213100D02*
G01X-3943455Y-244929D01*
G01X-2274276Y3213100D02*
G01X-2274276Y-244929D01*
G01X-354907Y3213100D02*
G01X-354907Y-244929D01*
G01X3123261Y3213100D02*
G01X3123261Y-244929D01*

M02*

