G04 Layer: BottomLayer*
G04 EasyEDA Pro v3.2.149.88089769, 2026-09-14 11:30:23*
G04 Gerber Generator version 0.3*
G04 Scale: 100 percent, Rotated: No, Reflected: No*
G04 Dimensions in millimeters*
G04 Leading zeros omitted, absolute positions, 4 integers and 5 decimals*
G04 Generated by one-click*
G04 Object Configs: Pad,Via,Track,Text,Image,Dimension,BoardOutline,BoardCutout,CopperFilled,SolidRegion,FPCStiffener,Line,PlaneZone,ComponentProperty,ComponentSilkscreen,TearDrop*
G04 Layer Configs: 1,2,3,4,5,6,7,8,9,10,11,13,14,56*
G04 Copper Areas: 0*
%FSLAX45Y45*%
%MOMM*%
%ADD10R,1.8X1.8*%
%ADD11C,1.8*%
%ADD12C,2.0*%
%ADD13C,1.55001*%
%ADD14C,1.4*%
%ADD15C,1.7522*%
%ADD16C,1.75001*%
%ADD17C,1.6*%
%ADD18R,1.6X1.6*%
%ADD19C,0.254*%
%ADD20C,0.762*%
G75*


G04 Pad Start*
G54D10*
G01X-16510000Y685800D03*
G54D11*
G01X-16510000Y431800D03*
G01X-16510000Y177800D03*
G01X-16510000Y-76200D03*
G01X-16510000Y-330200D03*
G01X-16510000Y-584200D03*
G01X-20878800Y1433195D03*
G01X-20878800Y1183005D03*
G54D12*
G01X-19274599Y2844800D03*
G01X-18774600Y2844800D03*
G54D13*
G01X-20925599Y2133600D03*
G01X-20675587Y2133600D03*
G01X-20425600Y2133600D03*
G01X-19837633Y2133600D03*
G01X-19587621Y2133600D03*
G01X-19337634Y2133600D03*
G01X-18749666Y2133600D03*
G01X-18499654Y2133600D03*
G01X-18249667Y2133600D03*
G01X-17674399Y2133600D03*
G01X-17424387Y2133600D03*
G01X-17174400Y2133600D03*
G01X-16484600Y2853500D03*
G01X-16484600Y2603487D03*
G01X-16484600Y2353501D03*
G01X-16484600Y1786700D03*
G01X-16484600Y1536687D03*
G01X-16484600Y1286701D03*
G01X-16484600Y-1261300D03*
G01X-16484600Y-1511313D03*
G01X-16484600Y-1761299D03*
G01X-16941800Y-2328100D03*
G01X-16941800Y-2578113D03*
G01X-16941800Y-2828099D03*
G01X-17584420Y-2328100D03*
G01X-17584420Y-2578113D03*
G01X-17584420Y-2828099D03*
G01X-18227040Y-2328100D03*
G01X-18227040Y-2578113D03*
G01X-18227040Y-2828099D03*
G01X-18869660Y-2328100D03*
G01X-18869660Y-2578113D03*
G01X-18869660Y-2828099D03*
G01X-19512280Y-2328100D03*
G01X-19512280Y-2578113D03*
G01X-19512280Y-2828099D03*
G01X-20154900Y-2328100D03*
G01X-20154900Y-2578113D03*
G01X-20154900Y-2828099D03*
G01X-20777200Y-1642300D03*
G01X-20777200Y-1892313D03*
G01X-20777200Y-2142299D03*
G01X-20777200Y-537400D03*
G01X-20777200Y-787413D03*
G01X-20777200Y-1037399D03*
G01X-20777200Y567500D03*
G01X-20777200Y317487D03*
G01X-20777200Y67501D03*
G54D14*
G01X-18213807Y2667000D03*
G01X-17193793Y2667000D03*
G01X-18213807Y2971800D03*
G01X-17193793Y2971800D03*
G54D16*
G01X-20193000Y2707107D03*
G01X-20193000Y2957093D03*
G54D17*
G01X-15824200Y-2453640D03*
G01X-16078200Y-2453640D03*
G01X-15824200Y-2199640D03*
G01X-16078200Y-2199640D03*
G01X-15824200Y-1945640D03*
G01X-16078200Y-1945640D03*
G01X-15824200Y-1691640D03*
G01X-16078200Y-1691640D03*
G01X-15824200Y-1437640D03*
G01X-16078200Y-1437640D03*
G01X-15824200Y-1183640D03*
G01X-16078200Y-1183640D03*
G01X-15824200Y-929640D03*
G01X-16078200Y-929640D03*
G01X-15824200Y-675640D03*
G01X-16078200Y-675640D03*
G01X-15824200Y-421640D03*
G01X-16078200Y-421640D03*
G01X-15824200Y-167640D03*
G01X-16078200Y-167640D03*
G01X-15824200Y86360D03*
G01X-16078200Y86360D03*
G01X-15824200Y340360D03*
G01X-16078200Y340360D03*
G01X-15824200Y594360D03*
G01X-16078200Y594360D03*
G01X-15824200Y848360D03*
G01X-16078200Y848360D03*
G01X-15824200Y1102360D03*
G01X-16078200Y1102360D03*
G01X-15824200Y1356360D03*
G01X-16078200Y1356360D03*
G01X-15824200Y1610360D03*
G01X-16078200Y1610360D03*
G01X-15824200Y1864360D03*
G01X-16078200Y1864360D03*
G01X-15824200Y2118360D03*
G01X-16078200Y2118360D03*
G01X-15824200Y2372360D03*
G54D18*
G01X-16078200Y2372360D03*
G04 Pad End*

G04 Track Start*
G54D19*
G01X-16509997Y177800D02*
G01X-16169638Y177800D01*
G01X-16078198Y86360D01*
G01X-16509997Y-76200D02*
G01X-16169638Y-76200D01*
G01X-16078198Y-167640D01*
G01X-16509997Y-330199D02*
G01X-16169638Y-330199D01*
G01X-16078198Y-421639D01*
G01X-20193000Y2707115D02*
G01X-19412291Y2707115D01*
G01X-19274601Y2844804D01*
G54D20*
G01X-15824198Y2372355D02*
G01X-15824198Y2118356D01*
G54D19*
G01X-16078198Y1864356D02*
G01X-16156928Y1864356D01*
G01X-16484597Y1536687D01*
G01X-16484597Y2603495D02*
G01X-16954486Y2603495D01*
G01X-17424385Y2133596D01*
G01X-16484597Y-1511307D02*
G01X-16814796Y-1841506D01*
G01X-16814796Y-2451115D01*
G01X-16941796Y-2578115D01*
G01X-20777198Y317489D02*
G01X-20650199Y190490D01*
G01X-20650199Y-660409D01*
G01X-20777198Y-787408D01*
G01X-20777198Y-1892306D02*
G01X-20777198Y-1955816D01*
G01X-20154900Y-2578115D01*
G01X-19512281Y-2578115D01*
G01X-18869662Y-2578115D01*
G01X-18227044Y-2578115D01*
G01X-17584425Y-2578115D01*
G01X-16509997Y685799D02*
G01X-16509997Y1261297D01*
G01X-16484597Y1286697D01*
G01X-16459197Y1337497D02*
G01X-16611597Y1489897D01*
G01X-16611597Y2226506D02*
G01X-16484597Y2353505D01*
G01X-16611597Y1845496D02*
G01X-16886296Y1845496D01*
G01X-17174396Y2133596D01*
G01X-18249664Y2133596D02*
G01X-18757662Y2641595D01*
G01X-18757662Y2827864D01*
G01X-18757662Y2641595D02*
G01X-18829632Y2641595D01*
G01X-19337631Y2133596D01*
G01X-19464631Y2260595D01*
G01X-19896430Y2260595D01*
G01X-20023430Y2133596D01*
G01X-20277429Y2133596D01*
G01X-20302829Y2158996D01*
G01X-20400199Y2158996D01*
G01X-20425599Y2133596D01*
G01X-20302829Y2158996D02*
G01X-20328229Y2184396D01*
G01X-20328229Y2821864D01*
G01X-20193000Y2957094D01*
G01X-20425599Y2133596D02*
G01X-20425599Y1636197D01*
G01X-20878798Y1182998D01*
G01X-20904198Y1157598D01*
G01X-20904198Y194500D01*
G01X-20777198Y67500D01*
G01X-20904198Y-59500D01*
G01X-20904198Y-910398D01*
G01X-20777198Y-1037398D01*
G01X-20904198Y-1164398D01*
G01X-20904198Y-2015296D01*
G01X-20777198Y-2142296D01*
G01X-20777198Y-2205806D01*
G01X-20154900Y-2828104D01*
G01X-19512281Y-2828104D01*
G01X-18869662Y-2828104D01*
G01X-18227044Y-2828104D01*
G01X-17584425Y-2828104D01*
G01X-16941796Y-2828104D01*
G01X-16484597Y-2370905D01*
G01X-16484597Y-1761296D01*
G01X-16484597Y1786696D02*
G01X-16484597Y1965956D01*
G01X-16078198Y2372355D01*
G01X-16078198Y2372355D02*
G01X-16484597Y2778754D01*
G01X-16484597Y2853504D01*
G01X-16484597Y2778754D02*
G01X-16884596Y2778754D01*
G01X-16986196Y2677155D01*
G01X-17183646Y2677155D02*
G01X-17193796Y2667005D01*
G01X-17170396Y2677155D02*
G01X-17170396Y2948404D01*
G01X-17193796Y2971804D01*
G01X-17193796Y2667005D02*
G01X-17193796Y2614195D01*
G01X-17674395Y2133596D01*
G01X-17801394Y2006596D01*
G01X-18622663Y2006596D01*
G01X-18749663Y2133596D01*
G01X-18876662Y2006596D01*
G01X-19710631Y2006596D01*
G01X-19837630Y2133596D01*
G01X-20777198Y-1642297D02*
G01X-20777198Y-1705807D01*
G01X-20154900Y-2328105D01*
G01X-19512281Y-2328105D01*
G01X-18869662Y-2328105D01*
G01X-18227044Y-2328105D01*
G01X-17584425Y-2328105D01*
G01X-16941796Y-2328105D01*
G01X-16941796Y-1718497D01*
G01X-16484597Y-1261297D01*
G01X-16611597Y1489897D02*
G01X-16611597Y1845496D01*
G01X-16611597Y2226506D01*
G01X-16986196Y2677155D02*
G01X-17170396Y2677155D01*
G01X-17183646Y2677155D01*
G01X-16414937Y1356357D02*
G01X-16078200Y1356357D01*
G01X-16484597Y1286697D02*
G01X-16414937Y1356357D01*
G54D20*
G01X-18749200Y2819400D02*
G01X-17607175Y2819400D01*
G01X-18774600Y2844800D02*
G01X-18757662Y2827862D01*
G01X-18749200Y2819400D01*
G01X-17607175Y2819400D02*
G01X-17302375Y3124200D01*
G01X-16567351Y3124200D01*
G01X-16442251Y2999100D01*
G01X-16424290Y2999100D01*
G01X-16306800Y2881610D01*
G01X-16306800Y2743200D01*
G01X-16103600Y2540000D01*
G01X-15743100Y2540000D01*
G01X-15671800Y2468700D01*
G01X-15671800Y2016760D01*
G01X-15824200Y1864360D01*
G04 Track End*

M02*

