G04 Layer: BottomSolderMaskLayer*
G04 EasyEDA Pro v3.2.149.88089769, 2026-09-14 11:30:23*
G04 Gerber Generator version 0.3*
G04 Scale: 100 percent, Rotated: No, Reflected: No*
G04 Dimensions in millimeters*
G04 Leading zeros omitted, absolute positions, 4 integers and 5 decimals*
G04 Generated by one-click*
G04 Object Configs: Pad,Via,Track,Text,Image,Dimension,BoardOutline,BoardCutout,CopperFilled,SolidRegion,FPCStiffener,Line,PlaneZone,ComponentProperty,ComponentSilkscreen,TearDrop*
G04 Layer Configs: 1,2,3,4,5,6,7,8,9,10,11,13,14,56*
G04 Copper Areas: 0*
%FSLAX45Y45*%
%MOMM*%
%AMRoundRect*1,1,$1,$2,$3*1,1,$1,$4,$5*1,1,$1,0-$2,0-$3*1,1,$1,0-$4,0-$5*20,1,$1,$2,$3,$4,$5,0*20,1,$1,$4,$5,0-$2,0-$3,0*20,1,$1,0-$2,0-$3,0-$4,0-$5,0*20,1,$1,0-$4,0-$5,$2,$3,0*4,1,4,$2,$3,$4,$5,0-$2,0-$3,0-$4,0-$5,$2,$3,0*%
%ADD10RoundRect,0.1016X-0.9X-0.9X-0.9X0.9*%
%ADD11C,1.9016*%
%ADD12C,2.1016*%
%ADD13C,1.65161*%
%ADD14C,1.5016*%
%ADD15C,1.8562*%
%ADD16C,1.85003*%
%ADD17C,1.7016*%
%ADD18RoundRect,0.1016X-0.8X-0.8X-0.8X0.8*%
G75*


G04 Pad Start*
G54D10*
G01X-16510000Y685800D03*
G54D11*
G01X-16510000Y431800D03*
G01X-16510000Y177800D03*
G01X-16510000Y-76200D03*
G01X-16510000Y-330200D03*
G01X-16510000Y-584200D03*
G01X-20878800Y1433195D03*
G01X-20878800Y1183005D03*
G54D12*
G01X-19274599Y2844800D03*
G01X-18774600Y2844800D03*
G54D13*
G01X-20925599Y2133600D03*
G01X-20675587Y2133600D03*
G01X-20425600Y2133600D03*
G01X-19837633Y2133600D03*
G01X-19587621Y2133600D03*
G01X-19337634Y2133600D03*
G01X-18749666Y2133600D03*
G01X-18499654Y2133600D03*
G01X-18249667Y2133600D03*
G01X-17674399Y2133600D03*
G01X-17424387Y2133600D03*
G01X-17174400Y2133600D03*
G01X-16484600Y2853500D03*
G01X-16484600Y2603487D03*
G01X-16484600Y2353501D03*
G01X-16484600Y1786700D03*
G01X-16484600Y1536687D03*
G01X-16484600Y1286701D03*
G01X-16484600Y-1261300D03*
G01X-16484600Y-1511313D03*
G01X-16484600Y-1761299D03*
G01X-16941800Y-2328100D03*
G01X-16941800Y-2578113D03*
G01X-16941800Y-2828099D03*
G01X-17584420Y-2328100D03*
G01X-17584420Y-2578113D03*
G01X-17584420Y-2828099D03*
G01X-18227040Y-2328100D03*
G01X-18227040Y-2578113D03*
G01X-18227040Y-2828099D03*
G01X-18869660Y-2328100D03*
G01X-18869660Y-2578113D03*
G01X-18869660Y-2828099D03*
G01X-19512280Y-2328100D03*
G01X-19512280Y-2578113D03*
G01X-19512280Y-2828099D03*
G01X-20154900Y-2328100D03*
G01X-20154900Y-2578113D03*
G01X-20154900Y-2828099D03*
G01X-20777200Y-1642300D03*
G01X-20777200Y-1892313D03*
G01X-20777200Y-2142299D03*
G01X-20777200Y-537400D03*
G01X-20777200Y-787413D03*
G01X-20777200Y-1037399D03*
G01X-20777200Y567500D03*
G01X-20777200Y317487D03*
G01X-20777200Y67501D03*
G54D14*
G01X-18213807Y2667000D03*
G01X-17193793Y2667000D03*
G01X-18213807Y2971800D03*
G01X-17193793Y2971800D03*
G54D16*
G01X-20193000Y2707107D03*
G01X-20193000Y2957093D03*
G54D17*
G01X-15824200Y-2453640D03*
G01X-16078200Y-2453640D03*
G01X-15824200Y-2199640D03*
G01X-16078200Y-2199640D03*
G01X-15824200Y-1945640D03*
G01X-16078200Y-1945640D03*
G01X-15824200Y-1691640D03*
G01X-16078200Y-1691640D03*
G01X-15824200Y-1437640D03*
G01X-16078200Y-1437640D03*
G01X-15824200Y-1183640D03*
G01X-16078200Y-1183640D03*
G01X-15824200Y-929640D03*
G01X-16078200Y-929640D03*
G01X-15824200Y-675640D03*
G01X-16078200Y-675640D03*
G01X-15824200Y-421640D03*
G01X-16078200Y-421640D03*
G01X-15824200Y-167640D03*
G01X-16078200Y-167640D03*
G01X-15824200Y86360D03*
G01X-16078200Y86360D03*
G01X-15824200Y340360D03*
G01X-16078200Y340360D03*
G01X-15824200Y594360D03*
G01X-16078200Y594360D03*
G01X-15824200Y848360D03*
G01X-16078200Y848360D03*
G01X-15824200Y1102360D03*
G01X-16078200Y1102360D03*
G01X-15824200Y1356360D03*
G01X-16078200Y1356360D03*
G01X-15824200Y1610360D03*
G01X-16078200Y1610360D03*
G01X-15824200Y1864360D03*
G01X-16078200Y1864360D03*
G01X-15824200Y2118360D03*
G01X-16078200Y2118360D03*
G01X-15824200Y2372360D03*
G54D18*
G01X-16078200Y2372360D03*
G04 Pad End*

M02*

